%TF.GenerationSoftware,KiCad,Pcbnew,10.0.2*%
%TF.CreationDate,2026-05-15T21:23:50+02:00*%
%TF.ProjectId,oas,6f61732e-6b69-4636-9164-5f7063625858,rev?*%
%TF.SameCoordinates,Original*%
%TF.FileFunction,Copper,L2,Bot*%
%TF.FilePolarity,Positive*%
%FSLAX46Y46*%
G04 Gerber Fmt 4.6, Leading zero omitted, Abs format (unit mm)*
G04 Created by KiCad (PCBNEW 10.0.2) date 2026-05-15 21:23:50*
%MOMM*%
%LPD*%
G01*
G04 APERTURE LIST*
G04 Aperture macros list*
%AMRoundRect*
0 Rectangle with rounded corners*
0 $1 Rounding radius*
0 $2 $3 $4 $5 $6 $7 $8 $9 X,Y pos of 4 corners*
0 Add a 4 corners polygon primitive as box body*
4,1,4,$2,$3,$4,$5,$6,$7,$8,$9,$2,$3,0*
0 Add four circle primitives for the rounded corners*
1,1,$1+$1,$2,$3*
1,1,$1+$1,$4,$5*
1,1,$1+$1,$6,$7*
1,1,$1+$1,$8,$9*
0 Add four rect primitives between the rounded corners*
20,1,$1+$1,$2,$3,$4,$5,0*
20,1,$1+$1,$4,$5,$6,$7,0*
20,1,$1+$1,$6,$7,$8,$9,0*
20,1,$1+$1,$8,$9,$2,$3,0*%
G04 Aperture macros list end*
%TA.AperFunction,ComponentPad*%
%ADD10R,1.000000X1.000000*%
%TD*%
%TA.AperFunction,ComponentPad*%
%ADD11C,1.000000*%
%TD*%
%TA.AperFunction,ComponentPad*%
%ADD12RoundRect,0.249999X0.790001X1.550001X-0.790001X1.550001X-0.790001X-1.550001X0.790001X-1.550001X0*%
%TD*%
%TA.AperFunction,ComponentPad*%
%ADD13O,2.080000X3.600000*%
%TD*%
%TA.AperFunction,ComponentPad*%
%ADD14R,1.700000X1.700000*%
%TD*%
%TA.AperFunction,ComponentPad*%
%ADD15C,1.700000*%
%TD*%
%TA.AperFunction,ComponentPad*%
%ADD16R,1.600000X1.600000*%
%TD*%
%TA.AperFunction,ComponentPad*%
%ADD17C,1.600000*%
%TD*%
%TA.AperFunction,ViaPad*%
%ADD18C,0.600000*%
%TD*%
%TA.AperFunction,Conductor*%
%ADD19C,0.250000*%
%TD*%
G04 APERTURE END LIST*
D10*
%TO.P,J4,1*%
%TO.N,/MCU/LD2410_OUT*%
X-44740000Y-19050000D03*
D11*
%TO.P,J4,2*%
%TO.N,/MCU/UART_RX*%
X-46010000Y-19050000D03*
%TO.P,J4,3*%
%TO.N,/MCU/UART_TX*%
X-47280000Y-19050000D03*
%TO.P,J4,4*%
%TO.N,GND*%
X-48550000Y-19050000D03*
%TO.P,J4,5*%
%TO.N,+5V*%
X-49820000Y-19050000D03*
%TD*%
D12*
%TO.P,J1,1*%
%TO.N,Net-(D1-A1)*%
X5080000Y-22400000D03*
D13*
%TO.P,J1,2*%
%TO.N,GND*%
X0Y-22400000D03*
%TO.P,J1,3*%
%TO.N,Earth_Protective*%
X-5080000Y-22400000D03*
%TD*%
D14*
%TO.P,J10,1*%
%TO.N,GND*%
X9400000Y-41000000D03*
D15*
%TO.P,J10,2*%
%TO.N,+3V3*%
X9400000Y-38460000D03*
%TO.P,J10,3*%
%TO.N,/IO/USB_DM*%
X9400000Y-35920000D03*
%TO.P,J10,4*%
%TO.N,/IO/USB_DP*%
X9400000Y-33380000D03*
%TO.P,J10,5*%
%TO.N,/IO/EN*%
X9400000Y-30840000D03*
%TO.P,J10,6*%
%TO.N,/IO/BOOT*%
X9400000Y-28300000D03*
%TD*%
D14*
%TO.P,J5,1*%
%TO.N,+3V3*%
X-22390000Y25970000D03*
D15*
%TO.P,J5,2*%
%TO.N,/IO/EN*%
X-19850000Y25970000D03*
%TO.P,J5,3*%
%TO.N,/MCU/LD2410_OUT*%
X-17310000Y25970000D03*
%TO.P,J5,4*%
%TO.N,/MCU/NFC_FD*%
X-14770000Y25970000D03*
%TO.P,J5,5*%
%TO.N,unconnected-(J5-Pin_5-Pad5)*%
X-12230000Y25970000D03*
%TO.P,J5,6*%
%TO.N,unconnected-(J5-Pin_6-Pad6)*%
X-9690000Y25970000D03*
%TO.P,J5,7*%
%TO.N,unconnected-(J5-Pin_7-Pad7)*%
X-7150000Y25970000D03*
%TO.P,J5,8*%
%TO.N,unconnected-(J5-Pin_8-Pad8)*%
X-4610000Y25970000D03*
%TO.P,J5,9*%
%TO.N,/MCU/WS2812_DIN*%
X-2070000Y25970000D03*
%TO.P,J5,10*%
%TO.N,/IO/I2C_SDA*%
X470000Y25970000D03*
%TO.P,J5,11*%
%TO.N,/IO/I2C_SCL*%
X3010000Y25970000D03*
%TO.P,J5,12*%
%TO.N,unconnected-(J5-Pin_12-Pad12)*%
X5550000Y25970000D03*
%TO.P,J5,13*%
%TO.N,GND*%
X8090000Y25970000D03*
%TO.P,J5,14*%
%TO.N,unconnected-(J5-Pin_14-Pad14)*%
X10630000Y25970000D03*
%TO.P,J5,15*%
%TO.N,GND*%
X13170000Y25970000D03*
%TD*%
D14*
%TO.P,J6,1*%
%TO.N,GND*%
X-22390000Y48830000D03*
D15*
%TO.P,J6,2*%
%TO.N,/MCU/UART_TX*%
X-19850000Y48830000D03*
%TO.P,J6,3*%
%TO.N,/MCU/UART_RX*%
X-17310000Y48830000D03*
%TO.P,J6,4*%
%TO.N,unconnected-(J6-Pin_4-Pad4)*%
X-14770000Y48830000D03*
%TO.P,J6,5*%
%TO.N,unconnected-(J6-Pin_5-Pad5)*%
X-12230000Y48830000D03*
%TO.P,J6,6*%
%TO.N,unconnected-(J6-Pin_6-Pad6)*%
X-9690000Y48830000D03*
%TO.P,J6,7*%
%TO.N,unconnected-(J6-Pin_7-Pad7)*%
X-7150000Y48830000D03*
%TO.P,J6,8*%
%TO.N,unconnected-(J6-Pin_8-Pad8)*%
X-4610000Y48830000D03*
%TO.P,J6,9*%
%TO.N,unconnected-(J6-Pin_9-Pad9)*%
X-2070000Y48830000D03*
%TO.P,J6,10*%
%TO.N,unconnected-(J6-Pin_10-Pad10)*%
X470000Y48830000D03*
%TO.P,J6,11*%
%TO.N,/IO/BOOT*%
X3010000Y48830000D03*
%TO.P,J6,12*%
%TO.N,GND*%
X5550000Y48830000D03*
%TO.P,J6,13*%
%TO.N,/IO/USB_DP*%
X8090000Y48830000D03*
%TO.P,J6,14*%
%TO.N,/IO/USB_DM*%
X10630000Y48830000D03*
%TO.P,J6,15*%
%TO.N,GND*%
X13170000Y48830000D03*
%TD*%
D14*
%TO.P,J7,1*%
%TO.N,unconnected-(J7-Pin_1-Pad1)*%
X-14030000Y-38100000D03*
D15*
%TO.P,J7,2*%
%TO.N,unconnected-(J7-Pin_2-Pad2)*%
X-14030000Y-35560000D03*
%TO.P,J7,3*%
%TO.N,unconnected-(J7-Pin_3-Pad3)*%
X-14030000Y-33020000D03*
%TO.P,J7,4*%
%TO.N,unconnected-(J7-Pin_4-Pad4)*%
X-14030000Y-30480000D03*
%TO.P,J7,5*%
%TO.N,unconnected-(J7-Pin_5-Pad5)*%
X-14030000Y-27940000D03*
%TO.P,J7,6*%
%TO.N,unconnected-(J7-Pin_6-Pad6)*%
X-14030000Y-25400000D03*
%TO.P,J7,7*%
%TO.N,+3V3*%
X-14030000Y-22860000D03*
%TO.P,J7,8*%
%TO.N,GND*%
X-14030000Y-20320000D03*
%TD*%
D14*
%TO.P,J8,1*%
%TO.N,unconnected-(J8-Pin_1-Pad1)*%
X-36890000Y-38100000D03*
D15*
%TO.P,J8,2*%
%TO.N,/MCU/NFC_FD*%
X-36890000Y-35560000D03*
%TO.P,J8,3*%
%TO.N,unconnected-(J8-Pin_3-Pad3)*%
X-36890000Y-33020000D03*
%TO.P,J8,4*%
%TO.N,unconnected-(J8-Pin_4-Pad4)*%
X-36890000Y-30480000D03*
%TO.P,J8,5*%
%TO.N,/IO/I2C_SCL*%
X-36890000Y-27940000D03*
%TO.P,J8,6*%
%TO.N,/IO/I2C_SDA*%
X-36890000Y-25400000D03*
%TO.P,J8,7*%
%TO.N,unconnected-(J8-Pin_7-Pad7)*%
X-36890000Y-22860000D03*
%TO.P,J8,8*%
%TO.N,GND*%
X-36890000Y-20320000D03*
%TD*%
D16*
%TO.P,C1,1*%
%TO.N,+24V*%
X38250000Y-36000000D03*
D17*
%TO.P,C1,2*%
%TO.N,GND*%
X41750000Y-36000000D03*
%TD*%
D16*
%TO.P,C3,1*%
%TO.N,+24V*%
X-35750000Y24000000D03*
D17*
%TO.P,C3,2*%
%TO.N,GND*%
X-32250000Y24000000D03*
%TD*%
D16*
%TO.P,C4,1*%
%TO.N,+5V*%
X23750000Y47000000D03*
D17*
%TO.P,C4,2*%
%TO.N,GND*%
X26250000Y47000000D03*
%TD*%
D14*
%TO.P,J2,1*%
%TO.N,+3V3*%
X-54000000Y8000000D03*
D15*
%TO.P,J2,2*%
%TO.N,GND*%
X-54000000Y5460000D03*
%TO.P,J2,3*%
%TO.N,/MCU/UART_TX*%
X-54000000Y2920000D03*
%TO.P,J2,4*%
%TO.N,/MCU/UART_RX*%
X-54000000Y380000D03*
%TO.P,J2,5*%
%TO.N,/IO/EN*%
X-54000000Y-2160000D03*
%TO.P,J2,6*%
%TO.N,/IO/BOOT*%
X-54000000Y-4700000D03*
%TD*%
D18*
%TO.N,GND*%
X-1800000Y46000000D03*
X34125000Y-25150000D03*
%TO.N,+24V*%
X2102800Y29809600D03*
X6834200Y7199300D03*
X38116800Y-12488600D03*
%TO.N,+3V3*%
X-38435200Y8573600D03*
X-33002300Y-17645300D03*
%TO.N,+5V*%
X9853200Y34116600D03*
X9894400Y14176600D03*
X11037700Y40228500D03*
X17809200Y47000000D03*
%TO.N,/IO/I2C_SCL*%
X-29810900Y-17445100D03*
X25711300Y-23829900D03*
X27965100Y-26974800D03*
%TO.N,/MCU/WS2812_DIN*%
X5947300Y5844700D03*
%TO.N,Earth_Protective*%
X-31170800Y19008700D03*
X-29590400Y-9799300D03*
%TO.N,Net-(D1-A1)*%
X23457300Y-12488600D03*
X26844600Y-27024500D03*
%TO.N,Net-(U2-FB)*%
X-1564200Y45027900D03*
X7774900Y46298000D03*
%TO.N,GND*%
X-21337000Y30066100D03*
X-66400Y33849500D03*
X-2094100Y6651200D03*
X6016700Y30746000D03*
X247600Y-7551700D03*
X6035000Y-6047500D03*
X8073300Y2825800D03*
X-6848200Y6849600D03*
X-7600600Y-2450500D03*
X-5529100Y-5918800D03*
X6803300Y1164200D03*
X-4300000Y30900400D03*
X6829400Y48050600D03*
X13679400Y45974500D03*
X13102000Y32514000D03*
X11802000Y20740600D03*
X-10000000Y-5000000D03*
X-7500000Y-9500000D03*
X-11000000Y-4000000D03*
X8000000Y8000000D03*
X-4500000Y42000000D03*
X4000000Y33000000D03*
X11000000Y-3000000D03*
X10500000Y24500000D03*
X8000000Y-42000000D03*
X33150000Y-39500000D03*
X-45000000Y10000000D03*
X50000000Y10000000D03*
X-25000000Y-35000000D03*
X-30000000Y5000000D03*
X5000000Y53000000D03*
%TO.N,/IO/I2C_SDA*%
X31150000Y-40500000D03*
X31150000Y-26000000D03*
%TO.N,/IO/EN*%
X-43500000Y-31750000D03*
X-43500000Y-2500000D03*
%TO.N,/IO/I2C_SCL*%
X30150000Y-40500000D03*
%TO.N,/IO/USB_DM*%
X22500000Y-36500000D03*
X22500000Y47700000D03*
%TO.N,/IO/USB_DP*%
X18500000Y-32200000D03*
%TO.N,GND*%
X7600000Y-600000D03*
X-4320000Y-6630000D03*
X-7050000Y-3580000D03*
X900000Y30000000D03*
X-4500000Y44500000D03*
%TD*%
%TO.N,+24V*%
D19*
X2102800Y29809600D02*
X4280000Y27632400D01*
X4280000Y27632400D02*
X4280000Y21955500D01*
X4280000Y21955500D02*
X6834200Y19401300D01*
X6834200Y19401300D02*
X6834200Y7199300D01*
X38116800Y-12488600D02*
X38250000Y-12621800D01*
X38250000Y-12621800D02*
X38250000Y-36000000D01*
%TO.N,+3V3*%
X-38435200Y8573600D02*
X-38435200Y-12212400D01*
X-38435200Y-12212400D02*
X-33002300Y-17645300D01*
%TO.N,+5V*%
X9853200Y39044000D02*
X9853200Y34116600D01*
X11037700Y40228500D02*
X9853200Y39044000D01*
X11037700Y40228500D02*
X14299100Y36967100D01*
X11037700Y40228500D02*
X17809200Y47000000D01*
X14299100Y36967100D02*
X14299100Y18581300D01*
X14299100Y18581300D02*
X9894400Y14176600D01*
%TO.N,/IO/BOOT*%
X3010000Y48830000D02*
X9276500Y42563500D01*
X9276500Y42563500D02*
X9276500Y-28176500D01*
X9276500Y-28176500D02*
X9400000Y-28300000D01*
%TO.N,/IO/I2C_SCL*%
X-38041100Y-24910400D02*
X-37117400Y-23986700D01*
X-38041100Y-26788900D02*
X-38041100Y-24910400D01*
X-37117400Y-23986700D02*
X-36344400Y-23986700D01*
X-36890000Y-27940000D02*
X-38041100Y-26788900D01*
X-36344400Y-23986700D02*
X-21197900Y-8840200D01*
X-21206000Y-8840200D02*
X-29810900Y-17445100D01*
X-21197900Y-8832100D02*
X-21189800Y-8832100D01*
X-21197900Y-8840200D02*
X-21206000Y-8840200D01*
X-21197900Y-8840200D02*
X-21197900Y-8832100D01*
X-21189800Y-8832100D02*
X-5880000Y6477700D01*
X-5880000Y26306300D02*
X-4612800Y27573500D01*
X-5880000Y6477700D02*
X-5880000Y26306300D01*
X-4612800Y27573500D02*
X1406500Y27573500D01*
X1406500Y27573500D02*
X3010000Y25970000D01*
X25711300Y-23829900D02*
X27965100Y-26083700D01*
X27965100Y-26083700D02*
X27965100Y-26974800D01*
%TO.N,/IO/I2C_SDA*%
X-36890000Y-25400000D02*
X-3340000Y8150000D01*
X-3340000Y26331600D02*
X-2556300Y27115300D01*
X-3340000Y8150000D02*
X-3340000Y26331600D01*
X-2556300Y27115300D02*
X-675300Y27115300D01*
X-675300Y27115300D02*
X470000Y25970000D01*
%TO.N,/MCU/LD2410_OUT*%
X-44740000Y6255000D02*
X-44740000Y-19050000D01*
X-23898300Y27096700D02*
X-44740000Y6255000D01*
X-18436700Y27096700D02*
X-23898300Y27096700D01*
X-17310000Y25970000D02*
X-18436700Y27096700D01*
%TO.N,/MCU/NFC_FD*%
X-38470700Y-22790600D02*
X-37270100Y-21590000D01*
X-38470700Y-33979300D02*
X-38470700Y-22790600D01*
X-37270100Y-21590000D02*
X-36131400Y-21590000D01*
X-36890000Y-35560000D02*
X-38470700Y-33979300D01*
X-36131400Y-21590000D02*
X-14770000Y-228600D01*
X-14770000Y-228600D02*
X-14770000Y25970000D01*
%TO.N,/MCU/UART_RX*%
X-46010000Y20130000D02*
X-46010000Y380000D01*
X-46010000Y380000D02*
X-54000000Y380000D01*
X-46010000Y380000D02*
X-46010000Y-19050000D01*
X-17310000Y48830000D02*
X-46010000Y20130000D01*
%TO.N,/MCU/UART_TX*%
X-55156900Y1763100D02*
X-55156900Y-116600D01*
X-55156900Y-116600D02*
X-54240200Y-1033300D01*
X-54240200Y-1033300D02*
X-53456000Y-1033300D01*
X-54000000Y2920000D02*
X-55156900Y1763100D01*
X-53456000Y-1033300D02*
X-47280000Y-7209300D01*
X-52585200Y16094800D02*
X-52585200Y4334800D01*
X-52585200Y4334800D02*
X-54000000Y2920000D01*
X-47280000Y-7209300D02*
X-47280000Y-19050000D01*
X-19850000Y48830000D02*
X-52585200Y16094800D01*
%TO.N,/MCU/WS2812_DIN*%
X5947300Y17952700D02*
X-2070000Y25970000D01*
X5947300Y5844700D02*
X5947300Y17952700D01*
%TO.N,Earth_Protective*%
X-31170800Y-8218900D02*
X-31170800Y19008700D01*
X-29590400Y-9799300D02*
X-31170800Y-8218900D01*
%TO.N,Net-(D1-A1)*%
X23457300Y-23637200D02*
X23457300Y-12488600D01*
X26844600Y-27024500D02*
X23457300Y-23637200D01*
%TO.N,Net-(U2-FB)*%
X-1564200Y45027900D02*
X1740200Y48332300D01*
X1740200Y49174000D02*
X2581700Y50015500D01*
X1740200Y48332300D02*
X1740200Y49174000D01*
X2581700Y50015500D02*
X3486200Y50015500D01*
X3486200Y50015500D02*
X4138500Y49363200D01*
X4138500Y49363200D02*
X4138500Y48554600D01*
X4138500Y48554600D02*
X6395100Y46298000D01*
X6395100Y46298000D02*
X7774900Y46298000D01*
%TO.N,/IO/I2C_SDA*%
X31150000Y-40500000D02*
X31150000Y-26000000D01*
%TO.N,/IO/EN*%
X-43500000Y-31750000D02*
X-43500000Y-2500000D01*
%TO.N,/IO/I2C_SCL*%
X30150000Y-40500000D02*
X30150000Y-27500000D01*
X30150000Y-27500000D02*
X27970000Y-27500000D01*
X27970000Y-27500000D02*
X27970000Y-26970000D01*
%TO.N,/IO/USB_DM*%
X22500000Y-36500000D02*
X22500000Y47700000D01*
%TO.N,/IO/USB_DP*%
X18500000Y-32200000D02*
X18500000Y50500000D01*
X18500000Y50500000D02*
X8090000Y50500000D01*
X8090000Y50500000D02*
X8090000Y48830000D01*
%TD*%
%TA.AperFunction,Conductor*%
%TO.N,GND*%
G36*
X12704075Y25777007D02*
G01*
X12769901Y25662993D01*
X12862993Y25569901D01*
X12977007Y25504075D01*
X13040589Y25487038D01*
X12408282Y24854731D01*
X12408282Y24854730D01*
X12462449Y24815376D01*
X12651782Y24718905D01*
X12853870Y24653243D01*
X13063754Y24620000D01*
X13276246Y24620000D01*
X13486127Y24653243D01*
X13486130Y24653243D01*
X13688217Y24718905D01*
X13793305Y24772450D01*
X13861974Y24785346D01*
X13926714Y24759070D01*
X13966972Y24701964D01*
X13973600Y24661965D01*
X13973600Y18767489D01*
X13953915Y18700450D01*
X13937281Y18679808D01*
X9970892Y14713419D01*
X9909569Y14679934D01*
X9901231Y14678416D01*
X9892272Y14677100D01*
X9828508Y14677100D01*
X9751142Y14656371D01*
X9744020Y14655324D01*
X9716261Y14659229D01*
X9688242Y14659896D01*
X9682134Y14664030D01*
X9674832Y14665057D01*
X9653590Y14683350D01*
X9630380Y14699060D01*
X9627477Y14705839D01*
X9621889Y14710651D01*
X9613910Y14737522D01*
X9602877Y14763288D01*
X9602027Y14777541D01*
X9602001Y14777631D01*
X9602018Y14777693D01*
X9602000Y14778008D01*
X9602000Y25213005D01*
X9621685Y25280044D01*
X9674489Y25325799D01*
X9743647Y25335743D01*
X9807203Y25306718D01*
X9813681Y25300686D01*
X9960342Y25154025D01*
X9960345Y25154023D01*
X10132402Y25039059D01*
X10323580Y24959870D01*
X10468052Y24931133D01*
X10526530Y24919501D01*
X10526534Y24919500D01*
X10526535Y24919500D01*
X10733466Y24919500D01*
X10733467Y24919501D01*
X10936420Y24959870D01*
X11127598Y25039059D01*
X11299655Y25154023D01*
X11445977Y25300345D01*
X11560941Y25472402D01*
X11629165Y25637111D01*
X11673004Y25691512D01*
X11739298Y25713577D01*
X11806998Y25696298D01*
X11854609Y25645161D01*
X11861656Y25627974D01*
X11918904Y25451784D01*
X12015375Y25262450D01*
X12054728Y25208284D01*
X12687037Y25840592D01*
X12704075Y25777007D01*
G37*
%TD.AperFunction*%
%TA.AperFunction,Conductor*%
G36*
X11081034Y39708993D02*
G01*
X11125381Y39680492D01*
X13937281Y36868592D01*
X13970766Y36807269D01*
X13973600Y36780911D01*
X13973600Y27278036D01*
X13953915Y27210997D01*
X13901111Y27165242D01*
X13831953Y27155298D01*
X13793305Y27167551D01*
X13688217Y27221096D01*
X13486129Y27286758D01*
X13276246Y27320000D01*
X13063754Y27320000D01*
X12853872Y27286758D01*
X12853869Y27286758D01*
X12651782Y27221096D01*
X12462439Y27124620D01*
X12408282Y27085273D01*
X12408282Y27085272D01*
X13040591Y26452963D01*
X12977007Y26435925D01*
X12862993Y26370099D01*
X12769901Y26277007D01*
X12704075Y26162993D01*
X12687037Y26099409D01*
X12054728Y26731718D01*
X12054727Y26731718D01*
X12015380Y26677561D01*
X11918905Y26488219D01*
X11861656Y26312026D01*
X11822218Y26254351D01*
X11757859Y26227153D01*
X11689013Y26239068D01*
X11637537Y26286312D01*
X11629164Y26302893D01*
X11560943Y26467595D01*
X11445975Y26639658D01*
X11299657Y26785976D01*
X11213626Y26843459D01*
X11127598Y26900941D01*
X11108516Y26908845D01*
X10936420Y26980130D01*
X10936412Y26980132D01*
X10733469Y27020500D01*
X10733465Y27020500D01*
X10526535Y27020500D01*
X10526530Y27020500D01*
X10323587Y26980132D01*
X10323579Y26980130D01*
X10132403Y26900942D01*
X9960342Y26785976D01*
X9960341Y26785975D01*
X9813681Y26639314D01*
X9752358Y26605829D01*
X9682666Y26610813D01*
X9626733Y26652685D01*
X9602316Y26718149D01*
X9602000Y26726995D01*
X9602000Y33504154D01*
X9621685Y33571193D01*
X9674489Y33616948D01*
X9743647Y33626892D01*
X9758087Y33623930D01*
X9787308Y33616100D01*
X9787310Y33616100D01*
X9919090Y33616100D01*
X9919092Y33616100D01*
X10046386Y33650208D01*
X10160514Y33716100D01*
X10253700Y33809286D01*
X10319592Y33923414D01*
X10353700Y34050708D01*
X10353700Y34182492D01*
X10319592Y34309786D01*
X10253700Y34423914D01*
X10215019Y34462595D01*
X10181534Y34523918D01*
X10178700Y34550276D01*
X10178700Y38857811D01*
X10198385Y38924850D01*
X10215019Y38945492D01*
X10950019Y39680492D01*
X11011342Y39713977D01*
X11081034Y39708993D01*
G37*
%TD.AperFunction*%
%TA.AperFunction,Conductor*%
G36*
X12409193Y50154815D02*
G01*
X12454948Y50102011D01*
X12464892Y50032853D01*
X12435867Y49969297D01*
X12415039Y49950181D01*
X12408282Y49945273D01*
X12408282Y49945272D01*
X13040591Y49312963D01*
X12977007Y49295925D01*
X12862993Y49230099D01*
X12769901Y49137007D01*
X12704075Y49022993D01*
X12687037Y48959409D01*
X12054728Y49591718D01*
X12054727Y49591718D01*
X12015380Y49537561D01*
X11918905Y49348219D01*
X11861656Y49172026D01*
X11822218Y49114351D01*
X11757859Y49087153D01*
X11689013Y49099068D01*
X11637537Y49146312D01*
X11629164Y49162893D01*
X11560943Y49327595D01*
X11445975Y49499658D01*
X11299657Y49645976D01*
X11177130Y49727845D01*
X11127598Y49760941D01*
X11127593Y49760943D01*
X10936420Y49840130D01*
X10936412Y49840132D01*
X10733469Y49880500D01*
X10733465Y49880500D01*
X10526535Y49880500D01*
X10526530Y49880500D01*
X10323587Y49840132D01*
X10323579Y49840130D01*
X10132403Y49760942D01*
X9960342Y49645976D01*
X9814024Y49499658D01*
X9699058Y49327597D01*
X9619870Y49136421D01*
X9619868Y49136413D01*
X9579500Y48933470D01*
X9579500Y48726531D01*
X9619868Y48523588D01*
X9619870Y48523580D01*
X9685939Y48364075D01*
X9699059Y48332402D01*
X9742097Y48267991D01*
X9814024Y48160343D01*
X9960342Y48014025D01*
X9960345Y48014023D01*
X10132402Y47899059D01*
X10323580Y47819870D01*
X10526530Y47779501D01*
X10526534Y47779500D01*
X10526535Y47779500D01*
X10733466Y47779500D01*
X10733467Y47779501D01*
X10936420Y47819870D01*
X11127598Y47899059D01*
X11299655Y48014023D01*
X11445977Y48160345D01*
X11560941Y48332402D01*
X11629165Y48497111D01*
X11673004Y48551512D01*
X11739298Y48573577D01*
X11806998Y48556298D01*
X11854609Y48505161D01*
X11861656Y48487974D01*
X11918904Y48311784D01*
X12015375Y48122450D01*
X12054728Y48068284D01*
X12687037Y48700592D01*
X12704075Y48637007D01*
X12769901Y48522993D01*
X12862993Y48429901D01*
X12977007Y48364075D01*
X13040590Y48347038D01*
X12408282Y47714731D01*
X12408282Y47714730D01*
X12462449Y47675376D01*
X12651782Y47578905D01*
X12853870Y47513243D01*
X13063754Y47480000D01*
X13276246Y47480000D01*
X13486127Y47513243D01*
X13486130Y47513243D01*
X13688217Y47578905D01*
X13877554Y47675378D01*
X13931716Y47714730D01*
X13931717Y47714730D01*
X13299408Y48347038D01*
X13362993Y48364075D01*
X13477007Y48429901D01*
X13570099Y48522993D01*
X13635925Y48637007D01*
X13652962Y48700592D01*
X14285270Y48068283D01*
X14285270Y48068284D01*
X14324622Y48122446D01*
X14421095Y48311783D01*
X14486757Y48513870D01*
X14486757Y48513873D01*
X14520000Y48723754D01*
X14520000Y48936247D01*
X14486757Y49146128D01*
X14486757Y49146131D01*
X14421095Y49348218D01*
X14324624Y49537551D01*
X14285270Y49591718D01*
X14285269Y49591718D01*
X13652962Y48959410D01*
X13635925Y49022993D01*
X13570099Y49137007D01*
X13477007Y49230099D01*
X13362993Y49295925D01*
X13299409Y49312963D01*
X13931716Y49945272D01*
X13931716Y49945273D01*
X13924959Y49950182D01*
X13882293Y50005511D01*
X13876314Y50075125D01*
X13908919Y50136920D01*
X13969758Y50171277D01*
X13997844Y50174500D01*
X18050500Y50174500D01*
X18117539Y50154815D01*
X18163294Y50102011D01*
X18174500Y50050500D01*
X18174500Y47580680D01*
X18154815Y47513641D01*
X18102011Y47467886D01*
X18032853Y47457942D01*
X18003061Y47466113D01*
X18002391Y47466391D01*
X17927699Y47486404D01*
X17875092Y47500500D01*
X17743308Y47500500D01*
X17616012Y47466392D01*
X17501886Y47400500D01*
X17501883Y47400498D01*
X17408702Y47307317D01*
X17408700Y47307314D01*
X17342808Y47193188D01*
X17308700Y47065892D01*
X17308700Y47011189D01*
X17289015Y46944150D01*
X17272381Y46923508D01*
X11114192Y40765319D01*
X11052869Y40731834D01*
X11026511Y40729000D01*
X10971808Y40729000D01*
X10844512Y40694892D01*
X10730386Y40629000D01*
X10730383Y40628998D01*
X10637202Y40535817D01*
X10637200Y40535814D01*
X10571308Y40421688D01*
X10537200Y40294392D01*
X10537200Y40239689D01*
X10517515Y40172650D01*
X10500881Y40152008D01*
X9813681Y39464808D01*
X9752358Y39431323D01*
X9682666Y39436307D01*
X9626733Y39478179D01*
X9602316Y39543643D01*
X9602000Y39552489D01*
X9602000Y42606351D01*
X9602000Y42606353D01*
X9579818Y42689138D01*
X9579814Y42689145D01*
X9536969Y42763356D01*
X9536963Y42763364D01*
X6539508Y45760819D01*
X6506023Y45822142D01*
X6511007Y45891834D01*
X6552879Y45947767D01*
X6618343Y45972184D01*
X6627189Y45972500D01*
X7341224Y45972500D01*
X7408263Y45952815D01*
X7428905Y45936181D01*
X7467586Y45897500D01*
X7581714Y45831608D01*
X7709008Y45797500D01*
X7709010Y45797500D01*
X7840790Y45797500D01*
X7840792Y45797500D01*
X7968086Y45831608D01*
X8082214Y45897500D01*
X8175400Y45990686D01*
X8241292Y46104814D01*
X8275400Y46232108D01*
X8275400Y46363892D01*
X8241292Y46491186D01*
X8175400Y46605314D01*
X8082214Y46698500D01*
X8025150Y46731446D01*
X7968087Y46764392D01*
X7904439Y46781446D01*
X7840792Y46798500D01*
X7709008Y46798500D01*
X7581712Y46764392D01*
X7467586Y46698500D01*
X7467583Y46698498D01*
X7428905Y46659819D01*
X7367582Y46626334D01*
X7341224Y46623500D01*
X6581289Y46623500D01*
X6514250Y46643185D01*
X6493608Y46659819D01*
X5838677Y47314750D01*
X5805192Y47376073D01*
X5810176Y47445765D01*
X5852048Y47501698D01*
X5888040Y47520362D01*
X6068217Y47578905D01*
X6257554Y47675378D01*
X6311716Y47714730D01*
X6311717Y47714730D01*
X5679408Y48347038D01*
X5742993Y48364075D01*
X5857007Y48429901D01*
X5950099Y48522993D01*
X6015925Y48637007D01*
X6032962Y48700592D01*
X6665270Y48068283D01*
X6665270Y48068284D01*
X6704622Y48122446D01*
X6801095Y48311783D01*
X6858343Y48487974D01*
X6897780Y48545649D01*
X6962139Y48572848D01*
X7030985Y48560934D01*
X7082461Y48513690D01*
X7090835Y48497109D01*
X7145939Y48364075D01*
X7159059Y48332402D01*
X7202097Y48267991D01*
X7274024Y48160343D01*
X7420342Y48014025D01*
X7420345Y48014023D01*
X7592402Y47899059D01*
X7783580Y47819870D01*
X7986530Y47779501D01*
X7986534Y47779500D01*
X7986535Y47779500D01*
X8193466Y47779500D01*
X8193467Y47779501D01*
X8396420Y47819870D01*
X8587598Y47899059D01*
X8759655Y48014023D01*
X8905977Y48160345D01*
X9020941Y48332402D01*
X9100130Y48523580D01*
X9140500Y48726535D01*
X9140500Y48933465D01*
X9100130Y49136420D01*
X9020941Y49327598D01*
X8905977Y49499655D01*
X8905975Y49499658D01*
X8759657Y49645976D01*
X8587596Y49760943D01*
X8492047Y49800520D01*
X8437644Y49844361D01*
X8415579Y49910655D01*
X8415500Y49915081D01*
X8415500Y50050500D01*
X8435185Y50117539D01*
X8487989Y50163294D01*
X8539500Y50174500D01*
X12342154Y50174500D01*
X12409193Y50154815D01*
G37*
%TD.AperFunction*%
%TA.AperFunction,Conductor*%
G36*
X-52950258Y6933076D02*
G01*
X-52914570Y6873008D01*
X-52910700Y6842271D01*
X-52910700Y6247108D01*
X-52930385Y6180069D01*
X-52947019Y6159427D01*
X-53517038Y5589409D01*
X-53534075Y5652993D01*
X-53599901Y5767007D01*
X-53692993Y5860099D01*
X-53807007Y5925925D01*
X-53870591Y5942963D01*
X-53238284Y6575272D01*
X-53292450Y6614625D01*
X-53486121Y6713306D01*
X-53485604Y6714322D01*
X-53535808Y6754779D01*
X-53557873Y6821073D01*
X-53540594Y6888772D01*
X-53489458Y6936383D01*
X-53433952Y6949500D01*
X-53130250Y6949500D01*
X-53130249Y6949501D01*
X-53115515Y6952432D01*
X-53059790Y6963515D01*
X-53058956Y6959320D01*
X-53012755Y6964314D01*
X-52950258Y6933076D01*
G37*
%TD.AperFunction*%
%TA.AperFunction,Conductor*%
G36*
X2944004Y59427047D02*
G01*
X2950082Y59426746D01*
X5883817Y59208291D01*
X5889919Y59207684D01*
X8809211Y58844192D01*
X8815249Y58843287D01*
X11712951Y58335647D01*
X11718975Y58334437D01*
X14587944Y57683904D01*
X14593903Y57682398D01*
X17427172Y56890551D01*
X17433016Y56888760D01*
X20223597Y55957549D01*
X20229334Y55955475D01*
X22319270Y55140945D01*
X22970342Y54887197D01*
X22976003Y54884828D01*
X25660755Y53682089D01*
X25666243Y53679465D01*
X28288127Y52345228D01*
X28293525Y52342310D01*
X30846093Y50879854D01*
X30851299Y50876699D01*
X32811997Y49620418D01*
X33328321Y49289593D01*
X33333410Y49286151D01*
X33589306Y49103703D01*
X35728746Y47578332D01*
X35733637Y47574658D01*
X37950558Y45822142D01*
X38041448Y45750292D01*
X38046169Y45746366D01*
X40260800Y43809919D01*
X40265300Y43805783D01*
X41744262Y42377311D01*
X42381298Y41762023D01*
X42385585Y41757672D01*
X44397768Y39611603D01*
X44401843Y39607035D01*
X46305243Y37363958D01*
X46309101Y37359176D01*
X48099053Y35024591D01*
X48102669Y35019625D01*
X49774799Y32599239D01*
X49778162Y32594103D01*
X51314066Y30116914D01*
X51328357Y30093866D01*
X51331456Y30088580D01*
X52719986Y27579545D01*
X52755916Y27514620D01*
X52758755Y27509175D01*
X54048873Y24878230D01*
X54053974Y24867829D01*
X54056535Y24862261D01*
X54275436Y24353554D01*
X55219337Y22160003D01*
X55221625Y22154301D01*
X56249151Y19397778D01*
X56251154Y19391970D01*
X57140896Y16587917D01*
X57142608Y16582017D01*
X57892365Y13737356D01*
X57893783Y13731378D01*
X58501721Y10853087D01*
X58502842Y10847047D01*
X58967479Y7942127D01*
X58968298Y7936038D01*
X59288476Y5011735D01*
X59288994Y5005613D01*
X59463940Y2068983D01*
X59464153Y2062843D01*
X59493433Y-878816D01*
X59493342Y-884959D01*
X59376884Y-3824462D01*
X59376489Y-3830593D01*
X59114578Y-6760739D01*
X59113879Y-6766843D01*
X58707162Y-9680398D01*
X58706162Y-9686459D01*
X58155633Y-12576296D01*
X58154334Y-12582301D01*
X57461349Y-15441313D01*
X57459755Y-15447246D01*
X56626005Y-18268457D01*
X56624118Y-18274304D01*
X55651661Y-21050735D01*
X55649487Y-21056481D01*
X54540708Y-23781337D01*
X54538252Y-23786969D01*
X53295871Y-26453563D01*
X53293140Y-26459065D01*
X51920202Y-29060859D01*
X51917201Y-29066220D01*
X50417083Y-31596814D01*
X50413820Y-31602020D01*
X48790200Y-34055209D01*
X48786683Y-34060247D01*
X47043558Y-36429995D01*
X47039797Y-36434852D01*
X45181422Y-38715372D01*
X45177424Y-38720037D01*
X43208381Y-40905705D01*
X43204157Y-40910166D01*
X41163470Y-42961256D01*
X41102232Y-42994897D01*
X41075566Y-42997798D01*
X-41075566Y-42997798D01*
X-41142605Y-42978113D01*
X-41163470Y-42961256D01*
X-41771627Y-42349999D01*
X-43204158Y-40910166D01*
X-43208382Y-40905705D01*
X-43860496Y-40181848D01*
X-43932291Y-40102155D01*
X8050000Y-40102155D01*
X8050000Y-40750000D01*
X8966988Y-40750000D01*
X8934075Y-40807007D01*
X8900000Y-40934174D01*
X8900000Y-41065826D01*
X8934075Y-41192993D01*
X8966988Y-41250000D01*
X8050000Y-41250000D01*
X8050000Y-41897844D01*
X8056401Y-41957372D01*
X8056403Y-41957379D01*
X8106645Y-42092086D01*
X8106649Y-42092093D01*
X8192809Y-42207187D01*
X8192812Y-42207190D01*
X8307906Y-42293350D01*
X8307913Y-42293354D01*
X8442620Y-42343596D01*
X8442627Y-42343598D01*
X8502155Y-42349999D01*
X8502172Y-42350000D01*
X9150000Y-42350000D01*
X9150000Y-41433012D01*
X9207007Y-41465925D01*
X9334174Y-41500000D01*
X9465826Y-41500000D01*
X9592993Y-41465925D01*
X9650000Y-41433012D01*
X9650000Y-42350000D01*
X10297828Y-42350000D01*
X10297844Y-42349999D01*
X10357372Y-42343598D01*
X10357379Y-42343596D01*
X10492086Y-42293354D01*
X10492093Y-42293350D01*
X10607187Y-42207190D01*
X10607190Y-42207187D01*
X10693350Y-42092093D01*
X10693354Y-42092086D01*
X10743596Y-41957379D01*
X10743598Y-41957372D01*
X10749999Y-41897844D01*
X10750000Y-41897827D01*
X10750000Y-41250000D01*
X9833012Y-41250000D01*
X9865925Y-41192993D01*
X9900000Y-41065826D01*
X9900000Y-40934174D01*
X9865925Y-40807007D01*
X9833012Y-40750000D01*
X10750000Y-40750000D01*
X10750000Y-40102172D01*
X10749999Y-40102155D01*
X10743598Y-40042627D01*
X10743596Y-40042620D01*
X10693354Y-39907913D01*
X10693350Y-39907906D01*
X10607190Y-39792812D01*
X10607187Y-39792809D01*
X10492093Y-39706649D01*
X10492086Y-39706645D01*
X10357379Y-39656403D01*
X10357372Y-39656401D01*
X10297844Y-39650000D01*
X9895565Y-39650000D01*
X9828526Y-39630315D01*
X9782771Y-39577511D01*
X9772827Y-39508353D01*
X9801852Y-39444797D01*
X9848112Y-39411439D01*
X9853608Y-39409162D01*
X9897598Y-39390941D01*
X10069655Y-39275977D01*
X10215977Y-39129655D01*
X10330941Y-38957598D01*
X10410130Y-38766420D01*
X10450500Y-38563465D01*
X10450500Y-38356535D01*
X10410130Y-38153580D01*
X10330941Y-37962402D01*
X10215977Y-37790345D01*
X10215975Y-37790342D01*
X10069657Y-37644024D01*
X9983626Y-37586541D01*
X9897598Y-37529059D01*
X9706420Y-37449870D01*
X9706412Y-37449868D01*
X9503469Y-37409500D01*
X9503465Y-37409500D01*
X9296535Y-37409500D01*
X9296530Y-37409500D01*
X9093587Y-37449868D01*
X9093579Y-37449870D01*
X8902403Y-37529058D01*
X8730342Y-37644024D01*
X8584024Y-37790342D01*
X8469058Y-37962403D01*
X8389870Y-38153579D01*
X8389868Y-38153587D01*
X8349500Y-38356530D01*
X8349500Y-38563469D01*
X8389868Y-38766412D01*
X8389870Y-38766420D01*
X8469059Y-38957598D01*
X8516254Y-39028231D01*
X8584024Y-39129657D01*
X8730342Y-39275975D01*
X8730345Y-39275977D01*
X8902402Y-39390941D01*
X8941993Y-39407340D01*
X8951888Y-39411439D01*
X9006291Y-39455280D01*
X9028356Y-39521574D01*
X9011077Y-39589274D01*
X8959939Y-39636884D01*
X8904435Y-39650000D01*
X8502155Y-39650000D01*
X8442627Y-39656401D01*
X8442620Y-39656403D01*
X8307913Y-39706645D01*
X8307906Y-39706649D01*
X8192812Y-39792809D01*
X8192809Y-39792812D01*
X8106649Y-39907906D01*
X8106645Y-39907913D01*
X8056403Y-40042620D01*
X8056401Y-40042627D01*
X8050000Y-40102155D01*
X-43932291Y-40102155D01*
X-44676587Y-39275975D01*
X-45177436Y-38720024D01*
X-45181412Y-38715385D01*
X-46391637Y-37230247D01*
X-37940500Y-37230247D01*
X-37940500Y-38969752D01*
X-37928869Y-39028229D01*
X-37928868Y-39028230D01*
X-37884553Y-39094552D01*
X-37818231Y-39138867D01*
X-37818230Y-39138868D01*
X-37759753Y-39150499D01*
X-37759750Y-39150500D01*
X-37759748Y-39150500D01*
X-36020250Y-39150500D01*
X-36020249Y-39150499D01*
X-36005432Y-39147552D01*
X-35961771Y-39138868D01*
X-35961771Y-39138867D01*
X-35961769Y-39138867D01*
X-35895448Y-39094552D01*
X-35851133Y-39028231D01*
X-35851133Y-39028229D01*
X-35851132Y-39028229D01*
X-35839501Y-38969752D01*
X-35839500Y-38969750D01*
X-35839500Y-37230249D01*
X-35839501Y-37230247D01*
X-15080500Y-37230247D01*
X-15080500Y-38969752D01*
X-15068869Y-39028229D01*
X-15068868Y-39028230D01*
X-15024553Y-39094552D01*
X-14958231Y-39138867D01*
X-14958230Y-39138868D01*
X-14899753Y-39150499D01*
X-14899750Y-39150500D01*
X-14899748Y-39150500D01*
X-13160250Y-39150500D01*
X-13160249Y-39150499D01*
X-13145432Y-39147552D01*
X-13101771Y-39138868D01*
X-13101771Y-39138867D01*
X-13101769Y-39138867D01*
X-13035448Y-39094552D01*
X-12991133Y-39028231D01*
X-12991133Y-39028229D01*
X-12991132Y-39028229D01*
X-12979501Y-38969752D01*
X-12979500Y-38969750D01*
X-12979500Y-37230249D01*
X-12979501Y-37230247D01*
X-12991132Y-37171770D01*
X-12991133Y-37171769D01*
X-13035448Y-37105447D01*
X-13101770Y-37061132D01*
X-13101771Y-37061131D01*
X-13160248Y-37049500D01*
X-13160252Y-37049500D01*
X-14899748Y-37049500D01*
X-14899753Y-37049500D01*
X-14958230Y-37061131D01*
X-14958231Y-37061132D01*
X-15024553Y-37105447D01*
X-15068868Y-37171769D01*
X-15068869Y-37171770D01*
X-15080500Y-37230247D01*
X-35839501Y-37230247D01*
X-35851132Y-37171770D01*
X-35851133Y-37171769D01*
X-35895448Y-37105447D01*
X-35961770Y-37061132D01*
X-35961771Y-37061131D01*
X-36020248Y-37049500D01*
X-36020252Y-37049500D01*
X-37759748Y-37049500D01*
X-37759753Y-37049500D01*
X-37818230Y-37061131D01*
X-37818231Y-37061132D01*
X-37884553Y-37105447D01*
X-37928868Y-37171769D01*
X-37928869Y-37171770D01*
X-37940500Y-37230247D01*
X-46391637Y-37230247D01*
X-47039809Y-36434838D01*
X-47043548Y-36430009D01*
X-48786685Y-34060246D01*
X-48790201Y-34055209D01*
X-49032138Y-33689657D01*
X-50413833Y-31602001D01*
X-50417072Y-31596833D01*
X-51917205Y-29066215D01*
X-51920203Y-29060859D01*
X-52818234Y-27359041D01*
X-49781897Y-27359041D01*
X-49781897Y-27640958D01*
X-49745102Y-27920439D01*
X-49672138Y-28192743D01*
X-49564262Y-28453179D01*
X-49564257Y-28453190D01*
X-49473921Y-28609655D01*
X-49423309Y-28697317D01*
X-49346360Y-28797598D01*
X-49251693Y-28920970D01*
X-49052368Y-29120295D01*
X-49052364Y-29120298D01*
X-49052362Y-29120300D01*
X-48828714Y-29291912D01*
X-48828707Y-29291916D01*
X-48584588Y-29432859D01*
X-48584583Y-29432861D01*
X-48584580Y-29432863D01*
X-48324136Y-29540742D01*
X-48051839Y-29613704D01*
X-47772348Y-29650500D01*
X-47772341Y-29650500D01*
X-47490453Y-29650500D01*
X-47490446Y-29650500D01*
X-47210955Y-29613704D01*
X-46938658Y-29540742D01*
X-46678214Y-29432863D01*
X-46434080Y-29291912D01*
X-46210432Y-29120300D01*
X-46011097Y-28920965D01*
X-45839485Y-28697317D01*
X-45698534Y-28453183D01*
X-45590655Y-28192739D01*
X-45517693Y-27920442D01*
X-45480897Y-27640951D01*
X-45480897Y-27359049D01*
X-45517693Y-27079558D01*
X-45590655Y-26807261D01*
X-45591884Y-26804295D01*
X-45639064Y-26690392D01*
X-45698534Y-26546817D01*
X-45698536Y-26546814D01*
X-45698538Y-26546809D01*
X-45839481Y-26302690D01*
X-45839485Y-26302683D01*
X-46011097Y-26079035D01*
X-46011099Y-26079033D01*
X-46011102Y-26079029D01*
X-46210427Y-25879704D01*
X-46210432Y-25879700D01*
X-46434080Y-25708088D01*
X-46434086Y-25708084D01*
X-46434088Y-25708083D01*
X-46678207Y-25567140D01*
X-46678218Y-25567135D01*
X-46938654Y-25459259D01*
X-47210958Y-25386295D01*
X-47490439Y-25349500D01*
X-47490446Y-25349500D01*
X-47772348Y-25349500D01*
X-47772356Y-25349500D01*
X-48051837Y-25386295D01*
X-48324141Y-25459259D01*
X-48584577Y-25567135D01*
X-48584588Y-25567140D01*
X-48828707Y-25708083D01*
X-48828715Y-25708089D01*
X-49052368Y-25879704D01*
X-49251693Y-26079029D01*
X-49423308Y-26302682D01*
X-49423314Y-26302690D01*
X-49564257Y-26546809D01*
X-49564262Y-26546820D01*
X-49672138Y-26807256D01*
X-49745102Y-27079560D01*
X-49781897Y-27359041D01*
X-52818234Y-27359041D01*
X-53293143Y-26459062D01*
X-53295872Y-26453563D01*
X-53297300Y-26450499D01*
X-54538255Y-23786966D01*
X-54540709Y-23781337D01*
X-55649492Y-21056470D01*
X-55651662Y-21050735D01*
X-56050308Y-19912572D01*
X-49059021Y-19912572D01*
X-49023672Y-19936192D01*
X-48841694Y-20011569D01*
X-48841682Y-20011572D01*
X-48648496Y-20049999D01*
X-48648492Y-20050000D01*
X-48451508Y-20050000D01*
X-48451505Y-20049999D01*
X-48258319Y-20011572D01*
X-48258307Y-20011569D01*
X-48076324Y-19936190D01*
X-48076320Y-19936187D01*
X-48040981Y-19912573D01*
X-48040980Y-19912572D01*
X-48549999Y-19403553D01*
X-48550000Y-19403553D01*
X-49059021Y-19912572D01*
X-56050308Y-19912572D01*
X-56328262Y-19118995D01*
X-50520501Y-19118995D01*
X-50493582Y-19254322D01*
X-50493579Y-19254332D01*
X-50440779Y-19381804D01*
X-50440772Y-19381817D01*
X-50364115Y-19496541D01*
X-50364112Y-19496545D01*
X-50266546Y-19594111D01*
X-50266542Y-19594114D01*
X-50151818Y-19670771D01*
X-50151805Y-19670778D01*
X-50024333Y-19723578D01*
X-50024328Y-19723580D01*
X-50024324Y-19723580D01*
X-50024323Y-19723581D01*
X-49888996Y-19750500D01*
X-49888993Y-19750500D01*
X-49751005Y-19750500D01*
X-49722073Y-19744745D01*
X-49722073Y-19744744D01*
X-49615672Y-19723580D01*
X-49488189Y-19670775D01*
X-49373458Y-19594114D01*
X-49275886Y-19496542D01*
X-49199225Y-19381811D01*
X-49183108Y-19342899D01*
X-49156230Y-19302674D01*
X-48903554Y-19049999D01*
X-48946340Y-19007213D01*
X-48875000Y-19007213D01*
X-48875000Y-19092787D01*
X-48852851Y-19175445D01*
X-48810064Y-19249554D01*
X-48749554Y-19310064D01*
X-48675445Y-19352851D01*
X-48592787Y-19375000D01*
X-48507213Y-19375000D01*
X-48424555Y-19352851D01*
X-48350446Y-19310064D01*
X-48289936Y-19249554D01*
X-48247149Y-19175445D01*
X-48225000Y-19092787D01*
X-48225000Y-19007213D01*
X-48247149Y-18924555D01*
X-48289936Y-18850446D01*
X-48350446Y-18789936D01*
X-48424555Y-18747149D01*
X-48507213Y-18725000D01*
X-48592787Y-18725000D01*
X-48675445Y-18747149D01*
X-48749554Y-18789936D01*
X-48810064Y-18850446D01*
X-48852851Y-18924555D01*
X-48875000Y-19007213D01*
X-48946340Y-19007213D01*
X-49156230Y-18797323D01*
X-49183110Y-18757094D01*
X-49199225Y-18718189D01*
X-49199229Y-18718182D01*
X-49275886Y-18603458D01*
X-49275889Y-18603454D01*
X-49373455Y-18505888D01*
X-49373459Y-18505885D01*
X-49488183Y-18429228D01*
X-49488196Y-18429221D01*
X-49615668Y-18376421D01*
X-49615680Y-18376418D01*
X-49722077Y-18355254D01*
X-49722078Y-18355254D01*
X-49751005Y-18349500D01*
X-49751007Y-18349500D01*
X-49888993Y-18349500D01*
X-49888995Y-18349500D01*
X-50024323Y-18376418D01*
X-50024333Y-18376421D01*
X-50151805Y-18429221D01*
X-50151818Y-18429228D01*
X-50266542Y-18505885D01*
X-50266546Y-18505888D01*
X-50364112Y-18603454D01*
X-50364115Y-18603458D01*
X-50440772Y-18718182D01*
X-50440779Y-18718195D01*
X-50493579Y-18845667D01*
X-50493582Y-18845677D01*
X-50520500Y-18981004D01*
X-50520500Y-18981007D01*
X-50520500Y-19118993D01*
X-50520500Y-19118995D01*
X-50520501Y-19118995D01*
X-56328262Y-19118995D01*
X-56624129Y-18274273D01*
X-56625996Y-18268488D01*
X-56649952Y-18187426D01*
X-49059022Y-18187426D01*
X-48550000Y-18696446D01*
X-48549999Y-18696446D01*
X-48040980Y-18187426D01*
X-48076325Y-18163809D01*
X-48076327Y-18163808D01*
X-48258307Y-18088430D01*
X-48258319Y-18088427D01*
X-48451505Y-18050000D01*
X-48648496Y-18050000D01*
X-48841682Y-18088427D01*
X-48841690Y-18088429D01*
X-49023675Y-18163809D01*
X-49023682Y-18163813D01*
X-49059021Y-18187426D01*
X-49059022Y-18187426D01*
X-56649952Y-18187426D01*
X-57459757Y-15447242D01*
X-57461350Y-15441313D01*
X-58154335Y-12582301D01*
X-58155634Y-12576296D01*
X-58186883Y-12412264D01*
X-58706169Y-9686423D01*
X-58707158Y-9680433D01*
X-59113883Y-6766824D01*
X-59114579Y-6760739D01*
X-59155718Y-6300499D01*
X-59308027Y-4596530D01*
X-55050500Y-4596530D01*
X-55050500Y-4803469D01*
X-55010132Y-5006412D01*
X-55010130Y-5006420D01*
X-54930942Y-5197596D01*
X-54815976Y-5369657D01*
X-54669658Y-5515975D01*
X-54669655Y-5515977D01*
X-54497598Y-5630941D01*
X-54306420Y-5710130D01*
X-54103470Y-5750499D01*
X-54103466Y-5750500D01*
X-54103465Y-5750500D01*
X-53896534Y-5750500D01*
X-53896533Y-5750499D01*
X-53693580Y-5710130D01*
X-53502402Y-5630941D01*
X-53330345Y-5515977D01*
X-53184023Y-5369655D01*
X-53069059Y-5197598D01*
X-52989870Y-5006420D01*
X-52949500Y-4803465D01*
X-52949500Y-4596535D01*
X-52989870Y-4393580D01*
X-53069059Y-4202402D01*
X-53184023Y-4030345D01*
X-53184025Y-4030342D01*
X-53330343Y-3884024D01*
X-53419485Y-3824462D01*
X-53502402Y-3769059D01*
X-53693580Y-3689870D01*
X-53693588Y-3689868D01*
X-53896531Y-3649500D01*
X-53896535Y-3649500D01*
X-54103465Y-3649500D01*
X-54103470Y-3649500D01*
X-54306413Y-3689868D01*
X-54306421Y-3689870D01*
X-54497597Y-3769058D01*
X-54669658Y-3884024D01*
X-54815976Y-4030342D01*
X-54930942Y-4202403D01*
X-55010130Y-4393579D01*
X-55010132Y-4393587D01*
X-55050500Y-4596530D01*
X-59308027Y-4596530D01*
X-59376491Y-3830586D01*
X-59376885Y-3824462D01*
X-59382217Y-3689868D01*
X-59493344Y-884935D01*
X-59493434Y-878840D01*
X-59466711Y1805953D01*
X-55482400Y1805953D01*
X-55482400Y-73747D01*
X-55482400Y-159453D01*
X-55477390Y-178152D01*
X-55460218Y-242240D01*
X-55457151Y-247552D01*
X-55417365Y-316462D01*
X-55417364Y-316463D01*
X-55417363Y-316464D01*
X-54608737Y-1125090D01*
X-54575252Y-1186413D01*
X-54580236Y-1256105D01*
X-54622108Y-1312038D01*
X-54627526Y-1315873D01*
X-54669659Y-1344025D01*
X-54815976Y-1490342D01*
X-54930942Y-1662403D01*
X-55010130Y-1853579D01*
X-55010132Y-1853587D01*
X-55050500Y-2056530D01*
X-55050500Y-2263469D01*
X-55010132Y-2466412D01*
X-55010130Y-2466420D01*
X-54930942Y-2657596D01*
X-54815976Y-2829657D01*
X-54669658Y-2975975D01*
X-54669655Y-2975977D01*
X-54497598Y-3090941D01*
X-54306420Y-3170130D01*
X-54103470Y-3210499D01*
X-54103466Y-3210500D01*
X-54103465Y-3210500D01*
X-53896534Y-3210500D01*
X-53896533Y-3210499D01*
X-53693580Y-3170130D01*
X-53502402Y-3090941D01*
X-53330345Y-2975977D01*
X-53184023Y-2829655D01*
X-53069059Y-2657598D01*
X-52989870Y-2466420D01*
X-52951068Y-2271346D01*
X-52918684Y-2209436D01*
X-52857968Y-2174862D01*
X-52788199Y-2178601D01*
X-52741770Y-2207857D01*
X-47641819Y-7307808D01*
X-47608334Y-7369131D01*
X-47605500Y-7395489D01*
X-47605500Y-18358728D01*
X-47625185Y-18425767D01*
X-47660609Y-18461830D01*
X-47726542Y-18505885D01*
X-47726546Y-18505888D01*
X-47824112Y-18603454D01*
X-47824118Y-18603462D01*
X-47900774Y-18718185D01*
X-47916892Y-18757097D01*
X-47943770Y-18797322D01*
X-48196447Y-19050000D01*
X-47943772Y-19302675D01*
X-47916892Y-19342902D01*
X-47900775Y-19381812D01*
X-47900774Y-19381813D01*
X-47824118Y-19496537D01*
X-47824112Y-19496545D01*
X-47726546Y-19594111D01*
X-47726542Y-19594114D01*
X-47611818Y-19670771D01*
X-47611805Y-19670778D01*
X-47484333Y-19723578D01*
X-47484328Y-19723580D01*
X-47484324Y-19723580D01*
X-47484323Y-19723581D01*
X-47348996Y-19750500D01*
X-47348993Y-19750500D01*
X-47211005Y-19750500D01*
X-47119959Y-19732389D01*
X-47075672Y-19723580D01*
X-46948189Y-19670775D01*
X-46833458Y-19594114D01*
X-46797626Y-19558282D01*
X-46732681Y-19493338D01*
X-46671358Y-19459853D01*
X-46601666Y-19464837D01*
X-46557319Y-19493338D01*
X-46456546Y-19594111D01*
X-46456542Y-19594114D01*
X-46341818Y-19670771D01*
X-46341805Y-19670778D01*
X-46214333Y-19723578D01*
X-46214328Y-19723580D01*
X-46214324Y-19723580D01*
X-46214323Y-19723581D01*
X-46078996Y-19750500D01*
X-46078993Y-19750500D01*
X-45941005Y-19750500D01*
X-45849959Y-19732389D01*
X-45805672Y-19723580D01*
X-45678189Y-19670775D01*
X-45589270Y-19611361D01*
X-45522595Y-19590484D01*
X-45455215Y-19608968D01*
X-45417279Y-19645573D01*
X-45384553Y-19694552D01*
X-45318231Y-19738867D01*
X-45318230Y-19738868D01*
X-45259753Y-19750499D01*
X-45259750Y-19750500D01*
X-45259748Y-19750500D01*
X-44220250Y-19750500D01*
X-44220249Y-19750499D01*
X-44205432Y-19747552D01*
X-44161771Y-19738868D01*
X-44161771Y-19738867D01*
X-44161769Y-19738867D01*
X-44095448Y-19694552D01*
X-44052602Y-19630428D01*
X-43998990Y-19585624D01*
X-43929665Y-19576917D01*
X-43866637Y-19607071D01*
X-43829918Y-19666514D01*
X-43825500Y-19699320D01*
X-43825500Y-31316324D01*
X-43845185Y-31383363D01*
X-43861819Y-31404005D01*
X-43900498Y-31442683D01*
X-43900500Y-31442686D01*
X-43966392Y-31556812D01*
X-44000500Y-31684108D01*
X-44000500Y-31815891D01*
X-43966392Y-31943187D01*
X-43951200Y-31969500D01*
X-43900500Y-32057314D01*
X-43807314Y-32150500D01*
X-43693186Y-32216392D01*
X-43565892Y-32250500D01*
X-43565890Y-32250500D01*
X-43434110Y-32250500D01*
X-43434108Y-32250500D01*
X-43306814Y-32216392D01*
X-43192686Y-32150500D01*
X-43099500Y-32057314D01*
X-43033608Y-31943186D01*
X-42999500Y-31815892D01*
X-42999500Y-31684108D01*
X-43033608Y-31556814D01*
X-43099500Y-31442686D01*
X-43138181Y-31404005D01*
X-43171666Y-31342682D01*
X-43174500Y-31316324D01*
X-43174500Y-2933676D01*
X-43154815Y-2866637D01*
X-43138181Y-2845995D01*
X-43121841Y-2829655D01*
X-43099500Y-2807314D01*
X-43033608Y-2693186D01*
X-42999500Y-2565892D01*
X-42999500Y-2434108D01*
X-43033608Y-2306814D01*
X-43038337Y-2298624D01*
X-43054085Y-2271347D01*
X-43099500Y-2192686D01*
X-43192686Y-2099500D01*
X-43267112Y-2056530D01*
X-43306813Y-2033608D01*
X-43370461Y-2016554D01*
X-43434108Y-1999500D01*
X-43565892Y-1999500D01*
X-43693188Y-2033608D01*
X-43807314Y-2099500D01*
X-43807317Y-2099502D01*
X-43900498Y-2192683D01*
X-43900500Y-2192686D01*
X-43966392Y-2306812D01*
X-44000500Y-2434108D01*
X-44000500Y-2565891D01*
X-43966392Y-2693187D01*
X-43933446Y-2750250D01*
X-43900500Y-2807314D01*
X-43900498Y-2807316D01*
X-43861819Y-2845995D01*
X-43828334Y-2907318D01*
X-43825500Y-2933676D01*
X-43825500Y-18400679D01*
X-43845185Y-18467718D01*
X-43897989Y-18513473D01*
X-43967147Y-18523417D01*
X-44030703Y-18494392D01*
X-44052602Y-18469570D01*
X-44095448Y-18405447D01*
X-44161770Y-18361132D01*
X-44161771Y-18361131D01*
X-44220248Y-18349500D01*
X-44220252Y-18349500D01*
X-44290500Y-18349500D01*
X-44357539Y-18329815D01*
X-44403294Y-18277011D01*
X-44414500Y-18225500D01*
X-44414500Y6068812D01*
X-44394815Y6135851D01*
X-44378181Y6156493D01*
X-41895182Y8639492D01*
X-38935700Y8639492D01*
X-38935700Y8507709D01*
X-38901592Y8380413D01*
X-38876059Y8336190D01*
X-38835700Y8266286D01*
X-38835698Y8266284D01*
X-38797019Y8227605D01*
X-38763534Y8166282D01*
X-38760700Y8139924D01*
X-38760700Y-12255252D01*
X-38738518Y-12338040D01*
X-38717092Y-12375150D01*
X-38695665Y-12412262D01*
X-38695663Y-12412264D01*
X-33539119Y-17568808D01*
X-33505634Y-17630131D01*
X-33502800Y-17656489D01*
X-33502800Y-17711191D01*
X-33468692Y-17838487D01*
X-33435746Y-17895550D01*
X-33402800Y-17952614D01*
X-33309614Y-18045800D01*
X-33283408Y-18060930D01*
X-33235192Y-18111497D01*
X-33221969Y-18180104D01*
X-33247937Y-18244969D01*
X-33257727Y-18255998D01*
X-35328319Y-20326591D01*
X-35389642Y-20360076D01*
X-35459334Y-20355092D01*
X-35515267Y-20313220D01*
X-35539684Y-20247756D01*
X-35540000Y-20238910D01*
X-35540000Y-20213753D01*
X-35573243Y-20003872D01*
X-35573243Y-20003869D01*
X-35638905Y-19801782D01*
X-35735376Y-19612449D01*
X-35774730Y-19558282D01*
X-35774731Y-19558282D01*
X-36407038Y-20190590D01*
X-36424075Y-20127007D01*
X-36489901Y-20012993D01*
X-36582993Y-19919901D01*
X-36697007Y-19854075D01*
X-36760591Y-19837037D01*
X-36128284Y-19204728D01*
X-36182450Y-19165375D01*
X-36371783Y-19068904D01*
X-36573871Y-19003242D01*
X-36783754Y-18970000D01*
X-36996246Y-18970000D01*
X-37206128Y-19003242D01*
X-37206131Y-19003242D01*
X-37408218Y-19068904D01*
X-37597561Y-19165380D01*
X-37651718Y-19204727D01*
X-37651718Y-19204728D01*
X-37019409Y-19837037D01*
X-37082993Y-19854075D01*
X-37197007Y-19919901D01*
X-37290099Y-20012993D01*
X-37355925Y-20127007D01*
X-37372963Y-20190591D01*
X-38005272Y-19558282D01*
X-38005273Y-19558282D01*
X-38044620Y-19612439D01*
X-38141096Y-19801782D01*
X-38206758Y-20003869D01*
X-38206758Y-20003872D01*
X-38240000Y-20213753D01*
X-38240000Y-20426246D01*
X-38206758Y-20636127D01*
X-38206758Y-20636130D01*
X-38141096Y-20838217D01*
X-38044625Y-21027550D01*
X-38005272Y-21081716D01*
X-37372963Y-20449408D01*
X-37355925Y-20512993D01*
X-37290099Y-20627007D01*
X-37197007Y-20720099D01*
X-37082993Y-20785925D01*
X-37019410Y-20802962D01*
X-37651719Y-21435271D01*
X-37650657Y-21448756D01*
X-37665021Y-21517133D01*
X-37686594Y-21546165D01*
X-38731163Y-22590735D01*
X-38731167Y-22590741D01*
X-38774019Y-22664961D01*
X-38774018Y-22664962D01*
X-38796200Y-22747747D01*
X-38796200Y-33936447D01*
X-38796200Y-34022153D01*
X-38794062Y-34030131D01*
X-38774018Y-34104940D01*
X-38752592Y-34142050D01*
X-38731165Y-34179162D01*
X-38731163Y-34179164D01*
X-37887432Y-35022895D01*
X-37853947Y-35084218D01*
X-37858931Y-35153910D01*
X-37860552Y-35158028D01*
X-37900129Y-35253575D01*
X-37900132Y-35253587D01*
X-37940500Y-35456530D01*
X-37940500Y-35663469D01*
X-37900132Y-35866412D01*
X-37900130Y-35866420D01*
X-37835080Y-36023465D01*
X-37820941Y-36057598D01*
X-37797499Y-36092682D01*
X-37705976Y-36229657D01*
X-37559658Y-36375975D01*
X-37559655Y-36375977D01*
X-37387598Y-36490941D01*
X-37196420Y-36570130D01*
X-36993470Y-36610499D01*
X-36993466Y-36610500D01*
X-36993465Y-36610500D01*
X-36786534Y-36610500D01*
X-36786533Y-36610499D01*
X-36583580Y-36570130D01*
X-36392402Y-36490941D01*
X-36220345Y-36375977D01*
X-36074023Y-36229655D01*
X-35959059Y-36057598D01*
X-35879870Y-35866420D01*
X-35839500Y-35663465D01*
X-35839500Y-35456535D01*
X-35839501Y-35456530D01*
X-15080500Y-35456530D01*
X-15080500Y-35663469D01*
X-15040132Y-35866412D01*
X-15040130Y-35866420D01*
X-14975080Y-36023465D01*
X-14960941Y-36057598D01*
X-14937499Y-36092682D01*
X-14845976Y-36229657D01*
X-14699658Y-36375975D01*
X-14699655Y-36375977D01*
X-14527598Y-36490941D01*
X-14336420Y-36570130D01*
X-14133470Y-36610499D01*
X-14133466Y-36610500D01*
X-14133465Y-36610500D01*
X-13926534Y-36610500D01*
X-13926533Y-36610499D01*
X-13723580Y-36570130D01*
X-13532402Y-36490941D01*
X-13360345Y-36375977D01*
X-13214023Y-36229655D01*
X-13099059Y-36057598D01*
X-13019870Y-35866420D01*
X-13009946Y-35816530D01*
X8349500Y-35816530D01*
X8349500Y-36023469D01*
X8389868Y-36226412D01*
X8389870Y-36226420D01*
X8461769Y-36400000D01*
X8469059Y-36417598D01*
X8518065Y-36490941D01*
X8584024Y-36589657D01*
X8730342Y-36735975D01*
X8730345Y-36735977D01*
X8902402Y-36850941D01*
X9093580Y-36930130D01*
X9275878Y-36966391D01*
X9296530Y-36970499D01*
X9296534Y-36970500D01*
X9296535Y-36970500D01*
X9503466Y-36970500D01*
X9503467Y-36970499D01*
X9706420Y-36930130D01*
X9897598Y-36850941D01*
X10069655Y-36735977D01*
X10215977Y-36589655D01*
X10330941Y-36417598D01*
X10410130Y-36226420D01*
X10450500Y-36023465D01*
X10450500Y-35816535D01*
X10410130Y-35613580D01*
X10330941Y-35422402D01*
X10215977Y-35250345D01*
X10215975Y-35250342D01*
X10069657Y-35104024D01*
X9983626Y-35046541D01*
X9897598Y-34989059D01*
X9895751Y-34988294D01*
X9706420Y-34909870D01*
X9706412Y-34909868D01*
X9503469Y-34869500D01*
X9503465Y-34869500D01*
X9296535Y-34869500D01*
X9296530Y-34869500D01*
X9093587Y-34909868D01*
X9093579Y-34909870D01*
X8902403Y-34989058D01*
X8730342Y-35104024D01*
X8584024Y-35250342D01*
X8469058Y-35422403D01*
X8389870Y-35613579D01*
X8389868Y-35613587D01*
X8349500Y-35816530D01*
X-13009946Y-35816530D01*
X-13003923Y-35786252D01*
X-12979501Y-35663469D01*
X-12979500Y-35663466D01*
X-12979500Y-35456534D01*
X-12979501Y-35456530D01*
X-12986289Y-35422403D01*
X-13019870Y-35253580D01*
X-13099059Y-35062402D01*
X-13214023Y-34890345D01*
X-13214025Y-34890342D01*
X-13360343Y-34744024D01*
X-13446374Y-34686541D01*
X-13532402Y-34629059D01*
X-13551484Y-34621155D01*
X-13723580Y-34549870D01*
X-13723588Y-34549868D01*
X-13926531Y-34509500D01*
X-13926535Y-34509500D01*
X-14133465Y-34509500D01*
X-14133470Y-34509500D01*
X-14336413Y-34549868D01*
X-14336421Y-34549870D01*
X-14527597Y-34629058D01*
X-14699658Y-34744024D01*
X-14845976Y-34890342D01*
X-14960942Y-35062403D01*
X-15040130Y-35253579D01*
X-15040132Y-35253587D01*
X-15080500Y-35456530D01*
X-35839501Y-35456530D01*
X-35879870Y-35253580D01*
X-35959059Y-35062402D01*
X-36074023Y-34890345D01*
X-36074025Y-34890342D01*
X-36220343Y-34744024D01*
X-36306374Y-34686541D01*
X-36392402Y-34629059D01*
X-36411484Y-34621155D01*
X-36583580Y-34549870D01*
X-36583588Y-34549868D01*
X-36786531Y-34509500D01*
X-36786535Y-34509500D01*
X-36993465Y-34509500D01*
X-36993470Y-34509500D01*
X-37196413Y-34549868D01*
X-37196425Y-34549871D01*
X-37291972Y-34589448D01*
X-37361441Y-34596917D01*
X-37423920Y-34565641D01*
X-37427105Y-34562568D01*
X-38108881Y-33880792D01*
X-38142366Y-33819469D01*
X-38145200Y-33793111D01*
X-38145200Y-33353363D01*
X-38125515Y-33286324D01*
X-38072711Y-33240569D01*
X-38003553Y-33230625D01*
X-37939997Y-33259650D01*
X-37902223Y-33318428D01*
X-37900811Y-33324176D01*
X-37900130Y-33326420D01*
X-37820942Y-33517596D01*
X-37705976Y-33689657D01*
X-37559658Y-33835975D01*
X-37559655Y-33835977D01*
X-37387598Y-33950941D01*
X-37196420Y-34030130D01*
X-36993470Y-34070499D01*
X-36993466Y-34070500D01*
X-36993465Y-34070500D01*
X-36786534Y-34070500D01*
X-36786533Y-34070499D01*
X-36583580Y-34030130D01*
X-36392402Y-33950941D01*
X-36220345Y-33835977D01*
X-36074023Y-33689655D01*
X-35959059Y-33517598D01*
X-35879870Y-33326420D01*
X-35839500Y-33123465D01*
X-35839500Y-32916535D01*
X-35839501Y-32916530D01*
X-15080500Y-32916530D01*
X-15080500Y-33123469D01*
X-15040132Y-33326412D01*
X-15040130Y-33326420D01*
X-14960942Y-33517596D01*
X-14845976Y-33689657D01*
X-14699658Y-33835975D01*
X-14699655Y-33835977D01*
X-14527598Y-33950941D01*
X-14336420Y-34030130D01*
X-14133470Y-34070499D01*
X-14133466Y-34070500D01*
X-14133465Y-34070500D01*
X-13926534Y-34070500D01*
X-13926533Y-34070499D01*
X-13723580Y-34030130D01*
X-13532402Y-33950941D01*
X-13360345Y-33835977D01*
X-13214023Y-33689655D01*
X-13099059Y-33517598D01*
X-13019870Y-33326420D01*
X-13009946Y-33276530D01*
X8349500Y-33276530D01*
X8349500Y-33483469D01*
X8389868Y-33686412D01*
X8389870Y-33686420D01*
X8469058Y-33877596D01*
X8584024Y-34049657D01*
X8730342Y-34195975D01*
X8730345Y-34195977D01*
X8902402Y-34310941D01*
X9093580Y-34390130D01*
X9296530Y-34430499D01*
X9296534Y-34430500D01*
X9296535Y-34430500D01*
X9503466Y-34430500D01*
X9503467Y-34430499D01*
X9706420Y-34390130D01*
X9897598Y-34310941D01*
X10069655Y-34195977D01*
X10215977Y-34049655D01*
X10330941Y-33877598D01*
X10410130Y-33686420D01*
X10450500Y-33483465D01*
X10450500Y-33276535D01*
X10410130Y-33073580D01*
X10330941Y-32882402D01*
X10215977Y-32710345D01*
X10215975Y-32710342D01*
X10069657Y-32564024D01*
X9983626Y-32506541D01*
X9897598Y-32449059D01*
X9762709Y-32393186D01*
X9706420Y-32369870D01*
X9706412Y-32369868D01*
X9503469Y-32329500D01*
X9503465Y-32329500D01*
X9296535Y-32329500D01*
X9296530Y-32329500D01*
X9093587Y-32369868D01*
X9093579Y-32369870D01*
X8902403Y-32449058D01*
X8730342Y-32564024D01*
X8584024Y-32710342D01*
X8469058Y-32882403D01*
X8389870Y-33073579D01*
X8389868Y-33073587D01*
X8349500Y-33276530D01*
X-13009946Y-33276530D01*
X-13003923Y-33246252D01*
X-12979501Y-33123469D01*
X-12979500Y-33123466D01*
X-12979500Y-32916534D01*
X-12979501Y-32916530D01*
X-12986289Y-32882403D01*
X-13019870Y-32713580D01*
X-13099059Y-32522402D01*
X-13214023Y-32350345D01*
X-13214025Y-32350342D01*
X-13360343Y-32204024D01*
X-13464981Y-32134108D01*
X-13532402Y-32089059D01*
X-13609041Y-32057314D01*
X-13723580Y-32009870D01*
X-13723588Y-32009868D01*
X-13926531Y-31969500D01*
X-13926535Y-31969500D01*
X-14133465Y-31969500D01*
X-14133470Y-31969500D01*
X-14336413Y-32009868D01*
X-14336421Y-32009870D01*
X-14527597Y-32089058D01*
X-14699658Y-32204024D01*
X-14845976Y-32350342D01*
X-14960942Y-32522403D01*
X-15040130Y-32713579D01*
X-15040132Y-32713587D01*
X-15080500Y-32916530D01*
X-35839501Y-32916530D01*
X-35879870Y-32713580D01*
X-35959059Y-32522402D01*
X-36074023Y-32350345D01*
X-36074025Y-32350342D01*
X-36220343Y-32204024D01*
X-36324981Y-32134108D01*
X-36392402Y-32089059D01*
X-36469041Y-32057314D01*
X-36583580Y-32009870D01*
X-36583588Y-32009868D01*
X-36786531Y-31969500D01*
X-36786535Y-31969500D01*
X-36993465Y-31969500D01*
X-36993470Y-31969500D01*
X-37196413Y-32009868D01*
X-37196421Y-32009870D01*
X-37387597Y-32089058D01*
X-37559658Y-32204024D01*
X-37705976Y-32350342D01*
X-37820942Y-32522403D01*
X-37900130Y-32713579D01*
X-37901899Y-32719412D01*
X-37903775Y-32718843D01*
X-37931970Y-32772741D01*
X-37992687Y-32807313D01*
X-38062457Y-32803571D01*
X-38119127Y-32762703D01*
X-38144707Y-32697684D01*
X-38145200Y-32686636D01*
X-38145200Y-30813363D01*
X-38125515Y-30746324D01*
X-38072711Y-30700569D01*
X-38003553Y-30690625D01*
X-37939997Y-30719650D01*
X-37902223Y-30778428D01*
X-37900811Y-30784176D01*
X-37900130Y-30786420D01*
X-37820942Y-30977596D01*
X-37705976Y-31149657D01*
X-37559658Y-31295975D01*
X-37559655Y-31295977D01*
X-37387598Y-31410941D01*
X-37196420Y-31490130D01*
X-36993470Y-31530499D01*
X-36993466Y-31530500D01*
X-36993465Y-31530500D01*
X-36786534Y-31530500D01*
X-36786533Y-31530499D01*
X-36583580Y-31490130D01*
X-36392402Y-31410941D01*
X-36220345Y-31295977D01*
X-36074023Y-31149655D01*
X-35959059Y-30977598D01*
X-35879870Y-30786420D01*
X-35839500Y-30583465D01*
X-35839500Y-30376535D01*
X-35839501Y-30376530D01*
X-15080500Y-30376530D01*
X-15080500Y-30583469D01*
X-15040132Y-30786412D01*
X-15040130Y-30786420D01*
X-14960942Y-30977596D01*
X-14845976Y-31149657D01*
X-14699658Y-31295975D01*
X-14699655Y-31295977D01*
X-14527598Y-31410941D01*
X-14336420Y-31490130D01*
X-14133470Y-31530499D01*
X-14133466Y-31530500D01*
X-14133465Y-31530500D01*
X-13926534Y-31530500D01*
X-13926533Y-31530499D01*
X-13723580Y-31490130D01*
X-13532402Y-31410941D01*
X-13360345Y-31295977D01*
X-13214023Y-31149655D01*
X-13099059Y-30977598D01*
X-13019870Y-30786420D01*
X-13009946Y-30736530D01*
X8349500Y-30736530D01*
X8349500Y-30943469D01*
X8356289Y-30977598D01*
X8389870Y-31146420D01*
X8469059Y-31337598D01*
X8518065Y-31410941D01*
X8584024Y-31509657D01*
X8730342Y-31655975D01*
X8730345Y-31655977D01*
X8902402Y-31770941D01*
X9093580Y-31850130D01*
X9296530Y-31890499D01*
X9296534Y-31890500D01*
X9296535Y-31890500D01*
X9503466Y-31890500D01*
X9503467Y-31890499D01*
X9706420Y-31850130D01*
X9897598Y-31770941D01*
X10069655Y-31655977D01*
X10215977Y-31509655D01*
X10330941Y-31337598D01*
X10410130Y-31146420D01*
X10450500Y-30943465D01*
X10450500Y-30736535D01*
X10410130Y-30533580D01*
X10330941Y-30342402D01*
X10215977Y-30170345D01*
X10215975Y-30170342D01*
X10069657Y-30024024D01*
X9983626Y-29966541D01*
X9897598Y-29909059D01*
X9706420Y-29829870D01*
X9706412Y-29829868D01*
X9503469Y-29789500D01*
X9503465Y-29789500D01*
X9296535Y-29789500D01*
X9296530Y-29789500D01*
X9093587Y-29829868D01*
X9093579Y-29829870D01*
X8902403Y-29909058D01*
X8730342Y-30024024D01*
X8584024Y-30170342D01*
X8469058Y-30342403D01*
X8389870Y-30533579D01*
X8389868Y-30533587D01*
X8349500Y-30736530D01*
X-13009946Y-30736530D01*
X-13003923Y-30706252D01*
X-12979501Y-30583469D01*
X-12979500Y-30583466D01*
X-12979500Y-30376534D01*
X-12979501Y-30376530D01*
X-12986289Y-30342403D01*
X-13019870Y-30173580D01*
X-13099059Y-29982402D01*
X-13214023Y-29810345D01*
X-13214025Y-29810342D01*
X-13360343Y-29664024D01*
X-13446374Y-29606541D01*
X-13532402Y-29549059D01*
X-13552486Y-29540740D01*
X-13723580Y-29469870D01*
X-13723588Y-29469868D01*
X-13926531Y-29429500D01*
X-13926535Y-29429500D01*
X-14133465Y-29429500D01*
X-14133470Y-29429500D01*
X-14336413Y-29469868D01*
X-14336421Y-29469870D01*
X-14527597Y-29549058D01*
X-14699658Y-29664024D01*
X-14845976Y-29810342D01*
X-14960942Y-29982403D01*
X-15040130Y-30173579D01*
X-15040132Y-30173587D01*
X-15080500Y-30376530D01*
X-35839501Y-30376530D01*
X-35879870Y-30173580D01*
X-35959059Y-29982402D01*
X-36074023Y-29810345D01*
X-36074025Y-29810342D01*
X-36220343Y-29664024D01*
X-36306374Y-29606541D01*
X-36392402Y-29549059D01*
X-36412486Y-29540740D01*
X-36583580Y-29469870D01*
X-36583588Y-29469868D01*
X-36786531Y-29429500D01*
X-36786535Y-29429500D01*
X-36993465Y-29429500D01*
X-36993470Y-29429500D01*
X-37196413Y-29469868D01*
X-37196421Y-29469870D01*
X-37387597Y-29549058D01*
X-37559658Y-29664024D01*
X-37705976Y-29810342D01*
X-37820942Y-29982403D01*
X-37900130Y-30173579D01*
X-37901899Y-30179412D01*
X-37903775Y-30178843D01*
X-37931970Y-30232741D01*
X-37992687Y-30267313D01*
X-38062457Y-30263571D01*
X-38119127Y-30222703D01*
X-38144707Y-30157684D01*
X-38145200Y-30146636D01*
X-38145200Y-28273363D01*
X-38125515Y-28206324D01*
X-38072711Y-28160569D01*
X-38003553Y-28150625D01*
X-37939997Y-28179650D01*
X-37902223Y-28238428D01*
X-37900811Y-28244176D01*
X-37900130Y-28246420D01*
X-37835080Y-28403465D01*
X-37820941Y-28437598D01*
X-37810523Y-28453190D01*
X-37705976Y-28609657D01*
X-37559658Y-28755975D01*
X-37559655Y-28755977D01*
X-37387598Y-28870941D01*
X-37196420Y-28950130D01*
X-36993470Y-28990499D01*
X-36993466Y-28990500D01*
X-36993465Y-28990500D01*
X-36786534Y-28990500D01*
X-36786533Y-28990499D01*
X-36583580Y-28950130D01*
X-36392402Y-28870941D01*
X-36220345Y-28755977D01*
X-36074023Y-28609655D01*
X-35959059Y-28437598D01*
X-35879870Y-28246420D01*
X-35839500Y-28043465D01*
X-35839500Y-27836535D01*
X-35839501Y-27836530D01*
X-15080500Y-27836530D01*
X-15080500Y-28043469D01*
X-15040132Y-28246412D01*
X-15040130Y-28246420D01*
X-14975080Y-28403465D01*
X-14960941Y-28437598D01*
X-14950523Y-28453190D01*
X-14845976Y-28609657D01*
X-14699658Y-28755975D01*
X-14699655Y-28755977D01*
X-14527598Y-28870941D01*
X-14336420Y-28950130D01*
X-14133470Y-28990499D01*
X-14133466Y-28990500D01*
X-14133465Y-28990500D01*
X-13926534Y-28990500D01*
X-13926533Y-28990499D01*
X-13723580Y-28950130D01*
X-13532402Y-28870941D01*
X-13360345Y-28755977D01*
X-13214023Y-28609655D01*
X-13099059Y-28437598D01*
X-13019870Y-28246420D01*
X-12979500Y-28043465D01*
X-12979500Y-27836535D01*
X-13019870Y-27633580D01*
X-13099059Y-27442402D01*
X-13214023Y-27270345D01*
X-13214025Y-27270342D01*
X-13360343Y-27124024D01*
X-13492549Y-27035688D01*
X-13532402Y-27009059D01*
X-13551484Y-27001155D01*
X-13723580Y-26929870D01*
X-13723588Y-26929868D01*
X-13926531Y-26889500D01*
X-13926535Y-26889500D01*
X-14133465Y-26889500D01*
X-14133470Y-26889500D01*
X-14336413Y-26929868D01*
X-14336421Y-26929870D01*
X-14527597Y-27009058D01*
X-14699658Y-27124024D01*
X-14845976Y-27270342D01*
X-14960942Y-27442403D01*
X-15040130Y-27633579D01*
X-15040132Y-27633587D01*
X-15080500Y-27836530D01*
X-35839501Y-27836530D01*
X-35879870Y-27633580D01*
X-35959059Y-27442402D01*
X-36074023Y-27270345D01*
X-36074025Y-27270342D01*
X-36220343Y-27124024D01*
X-36352549Y-27035688D01*
X-36392402Y-27009059D01*
X-36411484Y-27001155D01*
X-36583580Y-26929870D01*
X-36583588Y-26929868D01*
X-36786531Y-26889500D01*
X-36786535Y-26889500D01*
X-36993465Y-26889500D01*
X-36993470Y-26889500D01*
X-37196413Y-26929868D01*
X-37196425Y-26929871D01*
X-37291972Y-26969448D01*
X-37361441Y-26976917D01*
X-37423920Y-26945641D01*
X-37427105Y-26942568D01*
X-37679281Y-26690392D01*
X-37712766Y-26629069D01*
X-37715600Y-26602711D01*
X-37715600Y-26343765D01*
X-37695915Y-26276726D01*
X-37643111Y-26230971D01*
X-37573953Y-26221027D01*
X-37522711Y-26240662D01*
X-37387598Y-26330941D01*
X-37196420Y-26410130D01*
X-36993470Y-26450499D01*
X-36993466Y-26450500D01*
X-36993465Y-26450500D01*
X-36786534Y-26450500D01*
X-36786533Y-26450499D01*
X-36583580Y-26410130D01*
X-36392402Y-26330941D01*
X-36220345Y-26215977D01*
X-36074023Y-26069655D01*
X-35959059Y-25897598D01*
X-35879870Y-25706420D01*
X-35839500Y-25503465D01*
X-35839500Y-25296535D01*
X-35839501Y-25296530D01*
X-15080500Y-25296530D01*
X-15080500Y-25503469D01*
X-15042862Y-25692686D01*
X-15040130Y-25706420D01*
X-14960941Y-25897598D01*
X-14903459Y-25983626D01*
X-14845976Y-26069657D01*
X-14699658Y-26215975D01*
X-14699655Y-26215977D01*
X-14527598Y-26330941D01*
X-14336420Y-26410130D01*
X-14133470Y-26450499D01*
X-14133466Y-26450500D01*
X-14133465Y-26450500D01*
X-13926534Y-26450500D01*
X-13926533Y-26450499D01*
X-13723580Y-26410130D01*
X-13532402Y-26330941D01*
X-13360345Y-26215977D01*
X-13214023Y-26069655D01*
X-13099059Y-25897598D01*
X-13019870Y-25706420D01*
X-12979500Y-25503465D01*
X-12979500Y-25296535D01*
X-13019870Y-25093580D01*
X-13099059Y-24902402D01*
X-13214023Y-24730345D01*
X-13214025Y-24730342D01*
X-13360343Y-24584024D01*
X-13446374Y-24526541D01*
X-13532402Y-24469059D01*
X-13551484Y-24461155D01*
X-13723580Y-24389870D01*
X-13723588Y-24389868D01*
X-13926531Y-24349500D01*
X-13926535Y-24349500D01*
X-14133465Y-24349500D01*
X-14133470Y-24349500D01*
X-14336413Y-24389868D01*
X-14336421Y-24389870D01*
X-14527597Y-24469058D01*
X-14699658Y-24584024D01*
X-14845976Y-24730342D01*
X-14960942Y-24902403D01*
X-15040130Y-25093579D01*
X-15040132Y-25093587D01*
X-15080500Y-25296530D01*
X-35839501Y-25296530D01*
X-35879870Y-25093580D01*
X-35919449Y-24998028D01*
X-35926918Y-24928558D01*
X-35895643Y-24866079D01*
X-35892597Y-24862922D01*
X-31243428Y-20213753D01*
X-15380000Y-20213753D01*
X-15380000Y-20426246D01*
X-15346758Y-20636127D01*
X-15346758Y-20636130D01*
X-15281096Y-20838217D01*
X-15184625Y-21027550D01*
X-15145272Y-21081716D01*
X-14512963Y-20449408D01*
X-14495925Y-20512993D01*
X-14430099Y-20627007D01*
X-14337007Y-20720099D01*
X-14222993Y-20785925D01*
X-14159410Y-20802962D01*
X-14791718Y-21435269D01*
X-14791718Y-21435270D01*
X-14737551Y-21474624D01*
X-14548218Y-21571095D01*
X-14372027Y-21628343D01*
X-14314352Y-21667780D01*
X-14287153Y-21732139D01*
X-14299068Y-21800985D01*
X-14346312Y-21852461D01*
X-14362892Y-21860835D01*
X-14527597Y-21929057D01*
X-14699658Y-22044024D01*
X-14845976Y-22190342D01*
X-14960942Y-22362403D01*
X-15040130Y-22553579D01*
X-15040132Y-22553587D01*
X-15080500Y-22756530D01*
X-15080500Y-22963469D01*
X-15040132Y-23166412D01*
X-15040130Y-23166420D01*
X-14960942Y-23357596D01*
X-14845976Y-23529657D01*
X-14699658Y-23675975D01*
X-14699655Y-23675977D01*
X-14527598Y-23790941D01*
X-14336420Y-23870130D01*
X-14186076Y-23900035D01*
X-14133470Y-23910499D01*
X-14133466Y-23910500D01*
X-14133465Y-23910500D01*
X-13926534Y-23910500D01*
X-13926533Y-23910499D01*
X-13723580Y-23870130D01*
X-13532402Y-23790941D01*
X-13360345Y-23675977D01*
X-13214023Y-23529655D01*
X-13099059Y-23357598D01*
X-13019870Y-23166420D01*
X-12979500Y-22963465D01*
X-12979500Y-22756535D01*
X-13019870Y-22553580D01*
X-13099059Y-22362402D01*
X-13214023Y-22190345D01*
X-13214025Y-22190342D01*
X-13360343Y-22044024D01*
X-13495410Y-21953776D01*
X-13532402Y-21929059D01*
X-13532407Y-21929057D01*
X-13618690Y-21893317D01*
X-13697110Y-21860834D01*
X-13751512Y-21816994D01*
X-13773577Y-21750700D01*
X-13756298Y-21683001D01*
X-13705161Y-21635390D01*
X-13687974Y-21628343D01*
X-13511783Y-21571095D01*
X-13455398Y-21542365D01*
X-6320500Y-21542365D01*
X-6320500Y-23257634D01*
X-6289955Y-23450485D01*
X-6229619Y-23636184D01*
X-6229618Y-23636187D01*
X-6192389Y-23709251D01*
X-6150766Y-23790941D01*
X-6140969Y-23810167D01*
X-6026207Y-23968125D01*
X-6026203Y-23968130D01*
X-5888131Y-24106202D01*
X-5888126Y-24106206D01*
X-5750347Y-24206307D01*
X-5730164Y-24220971D01*
X-5646390Y-24263656D01*
X-5556188Y-24309617D01*
X-5556185Y-24309618D01*
X-5492226Y-24330399D01*
X-5370484Y-24369955D01*
X-5281165Y-24384101D01*
X-5177634Y-24400500D01*
X-5177629Y-24400500D01*
X-4982366Y-24400500D01*
X-4888875Y-24385691D01*
X-4789516Y-24369955D01*
X-4603813Y-24309617D01*
X-4429836Y-24220971D01*
X-4271868Y-24106201D01*
X-4133799Y-23968132D01*
X-4019029Y-23810164D01*
X-3930383Y-23636187D01*
X-3870045Y-23450484D01*
X-3843233Y-23281200D01*
X-3839500Y-23257634D01*
X-3839500Y-21542366D01*
X-3840932Y-21533326D01*
X-3840932Y-21533325D01*
X-3843233Y-21518799D01*
X-1540000Y-21518799D01*
X-1540000Y-22150000D01*
X-654121Y-22150000D01*
X-673099Y-22195818D01*
X-700000Y-22331056D01*
X-700000Y-22468944D01*
X-673099Y-22604182D01*
X-654121Y-22650000D01*
X-1540000Y-22650000D01*
X-1540000Y-23281200D01*
X-1502080Y-23520618D01*
X-1427173Y-23751159D01*
X-1317126Y-23967136D01*
X-1174644Y-24163245D01*
X-1003246Y-24334643D01*
X-807137Y-24477125D01*
X-591160Y-24587172D01*
X-360619Y-24662080D01*
X-250000Y-24679600D01*
X-250000Y-23054120D01*
X-204182Y-23073099D01*
X-68944Y-23100000D01*
X68944Y-23100000D01*
X204182Y-23073099D01*
X250000Y-23054120D01*
X250000Y-24679599D01*
X360618Y-24662080D01*
X591159Y-24587172D01*
X807136Y-24477125D01*
X1003245Y-24334643D01*
X1174643Y-24163245D01*
X1317125Y-23967136D01*
X1427172Y-23751159D01*
X1502079Y-23520618D01*
X1540000Y-23281200D01*
X1540000Y-22650000D01*
X654121Y-22650000D01*
X673099Y-22604182D01*
X700000Y-22468944D01*
X700000Y-22331056D01*
X673099Y-22195818D01*
X654121Y-22150000D01*
X1540000Y-22150000D01*
X1540000Y-21518799D01*
X1502079Y-21279381D01*
X1427172Y-21048840D01*
X1325413Y-20849129D01*
X1325412Y-20849127D01*
X1317127Y-20832865D01*
X1290146Y-20795729D01*
X3839500Y-20795729D01*
X3839500Y-24004260D01*
X3839501Y-24004266D01*
X3842354Y-24034700D01*
X3842354Y-24034702D01*
X3842355Y-24034703D01*
X3842355Y-24034705D01*
X3887206Y-24162882D01*
X3967849Y-24272150D01*
X4000561Y-24296292D01*
X4077117Y-24352793D01*
X4116915Y-24366719D01*
X4205298Y-24397646D01*
X4212323Y-24398304D01*
X4235733Y-24400500D01*
X5924266Y-24400499D01*
X5954700Y-24397646D01*
X6082883Y-24352793D01*
X6192150Y-24272150D01*
X6272793Y-24162883D01*
X6295219Y-24098791D01*
X6317646Y-24034702D01*
X6317646Y-24034700D01*
X6318735Y-24023086D01*
X6320500Y-24004267D01*
X6320499Y-20795734D01*
X6317646Y-20765300D01*
X6272793Y-20637117D01*
X6272062Y-20636127D01*
X6192150Y-20527849D01*
X6107474Y-20465356D01*
X6082883Y-20447207D01*
X6082881Y-20447206D01*
X5954701Y-20402353D01*
X5924270Y-20399500D01*
X4235739Y-20399500D01*
X4221751Y-20400811D01*
X4205300Y-20402354D01*
X4205297Y-20402354D01*
X4205296Y-20402355D01*
X4205294Y-20402355D01*
X4077117Y-20447206D01*
X3967849Y-20527849D01*
X3887206Y-20637118D01*
X3842353Y-20765297D01*
X3842353Y-20765299D01*
X3839500Y-20795729D01*
X1290146Y-20795729D01*
X1174643Y-20636754D01*
X1003245Y-20465356D01*
X807136Y-20322874D01*
X591157Y-20212827D01*
X360614Y-20137919D01*
X250000Y-20120399D01*
X250000Y-21745879D01*
X204182Y-21726901D01*
X68944Y-21700000D01*
X-68944Y-21700000D01*
X-204182Y-21726901D01*
X-250000Y-21745879D01*
X-250000Y-20120399D01*
X-250001Y-20120399D01*
X-360615Y-20137919D01*
X-591158Y-20212827D01*
X-807137Y-20322874D01*
X-1003246Y-20465356D01*
X-1174644Y-20636754D01*
X-1317126Y-20832863D01*
X-1427173Y-21048840D01*
X-1502080Y-21279381D01*
X-1540000Y-21518799D01*
X-3843233Y-21518799D01*
X-3856463Y-21435269D01*
X-3870045Y-21349516D01*
X-3930383Y-21163813D01*
X-3930383Y-21163812D01*
X-3985072Y-21056481D01*
X-4019029Y-20989836D01*
X-4121258Y-20849129D01*
X-4133794Y-20831874D01*
X-4133798Y-20831869D01*
X-4271870Y-20693797D01*
X-4271875Y-20693793D01*
X-4429833Y-20579031D01*
X-4429834Y-20579030D01*
X-4429836Y-20579029D01*
X-4485574Y-20550629D01*
X-4603813Y-20490382D01*
X-4603816Y-20490381D01*
X-4789515Y-20430045D01*
X-4982366Y-20399500D01*
X-4982371Y-20399500D01*
X-5177629Y-20399500D01*
X-5177634Y-20399500D01*
X-5370486Y-20430045D01*
X-5556185Y-20490381D01*
X-5556188Y-20490382D01*
X-5730168Y-20579031D01*
X-5888126Y-20693793D01*
X-5888131Y-20693797D01*
X-6026203Y-20831869D01*
X-6026207Y-20831874D01*
X-6140969Y-20989832D01*
X-6229618Y-21163812D01*
X-6229619Y-21163815D01*
X-6289955Y-21349514D01*
X-6320500Y-21542365D01*
X-13455398Y-21542365D01*
X-13322446Y-21474622D01*
X-13270912Y-21437181D01*
X-13268284Y-21435270D01*
X-13268283Y-21435270D01*
X-13900592Y-20802962D01*
X-13837007Y-20785925D01*
X-13722993Y-20720099D01*
X-13629901Y-20627007D01*
X-13564075Y-20512993D01*
X-13547038Y-20449409D01*
X-12914730Y-21081717D01*
X-12914730Y-21081716D01*
X-12875378Y-21027554D01*
X-12778905Y-20838217D01*
X-12713243Y-20636130D01*
X-12713243Y-20636127D01*
X-12680000Y-20426246D01*
X-12680000Y-20213753D01*
X-12713243Y-20003872D01*
X-12713243Y-20003869D01*
X-12778905Y-19801782D01*
X-12875376Y-19612449D01*
X-12914730Y-19558282D01*
X-12914731Y-19558282D01*
X-13547038Y-20190590D01*
X-13564075Y-20127007D01*
X-13629901Y-20012993D01*
X-13722993Y-19919901D01*
X-13837007Y-19854075D01*
X-13900591Y-19837037D01*
X-13268284Y-19204728D01*
X-13322450Y-19165375D01*
X-13511783Y-19068904D01*
X-13713871Y-19003242D01*
X-13923754Y-18970000D01*
X-14136246Y-18970000D01*
X-14346128Y-19003242D01*
X-14346131Y-19003242D01*
X-14548218Y-19068904D01*
X-14737561Y-19165380D01*
X-14791718Y-19204727D01*
X-14791718Y-19204728D01*
X-14159409Y-19837037D01*
X-14222993Y-19854075D01*
X-14337007Y-19919901D01*
X-14430099Y-20012993D01*
X-14495925Y-20127007D01*
X-14512963Y-20190591D01*
X-15145272Y-19558282D01*
X-15145273Y-19558282D01*
X-15184620Y-19612439D01*
X-15281096Y-19801782D01*
X-15346758Y-20003869D01*
X-15346758Y-20003872D01*
X-15380000Y-20213753D01*
X-31243428Y-20213753D01*
X-10782121Y247553D01*
X-6300500Y247553D01*
X-6300500Y-247552D01*
X-6261656Y-741106D01*
X-6261654Y-741125D01*
X-6230818Y-935814D01*
X-6184205Y-1230115D01*
X-6068628Y-1711530D01*
X-6055966Y-1750499D01*
X-5915638Y-2182387D01*
X-5831236Y-2386151D01*
X-5726171Y-2639801D01*
X-5554881Y-2975975D01*
X-5501399Y-3080938D01*
X-5501393Y-3080949D01*
X-5242722Y-3503061D01*
X-5242715Y-3503072D01*
X-4965939Y-3884023D01*
X-4951707Y-3903611D01*
X-4630169Y-4280084D01*
X-4280084Y-4630169D01*
X-3903611Y-4951707D01*
X-3503071Y-5242716D01*
X-3332532Y-5347222D01*
X-3080950Y-5501392D01*
X-3080944Y-5501395D01*
X-3080933Y-5501402D01*
X-2639801Y-5726171D01*
X-2182393Y-5915635D01*
X-2182388Y-5915637D01*
X-2062665Y-5954537D01*
X-1711530Y-6068628D01*
X-1230115Y-6184205D01*
X-741116Y-6261655D01*
X-247547Y-6300500D01*
X-247539Y-6300500D01*
X247539Y-6300500D01*
X247547Y-6300500D01*
X741116Y-6261655D01*
X1230115Y-6184205D01*
X1711530Y-6068628D01*
X2182393Y-5915635D01*
X2639801Y-5726171D01*
X3080933Y-5501402D01*
X3503071Y-5242716D01*
X3903611Y-4951707D01*
X4280084Y-4630169D01*
X4630169Y-4280084D01*
X4951707Y-3903611D01*
X5242716Y-3503071D01*
X5501402Y-3080933D01*
X5726171Y-2639801D01*
X5915635Y-2182393D01*
X6068628Y-1711530D01*
X6184205Y-1230115D01*
X6261655Y-741116D01*
X6300500Y-247547D01*
X6300500Y247547D01*
X6261655Y741116D01*
X6184205Y1230115D01*
X6068628Y1711530D01*
X5915635Y2182393D01*
X5726171Y2639801D01*
X5501402Y3080933D01*
X5242716Y3503071D01*
X4951707Y3903611D01*
X4630169Y4280084D01*
X4280084Y4630169D01*
X3903611Y4951707D01*
X3874591Y4972791D01*
X3503072Y5242715D01*
X3503071Y5242716D01*
X3337464Y5344200D01*
X3080949Y5501393D01*
X3080938Y5501399D01*
X3080937Y5501400D01*
X3080933Y5501402D01*
X2639801Y5726171D01*
X2428839Y5813554D01*
X2182387Y5915638D01*
X1806144Y6037886D01*
X1711530Y6068628D01*
X1230115Y6184205D01*
X1189139Y6190695D01*
X741125Y6261654D01*
X741116Y6261655D01*
X741114Y6261656D01*
X741106Y6261656D01*
X247552Y6300500D01*
X247547Y6300500D01*
X-247547Y6300500D01*
X-247553Y6300500D01*
X-741107Y6261656D01*
X-741126Y6261654D01*
X-1230110Y6184206D01*
X-1230113Y6184206D01*
X-1230115Y6184205D01*
X-1333323Y6159427D01*
X-1711519Y6068631D01*
X-1711525Y6068630D01*
X-1711530Y6068628D01*
X-1711542Y6068624D01*
X-2182388Y5915638D01*
X-2639799Y5726172D01*
X-3080939Y5501399D01*
X-3080950Y5501393D01*
X-3503062Y5242722D01*
X-3503073Y5242715D01*
X-3903604Y4951713D01*
X-3903618Y4951702D01*
X-4280078Y4630175D01*
X-4280092Y4630162D01*
X-4630162Y4280092D01*
X-4630175Y4280078D01*
X-4951702Y3903618D01*
X-4951713Y3903604D01*
X-5242715Y3503073D01*
X-5242722Y3503062D01*
X-5501393Y3080950D01*
X-5501399Y3080939D01*
X-5726172Y2639799D01*
X-5915638Y2182388D01*
X-6037948Y1805953D01*
X-6065697Y1720549D01*
X-6068624Y1711542D01*
X-6068631Y1711519D01*
X-6184206Y1230110D01*
X-6261654Y741126D01*
X-6261656Y741107D01*
X-6300500Y247553D01*
X-10782121Y247553D01*
X-3079535Y7950138D01*
X-3036682Y8024361D01*
X-3014500Y8107147D01*
X-3014500Y8192853D01*
X-3014500Y25129505D01*
X-2994815Y25196544D01*
X-2942011Y25242299D01*
X-2872853Y25252243D01*
X-2809297Y25223218D01*
X-2802819Y25217186D01*
X-2739658Y25154025D01*
X-2739655Y25154023D01*
X-2567598Y25039059D01*
X-2376420Y24959870D01*
X-2231948Y24931133D01*
X-2173470Y24919501D01*
X-2173466Y24919500D01*
X-2173465Y24919500D01*
X-1966534Y24919500D01*
X-1966533Y24919501D01*
X-1763580Y24959870D01*
X-1668030Y24999450D01*
X-1598561Y25006918D01*
X-1536082Y24975643D01*
X-1532896Y24972569D01*
X5585481Y17854192D01*
X5618966Y17792869D01*
X5621800Y17766511D01*
X5621800Y6278376D01*
X5602115Y6211337D01*
X5585481Y6190695D01*
X5546802Y6152017D01*
X5546800Y6152014D01*
X5480908Y6037888D01*
X5450908Y5925925D01*
X5446800Y5910592D01*
X5446800Y5778808D01*
X5447518Y5776128D01*
X5480908Y5651513D01*
X5513854Y5594450D01*
X5546800Y5537386D01*
X5639986Y5444200D01*
X5738821Y5387137D01*
X5752054Y5379497D01*
X5754114Y5378308D01*
X5881408Y5344200D01*
X5881410Y5344200D01*
X6013190Y5344200D01*
X6013192Y5344200D01*
X6140486Y5378308D01*
X6254614Y5444200D01*
X6347800Y5537386D01*
X6413692Y5651514D01*
X6447800Y5778808D01*
X6447800Y5910592D01*
X6413692Y6037886D01*
X6347800Y6152014D01*
X6309119Y6190695D01*
X6275634Y6252018D01*
X6272800Y6278376D01*
X6272800Y6753524D01*
X6292485Y6820563D01*
X6345289Y6866318D01*
X6414447Y6876262D01*
X6478003Y6847237D01*
X6484481Y6841205D01*
X6526886Y6798800D01*
X6641014Y6732908D01*
X6768308Y6698800D01*
X6768310Y6698800D01*
X6900090Y6698800D01*
X6900092Y6698800D01*
X7027386Y6732908D01*
X7141514Y6798800D01*
X7234700Y6891986D01*
X7300592Y7006114D01*
X7334700Y7133408D01*
X7334700Y7265192D01*
X7300592Y7392486D01*
X7234700Y7506614D01*
X7196019Y7545295D01*
X7162534Y7606618D01*
X7159700Y7632976D01*
X7159700Y19444151D01*
X7159700Y19444153D01*
X7137518Y19526938D01*
X7127973Y19543470D01*
X7094669Y19601156D01*
X7094663Y19601164D01*
X4641819Y22054008D01*
X4608334Y22115331D01*
X4605500Y22141689D01*
X4605500Y25129505D01*
X4625185Y25196544D01*
X4677989Y25242299D01*
X4747147Y25252243D01*
X4810703Y25223218D01*
X4817181Y25217186D01*
X4880342Y25154025D01*
X4880345Y25154023D01*
X5052402Y25039059D01*
X5243580Y24959870D01*
X5388052Y24931133D01*
X5446530Y24919501D01*
X5446534Y24919500D01*
X5446535Y24919500D01*
X5653466Y24919500D01*
X5653467Y24919501D01*
X5856420Y24959870D01*
X6047598Y25039059D01*
X6219655Y25154023D01*
X6365977Y25300345D01*
X6480941Y25472402D01*
X6549165Y25637111D01*
X6593004Y25691512D01*
X6659298Y25713577D01*
X6726998Y25696298D01*
X6774609Y25645161D01*
X6781656Y25627974D01*
X6838904Y25451784D01*
X6935375Y25262450D01*
X6974728Y25208284D01*
X7607037Y25840592D01*
X7624075Y25777007D01*
X7689901Y25662993D01*
X7782993Y25569901D01*
X7897007Y25504075D01*
X7960589Y25487038D01*
X7328282Y24854731D01*
X7328282Y24854730D01*
X7382449Y24815376D01*
X7571782Y24718905D01*
X7773870Y24653243D01*
X7983754Y24620000D01*
X8196246Y24620000D01*
X8406127Y24653243D01*
X8406130Y24653243D01*
X8608217Y24718905D01*
X8770705Y24801697D01*
X8839374Y24814593D01*
X8904114Y24788317D01*
X8944372Y24731211D01*
X8951000Y24691212D01*
X8951000Y-27270307D01*
X8931315Y-27337346D01*
X8895890Y-27373409D01*
X8730349Y-27484019D01*
X8730341Y-27484025D01*
X8584024Y-27630342D01*
X8469058Y-27802403D01*
X8389870Y-27993579D01*
X8389868Y-27993587D01*
X8349500Y-28196530D01*
X8349500Y-28403469D01*
X8389868Y-28606412D01*
X8389870Y-28606420D01*
X8469058Y-28797596D01*
X8584024Y-28969657D01*
X8730342Y-29115975D01*
X8730345Y-29115977D01*
X8902402Y-29230941D01*
X9093580Y-29310130D01*
X9296530Y-29350499D01*
X9296534Y-29350500D01*
X9296535Y-29350500D01*
X9503466Y-29350500D01*
X9503467Y-29350499D01*
X9706420Y-29310130D01*
X9897598Y-29230941D01*
X10069655Y-29115977D01*
X10215977Y-28969655D01*
X10330941Y-28797598D01*
X10410130Y-28606420D01*
X10450500Y-28403465D01*
X10450500Y-28196535D01*
X10410130Y-27993580D01*
X10330941Y-27802402D01*
X10215977Y-27630345D01*
X10215975Y-27630342D01*
X10069657Y-27484024D01*
X9981316Y-27424997D01*
X9897598Y-27369059D01*
X9884870Y-27363787D01*
X9706420Y-27289870D01*
X9706418Y-27289869D01*
X9701805Y-27288952D01*
X9639895Y-27256565D01*
X9605323Y-27195848D01*
X9602000Y-27167335D01*
X9602000Y13575193D01*
X9621685Y13642232D01*
X9674489Y13687987D01*
X9743647Y13697931D01*
X9758084Y13694970D01*
X9828508Y13676100D01*
X9828510Y13676100D01*
X9960290Y13676100D01*
X9960292Y13676100D01*
X10087586Y13710208D01*
X10201714Y13776100D01*
X10294900Y13869286D01*
X10360792Y13983414D01*
X10394900Y14110708D01*
X10394900Y14165411D01*
X10414585Y14232450D01*
X10431219Y14253092D01*
X12472792Y16294665D01*
X14559565Y18381438D01*
X14602417Y18455661D01*
X14602418Y18455662D01*
X14624600Y18538447D01*
X14624600Y37009953D01*
X14602418Y37092738D01*
X14602418Y37092739D01*
X14559565Y37166962D01*
X11585708Y40140819D01*
X11552223Y40202142D01*
X11557207Y40271834D01*
X11585708Y40316181D01*
X17732708Y46463181D01*
X17794031Y46496666D01*
X17797192Y46497311D01*
X17808687Y46499500D01*
X17875092Y46499500D01*
X18002386Y46533608D01*
X18009568Y46537755D01*
X18027303Y46541132D01*
X18049919Y46538922D01*
X18072518Y46541351D01*
X18084030Y46535588D01*
X18096841Y46534336D01*
X18114673Y46520249D01*
X18134997Y46510075D01*
X18141565Y46499005D01*
X18151667Y46491024D01*
X18159052Y46469531D01*
X18170649Y46449985D01*
X18173460Y46427600D01*
X18174372Y46424946D01*
X18173989Y46423385D01*
X18174500Y46419321D01*
X18174500Y-31766324D01*
X18154815Y-31833363D01*
X18138181Y-31854005D01*
X18099502Y-31892683D01*
X18099500Y-31892686D01*
X18033608Y-32006812D01*
X17999500Y-32134108D01*
X17999500Y-32265891D01*
X18033608Y-32393187D01*
X18051944Y-32424945D01*
X18099500Y-32507314D01*
X18192686Y-32600500D01*
X18306814Y-32666392D01*
X18434108Y-32700500D01*
X18434110Y-32700500D01*
X18565890Y-32700500D01*
X18565892Y-32700500D01*
X18693186Y-32666392D01*
X18807314Y-32600500D01*
X18900500Y-32507314D01*
X18966392Y-32393186D01*
X19000500Y-32265892D01*
X19000500Y-32134108D01*
X18966392Y-32006814D01*
X18900500Y-31892686D01*
X18861819Y-31854005D01*
X18828334Y-31792682D01*
X18825500Y-31766324D01*
X18825500Y-1058552D01*
X18845185Y-991513D01*
X18897989Y-945758D01*
X18967147Y-935814D01*
X19030703Y-964839D01*
X19047875Y-983065D01*
X19181081Y-1156661D01*
X19181089Y-1156670D01*
X19343330Y-1318911D01*
X19343338Y-1318918D01*
X19525382Y-1458607D01*
X19525385Y-1458608D01*
X19525388Y-1458611D01*
X19724112Y-1573344D01*
X19724117Y-1573346D01*
X19724123Y-1573349D01*
X19815480Y-1611190D01*
X19936113Y-1661158D01*
X20157762Y-1720548D01*
X20385266Y-1750500D01*
X20385273Y-1750500D01*
X20614727Y-1750500D01*
X20614734Y-1750500D01*
X20842238Y-1720548D01*
X21063887Y-1661158D01*
X21275888Y-1573344D01*
X21474612Y-1458611D01*
X21656661Y-1318919D01*
X21656665Y-1318914D01*
X21656670Y-1318911D01*
X21818911Y-1156670D01*
X21818914Y-1156665D01*
X21818919Y-1156661D01*
X21924947Y-1018482D01*
X21952125Y-983065D01*
X22008553Y-941863D01*
X22078299Y-937708D01*
X22139219Y-971921D01*
X22171971Y-1033638D01*
X22174500Y-1058552D01*
X22174500Y-36066324D01*
X22154815Y-36133363D01*
X22138181Y-36154005D01*
X22099502Y-36192683D01*
X22099500Y-36192686D01*
X22033608Y-36306812D01*
X22015076Y-36375977D01*
X21999500Y-36434108D01*
X21999500Y-36565892D01*
X22000636Y-36570130D01*
X22033608Y-36693187D01*
X22052508Y-36725922D01*
X22099500Y-36807314D01*
X22192686Y-36900500D01*
X22306814Y-36966392D01*
X22434108Y-37000500D01*
X22434110Y-37000500D01*
X22565890Y-37000500D01*
X22565892Y-37000500D01*
X22693186Y-36966392D01*
X22807314Y-36900500D01*
X22900500Y-36807314D01*
X22966392Y-36693186D01*
X23000500Y-36565892D01*
X23000500Y-36434108D01*
X22966392Y-36306814D01*
X22900500Y-36192686D01*
X22861819Y-36154005D01*
X22828334Y-36092682D01*
X22825500Y-36066324D01*
X22825500Y-12858064D01*
X22845185Y-12791025D01*
X22897989Y-12745270D01*
X22967147Y-12735326D01*
X23030703Y-12764351D01*
X23041306Y-12774711D01*
X23050238Y-12784549D01*
X23056800Y-12795914D01*
X23097604Y-12836718D01*
X23099606Y-12838923D01*
X23113603Y-12867783D01*
X23128966Y-12895918D01*
X23129455Y-12900467D01*
X23130096Y-12901789D01*
X23129832Y-12903979D01*
X23131800Y-12922276D01*
X23131800Y-23594347D01*
X23131800Y-23680053D01*
X23142891Y-23721446D01*
X23153982Y-23762840D01*
X23170207Y-23790941D01*
X23196835Y-23837062D01*
X23196836Y-23837063D01*
X23196837Y-23837064D01*
X26307781Y-26948007D01*
X26341266Y-27009330D01*
X26344100Y-27035688D01*
X26344100Y-27090391D01*
X26378208Y-27217687D01*
X26390823Y-27239536D01*
X26444100Y-27331814D01*
X26537286Y-27425000D01*
X26651414Y-27490892D01*
X26778708Y-27525000D01*
X26778710Y-27525000D01*
X26910490Y-27525000D01*
X26910492Y-27525000D01*
X27037786Y-27490892D01*
X27151914Y-27425000D01*
X27245100Y-27331814D01*
X27310992Y-27217686D01*
X27310992Y-27217685D01*
X27311810Y-27216269D01*
X27336037Y-27193167D01*
X27359686Y-27169483D01*
X27361231Y-27169145D01*
X27362377Y-27168053D01*
X27395261Y-27161715D01*
X27427947Y-27154578D01*
X27429429Y-27155129D01*
X27430984Y-27154830D01*
X27462066Y-27167273D01*
X27493431Y-27178944D01*
X27494652Y-27180318D01*
X27495849Y-27180798D01*
X27518407Y-27203882D01*
X27522866Y-27209829D01*
X27564600Y-27282114D01*
X27614420Y-27331934D01*
X27619710Y-27338989D01*
X27628980Y-27363787D01*
X27641666Y-27387018D01*
X27643280Y-27402036D01*
X27644177Y-27404434D01*
X27643750Y-27406403D01*
X27644500Y-27413376D01*
X27644500Y-27542852D01*
X27666682Y-27625637D01*
X27666685Y-27625644D01*
X27709530Y-27699855D01*
X27709534Y-27699860D01*
X27709535Y-27699862D01*
X27770138Y-27760465D01*
X27770140Y-27760466D01*
X27770144Y-27760469D01*
X27842775Y-27802402D01*
X27844362Y-27803318D01*
X27927147Y-27825500D01*
X28012853Y-27825500D01*
X29700500Y-27825500D01*
X29767539Y-27845185D01*
X29813294Y-27897989D01*
X29824500Y-27949500D01*
X29824500Y-40066324D01*
X29804815Y-40133363D01*
X29788181Y-40154005D01*
X29749502Y-40192683D01*
X29749500Y-40192686D01*
X29683608Y-40306812D01*
X29649500Y-40434108D01*
X29649500Y-40565891D01*
X29683608Y-40693187D01*
X29716410Y-40750000D01*
X29749500Y-40807314D01*
X29842686Y-40900500D01*
X29956814Y-40966392D01*
X30084108Y-41000500D01*
X30084110Y-41000500D01*
X30215890Y-41000500D01*
X30215892Y-41000500D01*
X30343186Y-40966392D01*
X30457314Y-40900500D01*
X30550500Y-40807314D01*
X30550504Y-40807306D01*
X30551625Y-40805847D01*
X30552892Y-40804921D01*
X30556247Y-40801567D01*
X30556770Y-40802090D01*
X30608053Y-40764645D01*
X30677799Y-40760491D01*
X30738719Y-40794704D01*
X30748375Y-40805847D01*
X30749498Y-40807311D01*
X30749500Y-40807314D01*
X30842686Y-40900500D01*
X30956814Y-40966392D01*
X31084108Y-41000500D01*
X31084110Y-41000500D01*
X31215890Y-41000500D01*
X31215892Y-41000500D01*
X31343186Y-40966392D01*
X31457314Y-40900500D01*
X31550500Y-40807314D01*
X31616392Y-40693186D01*
X31650500Y-40565892D01*
X31650500Y-40434108D01*
X31616392Y-40306814D01*
X31550500Y-40192686D01*
X31511819Y-40154005D01*
X31478334Y-40092682D01*
X31475500Y-40066324D01*
X31475500Y-35180247D01*
X37249500Y-35180247D01*
X37249500Y-36819752D01*
X37261131Y-36878229D01*
X37261132Y-36878230D01*
X37305447Y-36944552D01*
X37371769Y-36988867D01*
X37371770Y-36988868D01*
X37430247Y-37000499D01*
X37430250Y-37000500D01*
X37430252Y-37000500D01*
X39069750Y-37000500D01*
X39069751Y-37000499D01*
X39084568Y-36997552D01*
X39128229Y-36988868D01*
X39128229Y-36988867D01*
X39128231Y-36988867D01*
X39194552Y-36944552D01*
X39238867Y-36878231D01*
X39238867Y-36878229D01*
X39238868Y-36878229D01*
X39250499Y-36819752D01*
X39250500Y-36819750D01*
X39250500Y-35897682D01*
X40450000Y-35897682D01*
X40450000Y-36102317D01*
X40482009Y-36304417D01*
X40545244Y-36499031D01*
X40638141Y-36681350D01*
X40638147Y-36681359D01*
X40670523Y-36725921D01*
X40670524Y-36725922D01*
X41350000Y-36046446D01*
X41350000Y-36052661D01*
X41377259Y-36154394D01*
X41429920Y-36245606D01*
X41504394Y-36320080D01*
X41595606Y-36372741D01*
X41697339Y-36400000D01*
X41703553Y-36400000D01*
X41024076Y-37079474D01*
X41068650Y-37111859D01*
X41250968Y-37204755D01*
X41445582Y-37267990D01*
X41647683Y-37300000D01*
X41852317Y-37300000D01*
X42054417Y-37267990D01*
X42249031Y-37204755D01*
X42431349Y-37111859D01*
X42475921Y-37079474D01*
X41796447Y-36400000D01*
X41802661Y-36400000D01*
X41904394Y-36372741D01*
X41995606Y-36320080D01*
X42070080Y-36245606D01*
X42122741Y-36154394D01*
X42150000Y-36052661D01*
X42150000Y-36046448D01*
X42829474Y-36725922D01*
X42829474Y-36725921D01*
X42861859Y-36681349D01*
X42954755Y-36499031D01*
X43017990Y-36304417D01*
X43050000Y-36102317D01*
X43050000Y-35897682D01*
X43017990Y-35695582D01*
X42954755Y-35500968D01*
X42861859Y-35318650D01*
X42829474Y-35274077D01*
X42829474Y-35274076D01*
X42150000Y-35953551D01*
X42150000Y-35947339D01*
X42122741Y-35845606D01*
X42070080Y-35754394D01*
X41995606Y-35679920D01*
X41904394Y-35627259D01*
X41802661Y-35600000D01*
X41796446Y-35600000D01*
X42475922Y-34920524D01*
X42475921Y-34920523D01*
X42431359Y-34888147D01*
X42431350Y-34888141D01*
X42249031Y-34795244D01*
X42054417Y-34732009D01*
X41852317Y-34700000D01*
X41647683Y-34700000D01*
X41445582Y-34732009D01*
X41250968Y-34795244D01*
X41068644Y-34888143D01*
X41024077Y-34920523D01*
X41024077Y-34920524D01*
X41703554Y-35600000D01*
X41697339Y-35600000D01*
X41595606Y-35627259D01*
X41504394Y-35679920D01*
X41429920Y-35754394D01*
X41377259Y-35845606D01*
X41350000Y-35947339D01*
X41350000Y-35953553D01*
X40670524Y-35274077D01*
X40670523Y-35274077D01*
X40638143Y-35318644D01*
X40545244Y-35500968D01*
X40482009Y-35695582D01*
X40450000Y-35897682D01*
X39250500Y-35897682D01*
X39250500Y-35180249D01*
X39250499Y-35180247D01*
X39238868Y-35121770D01*
X39238867Y-35121769D01*
X39194552Y-35055447D01*
X39128230Y-35011132D01*
X39128229Y-35011131D01*
X39069752Y-34999500D01*
X39069748Y-34999500D01*
X38699500Y-34999500D01*
X38632461Y-34979815D01*
X38586706Y-34927011D01*
X38575500Y-34875500D01*
X38575500Y-27359041D01*
X45480897Y-27359041D01*
X45480897Y-27640958D01*
X45517692Y-27920439D01*
X45590656Y-28192743D01*
X45698532Y-28453179D01*
X45698537Y-28453190D01*
X45788873Y-28609655D01*
X45839485Y-28697317D01*
X45916434Y-28797598D01*
X46011101Y-28920970D01*
X46210426Y-29120295D01*
X46210430Y-29120298D01*
X46210432Y-29120300D01*
X46434080Y-29291912D01*
X46434087Y-29291916D01*
X46678206Y-29432859D01*
X46678211Y-29432861D01*
X46678214Y-29432863D01*
X46938658Y-29540742D01*
X47210955Y-29613704D01*
X47490446Y-29650500D01*
X47490453Y-29650500D01*
X47772341Y-29650500D01*
X47772348Y-29650500D01*
X48051839Y-29613704D01*
X48324136Y-29540742D01*
X48584580Y-29432863D01*
X48828714Y-29291912D01*
X49052362Y-29120300D01*
X49251697Y-28920965D01*
X49423309Y-28697317D01*
X49564260Y-28453183D01*
X49672139Y-28192739D01*
X49745101Y-27920442D01*
X49781897Y-27640951D01*
X49781897Y-27359049D01*
X49745101Y-27079558D01*
X49672139Y-26807261D01*
X49670910Y-26804295D01*
X49623730Y-26690392D01*
X49564260Y-26546817D01*
X49564258Y-26546814D01*
X49564256Y-26546809D01*
X49423313Y-26302690D01*
X49423309Y-26302683D01*
X49251697Y-26079035D01*
X49251695Y-26079033D01*
X49251692Y-26079029D01*
X49052367Y-25879704D01*
X49052362Y-25879700D01*
X48828714Y-25708088D01*
X48828708Y-25708084D01*
X48828706Y-25708083D01*
X48584587Y-25567140D01*
X48584576Y-25567135D01*
X48324140Y-25459259D01*
X48051836Y-25386295D01*
X47772355Y-25349500D01*
X47772348Y-25349500D01*
X47490446Y-25349500D01*
X47490438Y-25349500D01*
X47210957Y-25386295D01*
X46938653Y-25459259D01*
X46678217Y-25567135D01*
X46678206Y-25567140D01*
X46434087Y-25708083D01*
X46434079Y-25708089D01*
X46210426Y-25879704D01*
X46011101Y-26079029D01*
X45839486Y-26302682D01*
X45839480Y-26302690D01*
X45698537Y-26546809D01*
X45698532Y-26546820D01*
X45590656Y-26807256D01*
X45517692Y-27079560D01*
X45480897Y-27359041D01*
X38575500Y-27359041D01*
X38575500Y-12725021D01*
X38582465Y-12690007D01*
X38581088Y-12689638D01*
X38583192Y-12681786D01*
X38617300Y-12554492D01*
X38617300Y-12422708D01*
X38583192Y-12295414D01*
X38517300Y-12181286D01*
X38424114Y-12088100D01*
X38362573Y-12052569D01*
X38309987Y-12022208D01*
X38246339Y-12005154D01*
X38182692Y-11988100D01*
X38050908Y-11988100D01*
X37923612Y-12022208D01*
X37809486Y-12088100D01*
X37809483Y-12088102D01*
X37716302Y-12181283D01*
X37716300Y-12181286D01*
X37650408Y-12295412D01*
X37616300Y-12422708D01*
X37616300Y-12554491D01*
X37650408Y-12681787D01*
X37654941Y-12689638D01*
X37716300Y-12795914D01*
X37809486Y-12889100D01*
X37862501Y-12919708D01*
X37910715Y-12970273D01*
X37924500Y-13027094D01*
X37924500Y-34875500D01*
X37904815Y-34942539D01*
X37852011Y-34988294D01*
X37800500Y-34999500D01*
X37430247Y-34999500D01*
X37371770Y-35011131D01*
X37371769Y-35011132D01*
X37305447Y-35055447D01*
X37261132Y-35121769D01*
X37261131Y-35121770D01*
X37249500Y-35180247D01*
X31475500Y-35180247D01*
X31475500Y-26433676D01*
X31495185Y-26366637D01*
X31511819Y-26345995D01*
X31526873Y-26330941D01*
X31550500Y-26307314D01*
X31616392Y-26193186D01*
X31650500Y-26065892D01*
X31650500Y-25934108D01*
X31616392Y-25806814D01*
X31550500Y-25692686D01*
X31457314Y-25599500D01*
X31400250Y-25566554D01*
X31343187Y-25533608D01*
X31279539Y-25516554D01*
X31215892Y-25499500D01*
X31084108Y-25499500D01*
X30956812Y-25533608D01*
X30842686Y-25599500D01*
X30842683Y-25599502D01*
X30749502Y-25692683D01*
X30749500Y-25692686D01*
X30683608Y-25806812D01*
X30659283Y-25897596D01*
X30649500Y-25934108D01*
X30649500Y-26065892D01*
X30650509Y-26069657D01*
X30683608Y-26193187D01*
X30696765Y-26215975D01*
X30749500Y-26307314D01*
X30749502Y-26307316D01*
X30788181Y-26345995D01*
X30821666Y-26407318D01*
X30824500Y-26433676D01*
X30824500Y-40066324D01*
X30816155Y-40094740D01*
X30810378Y-40123794D01*
X30805792Y-40130035D01*
X30804815Y-40133363D01*
X30789736Y-40152423D01*
X30788994Y-40153191D01*
X30749500Y-40192686D01*
X30747431Y-40196269D01*
X30739236Y-40204763D01*
X30714723Y-40218722D01*
X30691940Y-40235356D01*
X30684765Y-40235782D01*
X30678521Y-40239339D01*
X30650354Y-40237830D01*
X30622193Y-40239506D01*
X30615926Y-40235986D01*
X30608752Y-40235602D01*
X30585873Y-40219105D01*
X30561275Y-40205289D01*
X30552223Y-40194842D01*
X30552078Y-40194738D01*
X30552032Y-40194622D01*
X30551630Y-40194158D01*
X30550501Y-40192687D01*
X30511819Y-40154005D01*
X30478334Y-40092682D01*
X30475500Y-40066324D01*
X30475500Y-27457149D01*
X30475500Y-27457147D01*
X30453318Y-27374362D01*
X30444477Y-27359049D01*
X30410469Y-27300144D01*
X30410463Y-27300136D01*
X30349863Y-27239536D01*
X30349855Y-27239530D01*
X30275644Y-27196685D01*
X30275640Y-27196683D01*
X30275638Y-27196682D01*
X30192853Y-27174500D01*
X30192852Y-27174500D01*
X28589379Y-27174500D01*
X28522340Y-27154815D01*
X28476585Y-27102011D01*
X28468609Y-27048819D01*
X28465600Y-27048819D01*
X28465600Y-26908910D01*
X28465600Y-26908908D01*
X28431492Y-26781614D01*
X28365600Y-26667486D01*
X28326919Y-26628805D01*
X28293434Y-26567482D01*
X28290600Y-26541124D01*
X28290600Y-26136555D01*
X28290601Y-26136542D01*
X28290601Y-26040849D01*
X28278015Y-25993878D01*
X28268418Y-25958062D01*
X28233509Y-25897598D01*
X28225565Y-25883838D01*
X28164962Y-25823235D01*
X28164959Y-25823233D01*
X26248119Y-23906392D01*
X26214634Y-23845069D01*
X26211800Y-23818711D01*
X26211800Y-23764010D01*
X26211800Y-23764008D01*
X26177692Y-23636714D01*
X26111800Y-23522586D01*
X26018614Y-23429400D01*
X25961550Y-23396454D01*
X25904487Y-23363508D01*
X25840839Y-23346454D01*
X25777192Y-23329400D01*
X25645408Y-23329400D01*
X25518112Y-23363508D01*
X25403986Y-23429400D01*
X25403983Y-23429402D01*
X25310802Y-23522583D01*
X25310800Y-23522586D01*
X25244908Y-23636712D01*
X25210800Y-23764008D01*
X25210800Y-23895791D01*
X25244908Y-24023087D01*
X25251615Y-24034703D01*
X25310800Y-24137214D01*
X25403986Y-24230400D01*
X25518114Y-24296292D01*
X25645408Y-24330400D01*
X25700111Y-24330400D01*
X25767150Y-24350085D01*
X25787792Y-24366719D01*
X27603281Y-26182207D01*
X27636766Y-26243530D01*
X27639600Y-26269888D01*
X27639600Y-26541124D01*
X27619915Y-26608163D01*
X27617407Y-26611915D01*
X27611098Y-26620987D01*
X27564600Y-26667486D01*
X27498708Y-26781614D01*
X27498270Y-26783248D01*
X27492309Y-26791821D01*
X27468989Y-26810586D01*
X27447321Y-26831246D01*
X27442052Y-26832261D01*
X27437874Y-26835624D01*
X27408108Y-26838802D01*
X27378714Y-26844468D01*
X27373734Y-26842474D01*
X27368400Y-26843044D01*
X27341641Y-26829626D01*
X27313849Y-26818500D01*
X27309544Y-26813531D01*
X27305943Y-26811726D01*
X27301541Y-26804295D01*
X27283115Y-26783030D01*
X27245100Y-26717186D01*
X27151914Y-26624000D01*
X27094850Y-26591054D01*
X27037787Y-26558108D01*
X26974139Y-26541054D01*
X26910492Y-26524000D01*
X26910491Y-26524000D01*
X26855788Y-26524000D01*
X26788749Y-26504315D01*
X26768107Y-26487681D01*
X23819119Y-23538692D01*
X23785634Y-23477369D01*
X23782800Y-23451011D01*
X23782800Y-12922276D01*
X23802485Y-12855237D01*
X23819119Y-12834595D01*
X23857800Y-12795914D01*
X23923692Y-12681786D01*
X23957800Y-12554492D01*
X23957800Y-12422708D01*
X23923692Y-12295414D01*
X23857800Y-12181286D01*
X23764614Y-12088100D01*
X23703073Y-12052569D01*
X23650487Y-12022208D01*
X23586839Y-12005154D01*
X23523192Y-11988100D01*
X23391408Y-11988100D01*
X23264112Y-12022208D01*
X23149986Y-12088100D01*
X23149983Y-12088102D01*
X23056802Y-12181283D01*
X23051852Y-12187735D01*
X23050807Y-12186933D01*
X23006318Y-12229352D01*
X22937710Y-12242573D01*
X22872846Y-12216604D01*
X22832319Y-12159689D01*
X22825500Y-12119135D01*
X22825500Y114742D01*
X50349500Y114742D01*
X50349500Y-114741D01*
X50370133Y-271453D01*
X50379452Y-342238D01*
X50421528Y-499269D01*
X50438842Y-563887D01*
X50526650Y-775876D01*
X50526657Y-775890D01*
X50641392Y-974617D01*
X50781081Y-1156661D01*
X50781089Y-1156670D01*
X50943330Y-1318911D01*
X50943338Y-1318918D01*
X51125382Y-1458607D01*
X51125385Y-1458608D01*
X51125388Y-1458611D01*
X51324112Y-1573344D01*
X51324117Y-1573346D01*
X51324123Y-1573349D01*
X51415480Y-1611190D01*
X51536113Y-1661158D01*
X51757762Y-1720548D01*
X51985266Y-1750500D01*
X51985273Y-1750500D01*
X52214727Y-1750500D01*
X52214734Y-1750500D01*
X52442238Y-1720548D01*
X52663887Y-1661158D01*
X52875888Y-1573344D01*
X53074612Y-1458611D01*
X53256661Y-1318919D01*
X53256665Y-1318914D01*
X53256670Y-1318911D01*
X53418911Y-1156670D01*
X53418914Y-1156665D01*
X53418919Y-1156661D01*
X53558611Y-974612D01*
X53673344Y-775888D01*
X53761158Y-563887D01*
X53820548Y-342238D01*
X53850500Y-114734D01*
X53850500Y114734D01*
X53820548Y342238D01*
X53761158Y563887D01*
X53678906Y762461D01*
X53673349Y775877D01*
X53673346Y775883D01*
X53673344Y775888D01*
X53558611Y974612D01*
X53558608Y974615D01*
X53558607Y974618D01*
X53418918Y1156662D01*
X53418911Y1156670D01*
X53256670Y1318911D01*
X53256661Y1318919D01*
X53074617Y1458608D01*
X52875890Y1573343D01*
X52875876Y1573350D01*
X52663887Y1661158D01*
X52651067Y1664593D01*
X52442238Y1720548D01*
X52404215Y1725554D01*
X52214741Y1750500D01*
X52214734Y1750500D01*
X51985266Y1750500D01*
X51985258Y1750500D01*
X51768715Y1721991D01*
X51757762Y1720548D01*
X51724151Y1711542D01*
X51536112Y1661158D01*
X51324123Y1573350D01*
X51324109Y1573343D01*
X51125382Y1458608D01*
X50943338Y1318919D01*
X50781081Y1156662D01*
X50641392Y974618D01*
X50526657Y775891D01*
X50526650Y775877D01*
X50438842Y563888D01*
X50438842Y563887D01*
X50401053Y422853D01*
X50379453Y342241D01*
X50379451Y342230D01*
X50349500Y114742D01*
X22825500Y114742D01*
X22825500Y8114742D01*
X50349500Y8114742D01*
X50349500Y7885259D01*
X50374446Y7695785D01*
X50379452Y7657762D01*
X50393156Y7606618D01*
X50438842Y7436113D01*
X50526650Y7224124D01*
X50526657Y7224110D01*
X50641392Y7025383D01*
X50781081Y6843339D01*
X50781089Y6843330D01*
X50943330Y6681089D01*
X50943338Y6681082D01*
X51125382Y6541393D01*
X51125385Y6541392D01*
X51125388Y6541389D01*
X51324112Y6426656D01*
X51324117Y6426654D01*
X51324123Y6426651D01*
X51415480Y6388810D01*
X51536113Y6338842D01*
X51757762Y6279452D01*
X51985266Y6249500D01*
X51985273Y6249500D01*
X52214727Y6249500D01*
X52214734Y6249500D01*
X52442238Y6279452D01*
X52663887Y6338842D01*
X52875888Y6426656D01*
X53074612Y6541389D01*
X53256661Y6681081D01*
X53256665Y6681086D01*
X53256670Y6681089D01*
X53418911Y6843330D01*
X53418914Y6843335D01*
X53418919Y6843339D01*
X53558611Y7025388D01*
X53673344Y7224112D01*
X53761158Y7436113D01*
X53820548Y7657762D01*
X53850500Y7885266D01*
X53850500Y8114734D01*
X53820548Y8342238D01*
X53761158Y8563887D01*
X53690156Y8735300D01*
X53673349Y8775877D01*
X53673346Y8775883D01*
X53673344Y8775888D01*
X53558611Y8974612D01*
X53558608Y8974615D01*
X53558607Y8974618D01*
X53418918Y9156662D01*
X53418911Y9156670D01*
X53256670Y9318911D01*
X53256661Y9318919D01*
X53074617Y9458608D01*
X52875890Y9573343D01*
X52875876Y9573350D01*
X52663887Y9661158D01*
X52442238Y9720548D01*
X52404215Y9725554D01*
X52214741Y9750500D01*
X52214734Y9750500D01*
X51985266Y9750500D01*
X51985258Y9750500D01*
X51768715Y9721991D01*
X51757762Y9720548D01*
X51664076Y9695446D01*
X51536112Y9661158D01*
X51324123Y9573350D01*
X51324109Y9573343D01*
X51125382Y9458608D01*
X50943338Y9318919D01*
X50781081Y9156662D01*
X50641392Y8974618D01*
X50526657Y8775891D01*
X50526650Y8775877D01*
X50438842Y8563888D01*
X50379453Y8342241D01*
X50379451Y8342230D01*
X50349500Y8114742D01*
X22825500Y8114742D01*
X22825500Y45875500D01*
X22845185Y45942539D01*
X22897989Y45988294D01*
X22949500Y45999500D01*
X24569750Y45999500D01*
X24569751Y45999501D01*
X24584568Y46002448D01*
X24628229Y46011132D01*
X24628229Y46011133D01*
X24628231Y46011133D01*
X24694552Y46055448D01*
X24738867Y46121769D01*
X24738867Y46121771D01*
X24738868Y46121771D01*
X24750499Y46180248D01*
X24750500Y46180250D01*
X24750500Y46625192D01*
X24770185Y46692231D01*
X24822989Y46737986D01*
X24892147Y46747930D01*
X24955703Y46718905D01*
X24992431Y46663511D01*
X25045244Y46500969D01*
X25138141Y46318650D01*
X25138147Y46318641D01*
X25170523Y46274079D01*
X25170524Y46274078D01*
X25850000Y46953554D01*
X25850000Y46947339D01*
X25877259Y46845606D01*
X25929920Y46754394D01*
X26004394Y46679920D01*
X26095606Y46627259D01*
X26197339Y46600000D01*
X26203553Y46600000D01*
X25524076Y45920526D01*
X25568650Y45888141D01*
X25750968Y45795245D01*
X25945582Y45732010D01*
X26147683Y45700000D01*
X26352317Y45700000D01*
X26554417Y45732010D01*
X26749031Y45795245D01*
X26931349Y45888141D01*
X26975921Y45920526D01*
X26296447Y46600000D01*
X26302661Y46600000D01*
X26404394Y46627259D01*
X26495606Y46679920D01*
X26570080Y46754394D01*
X26622741Y46845606D01*
X26650000Y46947339D01*
X26650000Y46953553D01*
X27329474Y46274079D01*
X27361859Y46318651D01*
X27454755Y46500969D01*
X27517990Y46695583D01*
X27550000Y46897683D01*
X27550000Y47102318D01*
X27517990Y47304418D01*
X27454755Y47499032D01*
X27361859Y47681350D01*
X27329474Y47725923D01*
X27329474Y47725924D01*
X26650000Y47046449D01*
X26650000Y47052661D01*
X26622741Y47154394D01*
X26570080Y47245606D01*
X26495606Y47320080D01*
X26404394Y47372741D01*
X26302661Y47400000D01*
X26296446Y47400000D01*
X26975922Y48079476D01*
X26975921Y48079477D01*
X26931359Y48111853D01*
X26931350Y48111859D01*
X26749031Y48204756D01*
X26554417Y48267991D01*
X26352317Y48300000D01*
X26147683Y48300000D01*
X25945582Y48267991D01*
X25750968Y48204756D01*
X25568644Y48111857D01*
X25524077Y48079477D01*
X25524077Y48079476D01*
X26203554Y47400000D01*
X26197339Y47400000D01*
X26095606Y47372741D01*
X26004394Y47320080D01*
X25929920Y47245606D01*
X25877259Y47154394D01*
X25850000Y47052661D01*
X25850000Y47046447D01*
X25170524Y47725923D01*
X25170523Y47725923D01*
X25138143Y47681356D01*
X25045244Y47499032D01*
X24992431Y47336490D01*
X24952993Y47278815D01*
X24888634Y47251617D01*
X24819788Y47263532D01*
X24768312Y47310776D01*
X24750500Y47374809D01*
X24750500Y47819751D01*
X24750499Y47819753D01*
X24738868Y47878230D01*
X24738867Y47878231D01*
X24694552Y47944553D01*
X24628230Y47988868D01*
X24628229Y47988869D01*
X24569752Y48000500D01*
X24569748Y48000500D01*
X22958677Y48000500D01*
X22891638Y48020185D01*
X22870996Y48036818D01*
X22839530Y48068284D01*
X22807314Y48100500D01*
X22742047Y48138182D01*
X22693187Y48166392D01*
X22589385Y48194205D01*
X22565892Y48200500D01*
X22434108Y48200500D01*
X22306812Y48166392D01*
X22192686Y48100500D01*
X22192683Y48100498D01*
X22099502Y48007317D01*
X22099500Y48007314D01*
X22033608Y47893188D01*
X22013366Y47817642D01*
X21999500Y47765892D01*
X21999500Y47634108D01*
X22002527Y47622810D01*
X22033608Y47506813D01*
X22049089Y47480000D01*
X22099500Y47392686D01*
X22099502Y47392684D01*
X22138181Y47354005D01*
X22171666Y47292682D01*
X22174500Y47266324D01*
X22174500Y9058553D01*
X22154815Y8991514D01*
X22102011Y8945759D01*
X22032853Y8935815D01*
X21969297Y8964840D01*
X21952125Y8983066D01*
X21818918Y9156662D01*
X21818911Y9156670D01*
X21656670Y9318911D01*
X21656661Y9318919D01*
X21474617Y9458608D01*
X21275890Y9573343D01*
X21275876Y9573350D01*
X21063887Y9661158D01*
X20842238Y9720548D01*
X20804215Y9725554D01*
X20614741Y9750500D01*
X20614734Y9750500D01*
X20385266Y9750500D01*
X20385258Y9750500D01*
X20168715Y9721991D01*
X20157762Y9720548D01*
X20064076Y9695446D01*
X19936112Y9661158D01*
X19724123Y9573350D01*
X19724109Y9573343D01*
X19525382Y9458608D01*
X19343338Y9318919D01*
X19181081Y9156662D01*
X19047875Y8983066D01*
X18991447Y8941863D01*
X18921701Y8937709D01*
X18860781Y8971922D01*
X18828029Y9033640D01*
X18825500Y9058553D01*
X18825500Y50542851D01*
X18825500Y50542853D01*
X18803318Y50625638D01*
X18803314Y50625645D01*
X18760469Y50699856D01*
X18760463Y50699864D01*
X18699863Y50760464D01*
X18699855Y50760470D01*
X18625644Y50803315D01*
X18625640Y50803317D01*
X18625638Y50803318D01*
X18542853Y50825500D01*
X8132853Y50825500D01*
X8047147Y50825500D01*
X7964362Y50803318D01*
X7964355Y50803315D01*
X7890144Y50760470D01*
X7890136Y50760464D01*
X7829536Y50699864D01*
X7829530Y50699856D01*
X7786685Y50625645D01*
X7786682Y50625638D01*
X7764500Y50542853D01*
X7764500Y49915081D01*
X7744815Y49848042D01*
X7692011Y49802287D01*
X7687953Y49800520D01*
X7592403Y49760943D01*
X7420342Y49645976D01*
X7274024Y49499658D01*
X7159057Y49327597D01*
X7090835Y49162892D01*
X7046994Y49108489D01*
X6980700Y49086424D01*
X6913000Y49103703D01*
X6865390Y49154841D01*
X6858343Y49172027D01*
X6801095Y49348218D01*
X6704624Y49537551D01*
X6665270Y49591718D01*
X6665269Y49591718D01*
X6032962Y48959410D01*
X6015925Y49022993D01*
X5950099Y49137007D01*
X5857007Y49230099D01*
X5742993Y49295925D01*
X5679409Y49312963D01*
X6311716Y49945272D01*
X6257550Y49984625D01*
X6068217Y50081096D01*
X5866129Y50146758D01*
X5656246Y50180000D01*
X5443754Y50180000D01*
X5233872Y50146758D01*
X5233869Y50146758D01*
X5031782Y50081096D01*
X4842439Y49984620D01*
X4788282Y49945273D01*
X4788282Y49945272D01*
X5420591Y49312963D01*
X5357007Y49295925D01*
X5242993Y49230099D01*
X5149901Y49137007D01*
X5084075Y49022993D01*
X5067037Y48959409D01*
X4434728Y49591718D01*
X4431998Y49591503D01*
X4431657Y49591575D01*
X4431333Y49591453D01*
X4397539Y49598742D01*
X4363621Y49605867D01*
X4363259Y49606136D01*
X4363034Y49606184D01*
X4342965Y49621181D01*
X4342330Y49620418D01*
X4342318Y49620428D01*
X4335097Y49627023D01*
X4334743Y49627285D01*
X4334175Y49627851D01*
X4334172Y49627856D01*
X4334043Y49627985D01*
X4334020Y49628006D01*
X4151694Y49810332D01*
X4011845Y49950181D01*
X3686062Y50275965D01*
X3644195Y50300137D01*
X3611840Y50318818D01*
X3570446Y50329909D01*
X3529053Y50341000D01*
X3529052Y50341000D01*
X2632165Y50341000D01*
X2632149Y50341001D01*
X2624553Y50341001D01*
X2538847Y50341001D01*
X2503858Y50331626D01*
X2456062Y50318819D01*
X2423705Y50300137D01*
X2423704Y50300138D01*
X2381841Y50275968D01*
X2381836Y50275964D01*
X2321233Y50215360D01*
X1520810Y49414938D01*
X1459487Y49381453D01*
X1389795Y49386437D01*
X1333862Y49428309D01*
X1330026Y49433730D01*
X1285978Y49499654D01*
X1285974Y49499659D01*
X1139657Y49645976D01*
X1017130Y49727845D01*
X967598Y49760941D01*
X967593Y49760943D01*
X776420Y49840130D01*
X776412Y49840132D01*
X573469Y49880500D01*
X573465Y49880500D01*
X366535Y49880500D01*
X366530Y49880500D01*
X163587Y49840132D01*
X163579Y49840130D01*
X-27597Y49760942D01*
X-199658Y49645976D01*
X-345976Y49499658D01*
X-460942Y49327597D01*
X-540130Y49136421D01*
X-540132Y49136413D01*
X-580500Y48933470D01*
X-580500Y48726531D01*
X-540132Y48523588D01*
X-540130Y48523580D01*
X-474061Y48364075D01*
X-460941Y48332402D01*
X-417903Y48267991D01*
X-345976Y48160343D01*
X-199658Y48014025D01*
X-199655Y48014023D01*
X-27598Y47899059D01*
X163580Y47819870D01*
X366530Y47779501D01*
X366534Y47779500D01*
X427710Y47779500D01*
X494749Y47759815D01*
X540504Y47707011D01*
X550448Y47637853D01*
X521423Y47574297D01*
X515391Y47567819D01*
X-1487708Y45564719D01*
X-1549031Y45531234D01*
X-1575389Y45528400D01*
X-1630092Y45528400D01*
X-1757388Y45494292D01*
X-1871514Y45428400D01*
X-1871517Y45428398D01*
X-1964698Y45335217D01*
X-1964700Y45335214D01*
X-2030592Y45221088D01*
X-2064700Y45093792D01*
X-2064700Y44962009D01*
X-2030592Y44834713D01*
X-1997646Y44777650D01*
X-1964700Y44720586D01*
X-1871514Y44627400D01*
X-1757386Y44561508D01*
X-1630092Y44527400D01*
X-1630090Y44527400D01*
X-1498310Y44527400D01*
X-1498308Y44527400D01*
X-1371014Y44561508D01*
X-1256886Y44627400D01*
X-1163700Y44720586D01*
X-1097808Y44834714D01*
X-1063700Y44962008D01*
X-1063700Y45016711D01*
X-1044015Y45083750D01*
X-1027381Y45104392D01*
X473544Y46605317D01*
X2000665Y48132438D01*
X2000847Y48132755D01*
X2001071Y48132968D01*
X2005615Y48138889D01*
X2006537Y48138182D01*
X2051407Y48180974D01*
X2120012Y48194205D01*
X2184880Y48168245D01*
X2195921Y48158446D01*
X2340342Y48014025D01*
X2340345Y48014023D01*
X2512402Y47899059D01*
X2703580Y47819870D01*
X2906530Y47779501D01*
X2906534Y47779500D01*
X2906535Y47779500D01*
X3113466Y47779500D01*
X3113467Y47779501D01*
X3316420Y47819870D01*
X3411970Y47859450D01*
X3481439Y47866918D01*
X3543918Y47835643D01*
X3547104Y47832569D01*
X8914681Y42464992D01*
X8948166Y42403669D01*
X8951000Y42377311D01*
X8951000Y27248789D01*
X8931315Y27181750D01*
X8878511Y27135995D01*
X8809353Y27126051D01*
X8770705Y27138304D01*
X8608217Y27221096D01*
X8406129Y27286758D01*
X8196246Y27320000D01*
X7983754Y27320000D01*
X7773872Y27286758D01*
X7773869Y27286758D01*
X7571782Y27221096D01*
X7382439Y27124620D01*
X7328282Y27085273D01*
X7328282Y27085272D01*
X7960591Y26452963D01*
X7897007Y26435925D01*
X7782993Y26370099D01*
X7689901Y26277007D01*
X7624075Y26162993D01*
X7607037Y26099409D01*
X6974728Y26731718D01*
X6974727Y26731718D01*
X6935380Y26677561D01*
X6838905Y26488219D01*
X6781656Y26312026D01*
X6742218Y26254351D01*
X6677859Y26227153D01*
X6609013Y26239068D01*
X6557537Y26286312D01*
X6549164Y26302893D01*
X6480943Y26467595D01*
X6365975Y26639658D01*
X6219657Y26785976D01*
X6133626Y26843459D01*
X6047598Y26900941D01*
X6028516Y26908845D01*
X5856420Y26980130D01*
X5856412Y26980132D01*
X5653469Y27020500D01*
X5653465Y27020500D01*
X5446535Y27020500D01*
X5446530Y27020500D01*
X5243587Y26980132D01*
X5243579Y26980130D01*
X5052403Y26900942D01*
X4880342Y26785976D01*
X4880341Y26785975D01*
X4817181Y26722814D01*
X4755858Y26689329D01*
X4686166Y26694313D01*
X4630233Y26736185D01*
X4605816Y26801649D01*
X4605500Y26810495D01*
X4605500Y27579545D01*
X4605501Y27579558D01*
X4605501Y27675252D01*
X4605501Y27675253D01*
X4583318Y27758039D01*
X4561891Y27795150D01*
X4540465Y27832262D01*
X4479862Y27892865D01*
X4479859Y27892867D01*
X2639619Y29733108D01*
X2606134Y29794431D01*
X2603300Y29820789D01*
X2603300Y29875490D01*
X2603300Y29875492D01*
X2569192Y30002786D01*
X2503300Y30116914D01*
X2410114Y30210100D01*
X2353050Y30243046D01*
X2295987Y30275992D01*
X2232339Y30293046D01*
X2168692Y30310100D01*
X2036908Y30310100D01*
X1909612Y30275992D01*
X1795486Y30210100D01*
X1795483Y30210098D01*
X1702302Y30116917D01*
X1702300Y30116914D01*
X1636408Y30002788D01*
X1602300Y29875492D01*
X1602300Y29743709D01*
X1636408Y29616413D01*
X1669354Y29559350D01*
X1702300Y29502286D01*
X1795486Y29409100D01*
X1909614Y29343208D01*
X2036908Y29309100D01*
X2091611Y29309100D01*
X2158650Y29289415D01*
X2179292Y29272781D01*
X3918181Y27533893D01*
X3951666Y27472570D01*
X3954500Y27446212D01*
X3954500Y26810495D01*
X3934815Y26743456D01*
X3882011Y26697701D01*
X3812853Y26687757D01*
X3749297Y26716782D01*
X3742819Y26722814D01*
X3679657Y26785976D01*
X3593626Y26843459D01*
X3507598Y26900941D01*
X3488516Y26908845D01*
X3316420Y26980130D01*
X3316412Y26980132D01*
X3113469Y27020500D01*
X3113465Y27020500D01*
X2906535Y27020500D01*
X2906530Y27020500D01*
X2703587Y26980132D01*
X2703575Y26980129D01*
X2608028Y26940552D01*
X2538559Y26933083D01*
X2476080Y26964359D01*
X2472895Y26967432D01*
X1606364Y27833963D01*
X1606362Y27833965D01*
X1569250Y27855392D01*
X1532140Y27876818D01*
X1490746Y27887909D01*
X1449353Y27899000D01*
X-4655653Y27899000D01*
X-4738438Y27876818D01*
X-4738445Y27876815D01*
X-4812656Y27833970D01*
X-4812664Y27833964D01*
X-6096185Y26550443D01*
X-6157508Y26516958D01*
X-6227200Y26521942D01*
X-6283133Y26563814D01*
X-6286968Y26569233D01*
X-6334023Y26639655D01*
X-6334026Y26639659D01*
X-6480343Y26785976D01*
X-6566374Y26843459D01*
X-6652402Y26900941D01*
X-6671484Y26908845D01*
X-6843580Y26980130D01*
X-6843588Y26980132D01*
X-7046531Y27020500D01*
X-7046535Y27020500D01*
X-7253465Y27020500D01*
X-7253470Y27020500D01*
X-7456413Y26980132D01*
X-7456421Y26980130D01*
X-7647597Y26900942D01*
X-7819658Y26785976D01*
X-7965976Y26639658D01*
X-8080942Y26467597D01*
X-8160130Y26276421D01*
X-8160132Y26276413D01*
X-8200500Y26073470D01*
X-8200500Y25866531D01*
X-8160132Y25663588D01*
X-8160130Y25663580D01*
X-8094061Y25504075D01*
X-8080941Y25472402D01*
X-8054544Y25432896D01*
X-7965976Y25300343D01*
X-7819658Y25154025D01*
X-7819655Y25154023D01*
X-7647598Y25039059D01*
X-7456420Y24959870D01*
X-7311948Y24931133D01*
X-7253470Y24919501D01*
X-7253466Y24919500D01*
X-7253465Y24919500D01*
X-7046534Y24919500D01*
X-7046533Y24919501D01*
X-6843580Y24959870D01*
X-6652402Y25039059D01*
X-6480345Y25154023D01*
X-6480342Y25154026D01*
X-6417181Y25217186D01*
X-6355858Y25250671D01*
X-6286166Y25245687D01*
X-6230233Y25203815D01*
X-6205816Y25138351D01*
X-6205500Y25129505D01*
X-6205500Y6663890D01*
X-6225185Y6596851D01*
X-6241819Y6576209D01*
X-21367055Y-8549026D01*
X-21377789Y-8558583D01*
X-21384895Y-8564205D01*
X-21397762Y-8571635D01*
X-21405862Y-8579735D01*
X-21410952Y-8584824D01*
X-21410956Y-8584828D01*
X-29734408Y-16908281D01*
X-29795731Y-16941766D01*
X-29822089Y-16944600D01*
X-29876792Y-16944600D01*
X-30004088Y-16978708D01*
X-30118214Y-17044600D01*
X-30118217Y-17044602D01*
X-30211398Y-17137783D01*
X-30211400Y-17137786D01*
X-30277292Y-17251912D01*
X-30311400Y-17379208D01*
X-30311400Y-17442010D01*
X-30331085Y-17509049D01*
X-30347719Y-17529691D01*
X-35631505Y-22813476D01*
X-35692828Y-22846961D01*
X-35762520Y-22841977D01*
X-35818453Y-22800105D01*
X-35840803Y-22749986D01*
X-35848392Y-22711835D01*
X-35879870Y-22553580D01*
X-35959059Y-22362402D01*
X-36074023Y-22190345D01*
X-36074025Y-22190342D01*
X-36141987Y-22122380D01*
X-36175472Y-22061057D01*
X-36170488Y-21991365D01*
X-36128616Y-21935432D01*
X-36086402Y-21914925D01*
X-36005761Y-21893318D01*
X-35931538Y-21850465D01*
X-14580348Y-499272D01*
X-14580343Y-499269D01*
X-14570140Y-489065D01*
X-14570138Y-489065D01*
X-14509535Y-428462D01*
X-14466682Y-354238D01*
X-14444499Y-271453D01*
X-14444499Y-185747D01*
X-14444499Y-178152D01*
X-14444500Y-178134D01*
X-14444500Y24884920D01*
X-14424815Y24951959D01*
X-14372011Y24997714D01*
X-14367952Y24999481D01*
X-14349998Y25006918D01*
X-14272402Y25039059D01*
X-14100345Y25154023D01*
X-13954023Y25300345D01*
X-13839059Y25472402D01*
X-13759870Y25663580D01*
X-13719500Y25866535D01*
X-13719500Y26073465D01*
X-13719501Y26073470D01*
X-13280500Y26073470D01*
X-13280500Y25866531D01*
X-13240132Y25663588D01*
X-13240130Y25663580D01*
X-13174061Y25504075D01*
X-13160941Y25472402D01*
X-13134544Y25432896D01*
X-13045976Y25300343D01*
X-12899658Y25154025D01*
X-12899655Y25154023D01*
X-12727598Y25039059D01*
X-12536420Y24959870D01*
X-12391948Y24931133D01*
X-12333470Y24919501D01*
X-12333466Y24919500D01*
X-12333465Y24919500D01*
X-12126534Y24919500D01*
X-12126533Y24919501D01*
X-11923580Y24959870D01*
X-11732402Y25039059D01*
X-11560345Y25154023D01*
X-11414023Y25300345D01*
X-11299059Y25472402D01*
X-11219870Y25663580D01*
X-11179500Y25866535D01*
X-11179500Y26073465D01*
X-11179501Y26073470D01*
X-10740500Y26073470D01*
X-10740500Y25866531D01*
X-10700132Y25663588D01*
X-10700130Y25663580D01*
X-10634061Y25504075D01*
X-10620941Y25472402D01*
X-10594544Y25432896D01*
X-10505976Y25300343D01*
X-10359658Y25154025D01*
X-10359655Y25154023D01*
X-10187598Y25039059D01*
X-9996420Y24959870D01*
X-9851948Y24931133D01*
X-9793470Y24919501D01*
X-9793466Y24919500D01*
X-9793465Y24919500D01*
X-9586534Y24919500D01*
X-9586533Y24919501D01*
X-9383580Y24959870D01*
X-9192402Y25039059D01*
X-9020345Y25154023D01*
X-8874023Y25300345D01*
X-8759059Y25472402D01*
X-8679870Y25663580D01*
X-8639500Y25866535D01*
X-8639500Y26073465D01*
X-8679870Y26276420D01*
X-8759059Y26467598D01*
X-8874023Y26639655D01*
X-8874025Y26639658D01*
X-9020343Y26785976D01*
X-9106374Y26843459D01*
X-9192402Y26900941D01*
X-9211484Y26908845D01*
X-9383580Y26980130D01*
X-9383588Y26980132D01*
X-9586531Y27020500D01*
X-9586535Y27020500D01*
X-9793465Y27020500D01*
X-9793470Y27020500D01*
X-9996413Y26980132D01*
X-9996421Y26980130D01*
X-10187597Y26900942D01*
X-10359658Y26785976D01*
X-10505976Y26639658D01*
X-10620942Y26467597D01*
X-10700130Y26276421D01*
X-10700132Y26276413D01*
X-10740500Y26073470D01*
X-11179501Y26073470D01*
X-11219870Y26276420D01*
X-11299059Y26467598D01*
X-11414023Y26639655D01*
X-11414025Y26639658D01*
X-11560343Y26785976D01*
X-11646374Y26843459D01*
X-11732402Y26900941D01*
X-11751484Y26908845D01*
X-11923580Y26980130D01*
X-11923588Y26980132D01*
X-12126531Y27020500D01*
X-12126535Y27020500D01*
X-12333465Y27020500D01*
X-12333470Y27020500D01*
X-12536413Y26980132D01*
X-12536421Y26980130D01*
X-12727597Y26900942D01*
X-12899658Y26785976D01*
X-13045976Y26639658D01*
X-13160942Y26467597D01*
X-13240130Y26276421D01*
X-13240132Y26276413D01*
X-13280500Y26073470D01*
X-13719501Y26073470D01*
X-13759870Y26276420D01*
X-13839059Y26467598D01*
X-13954023Y26639655D01*
X-13954025Y26639658D01*
X-14100343Y26785976D01*
X-14186374Y26843459D01*
X-14272402Y26900941D01*
X-14291484Y26908845D01*
X-14463580Y26980130D01*
X-14463588Y26980132D01*
X-14666531Y27020500D01*
X-14666535Y27020500D01*
X-14873465Y27020500D01*
X-14873470Y27020500D01*
X-15076413Y26980132D01*
X-15076421Y26980130D01*
X-15267597Y26900942D01*
X-15439658Y26785976D01*
X-15585976Y26639658D01*
X-15700942Y26467597D01*
X-15780130Y26276421D01*
X-15780132Y26276413D01*
X-15820500Y26073470D01*
X-15820500Y25866531D01*
X-15780132Y25663588D01*
X-15780130Y25663580D01*
X-15714061Y25504075D01*
X-15700941Y25472402D01*
X-15674544Y25432896D01*
X-15585976Y25300343D01*
X-15439658Y25154025D01*
X-15439655Y25154023D01*
X-15267598Y25039059D01*
X-15248518Y25031156D01*
X-15172048Y24999481D01*
X-15117644Y24955641D01*
X-15095579Y24889347D01*
X-15095500Y24884920D01*
X-15095500Y-42410D01*
X-15115185Y-109449D01*
X-15131819Y-130091D01*
X-32391602Y-17389873D01*
X-32452925Y-17423358D01*
X-32522617Y-17418374D01*
X-32578550Y-17376502D01*
X-32586670Y-17364192D01*
X-32601800Y-17337986D01*
X-32694986Y-17244800D01*
X-32752050Y-17211854D01*
X-32809113Y-17178908D01*
X-32872761Y-17161854D01*
X-32936408Y-17144800D01*
X-32936409Y-17144800D01*
X-32991111Y-17144800D01*
X-33058150Y-17125115D01*
X-33078792Y-17108481D01*
X-38073381Y-12113892D01*
X-38106866Y-12052569D01*
X-38109700Y-12026211D01*
X-38109700Y8139924D01*
X-38090015Y8206963D01*
X-38073381Y8227605D01*
X-38034700Y8266286D01*
X-37968808Y8380414D01*
X-37934700Y8507708D01*
X-37934700Y8639492D01*
X-37968808Y8766786D01*
X-38034700Y8880914D01*
X-38127886Y8974100D01*
X-38184950Y9007046D01*
X-38242013Y9039992D01*
X-38311285Y9058553D01*
X-38369308Y9074100D01*
X-38501092Y9074100D01*
X-38628388Y9039992D01*
X-38742514Y8974100D01*
X-38742517Y8974098D01*
X-38835698Y8880917D01*
X-38835700Y8880914D01*
X-38901592Y8766788D01*
X-38935700Y8639492D01*
X-41895182Y8639492D01*
X-41799374Y8735300D01*
X-36797318Y13737356D01*
X-31781461Y18753214D01*
X-31720140Y18786697D01*
X-31650448Y18781713D01*
X-31597515Y18743689D01*
X-31591315Y18736052D01*
X-31571300Y18701386D01*
X-31528078Y18658164D01*
X-31524033Y18653182D01*
X-31512924Y18626636D01*
X-31499134Y18601382D01*
X-31498021Y18591024D01*
X-31497060Y18588729D01*
X-31497504Y18586218D01*
X-31496300Y18575024D01*
X-31496300Y-8261752D01*
X-31474118Y-8344540D01*
X-31452692Y-8381650D01*
X-31431265Y-8418762D01*
X-31431263Y-8418764D01*
X-30127219Y-9722808D01*
X-30093734Y-9784131D01*
X-30090900Y-9810489D01*
X-30090900Y-9865191D01*
X-30056792Y-9992487D01*
X-30023846Y-10049550D01*
X-29990900Y-10106614D01*
X-29897714Y-10199800D01*
X-29783586Y-10265692D01*
X-29656292Y-10299800D01*
X-29656290Y-10299800D01*
X-29524510Y-10299800D01*
X-29524508Y-10299800D01*
X-29397214Y-10265692D01*
X-29283086Y-10199800D01*
X-29189900Y-10106614D01*
X-29124008Y-9992486D01*
X-29089900Y-9865192D01*
X-29089900Y-9733408D01*
X-29124008Y-9606114D01*
X-29189900Y-9491986D01*
X-29283086Y-9398800D01*
X-29340150Y-9365854D01*
X-29397213Y-9332908D01*
X-29460861Y-9315854D01*
X-29524508Y-9298800D01*
X-29524509Y-9298800D01*
X-29579211Y-9298800D01*
X-29646250Y-9279115D01*
X-29666892Y-9262481D01*
X-30808981Y-8120392D01*
X-30842466Y-8059069D01*
X-30845300Y-8032711D01*
X-30845300Y18575024D01*
X-30825615Y18642063D01*
X-30808981Y18662705D01*
X-30791878Y18679808D01*
X-30770300Y18701386D01*
X-30704408Y18815514D01*
X-30670300Y18942808D01*
X-30670300Y19074592D01*
X-30704408Y19201886D01*
X-30770300Y19316014D01*
X-30863486Y19409200D01*
X-30889633Y19424296D01*
X-30937847Y19474862D01*
X-30951069Y19543470D01*
X-30925101Y19608334D01*
X-30915320Y19619355D01*
X-23799793Y26734881D01*
X-23772866Y26749585D01*
X-23747047Y26766177D01*
X-23740847Y26767069D01*
X-23738470Y26768366D01*
X-23712112Y26771200D01*
X-23564500Y26771200D01*
X-23497461Y26751515D01*
X-23451706Y26698711D01*
X-23440500Y26647200D01*
X-23440500Y25100248D01*
X-23428869Y25041771D01*
X-23428868Y25041770D01*
X-23384553Y24975448D01*
X-23318231Y24931133D01*
X-23318230Y24931132D01*
X-23259753Y24919501D01*
X-23259750Y24919500D01*
X-23259748Y24919500D01*
X-21520250Y24919500D01*
X-21520249Y24919501D01*
X-21505432Y24922448D01*
X-21461771Y24931132D01*
X-21461771Y24931133D01*
X-21461769Y24931133D01*
X-21395448Y24975448D01*
X-21351133Y25041769D01*
X-21351133Y25041771D01*
X-21351132Y25041771D01*
X-21339501Y25100248D01*
X-21339500Y25100250D01*
X-21339500Y26647200D01*
X-21319815Y26714239D01*
X-21267011Y26759994D01*
X-21215500Y26771200D01*
X-20810069Y26771200D01*
X-20743030Y26751515D01*
X-20697275Y26698711D01*
X-20687331Y26629553D01*
X-20706966Y26578310D01*
X-20780942Y26467597D01*
X-20860130Y26276421D01*
X-20860132Y26276413D01*
X-20900500Y26073470D01*
X-20900500Y25866531D01*
X-20860132Y25663588D01*
X-20860130Y25663580D01*
X-20794061Y25504075D01*
X-20780941Y25472402D01*
X-20754544Y25432896D01*
X-20665976Y25300343D01*
X-20519658Y25154025D01*
X-20519655Y25154023D01*
X-20347598Y25039059D01*
X-20156420Y24959870D01*
X-20011948Y24931133D01*
X-19953470Y24919501D01*
X-19953466Y24919500D01*
X-19953465Y24919500D01*
X-19746534Y24919500D01*
X-19746533Y24919501D01*
X-19543580Y24959870D01*
X-19352402Y25039059D01*
X-19180345Y25154023D01*
X-19034023Y25300345D01*
X-18919059Y25472402D01*
X-18839870Y25663580D01*
X-18799500Y25866535D01*
X-18799500Y26073465D01*
X-18839870Y26276420D01*
X-18919059Y26467598D01*
X-18993035Y26578311D01*
X-19013911Y26644987D01*
X-18995426Y26712367D01*
X-18943447Y26759057D01*
X-18889931Y26771200D01*
X-18622889Y26771200D01*
X-18555850Y26751515D01*
X-18535208Y26734881D01*
X-18307432Y26507105D01*
X-18273947Y26445782D01*
X-18278931Y26376090D01*
X-18280552Y26371972D01*
X-18320129Y26276425D01*
X-18320132Y26276413D01*
X-18360500Y26073470D01*
X-18360500Y25866531D01*
X-18320132Y25663588D01*
X-18320130Y25663580D01*
X-18254061Y25504075D01*
X-18240941Y25472402D01*
X-18214544Y25432896D01*
X-18125976Y25300343D01*
X-17979658Y25154025D01*
X-17979655Y25154023D01*
X-17807598Y25039059D01*
X-17616420Y24959870D01*
X-17471948Y24931133D01*
X-17413470Y24919501D01*
X-17413466Y24919500D01*
X-17413465Y24919500D01*
X-17206534Y24919500D01*
X-17206533Y24919501D01*
X-17003580Y24959870D01*
X-16812402Y25039059D01*
X-16640345Y25154023D01*
X-16494023Y25300345D01*
X-16379059Y25472402D01*
X-16299870Y25663580D01*
X-16259500Y25866535D01*
X-16259500Y26073465D01*
X-16299870Y26276420D01*
X-16379059Y26467598D01*
X-16494023Y26639655D01*
X-16494025Y26639658D01*
X-16640343Y26785976D01*
X-16726374Y26843459D01*
X-16812402Y26900941D01*
X-16831484Y26908845D01*
X-17003580Y26980130D01*
X-17003588Y26980132D01*
X-17206531Y27020500D01*
X-17206535Y27020500D01*
X-17413465Y27020500D01*
X-17413470Y27020500D01*
X-17616413Y26980132D01*
X-17616425Y26980129D01*
X-17711972Y26940552D01*
X-17781441Y26933083D01*
X-17843920Y26964359D01*
X-17847105Y26967432D01*
X-18236836Y27357163D01*
X-18236838Y27357165D01*
X-18273950Y27378592D01*
X-18311060Y27400018D01*
X-18352454Y27411109D01*
X-18393847Y27422200D01*
X-23855447Y27422200D01*
X-23941153Y27422200D01*
X-24023939Y27400018D01*
X-24057422Y27380686D01*
X-24069527Y27373698D01*
X-24098162Y27357166D01*
X-45000463Y6454865D01*
X-45000467Y6454859D01*
X-45043319Y6380639D01*
X-45043318Y6380638D01*
X-45065500Y6297853D01*
X-45065500Y-18225500D01*
X-45085185Y-18292539D01*
X-45137989Y-18338294D01*
X-45189500Y-18349500D01*
X-45259753Y-18349500D01*
X-45318230Y-18361131D01*
X-45318231Y-18361132D01*
X-45384553Y-18405447D01*
X-45417281Y-18454428D01*
X-45424229Y-18460233D01*
X-45428135Y-18468399D01*
X-45450615Y-18482284D01*
X-45470894Y-18499232D01*
X-45479878Y-18500360D01*
X-45487578Y-18505117D01*
X-45513998Y-18504645D01*
X-45540219Y-18507938D01*
X-45550234Y-18503997D01*
X-45557437Y-18503869D01*
X-45589273Y-18488637D01*
X-45606854Y-18476889D01*
X-45629393Y-18461829D01*
X-45674197Y-18408216D01*
X-45684500Y-18358728D01*
X-45684500Y19943812D01*
X-45664815Y20010851D01*
X-45648186Y20031488D01*
X-40859921Y24819753D01*
X-36750500Y24819753D01*
X-36750500Y23180248D01*
X-36738869Y23121771D01*
X-36738868Y23121770D01*
X-36694553Y23055448D01*
X-36628231Y23011133D01*
X-36628230Y23011132D01*
X-36569753Y22999501D01*
X-36569750Y22999500D01*
X-36569748Y22999500D01*
X-34930250Y22999500D01*
X-34930249Y22999501D01*
X-34915432Y23002448D01*
X-34871771Y23011132D01*
X-34871771Y23011133D01*
X-34871769Y23011133D01*
X-34805448Y23055448D01*
X-34761133Y23121769D01*
X-34761133Y23121771D01*
X-34761132Y23121771D01*
X-34749501Y23180248D01*
X-34749500Y23180250D01*
X-34749500Y24102318D01*
X-33550000Y24102318D01*
X-33550000Y23897683D01*
X-33517991Y23695583D01*
X-33454756Y23500969D01*
X-33361859Y23318650D01*
X-33361853Y23318641D01*
X-33329477Y23274079D01*
X-33329476Y23274078D01*
X-32650000Y23953554D01*
X-32650000Y23947339D01*
X-32622741Y23845606D01*
X-32570080Y23754394D01*
X-32495606Y23679920D01*
X-32404394Y23627259D01*
X-32302661Y23600000D01*
X-32296447Y23600000D01*
X-32975924Y22920526D01*
X-32931350Y22888141D01*
X-32749032Y22795245D01*
X-32554418Y22732010D01*
X-32352317Y22700000D01*
X-32147683Y22700000D01*
X-31945583Y22732010D01*
X-31750969Y22795245D01*
X-31568651Y22888141D01*
X-31524079Y22920526D01*
X-32203553Y23600000D01*
X-32197339Y23600000D01*
X-32095606Y23627259D01*
X-32004394Y23679920D01*
X-31929920Y23754394D01*
X-31877259Y23845606D01*
X-31850000Y23947339D01*
X-31850000Y23953553D01*
X-31170526Y23274079D01*
X-31138141Y23318651D01*
X-31045245Y23500969D01*
X-30982010Y23695583D01*
X-30950000Y23897683D01*
X-30950000Y24102318D01*
X-30982010Y24304418D01*
X-31045245Y24499032D01*
X-31138141Y24681350D01*
X-31170526Y24725923D01*
X-31170526Y24725924D01*
X-31850000Y24046449D01*
X-31850000Y24052661D01*
X-31877259Y24154394D01*
X-31929920Y24245606D01*
X-32004394Y24320080D01*
X-32095606Y24372741D01*
X-32197339Y24400000D01*
X-32203554Y24400000D01*
X-31524078Y25079476D01*
X-31524079Y25079477D01*
X-31568641Y25111853D01*
X-31568650Y25111859D01*
X-31750969Y25204756D01*
X-31945583Y25267991D01*
X-32147683Y25300000D01*
X-32352317Y25300000D01*
X-32554418Y25267991D01*
X-32749032Y25204756D01*
X-32931356Y25111857D01*
X-32975923Y25079477D01*
X-32975923Y25079476D01*
X-32296446Y24400000D01*
X-32302661Y24400000D01*
X-32404394Y24372741D01*
X-32495606Y24320080D01*
X-32570080Y24245606D01*
X-32622741Y24154394D01*
X-32650000Y24052661D01*
X-32650000Y24046447D01*
X-33329476Y24725923D01*
X-33329477Y24725923D01*
X-33361857Y24681356D01*
X-33454756Y24499032D01*
X-33517991Y24304418D01*
X-33550000Y24102318D01*
X-34749500Y24102318D01*
X-34749500Y24819751D01*
X-34749501Y24819753D01*
X-34761132Y24878230D01*
X-34761133Y24878231D01*
X-34805448Y24944553D01*
X-34871770Y24988868D01*
X-34871771Y24988869D01*
X-34930248Y25000500D01*
X-34930252Y25000500D01*
X-36569748Y25000500D01*
X-36569753Y25000500D01*
X-36628230Y24988869D01*
X-36628231Y24988868D01*
X-36694553Y24944553D01*
X-36738868Y24878231D01*
X-36738869Y24878230D01*
X-36750500Y24819753D01*
X-40859921Y24819753D01*
X-17847104Y47832571D01*
X-17785783Y47866054D01*
X-17716091Y47861070D01*
X-17711972Y47859449D01*
X-17678995Y47845790D01*
X-17616420Y47819870D01*
X-17413470Y47779501D01*
X-17413466Y47779500D01*
X-17413465Y47779500D01*
X-17206534Y47779500D01*
X-17206533Y47779501D01*
X-17003580Y47819870D01*
X-16812402Y47899059D01*
X-16640345Y48014023D01*
X-16494023Y48160345D01*
X-16379059Y48332402D01*
X-16299870Y48523580D01*
X-16259500Y48726535D01*
X-16259500Y48933465D01*
X-16259501Y48933470D01*
X-15820500Y48933470D01*
X-15820500Y48726531D01*
X-15780132Y48523588D01*
X-15780130Y48523580D01*
X-15714061Y48364075D01*
X-15700941Y48332402D01*
X-15657903Y48267991D01*
X-15585976Y48160343D01*
X-15439658Y48014025D01*
X-15439655Y48014023D01*
X-15267598Y47899059D01*
X-15076420Y47819870D01*
X-14873470Y47779501D01*
X-14873466Y47779500D01*
X-14873465Y47779500D01*
X-14666534Y47779500D01*
X-14666533Y47779501D01*
X-14463580Y47819870D01*
X-14272402Y47899059D01*
X-14100345Y48014023D01*
X-13954023Y48160345D01*
X-13839059Y48332402D01*
X-13759870Y48523580D01*
X-13719500Y48726535D01*
X-13719500Y48933465D01*
X-13719501Y48933470D01*
X-13280500Y48933470D01*
X-13280500Y48726531D01*
X-13240132Y48523588D01*
X-13240130Y48523580D01*
X-13174061Y48364075D01*
X-13160941Y48332402D01*
X-13117903Y48267991D01*
X-13045976Y48160343D01*
X-12899658Y48014025D01*
X-12899655Y48014023D01*
X-12727598Y47899059D01*
X-12536420Y47819870D01*
X-12333470Y47779501D01*
X-12333466Y47779500D01*
X-12333465Y47779500D01*
X-12126534Y47779500D01*
X-12126533Y47779501D01*
X-11923580Y47819870D01*
X-11732402Y47899059D01*
X-11560345Y48014023D01*
X-11414023Y48160345D01*
X-11299059Y48332402D01*
X-11219870Y48523580D01*
X-11179500Y48726535D01*
X-11179500Y48933465D01*
X-11179501Y48933470D01*
X-10740500Y48933470D01*
X-10740500Y48726531D01*
X-10700132Y48523588D01*
X-10700130Y48523580D01*
X-10634061Y48364075D01*
X-10620941Y48332402D01*
X-10577903Y48267991D01*
X-10505976Y48160343D01*
X-10359658Y48014025D01*
X-10359655Y48014023D01*
X-10187598Y47899059D01*
X-9996420Y47819870D01*
X-9793470Y47779501D01*
X-9793466Y47779500D01*
X-9793465Y47779500D01*
X-9586534Y47779500D01*
X-9586533Y47779501D01*
X-9383580Y47819870D01*
X-9192402Y47899059D01*
X-9020345Y48014023D01*
X-8874023Y48160345D01*
X-8759059Y48332402D01*
X-8679870Y48523580D01*
X-8639500Y48726535D01*
X-8639500Y48933465D01*
X-8639501Y48933470D01*
X-8200500Y48933470D01*
X-8200500Y48726531D01*
X-8160132Y48523588D01*
X-8160130Y48523580D01*
X-8094061Y48364075D01*
X-8080941Y48332402D01*
X-8037903Y48267991D01*
X-7965976Y48160343D01*
X-7819658Y48014025D01*
X-7819655Y48014023D01*
X-7647598Y47899059D01*
X-7456420Y47819870D01*
X-7253470Y47779501D01*
X-7253466Y47779500D01*
X-7253465Y47779500D01*
X-7046534Y47779500D01*
X-7046533Y47779501D01*
X-6843580Y47819870D01*
X-6652402Y47899059D01*
X-6480345Y48014023D01*
X-6334023Y48160345D01*
X-6219059Y48332402D01*
X-6139870Y48523580D01*
X-6099500Y48726535D01*
X-6099500Y48933465D01*
X-6099501Y48933470D01*
X-5660500Y48933470D01*
X-5660500Y48726531D01*
X-5620132Y48523588D01*
X-5620130Y48523580D01*
X-5554061Y48364075D01*
X-5540941Y48332402D01*
X-5497903Y48267991D01*
X-5425976Y48160343D01*
X-5279658Y48014025D01*
X-5279655Y48014023D01*
X-5107598Y47899059D01*
X-4916420Y47819870D01*
X-4713470Y47779501D01*
X-4713466Y47779500D01*
X-4713465Y47779500D01*
X-4506534Y47779500D01*
X-4506533Y47779501D01*
X-4303580Y47819870D01*
X-4112402Y47899059D01*
X-3940345Y48014023D01*
X-3794023Y48160345D01*
X-3679059Y48332402D01*
X-3599870Y48523580D01*
X-3559500Y48726535D01*
X-3559500Y48933465D01*
X-3559501Y48933470D01*
X-3120500Y48933470D01*
X-3120500Y48726531D01*
X-3080132Y48523588D01*
X-3080130Y48523580D01*
X-3014061Y48364075D01*
X-3000941Y48332402D01*
X-2957903Y48267991D01*
X-2885976Y48160343D01*
X-2739658Y48014025D01*
X-2739655Y48014023D01*
X-2567598Y47899059D01*
X-2376420Y47819870D01*
X-2173470Y47779501D01*
X-2173466Y47779500D01*
X-2173465Y47779500D01*
X-1966534Y47779500D01*
X-1966533Y47779501D01*
X-1763580Y47819870D01*
X-1572402Y47899059D01*
X-1400345Y48014023D01*
X-1254023Y48160345D01*
X-1139059Y48332402D01*
X-1059870Y48523580D01*
X-1019500Y48726535D01*
X-1019500Y48933465D01*
X-1059870Y49136420D01*
X-1139059Y49327598D01*
X-1254023Y49499655D01*
X-1254025Y49499658D01*
X-1400343Y49645976D01*
X-1522870Y49727845D01*
X-1572402Y49760941D01*
X-1572407Y49760943D01*
X-1763580Y49840130D01*
X-1763588Y49840132D01*
X-1966531Y49880500D01*
X-1966535Y49880500D01*
X-2173465Y49880500D01*
X-2173470Y49880500D01*
X-2376413Y49840132D01*
X-2376421Y49840130D01*
X-2567597Y49760942D01*
X-2739658Y49645976D01*
X-2885976Y49499658D01*
X-3000942Y49327597D01*
X-3080130Y49136421D01*
X-3080132Y49136413D01*
X-3120500Y48933470D01*
X-3559501Y48933470D01*
X-3599870Y49136420D01*
X-3679059Y49327598D01*
X-3794023Y49499655D01*
X-3794025Y49499658D01*
X-3940343Y49645976D01*
X-4062870Y49727845D01*
X-4112402Y49760941D01*
X-4112407Y49760943D01*
X-4303580Y49840130D01*
X-4303588Y49840132D01*
X-4506531Y49880500D01*
X-4506535Y49880500D01*
X-4713465Y49880500D01*
X-4713470Y49880500D01*
X-4916413Y49840132D01*
X-4916421Y49840130D01*
X-5107597Y49760942D01*
X-5279658Y49645976D01*
X-5425976Y49499658D01*
X-5540942Y49327597D01*
X-5620130Y49136421D01*
X-5620132Y49136413D01*
X-5660500Y48933470D01*
X-6099501Y48933470D01*
X-6139870Y49136420D01*
X-6219059Y49327598D01*
X-6334023Y49499655D01*
X-6334025Y49499658D01*
X-6480343Y49645976D01*
X-6602870Y49727845D01*
X-6652402Y49760941D01*
X-6652407Y49760943D01*
X-6843580Y49840130D01*
X-6843588Y49840132D01*
X-7046531Y49880500D01*
X-7046535Y49880500D01*
X-7253465Y49880500D01*
X-7253470Y49880500D01*
X-7456413Y49840132D01*
X-7456421Y49840130D01*
X-7647597Y49760942D01*
X-7819658Y49645976D01*
X-7965976Y49499658D01*
X-8080942Y49327597D01*
X-8160130Y49136421D01*
X-8160132Y49136413D01*
X-8200500Y48933470D01*
X-8639501Y48933470D01*
X-8679870Y49136420D01*
X-8759059Y49327598D01*
X-8874023Y49499655D01*
X-8874025Y49499658D01*
X-9020343Y49645976D01*
X-9142870Y49727845D01*
X-9192402Y49760941D01*
X-9192407Y49760943D01*
X-9383580Y49840130D01*
X-9383588Y49840132D01*
X-9586531Y49880500D01*
X-9586535Y49880500D01*
X-9793465Y49880500D01*
X-9793470Y49880500D01*
X-9996413Y49840132D01*
X-9996421Y49840130D01*
X-10187597Y49760942D01*
X-10359658Y49645976D01*
X-10505976Y49499658D01*
X-10620942Y49327597D01*
X-10700130Y49136421D01*
X-10700132Y49136413D01*
X-10740500Y48933470D01*
X-11179501Y48933470D01*
X-11219870Y49136420D01*
X-11299059Y49327598D01*
X-11414023Y49499655D01*
X-11414025Y49499658D01*
X-11560343Y49645976D01*
X-11682870Y49727845D01*
X-11732402Y49760941D01*
X-11732407Y49760943D01*
X-11923580Y49840130D01*
X-11923588Y49840132D01*
X-12126531Y49880500D01*
X-12126535Y49880500D01*
X-12333465Y49880500D01*
X-12333470Y49880500D01*
X-12536413Y49840132D01*
X-12536421Y49840130D01*
X-12727597Y49760942D01*
X-12899658Y49645976D01*
X-13045976Y49499658D01*
X-13160942Y49327597D01*
X-13240130Y49136421D01*
X-13240132Y49136413D01*
X-13280500Y48933470D01*
X-13719501Y48933470D01*
X-13759870Y49136420D01*
X-13839059Y49327598D01*
X-13954023Y49499655D01*
X-13954025Y49499658D01*
X-14100343Y49645976D01*
X-14222870Y49727845D01*
X-14272402Y49760941D01*
X-14272407Y49760943D01*
X-14463580Y49840130D01*
X-14463588Y49840132D01*
X-14666531Y49880500D01*
X-14666535Y49880500D01*
X-14873465Y49880500D01*
X-14873470Y49880500D01*
X-15076413Y49840132D01*
X-15076421Y49840130D01*
X-15267597Y49760942D01*
X-15439658Y49645976D01*
X-15585976Y49499658D01*
X-15700942Y49327597D01*
X-15780130Y49136421D01*
X-15780132Y49136413D01*
X-15820500Y48933470D01*
X-16259501Y48933470D01*
X-16299870Y49136420D01*
X-16379059Y49327598D01*
X-16494023Y49499655D01*
X-16494025Y49499658D01*
X-16640343Y49645976D01*
X-16762870Y49727845D01*
X-16812402Y49760941D01*
X-16812407Y49760943D01*
X-17003580Y49840130D01*
X-17003588Y49840132D01*
X-17206531Y49880500D01*
X-17206535Y49880500D01*
X-17413465Y49880500D01*
X-17413470Y49880500D01*
X-17616413Y49840132D01*
X-17616421Y49840130D01*
X-17807597Y49760942D01*
X-17979658Y49645976D01*
X-18125976Y49499658D01*
X-18240942Y49327597D01*
X-18320130Y49136421D01*
X-18320132Y49136413D01*
X-18360500Y48933470D01*
X-18360500Y48726531D01*
X-18320132Y48523588D01*
X-18320130Y48523580D01*
X-18280552Y48428031D01*
X-18273083Y48358562D01*
X-18304358Y48296082D01*
X-18307432Y48292897D01*
X-46270463Y20329865D01*
X-46270467Y20329859D01*
X-46313319Y20255639D01*
X-46313318Y20255638D01*
X-46335500Y20172853D01*
X-46335500Y829500D01*
X-46355185Y762461D01*
X-46407989Y716706D01*
X-46459500Y705500D01*
X-52914919Y705500D01*
X-52981958Y725185D01*
X-53027713Y777989D01*
X-53029480Y782047D01*
X-53069058Y877597D01*
X-53184025Y1049658D01*
X-53330343Y1195976D01*
X-53435704Y1266375D01*
X-53502402Y1310941D01*
X-53693580Y1390130D01*
X-53693588Y1390132D01*
X-53896531Y1430500D01*
X-53896535Y1430500D01*
X-54103465Y1430500D01*
X-54103470Y1430500D01*
X-54306413Y1390132D01*
X-54306421Y1390130D01*
X-54497597Y1310942D01*
X-54638510Y1216788D01*
X-54705188Y1195911D01*
X-54772568Y1214396D01*
X-54819257Y1266375D01*
X-54831400Y1319891D01*
X-54831400Y1576912D01*
X-54811715Y1643951D01*
X-54795081Y1664593D01*
X-54709174Y1750500D01*
X-54537104Y1922571D01*
X-54475783Y1956054D01*
X-54406092Y1951070D01*
X-54401972Y1949449D01*
X-54368995Y1935790D01*
X-54306420Y1909870D01*
X-54103470Y1869501D01*
X-54103466Y1869500D01*
X-54103465Y1869500D01*
X-53896534Y1869500D01*
X-53896533Y1869501D01*
X-53693580Y1909870D01*
X-53502402Y1989059D01*
X-53330345Y2104023D01*
X-53184023Y2250345D01*
X-53069059Y2422402D01*
X-52989870Y2613580D01*
X-52949500Y2816535D01*
X-52949500Y3023465D01*
X-52989870Y3226420D01*
X-53029450Y3321972D01*
X-53036918Y3391440D01*
X-53005643Y3453920D01*
X-53002569Y3457105D01*
X-52723697Y3735977D01*
X-52324735Y4134938D01*
X-52281882Y4209162D01*
X-52259700Y4291947D01*
X-52259700Y15908613D01*
X-52240015Y15975652D01*
X-52223386Y15996289D01*
X-20387104Y47832572D01*
X-20325783Y47866055D01*
X-20256091Y47861071D01*
X-20252036Y47859476D01*
X-20156420Y47819870D01*
X-19953470Y47779501D01*
X-19953466Y47779500D01*
X-19953465Y47779500D01*
X-19746534Y47779500D01*
X-19746533Y47779501D01*
X-19543580Y47819870D01*
X-19352402Y47899059D01*
X-19180345Y48014023D01*
X-19034023Y48160345D01*
X-18919059Y48332402D01*
X-18839870Y48523580D01*
X-18799500Y48726535D01*
X-18799500Y48933465D01*
X-18839870Y49136420D01*
X-18919059Y49327598D01*
X-19034023Y49499655D01*
X-19034025Y49499658D01*
X-19180343Y49645976D01*
X-19302870Y49727845D01*
X-19352402Y49760941D01*
X-19352407Y49760943D01*
X-19543580Y49840130D01*
X-19543588Y49840132D01*
X-19746531Y49880500D01*
X-19746535Y49880500D01*
X-19953465Y49880500D01*
X-19953470Y49880500D01*
X-20156413Y49840132D01*
X-20156421Y49840130D01*
X-20347597Y49760942D01*
X-20519658Y49645976D01*
X-20665976Y49499658D01*
X-20780942Y49327597D01*
X-20801439Y49278112D01*
X-20845280Y49223709D01*
X-20911574Y49201644D01*
X-20979274Y49218923D01*
X-21026884Y49270061D01*
X-21040000Y49325565D01*
X-21040000Y49727828D01*
X-21040001Y49727845D01*
X-21046402Y49787373D01*
X-21046404Y49787380D01*
X-21096646Y49922087D01*
X-21096650Y49922094D01*
X-21182810Y50037188D01*
X-21182813Y50037191D01*
X-21297907Y50123351D01*
X-21297914Y50123355D01*
X-21432621Y50173597D01*
X-21432628Y50173599D01*
X-21492156Y50180000D01*
X-22140000Y50180000D01*
X-22140000Y49263012D01*
X-22197007Y49295925D01*
X-22324174Y49330000D01*
X-22455826Y49330000D01*
X-22582993Y49295925D01*
X-22640000Y49263012D01*
X-22640000Y50180000D01*
X-23287845Y50180000D01*
X-23347373Y50173599D01*
X-23347380Y50173597D01*
X-23482087Y50123355D01*
X-23482094Y50123351D01*
X-23597188Y50037191D01*
X-23597191Y50037188D01*
X-23683351Y49922094D01*
X-23683355Y49922087D01*
X-23733597Y49787380D01*
X-23733599Y49787373D01*
X-23740000Y49727845D01*
X-23740000Y49080000D01*
X-22823012Y49080000D01*
X-22855925Y49022993D01*
X-22890000Y48895826D01*
X-22890000Y48764174D01*
X-22855925Y48637007D01*
X-22823012Y48580000D01*
X-23740000Y48580000D01*
X-23740000Y47932156D01*
X-23733599Y47872628D01*
X-23733597Y47872621D01*
X-23683355Y47737914D01*
X-23683351Y47737907D01*
X-23597191Y47622813D01*
X-23597188Y47622810D01*
X-23482094Y47536650D01*
X-23482087Y47536646D01*
X-23347380Y47486404D01*
X-23347373Y47486402D01*
X-23287845Y47480001D01*
X-23287828Y47480000D01*
X-22640000Y47480000D01*
X-22640000Y48396988D01*
X-22582993Y48364075D01*
X-22455826Y48330000D01*
X-22324174Y48330000D01*
X-22197007Y48364075D01*
X-22140000Y48396988D01*
X-22140000Y47480000D01*
X-21959689Y47480000D01*
X-21892650Y47460315D01*
X-21846895Y47407511D01*
X-21836951Y47338353D01*
X-21865976Y47274797D01*
X-21872008Y47268319D01*
X-52845663Y16294665D01*
X-52845667Y16294659D01*
X-52888519Y16220439D01*
X-52888518Y16220438D01*
X-52910700Y16137653D01*
X-52910700Y9157730D01*
X-52930385Y9090691D01*
X-52983189Y9044936D01*
X-53052347Y9034992D01*
X-53059687Y9037005D01*
X-53059790Y9036485D01*
X-53130248Y9050500D01*
X-53130252Y9050500D01*
X-54869748Y9050500D01*
X-54869753Y9050500D01*
X-54928230Y9038869D01*
X-54928231Y9038868D01*
X-54994553Y8994553D01*
X-55038868Y8928231D01*
X-55038869Y8928230D01*
X-55050500Y8869753D01*
X-55050500Y7130248D01*
X-55038869Y7071771D01*
X-55038868Y7071770D01*
X-54994553Y7005448D01*
X-54928231Y6961133D01*
X-54928230Y6961132D01*
X-54869753Y6949501D01*
X-54869750Y6949500D01*
X-54566048Y6949500D01*
X-54499009Y6929815D01*
X-54453254Y6877011D01*
X-54443310Y6807853D01*
X-54472335Y6744297D01*
X-54514265Y6714062D01*
X-54513879Y6713306D01*
X-54707561Y6614620D01*
X-54761718Y6575273D01*
X-54761718Y6575272D01*
X-54129409Y5942963D01*
X-54192993Y5925925D01*
X-54307007Y5860099D01*
X-54400099Y5767007D01*
X-54465925Y5652993D01*
X-54482963Y5589409D01*
X-55115272Y6221718D01*
X-55115273Y6221718D01*
X-55154620Y6167561D01*
X-55251096Y5978218D01*
X-55316758Y5776131D01*
X-55316758Y5776128D01*
X-55350000Y5566247D01*
X-55350000Y5353754D01*
X-55316758Y5143873D01*
X-55316758Y5143870D01*
X-55251096Y4941783D01*
X-55154625Y4752450D01*
X-55115272Y4698284D01*
X-54482963Y5330592D01*
X-54465925Y5267007D01*
X-54400099Y5152993D01*
X-54307007Y5059901D01*
X-54192993Y4994075D01*
X-54129410Y4977038D01*
X-54761718Y4344731D01*
X-54761718Y4344730D01*
X-54707551Y4305376D01*
X-54518218Y4208905D01*
X-54342027Y4151657D01*
X-54284352Y4112220D01*
X-54257153Y4047861D01*
X-54269068Y3979015D01*
X-54316312Y3927539D01*
X-54332892Y3919165D01*
X-54497597Y3850943D01*
X-54669658Y3735976D01*
X-54815976Y3589658D01*
X-54930942Y3417597D01*
X-55010130Y3226421D01*
X-55010132Y3226413D01*
X-55050500Y3023470D01*
X-55050500Y2816531D01*
X-55010132Y2613588D01*
X-55010130Y2613580D01*
X-54970552Y2518031D01*
X-54963083Y2448562D01*
X-54994358Y2386082D01*
X-54997432Y2382897D01*
X-55417363Y1962965D01*
X-55417367Y1962959D01*
X-55460219Y1888739D01*
X-55460218Y1888738D01*
X-55482400Y1805953D01*
X-59466711Y1805953D01*
X-59464154Y2062858D01*
X-59463941Y2068983D01*
X-59458821Y2154913D01*
X-59288994Y5005625D01*
X-59288477Y5011735D01*
X-59277195Y5114770D01*
X-58968295Y7936073D01*
X-58967485Y7942093D01*
X-58502841Y10847058D01*
X-58501722Y10853087D01*
X-57926772Y13575193D01*
X-57893782Y13731388D01*
X-57892366Y13737356D01*
X-57882154Y13776101D01*
X-57142600Y16582049D01*
X-57140907Y16587886D01*
X-56251154Y19391976D01*
X-56249152Y19397778D01*
X-56201003Y19526945D01*
X-55221619Y22154321D01*
X-55219347Y22159982D01*
X-54056521Y24862295D01*
X-54053997Y24867782D01*
X-52758740Y27509207D01*
X-52755936Y27514585D01*
X-51331440Y30088610D01*
X-51328384Y30093822D01*
X-49778145Y32594132D01*
X-49774822Y32599207D01*
X-48102665Y35019633D01*
X-48099054Y35024591D01*
X-46685238Y36868592D01*
X-46309093Y37359188D01*
X-46305244Y37363958D01*
X-44550947Y39431323D01*
X-44401829Y39607053D01*
X-44397790Y39611581D01*
X-42385566Y41757693D01*
X-42381324Y41761998D01*
X-40265282Y43805802D01*
X-40260821Y43809901D01*
X-38046151Y45746383D01*
X-38041471Y45750274D01*
X-35733619Y47574673D01*
X-35728766Y47578318D01*
X-33333396Y49286162D01*
X-33328338Y49289583D01*
X-30851283Y50876710D01*
X-30846113Y50879844D01*
X-28293510Y52342320D01*
X-28288151Y52345216D01*
X-25666229Y53679473D01*
X-25660772Y53682082D01*
X-22975990Y54884834D01*
X-22970363Y54887189D01*
X-22319235Y55140959D01*
X-2150500Y55140959D01*
X-2150500Y54859042D01*
X-2113705Y54579561D01*
X-2040741Y54307257D01*
X-1932865Y54046821D01*
X-1932860Y54046810D01*
X-1791917Y53802691D01*
X-1791912Y53802683D01*
X-1684280Y53662415D01*
X-1620296Y53579030D01*
X-1420971Y53379705D01*
X-1420967Y53379702D01*
X-1420965Y53379700D01*
X-1197317Y53208088D01*
X-1197310Y53208084D01*
X-953191Y53067141D01*
X-953186Y53067139D01*
X-953183Y53067137D01*
X-692739Y52959258D01*
X-420442Y52886296D01*
X-140951Y52849500D01*
X-140944Y52849500D01*
X140944Y52849500D01*
X140951Y52849500D01*
X420442Y52886296D01*
X692739Y52959258D01*
X953183Y53067137D01*
X1197317Y53208088D01*
X1420965Y53379700D01*
X1620300Y53579035D01*
X1791912Y53802683D01*
X1932863Y54046817D01*
X2040742Y54307261D01*
X2113704Y54579558D01*
X2150500Y54859049D01*
X2150500Y55140951D01*
X2113704Y55420442D01*
X2040742Y55692739D01*
X1932863Y55953183D01*
X1932861Y55953186D01*
X1932859Y55953191D01*
X1791916Y56197310D01*
X1791912Y56197317D01*
X1620300Y56420965D01*
X1620298Y56420967D01*
X1620295Y56420971D01*
X1420970Y56620296D01*
X1403348Y56633818D01*
X1197317Y56791912D01*
X1197311Y56791916D01*
X1197309Y56791917D01*
X953190Y56932860D01*
X953179Y56932865D01*
X692743Y57040741D01*
X420439Y57113705D01*
X140958Y57150500D01*
X140951Y57150500D01*
X-140951Y57150500D01*
X-140959Y57150500D01*
X-420440Y57113705D01*
X-692744Y57040741D01*
X-953180Y56932865D01*
X-953191Y56932860D01*
X-1197310Y56791917D01*
X-1197318Y56791911D01*
X-1420971Y56620296D01*
X-1620296Y56420971D01*
X-1791911Y56197318D01*
X-1791917Y56197310D01*
X-1932860Y55953191D01*
X-1932865Y55953180D01*
X-2040741Y55692744D01*
X-2113705Y55420440D01*
X-2150500Y55140959D01*
X-22319235Y55140959D01*
X-20229322Y55955480D01*
X-20223611Y55957544D01*
X-17433006Y56888764D01*
X-17427184Y56890548D01*
X-14593894Y57682400D01*
X-14587952Y57683903D01*
X-11718967Y58334439D01*
X-11712962Y58335646D01*
X-8815244Y58843288D01*
X-8809217Y58844191D01*
X-5889916Y59207685D01*
X-5883822Y59208291D01*
X-2950081Y59426746D01*
X-2944007Y59427047D01*
X-3067Y59499924D01*
X3067Y59499924D01*
X2944004Y59427047D01*
G37*
%TD.AperFunction*%
%TD*%
M02*
