M48
; DRILL file KiCad 10.0.2 date 2026-05-17T23:21:42
; FORMAT={-:-/ absolute / metric / decimal}
; #@! TF.CreationDate,2026-05-17T23:21:42+02:00
; #@! TF.GenerationSoftware,Kicad,Pcbnew,10.0.2
; #@! TF.FileFunction,Plated,1,2,PTH
FMAT,2
METRIC
; #@! TA.AperFunction,Plated,PTH,ViaDrill
T1C0.300
; #@! TA.AperFunction,Plated,PTH,ComponentDrill
T2C0.650
; #@! TA.AperFunction,Plated,PTH,ComponentDrill
T3C0.800
; #@! TA.AperFunction,Plated,PTH,ComponentDrill
T4C1.000
; #@! TA.AperFunction,Plated,PTH,ComponentDrill
T5C1.400
%
G90
G05
T1
X146.7Y-59.0
X182.625Y-130.15
T2
X98.68Y-124.05
X99.95Y-124.05
X101.22Y-124.05
X102.49Y-124.05
X103.76Y-124.05
T3
X112.75Y-81.0
X116.25Y-81.0
X172.25Y-58.0
X174.75Y-58.0
X186.75Y-141.0
X190.25Y-141.0
T4
X94.5Y-97.0
X94.5Y-99.54
X94.5Y-102.08
X94.5Y-104.62
X94.5Y-107.16
X94.5Y-109.7
X111.61Y-125.32
X111.61Y-127.86
X111.61Y-130.4
X111.61Y-132.94
X111.61Y-135.48
X111.61Y-138.02
X111.61Y-140.56
X111.61Y-143.1
X126.11Y-56.17
X126.11Y-79.03
X128.65Y-56.17
X128.65Y-79.03
X131.19Y-56.17
X131.19Y-79.03
X133.73Y-56.17
X133.73Y-79.03
X134.47Y-125.32
X134.47Y-127.86
X134.47Y-130.4
X134.47Y-132.94
X134.47Y-135.48
X134.47Y-138.02
X134.47Y-140.56
X134.47Y-143.1
X136.27Y-56.17
X136.27Y-79.03
X138.81Y-56.17
X138.81Y-79.03
X141.35Y-56.17
X141.35Y-79.03
X143.89Y-56.17
X143.89Y-79.03
X146.43Y-56.17
X146.43Y-79.03
X148.97Y-56.17
X148.97Y-79.03
X151.51Y-56.17
X151.51Y-79.03
X154.05Y-56.17
X154.05Y-79.03
X156.59Y-56.17
X156.59Y-79.03
X157.9Y-133.3
X157.9Y-135.84
X157.9Y-138.38
X157.9Y-140.92
X157.9Y-143.46
X157.9Y-146.0
X159.13Y-56.17
X159.13Y-79.03
X161.67Y-56.17
X161.67Y-79.03
T5
X143.42Y-127.4
X148.5Y-127.4
X153.58Y-127.4
M30
