M48
; DRILL file KiCad 10.0.2 date 2026-05-15T00:15:44
; FORMAT={-:-/ absolute / metric / decimal}
; #@! TF.CreationDate,2026-05-15T00:15:44+02:00
; #@! TF.GenerationSoftware,Kicad,Pcbnew,10.0.2
; #@! TF.FileFunction,Plated,1,2,PTH
FMAT,2
METRIC
; #@! TA.AperFunction,Plated,PTH,ViaDrill
T1C0.300
; #@! TA.AperFunction,Plated,PTH,ComponentDrill
T2C0.650
; #@! TA.AperFunction,Plated,PTH,ComponentDrill
T3C0.800
; #@! TA.AperFunction,Plated,PTH,ComponentDrill
T4C1.000
; #@! TA.AperFunction,Plated,PTH,ComponentDrill
T5C1.400
%
G90
G05
T1
X103.5Y-95.0
X105.0Y-107.5
X105.0Y-136.75
X110.065Y-96.426
X115.498Y-122.645
X117.329Y-85.991
X118.5Y-100.0
X118.689Y-122.445
X118.91Y-114.799
X123.5Y-140.0
X127.163Y-74.934
X137.5Y-109.0
X138.5Y-110.0
X140.899Y-107.45
X141.0Y-114.5
X141.45Y-108.58
X141.652Y-98.15
X142.971Y-110.919
X144.0Y-60.5
X144.0Y-63.0
X144.18Y-111.63
X144.2Y-74.1
X146.406Y-98.349
X146.7Y-59.0
X146.936Y-59.972
X148.434Y-71.15
X148.748Y-112.552
X149.4Y-75.0
X150.603Y-75.19
X152.5Y-72.0
X153.5Y-52.0
X154.447Y-99.155
X154.517Y-74.254
X154.535Y-111.047
X155.303Y-103.836
X155.329Y-56.949
X155.334Y-97.801
X156.1Y-105.6
X156.275Y-58.702
X156.5Y-97.0
X156.5Y-147.0
X156.573Y-102.174
X158.353Y-70.883
X158.394Y-90.823
X159.0Y-80.5
X159.5Y-108.0
X159.538Y-64.772
X160.302Y-84.259
X161.602Y-72.486
X162.179Y-59.025
X166.309Y-58.0
X167.0Y-137.2
X171.0Y-57.3
X171.0Y-141.5
X171.957Y-117.489
X174.211Y-128.83
X175.345Y-132.024
X176.465Y-131.975
X178.65Y-145.5
X179.65Y-131.0
X179.65Y-145.5
X181.65Y-144.5
X182.625Y-130.15
X186.617Y-117.489
X198.5Y-95.0
T2
X98.68Y-124.05
X99.95Y-124.05
X101.22Y-124.05
X102.49Y-124.05
X103.76Y-124.05
T3
X112.75Y-81.0
X116.25Y-81.0
X172.25Y-58.0
X174.75Y-58.0
X186.75Y-141.0
X190.25Y-141.0
T4
X94.5Y-97.0
X94.5Y-99.54
X94.5Y-102.08
X94.5Y-104.62
X94.5Y-107.16
X94.5Y-109.7
X111.61Y-125.32
X111.61Y-127.86
X111.61Y-130.4
X111.61Y-132.94
X111.61Y-135.48
X111.61Y-138.02
X111.61Y-140.56
X111.61Y-143.1
X126.11Y-56.17
X126.11Y-79.03
X128.65Y-56.17
X128.65Y-79.03
X131.19Y-56.17
X131.19Y-79.03
X133.73Y-56.17
X133.73Y-79.03
X134.47Y-125.32
X134.47Y-127.86
X134.47Y-130.4
X134.47Y-132.94
X134.47Y-135.48
X134.47Y-138.02
X134.47Y-140.56
X134.47Y-143.1
X136.27Y-56.17
X136.27Y-79.03
X138.81Y-56.17
X138.81Y-79.03
X141.35Y-56.17
X141.35Y-79.03
X143.89Y-56.17
X143.89Y-79.03
X146.43Y-56.17
X146.43Y-79.03
X148.97Y-56.17
X148.97Y-79.03
X151.51Y-56.17
X151.51Y-79.03
X154.05Y-56.17
X154.05Y-79.03
X156.59Y-56.17
X156.59Y-79.03
X157.9Y-133.3
X157.9Y-135.84
X157.9Y-138.38
X157.9Y-140.92
X157.9Y-143.46
X157.9Y-146.0
X159.13Y-56.17
X159.13Y-79.03
X161.67Y-56.17
X161.67Y-79.03
T5
X143.42Y-127.4
X148.5Y-127.4
X153.58Y-127.4
M30
