%TF.GenerationSoftware,KiCad,Pcbnew,10.0.2*%
%TF.CreationDate,2026-05-17T23:21:42+02:00*%
%TF.ProjectId,oas,6f61732e-6b69-4636-9164-5f7063625858,rev?*%
%TF.SameCoordinates,Original*%
%TF.FileFunction,Legend,Top*%
%TF.FilePolarity,Positive*%
%FSLAX46Y46*%
G04 Gerber Fmt 4.6, Leading zero omitted, Abs format (unit mm)*
G04 Created by KiCad (PCBNEW 10.0.2) date 2026-05-17 23:21:42*
%MOMM*%
%LPD*%
G01*
G04 APERTURE LIST*
G04 Aperture macros list*
%AMRoundRect*
0 Rectangle with rounded corners*
0 $1 Rounding radius*
0 $2 $3 $4 $5 $6 $7 $8 $9 X,Y pos of 4 corners*
0 Add a 4 corners polygon primitive as box body*
4,1,4,$2,$3,$4,$5,$6,$7,$8,$9,$2,$3,0*
0 Add four circle primitives for the rounded corners*
1,1,$1+$1,$2,$3*
1,1,$1+$1,$4,$5*
1,1,$1+$1,$6,$7*
1,1,$1+$1,$8,$9*
0 Add four rect primitives between the rounded corners*
20,1,$1+$1,$2,$3,$4,$5,0*
20,1,$1+$1,$4,$5,$6,$7,0*
20,1,$1+$1,$6,$7,$8,$9,0*
20,1,$1+$1,$8,$9,$2,$3,0*%
%AMRotRect*
0 Rectangle, with rotation*
0 The origin of the aperture is its center*
0 $1 length*
0 $2 width*
0 $3 Rotation angle, in degrees counterclockwise*
0 Add horizontal line*
21,1,$1,$2,0,0,$3*%
G04 Aperture macros list end*
%ADD10C,0.150000*%
%ADD11C,0.120000*%
%ADD12C,0.190000*%
%ADD13C,3.800000*%
%ADD14C,3.000000*%
%ADD15RoundRect,0.150000X-0.150000X-0.700000X0.150000X-0.700000X0.150000X0.700000X-0.150000X0.700000X0*%
%ADD16RoundRect,0.250000X-0.250000X-1.100000X0.250000X-1.100000X0.250000X1.100000X-0.250000X1.100000X0*%
%ADD17R,1.000000X1.000000*%
%ADD18C,1.000000*%
%ADD19RoundRect,0.249999X0.790001X1.550001X-0.790001X1.550001X-0.790001X-1.550001X0.790001X-1.550001X0*%
%ADD20O,2.080000X3.600000*%
%ADD21RoundRect,0.150000X0.150000X0.625000X-0.150000X0.625000X-0.150000X-0.625000X0.150000X-0.625000X0*%
%ADD22RoundRect,0.250000X0.350000X0.650000X-0.350000X0.650000X-0.350000X-0.650000X0.350000X-0.650000X0*%
%ADD23R,1.700000X1.700000*%
%ADD24C,1.700000*%
%ADD25R,1.000000X0.600000*%
%ADD26RoundRect,0.140000X-0.170000X0.140000X-0.170000X-0.140000X0.170000X-0.140000X0.170000X0.140000X0*%
%ADD27RotRect,0.600000X1.000000X240.000000*%
%ADD28RoundRect,0.140000X-0.077224X0.206244X-0.217224X-0.036244X0.077224X-0.206244X0.217224X0.036244X0*%
%ADD29RotRect,0.600000X1.000000X210.000000*%
%ADD30RoundRect,0.140000X0.036244X0.217224X-0.206244X0.077224X-0.036244X-0.217224X0.206244X-0.077224X0*%
%ADD31RotRect,0.600000X1.000000X150.000000*%
%ADD32RoundRect,0.140000X0.206244X0.077224X-0.036244X0.217224X-0.206244X-0.077224X0.036244X-0.217224X0*%
%ADD33RotRect,0.600000X1.000000X120.000000*%
%ADD34RoundRect,0.140000X0.217224X-0.036244X0.077224X0.206244X-0.217224X0.036244X-0.077224X-0.206244X0*%
%ADD35RoundRect,0.140000X0.170000X-0.140000X0.170000X0.140000X-0.170000X0.140000X-0.170000X-0.140000X0*%
%ADD36RotRect,0.600000X1.000000X60.000000*%
%ADD37RoundRect,0.140000X0.077224X-0.206244X0.217224X0.036244X-0.077224X0.206244X-0.217224X-0.036244X0*%
%ADD38RotRect,0.600000X1.000000X30.000000*%
%ADD39RoundRect,0.140000X-0.036244X-0.217224X0.206244X-0.077224X0.036244X0.217224X-0.206244X0.077224X0*%
%ADD40R,0.600000X1.000000*%
%ADD41RoundRect,0.140000X-0.140000X-0.170000X0.140000X-0.170000X0.140000X0.170000X-0.140000X0.170000X0*%
%ADD42RotRect,0.600000X1.000000X330.000000*%
%ADD43RoundRect,0.140000X-0.206244X-0.077224X0.036244X-0.217224X0.206244X0.077224X-0.036244X0.217224X0*%
%ADD44RotRect,0.600000X1.000000X300.000000*%
%ADD45RoundRect,0.140000X-0.217224X0.036244X-0.077224X-0.206244X0.217224X-0.036244X0.077224X0.206244X0*%
%ADD46RoundRect,0.250000X1.000000X0.900000X-1.000000X0.900000X-1.000000X-0.900000X1.000000X-0.900000X0*%
%ADD47RoundRect,0.150000X-0.587500X-0.150000X0.587500X-0.150000X0.587500X0.150000X-0.587500X0.150000X0*%
%ADD48RoundRect,0.112500X-0.187500X-0.112500X0.187500X-0.112500X0.187500X0.112500X-0.187500X0.112500X0*%
%ADD49RoundRect,0.250000X-0.712500X-2.475000X0.712500X-2.475000X0.712500X2.475000X-0.712500X2.475000X0*%
%ADD50RoundRect,0.200000X-0.200000X-0.275000X0.200000X-0.275000X0.200000X0.275000X-0.200000X0.275000X0*%
%ADD51RoundRect,0.250000X-0.550000X-0.550000X0.550000X-0.550000X0.550000X0.550000X-0.550000X0.550000X0*%
%ADD52C,1.600000*%
%ADD53RoundRect,0.250000X-2.050000X-0.300000X2.050000X-0.300000X2.050000X0.300000X-2.050000X0.300000X0*%
%ADD54RoundRect,0.250002X-4.449998X-5.149998X4.449998X-5.149998X4.449998X5.149998X-4.449998X5.149998X0*%
%ADD55RoundRect,0.250000X-1.000000X-0.650000X1.000000X-0.650000X1.000000X0.650000X-1.000000X0.650000X0*%
%ADD56RoundRect,0.249999X-0.850001X-1.850001X0.850001X-1.850001X0.850001X1.850001X-0.850001X1.850001X0*%
%ADD57RoundRect,0.050000X-0.285000X-0.100000X0.285000X-0.100000X0.285000X0.100000X-0.285000X0.100000X0*%
%ADD58RoundRect,0.225000X-0.225000X-0.250000X0.225000X-0.250000X0.225000X0.250000X-0.225000X0.250000X0*%
%ADD59RoundRect,0.250000X-0.250000X-0.475000X0.250000X-0.475000X0.250000X0.475000X-0.250000X0.475000X0*%
G04 APERTURE END LIST*
D10*
X29799999Y2592800D02*
X29942856Y2545181D01*
X29942856Y2545181D02*
X30180951Y2545181D01*
X30180951Y2545181D02*
X30276189Y2592800D01*
X30276189Y2592800D02*
X30323808Y2640420D01*
X30323808Y2640420D02*
X30371427Y2735658D01*
X30371427Y2735658D02*
X30371427Y2830896D01*
X30371427Y2830896D02*
X30323808Y2926134D01*
X30323808Y2926134D02*
X30276189Y2973753D01*
X30276189Y2973753D02*
X30180951Y3021372D01*
X30180951Y3021372D02*
X29990475Y3068991D01*
X29990475Y3068991D02*
X29895237Y3116610D01*
X29895237Y3116610D02*
X29847618Y3164229D01*
X29847618Y3164229D02*
X29799999Y3259467D01*
X29799999Y3259467D02*
X29799999Y3354705D01*
X29799999Y3354705D02*
X29847618Y3449943D01*
X29847618Y3449943D02*
X29895237Y3497562D01*
X29895237Y3497562D02*
X29990475Y3545181D01*
X29990475Y3545181D02*
X30228570Y3545181D01*
X30228570Y3545181D02*
X30371427Y3497562D01*
X30799999Y3068991D02*
X31133332Y3068991D01*
X31276189Y2545181D02*
X30799999Y2545181D01*
X30799999Y2545181D02*
X30799999Y3545181D01*
X30799999Y3545181D02*
X31276189Y3545181D01*
X31704761Y2545181D02*
X31704761Y3545181D01*
X31704761Y3545181D02*
X32276189Y2545181D01*
X32276189Y2545181D02*
X32276189Y3545181D01*
X33180951Y3545181D02*
X32990475Y3545181D01*
X32990475Y3545181D02*
X32895237Y3497562D01*
X32895237Y3497562D02*
X32847618Y3449943D01*
X32847618Y3449943D02*
X32752380Y3307086D01*
X32752380Y3307086D02*
X32704761Y3116610D01*
X32704761Y3116610D02*
X32704761Y2735658D01*
X32704761Y2735658D02*
X32752380Y2640420D01*
X32752380Y2640420D02*
X32799999Y2592800D01*
X32799999Y2592800D02*
X32895237Y2545181D01*
X32895237Y2545181D02*
X33085713Y2545181D01*
X33085713Y2545181D02*
X33180951Y2592800D01*
X33180951Y2592800D02*
X33228570Y2640420D01*
X33228570Y2640420D02*
X33276189Y2735658D01*
X33276189Y2735658D02*
X33276189Y2973753D01*
X33276189Y2973753D02*
X33228570Y3068991D01*
X33228570Y3068991D02*
X33180951Y3116610D01*
X33180951Y3116610D02*
X33085713Y3164229D01*
X33085713Y3164229D02*
X32895237Y3164229D01*
X32895237Y3164229D02*
X32799999Y3116610D01*
X32799999Y3116610D02*
X32752380Y3068991D01*
X32752380Y3068991D02*
X32704761Y2973753D01*
X34133332Y3545181D02*
X33942856Y3545181D01*
X33942856Y3545181D02*
X33847618Y3497562D01*
X33847618Y3497562D02*
X33799999Y3449943D01*
X33799999Y3449943D02*
X33704761Y3307086D01*
X33704761Y3307086D02*
X33657142Y3116610D01*
X33657142Y3116610D02*
X33657142Y2735658D01*
X33657142Y2735658D02*
X33704761Y2640420D01*
X33704761Y2640420D02*
X33752380Y2592800D01*
X33752380Y2592800D02*
X33847618Y2545181D01*
X33847618Y2545181D02*
X34038094Y2545181D01*
X34038094Y2545181D02*
X34133332Y2592800D01*
X34133332Y2592800D02*
X34180951Y2640420D01*
X34180951Y2640420D02*
X34228570Y2735658D01*
X34228570Y2735658D02*
X34228570Y2973753D01*
X34228570Y2973753D02*
X34180951Y3068991D01*
X34180951Y3068991D02*
X34133332Y3116610D01*
X34133332Y3116610D02*
X34038094Y3164229D01*
X34038094Y3164229D02*
X33847618Y3164229D01*
X33847618Y3164229D02*
X33752380Y3116610D01*
X33752380Y3116610D02*
X33704761Y3068991D01*
X33704761Y3068991D02*
X33657142Y2973753D01*
X35847618Y2545181D02*
X35847618Y3068991D01*
X35847618Y3068991D02*
X35799999Y3164229D01*
X35799999Y3164229D02*
X35704761Y3211848D01*
X35704761Y3211848D02*
X35514285Y3211848D01*
X35514285Y3211848D02*
X35419047Y3164229D01*
X35847618Y2592800D02*
X35752380Y2545181D01*
X35752380Y2545181D02*
X35514285Y2545181D01*
X35514285Y2545181D02*
X35419047Y2592800D01*
X35419047Y2592800D02*
X35371428Y2688039D01*
X35371428Y2688039D02*
X35371428Y2783277D01*
X35371428Y2783277D02*
X35419047Y2878515D01*
X35419047Y2878515D02*
X35514285Y2926134D01*
X35514285Y2926134D02*
X35752380Y2926134D01*
X35752380Y2926134D02*
X35847618Y2973753D01*
X36323809Y2545181D02*
X36323809Y3211848D01*
X36323809Y3545181D02*
X36276190Y3497562D01*
X36276190Y3497562D02*
X36323809Y3449943D01*
X36323809Y3449943D02*
X36371428Y3497562D01*
X36371428Y3497562D02*
X36323809Y3545181D01*
X36323809Y3545181D02*
X36323809Y3449943D01*
X36799999Y2545181D02*
X36799999Y3211848D01*
X36799999Y3021372D02*
X36847618Y3116610D01*
X36847618Y3116610D02*
X36895237Y3164229D01*
X36895237Y3164229D02*
X36990475Y3211848D01*
X36990475Y3211848D02*
X37085713Y3211848D01*
X38609523Y3211848D02*
X38609523Y2211848D01*
X38609523Y2592800D02*
X38514285Y2545181D01*
X38514285Y2545181D02*
X38323809Y2545181D01*
X38323809Y2545181D02*
X38228571Y2592800D01*
X38228571Y2592800D02*
X38180952Y2640420D01*
X38180952Y2640420D02*
X38133333Y2735658D01*
X38133333Y2735658D02*
X38133333Y3021372D01*
X38133333Y3021372D02*
X38180952Y3116610D01*
X38180952Y3116610D02*
X38228571Y3164229D01*
X38228571Y3164229D02*
X38323809Y3211848D01*
X38323809Y3211848D02*
X38514285Y3211848D01*
X38514285Y3211848D02*
X38609523Y3164229D01*
X39514285Y3211848D02*
X39514285Y2545181D01*
X39085714Y3211848D02*
X39085714Y2688039D01*
X39085714Y2688039D02*
X39133333Y2592800D01*
X39133333Y2592800D02*
X39228571Y2545181D01*
X39228571Y2545181D02*
X39371428Y2545181D01*
X39371428Y2545181D02*
X39466666Y2592800D01*
X39466666Y2592800D02*
X39514285Y2640420D01*
X40419047Y2545181D02*
X40419047Y3068991D01*
X40419047Y3068991D02*
X40371428Y3164229D01*
X40371428Y3164229D02*
X40276190Y3211848D01*
X40276190Y3211848D02*
X40085714Y3211848D01*
X40085714Y3211848D02*
X39990476Y3164229D01*
X40419047Y2592800D02*
X40323809Y2545181D01*
X40323809Y2545181D02*
X40085714Y2545181D01*
X40085714Y2545181D02*
X39990476Y2592800D01*
X39990476Y2592800D02*
X39942857Y2688039D01*
X39942857Y2688039D02*
X39942857Y2783277D01*
X39942857Y2783277D02*
X39990476Y2878515D01*
X39990476Y2878515D02*
X40085714Y2926134D01*
X40085714Y2926134D02*
X40323809Y2926134D01*
X40323809Y2926134D02*
X40419047Y2973753D01*
X41038095Y2545181D02*
X40942857Y2592800D01*
X40942857Y2592800D02*
X40895238Y2688039D01*
X40895238Y2688039D02*
X40895238Y3545181D01*
X41419048Y2545181D02*
X41419048Y3211848D01*
X41419048Y3545181D02*
X41371429Y3497562D01*
X41371429Y3497562D02*
X41419048Y3449943D01*
X41419048Y3449943D02*
X41466667Y3497562D01*
X41466667Y3497562D02*
X41419048Y3545181D01*
X41419048Y3545181D02*
X41419048Y3449943D01*
X41752381Y3211848D02*
X42133333Y3211848D01*
X41895238Y3545181D02*
X41895238Y2688039D01*
X41895238Y2688039D02*
X41942857Y2592800D01*
X41942857Y2592800D02*
X42038095Y2545181D01*
X42038095Y2545181D02*
X42133333Y2545181D01*
X42371429Y3211848D02*
X42609524Y2545181D01*
X42847619Y3211848D02*
X42609524Y2545181D01*
X42609524Y2545181D02*
X42514286Y2307086D01*
X42514286Y2307086D02*
X42466667Y2259467D01*
X42466667Y2259467D02*
X42371429Y2211848D01*
X-11666668Y-29454819D02*
X-11476192Y-29454819D01*
X-11476192Y-29454819D02*
X-11380954Y-29502438D01*
X-11380954Y-29502438D02*
X-11285716Y-29597676D01*
X-11285716Y-29597676D02*
X-11238097Y-29788152D01*
X-11238097Y-29788152D02*
X-11238097Y-30121485D01*
X-11238097Y-30121485D02*
X-11285716Y-30311961D01*
X-11285716Y-30311961D02*
X-11380954Y-30407200D01*
X-11380954Y-30407200D02*
X-11476192Y-30454819D01*
X-11476192Y-30454819D02*
X-11666668Y-30454819D01*
X-11666668Y-30454819D02*
X-11761906Y-30407200D01*
X-11761906Y-30407200D02*
X-11857144Y-30311961D01*
X-11857144Y-30311961D02*
X-11904763Y-30121485D01*
X-11904763Y-30121485D02*
X-11904763Y-29788152D01*
X-11904763Y-29788152D02*
X-11857144Y-29597676D01*
X-11857144Y-29597676D02*
X-11761906Y-29502438D01*
X-11761906Y-29502438D02*
X-11666668Y-29454819D01*
X-10809525Y-29788152D02*
X-10809525Y-30788152D01*
X-10809525Y-29835771D02*
X-10714287Y-29788152D01*
X-10714287Y-29788152D02*
X-10523811Y-29788152D01*
X-10523811Y-29788152D02*
X-10428573Y-29835771D01*
X-10428573Y-29835771D02*
X-10380954Y-29883390D01*
X-10380954Y-29883390D02*
X-10333335Y-29978628D01*
X-10333335Y-29978628D02*
X-10333335Y-30264342D01*
X-10333335Y-30264342D02*
X-10380954Y-30359580D01*
X-10380954Y-30359580D02*
X-10428573Y-30407200D01*
X-10428573Y-30407200D02*
X-10523811Y-30454819D01*
X-10523811Y-30454819D02*
X-10714287Y-30454819D01*
X-10714287Y-30454819D02*
X-10809525Y-30407200D01*
X-9523811Y-30407200D02*
X-9619049Y-30454819D01*
X-9619049Y-30454819D02*
X-9809525Y-30454819D01*
X-9809525Y-30454819D02*
X-9904763Y-30407200D01*
X-9904763Y-30407200D02*
X-9952382Y-30311961D01*
X-9952382Y-30311961D02*
X-9952382Y-29931009D01*
X-9952382Y-29931009D02*
X-9904763Y-29835771D01*
X-9904763Y-29835771D02*
X-9809525Y-29788152D01*
X-9809525Y-29788152D02*
X-9619049Y-29788152D01*
X-9619049Y-29788152D02*
X-9523811Y-29835771D01*
X-9523811Y-29835771D02*
X-9476192Y-29931009D01*
X-9476192Y-29931009D02*
X-9476192Y-30026247D01*
X-9476192Y-30026247D02*
X-9952382Y-30121485D01*
X-9047620Y-29788152D02*
X-9047620Y-30454819D01*
X-9047620Y-29883390D02*
X-9000001Y-29835771D01*
X-9000001Y-29835771D02*
X-8904763Y-29788152D01*
X-8904763Y-29788152D02*
X-8761906Y-29788152D01*
X-8761906Y-29788152D02*
X-8666668Y-29835771D01*
X-8666668Y-29835771D02*
X-8619049Y-29931009D01*
X-8619049Y-29931009D02*
X-8619049Y-30454819D01*
X-7428572Y-30169104D02*
X-6952382Y-30169104D01*
X-7523810Y-30454819D02*
X-7190477Y-29454819D01*
X-7190477Y-29454819D02*
X-6857144Y-30454819D01*
X-6523810Y-30454819D02*
X-6523810Y-29788152D01*
X-6523810Y-29883390D02*
X-6476191Y-29835771D01*
X-6476191Y-29835771D02*
X-6380953Y-29788152D01*
X-6380953Y-29788152D02*
X-6238096Y-29788152D01*
X-6238096Y-29788152D02*
X-6142858Y-29835771D01*
X-6142858Y-29835771D02*
X-6095239Y-29931009D01*
X-6095239Y-29931009D02*
X-6095239Y-30454819D01*
X-6095239Y-29931009D02*
X-6047620Y-29835771D01*
X-6047620Y-29835771D02*
X-5952382Y-29788152D01*
X-5952382Y-29788152D02*
X-5809525Y-29788152D01*
X-5809525Y-29788152D02*
X-5714286Y-29835771D01*
X-5714286Y-29835771D02*
X-5666667Y-29931009D01*
X-5666667Y-29931009D02*
X-5666667Y-30454819D01*
X-5190477Y-30454819D02*
X-5190477Y-29454819D01*
X-5190477Y-29835771D02*
X-5095239Y-29788152D01*
X-5095239Y-29788152D02*
X-4904763Y-29788152D01*
X-4904763Y-29788152D02*
X-4809525Y-29835771D01*
X-4809525Y-29835771D02*
X-4761906Y-29883390D01*
X-4761906Y-29883390D02*
X-4714287Y-29978628D01*
X-4714287Y-29978628D02*
X-4714287Y-30264342D01*
X-4714287Y-30264342D02*
X-4761906Y-30359580D01*
X-4761906Y-30359580D02*
X-4809525Y-30407200D01*
X-4809525Y-30407200D02*
X-4904763Y-30454819D01*
X-4904763Y-30454819D02*
X-5095239Y-30454819D01*
X-5095239Y-30454819D02*
X-5190477Y-30407200D01*
X-4285715Y-30454819D02*
X-4285715Y-29788152D01*
X-4285715Y-29454819D02*
X-4333334Y-29502438D01*
X-4333334Y-29502438D02*
X-4285715Y-29550057D01*
X-4285715Y-29550057D02*
X-4238096Y-29502438D01*
X-4238096Y-29502438D02*
X-4285715Y-29454819D01*
X-4285715Y-29454819D02*
X-4285715Y-29550057D01*
X-3428573Y-30407200D02*
X-3523811Y-30454819D01*
X-3523811Y-30454819D02*
X-3714287Y-30454819D01*
X-3714287Y-30454819D02*
X-3809525Y-30407200D01*
X-3809525Y-30407200D02*
X-3857144Y-30311961D01*
X-3857144Y-30311961D02*
X-3857144Y-29931009D01*
X-3857144Y-29931009D02*
X-3809525Y-29835771D01*
X-3809525Y-29835771D02*
X-3714287Y-29788152D01*
X-3714287Y-29788152D02*
X-3523811Y-29788152D01*
X-3523811Y-29788152D02*
X-3428573Y-29835771D01*
X-3428573Y-29835771D02*
X-3380954Y-29931009D01*
X-3380954Y-29931009D02*
X-3380954Y-30026247D01*
X-3380954Y-30026247D02*
X-3857144Y-30121485D01*
X-2952382Y-29788152D02*
X-2952382Y-30454819D01*
X-2952382Y-29883390D02*
X-2904763Y-29835771D01*
X-2904763Y-29835771D02*
X-2809525Y-29788152D01*
X-2809525Y-29788152D02*
X-2666668Y-29788152D01*
X-2666668Y-29788152D02*
X-2571430Y-29835771D01*
X-2571430Y-29835771D02*
X-2523811Y-29931009D01*
X-2523811Y-29931009D02*
X-2523811Y-30454819D01*
X-2190477Y-29788152D02*
X-1809525Y-29788152D01*
X-2047620Y-29454819D02*
X-2047620Y-30311961D01*
X-2047620Y-30311961D02*
X-2000001Y-30407200D01*
X-2000001Y-30407200D02*
X-1904763Y-30454819D01*
X-1904763Y-30454819D02*
X-1809525Y-30454819D01*
X-761905Y-30407200D02*
X-619048Y-30454819D01*
X-619048Y-30454819D02*
X-380953Y-30454819D01*
X-380953Y-30454819D02*
X-285715Y-30407200D01*
X-285715Y-30407200D02*
X-238096Y-30359580D01*
X-238096Y-30359580D02*
X-190477Y-30264342D01*
X-190477Y-30264342D02*
X-190477Y-30169104D01*
X-190477Y-30169104D02*
X-238096Y-30073866D01*
X-238096Y-30073866D02*
X-285715Y-30026247D01*
X-285715Y-30026247D02*
X-380953Y-29978628D01*
X-380953Y-29978628D02*
X-571429Y-29931009D01*
X-571429Y-29931009D02*
X-666667Y-29883390D01*
X-666667Y-29883390D02*
X-714286Y-29835771D01*
X-714286Y-29835771D02*
X-761905Y-29740533D01*
X-761905Y-29740533D02*
X-761905Y-29645295D01*
X-761905Y-29645295D02*
X-714286Y-29550057D01*
X-714286Y-29550057D02*
X-666667Y-29502438D01*
X-666667Y-29502438D02*
X-571429Y-29454819D01*
X-571429Y-29454819D02*
X-333334Y-29454819D01*
X-333334Y-29454819D02*
X-190477Y-29502438D01*
X619047Y-30407200D02*
X523809Y-30454819D01*
X523809Y-30454819D02*
X333333Y-30454819D01*
X333333Y-30454819D02*
X238095Y-30407200D01*
X238095Y-30407200D02*
X190476Y-30311961D01*
X190476Y-30311961D02*
X190476Y-29931009D01*
X190476Y-29931009D02*
X238095Y-29835771D01*
X238095Y-29835771D02*
X333333Y-29788152D01*
X333333Y-29788152D02*
X523809Y-29788152D01*
X523809Y-29788152D02*
X619047Y-29835771D01*
X619047Y-29835771D02*
X666666Y-29931009D01*
X666666Y-29931009D02*
X666666Y-30026247D01*
X666666Y-30026247D02*
X190476Y-30121485D01*
X1095238Y-29788152D02*
X1095238Y-30454819D01*
X1095238Y-29883390D02*
X1142857Y-29835771D01*
X1142857Y-29835771D02*
X1238095Y-29788152D01*
X1238095Y-29788152D02*
X1380952Y-29788152D01*
X1380952Y-29788152D02*
X1476190Y-29835771D01*
X1476190Y-29835771D02*
X1523809Y-29931009D01*
X1523809Y-29931009D02*
X1523809Y-30454819D01*
X1952381Y-30407200D02*
X2047619Y-30454819D01*
X2047619Y-30454819D02*
X2238095Y-30454819D01*
X2238095Y-30454819D02*
X2333333Y-30407200D01*
X2333333Y-30407200D02*
X2380952Y-30311961D01*
X2380952Y-30311961D02*
X2380952Y-30264342D01*
X2380952Y-30264342D02*
X2333333Y-30169104D01*
X2333333Y-30169104D02*
X2238095Y-30121485D01*
X2238095Y-30121485D02*
X2095238Y-30121485D01*
X2095238Y-30121485D02*
X2000000Y-30073866D01*
X2000000Y-30073866D02*
X1952381Y-29978628D01*
X1952381Y-29978628D02*
X1952381Y-29931009D01*
X1952381Y-29931009D02*
X2000000Y-29835771D01*
X2000000Y-29835771D02*
X2095238Y-29788152D01*
X2095238Y-29788152D02*
X2238095Y-29788152D01*
X2238095Y-29788152D02*
X2333333Y-29835771D01*
X2952381Y-30454819D02*
X2857143Y-30407200D01*
X2857143Y-30407200D02*
X2809524Y-30359580D01*
X2809524Y-30359580D02*
X2761905Y-30264342D01*
X2761905Y-30264342D02*
X2761905Y-29978628D01*
X2761905Y-29978628D02*
X2809524Y-29883390D01*
X2809524Y-29883390D02*
X2857143Y-29835771D01*
X2857143Y-29835771D02*
X2952381Y-29788152D01*
X2952381Y-29788152D02*
X3095238Y-29788152D01*
X3095238Y-29788152D02*
X3190476Y-29835771D01*
X3190476Y-29835771D02*
X3238095Y-29883390D01*
X3238095Y-29883390D02*
X3285714Y-29978628D01*
X3285714Y-29978628D02*
X3285714Y-30264342D01*
X3285714Y-30264342D02*
X3238095Y-30359580D01*
X3238095Y-30359580D02*
X3190476Y-30407200D01*
X3190476Y-30407200D02*
X3095238Y-30454819D01*
X3095238Y-30454819D02*
X2952381Y-30454819D01*
X3714286Y-30454819D02*
X3714286Y-29788152D01*
X3714286Y-29978628D02*
X3761905Y-29883390D01*
X3761905Y-29883390D02*
X3809524Y-29835771D01*
X3809524Y-29835771D02*
X3904762Y-29788152D01*
X3904762Y-29788152D02*
X4000000Y-29788152D01*
X-7809524Y-32454819D02*
X-7619048Y-32454819D01*
X-7619048Y-32454819D02*
X-7523810Y-32502438D01*
X-7523810Y-32502438D02*
X-7428572Y-32597676D01*
X-7428572Y-32597676D02*
X-7380953Y-32788152D01*
X-7380953Y-32788152D02*
X-7380953Y-33121485D01*
X-7380953Y-33121485D02*
X-7428572Y-33311961D01*
X-7428572Y-33311961D02*
X-7523810Y-33407200D01*
X-7523810Y-33407200D02*
X-7619048Y-33454819D01*
X-7619048Y-33454819D02*
X-7809524Y-33454819D01*
X-7809524Y-33454819D02*
X-7904762Y-33407200D01*
X-7904762Y-33407200D02*
X-8000000Y-33311961D01*
X-8000000Y-33311961D02*
X-8047619Y-33121485D01*
X-8047619Y-33121485D02*
X-8047619Y-32788152D01*
X-8047619Y-32788152D02*
X-8000000Y-32597676D01*
X-8000000Y-32597676D02*
X-7904762Y-32502438D01*
X-7904762Y-32502438D02*
X-7809524Y-32454819D01*
X-7000000Y-33169104D02*
X-6523810Y-33169104D01*
X-7095238Y-33454819D02*
X-6761905Y-32454819D01*
X-6761905Y-32454819D02*
X-6428572Y-33454819D01*
X-6142857Y-33407200D02*
X-6000000Y-33454819D01*
X-6000000Y-33454819D02*
X-5761905Y-33454819D01*
X-5761905Y-33454819D02*
X-5666667Y-33407200D01*
X-5666667Y-33407200D02*
X-5619048Y-33359580D01*
X-5619048Y-33359580D02*
X-5571429Y-33264342D01*
X-5571429Y-33264342D02*
X-5571429Y-33169104D01*
X-5571429Y-33169104D02*
X-5619048Y-33073866D01*
X-5619048Y-33073866D02*
X-5666667Y-33026247D01*
X-5666667Y-33026247D02*
X-5761905Y-32978628D01*
X-5761905Y-32978628D02*
X-5952381Y-32931009D01*
X-5952381Y-32931009D02*
X-6047619Y-32883390D01*
X-6047619Y-32883390D02*
X-6095238Y-32835771D01*
X-6095238Y-32835771D02*
X-6142857Y-32740533D01*
X-6142857Y-32740533D02*
X-6142857Y-32645295D01*
X-6142857Y-32645295D02*
X-6095238Y-32550057D01*
X-6095238Y-32550057D02*
X-6047619Y-32502438D01*
X-6047619Y-32502438D02*
X-5952381Y-32454819D01*
X-5952381Y-32454819D02*
X-5714286Y-32454819D01*
X-5714286Y-32454819D02*
X-5571429Y-32502438D01*
X-3714285Y-32788152D02*
X-3476190Y-33454819D01*
X-3476190Y-33454819D02*
X-3238095Y-32788152D01*
X-2666666Y-32454819D02*
X-2571428Y-32454819D01*
X-2571428Y-32454819D02*
X-2476190Y-32502438D01*
X-2476190Y-32502438D02*
X-2428571Y-32550057D01*
X-2428571Y-32550057D02*
X-2380952Y-32645295D01*
X-2380952Y-32645295D02*
X-2333333Y-32835771D01*
X-2333333Y-32835771D02*
X-2333333Y-33073866D01*
X-2333333Y-33073866D02*
X-2380952Y-33264342D01*
X-2380952Y-33264342D02*
X-2428571Y-33359580D01*
X-2428571Y-33359580D02*
X-2476190Y-33407200D01*
X-2476190Y-33407200D02*
X-2571428Y-33454819D01*
X-2571428Y-33454819D02*
X-2666666Y-33454819D01*
X-2666666Y-33454819D02*
X-2761904Y-33407200D01*
X-2761904Y-33407200D02*
X-2809523Y-33359580D01*
X-2809523Y-33359580D02*
X-2857142Y-33264342D01*
X-2857142Y-33264342D02*
X-2904761Y-33073866D01*
X-2904761Y-33073866D02*
X-2904761Y-32835771D01*
X-2904761Y-32835771D02*
X-2857142Y-32645295D01*
X-2857142Y-32645295D02*
X-2809523Y-32550057D01*
X-2809523Y-32550057D02*
X-2761904Y-32502438D01*
X-2761904Y-32502438D02*
X-2666666Y-32454819D01*
X-1904761Y-33359580D02*
X-1857142Y-33407200D01*
X-1857142Y-33407200D02*
X-1904761Y-33454819D01*
X-1904761Y-33454819D02*
X-1952380Y-33407200D01*
X-1952380Y-33407200D02*
X-1904761Y-33359580D01*
X-1904761Y-33359580D02*
X-1904761Y-33454819D01*
X-1000000Y-32788152D02*
X-1000000Y-33454819D01*
X-1238095Y-32407200D02*
X-1476190Y-33121485D01*
X-1476190Y-33121485D02*
X-857143Y-33121485D01*
X-285714Y-32454819D02*
X-190476Y-32454819D01*
X-190476Y-32454819D02*
X-95238Y-32502438D01*
X-95238Y-32502438D02*
X-47619Y-32550057D01*
X-47619Y-32550057D02*
X0Y-32645295D01*
X0Y-32645295D02*
X47619Y-32835771D01*
X47619Y-32835771D02*
X47619Y-33073866D01*
X47619Y-33073866D02*
X0Y-33264342D01*
X0Y-33264342D02*
X-47619Y-33359580D01*
X-47619Y-33359580D02*
X-95238Y-33407200D01*
X-95238Y-33407200D02*
X-190476Y-33454819D01*
X-190476Y-33454819D02*
X-285714Y-33454819D01*
X-285714Y-33454819D02*
X-380952Y-33407200D01*
X-380952Y-33407200D02*
X-428571Y-33359580D01*
X-428571Y-33359580D02*
X-476190Y-33264342D01*
X-476190Y-33264342D02*
X-523809Y-33073866D01*
X-523809Y-33073866D02*
X-523809Y-32835771D01*
X-523809Y-32835771D02*
X-476190Y-32645295D01*
X-476190Y-32645295D02*
X-428571Y-32550057D01*
X-428571Y-32550057D02*
X-380952Y-32502438D01*
X-380952Y-32502438D02*
X-285714Y-32454819D01*
X-46825181Y-6389047D02*
X-47825181Y-6389047D01*
X-47348991Y-6389047D02*
X-47348991Y-5817619D01*
X-46825181Y-5817619D02*
X-47825181Y-5817619D01*
X-46825181Y-4865238D02*
X-46825181Y-5341428D01*
X-46825181Y-5341428D02*
X-47825181Y-5341428D01*
X-46825181Y-4531904D02*
X-47825181Y-4531904D01*
X-46825181Y-3960476D02*
X-47396610Y-4389047D01*
X-47825181Y-3960476D02*
X-47253753Y-4531904D01*
X-47206134Y-3531904D02*
X-47206134Y-2770000D01*
X-46825181Y-1817619D02*
X-46825181Y-2293809D01*
X-46825181Y-2293809D02*
X-47825181Y-2293809D01*
X-46825181Y-1484285D02*
X-47825181Y-1484285D01*
X-47825181Y-1484285D02*
X-47825181Y-1246190D01*
X-47825181Y-1246190D02*
X-47777562Y-1103333D01*
X-47777562Y-1103333D02*
X-47682324Y-1008095D01*
X-47682324Y-1008095D02*
X-47587086Y-960476D01*
X-47587086Y-960476D02*
X-47396610Y-912857D01*
X-47396610Y-912857D02*
X-47253753Y-912857D01*
X-47253753Y-912857D02*
X-47063277Y-960476D01*
X-47063277Y-960476D02*
X-46968039Y-1008095D01*
X-46968039Y-1008095D02*
X-46872800Y-1103333D01*
X-46872800Y-1103333D02*
X-46825181Y-1246190D01*
X-46825181Y-1246190D02*
X-46825181Y-1484285D01*
X-47729943Y-531904D02*
X-47777562Y-484285D01*
X-47777562Y-484285D02*
X-47825181Y-389047D01*
X-47825181Y-389047D02*
X-47825181Y-150952D01*
X-47825181Y-150952D02*
X-47777562Y-55714D01*
X-47777562Y-55714D02*
X-47729943Y-8095D01*
X-47729943Y-8095D02*
X-47634705Y39524D01*
X-47634705Y39524D02*
X-47539467Y39524D01*
X-47539467Y39524D02*
X-47396610Y-8095D01*
X-47396610Y-8095D02*
X-46825181Y-579523D01*
X-46825181Y-579523D02*
X-46825181Y39524D01*
X-47491848Y896667D02*
X-46825181Y896667D01*
X-47872800Y658572D02*
X-47158515Y420477D01*
X-47158515Y420477D02*
X-47158515Y1039524D01*
X-46825181Y1944286D02*
X-46825181Y1372858D01*
X-46825181Y1658572D02*
X-47825181Y1658572D01*
X-47825181Y1658572D02*
X-47682324Y1563334D01*
X-47682324Y1563334D02*
X-47587086Y1468096D01*
X-47587086Y1468096D02*
X-47539467Y1372858D01*
X-47825181Y2563334D02*
X-47825181Y2658572D01*
X-47825181Y2658572D02*
X-47777562Y2753810D01*
X-47777562Y2753810D02*
X-47729943Y2801429D01*
X-47729943Y2801429D02*
X-47634705Y2849048D01*
X-47634705Y2849048D02*
X-47444229Y2896667D01*
X-47444229Y2896667D02*
X-47206134Y2896667D01*
X-47206134Y2896667D02*
X-47015658Y2849048D01*
X-47015658Y2849048D02*
X-46920420Y2801429D01*
X-46920420Y2801429D02*
X-46872800Y2753810D01*
X-46872800Y2753810D02*
X-46825181Y2658572D01*
X-46825181Y2658572D02*
X-46825181Y2563334D01*
X-46825181Y2563334D02*
X-46872800Y2468096D01*
X-46872800Y2468096D02*
X-46920420Y2420477D01*
X-46920420Y2420477D02*
X-47015658Y2372858D01*
X-47015658Y2372858D02*
X-47206134Y2325239D01*
X-47206134Y2325239D02*
X-47444229Y2325239D01*
X-47444229Y2325239D02*
X-47634705Y2372858D01*
X-47634705Y2372858D02*
X-47729943Y2420477D01*
X-47729943Y2420477D02*
X-47777562Y2468096D01*
X-47777562Y2468096D02*
X-47825181Y2563334D01*
X-47348991Y3658572D02*
X-47301372Y3801429D01*
X-47301372Y3801429D02*
X-47253753Y3849048D01*
X-47253753Y3849048D02*
X-47158515Y3896667D01*
X-47158515Y3896667D02*
X-47015658Y3896667D01*
X-47015658Y3896667D02*
X-46920420Y3849048D01*
X-46920420Y3849048D02*
X-46872800Y3801429D01*
X-46872800Y3801429D02*
X-46825181Y3706191D01*
X-46825181Y3706191D02*
X-46825181Y3325239D01*
X-46825181Y3325239D02*
X-47825181Y3325239D01*
X-47825181Y3325239D02*
X-47825181Y3658572D01*
X-47825181Y3658572D02*
X-47777562Y3753810D01*
X-47777562Y3753810D02*
X-47729943Y3801429D01*
X-47729943Y3801429D02*
X-47634705Y3849048D01*
X-47634705Y3849048D02*
X-47539467Y3849048D01*
X-47539467Y3849048D02*
X-47444229Y3801429D01*
X-47444229Y3801429D02*
X-47396610Y3753810D01*
X-47396610Y3753810D02*
X-47348991Y3658572D01*
X-47348991Y3658572D02*
X-47348991Y3325239D01*
X-46825181Y6683809D02*
X-47348991Y6683809D01*
X-47348991Y6683809D02*
X-47444229Y6636190D01*
X-47444229Y6636190D02*
X-47491848Y6540952D01*
X-47491848Y6540952D02*
X-47491848Y6350476D01*
X-47491848Y6350476D02*
X-47444229Y6255238D01*
X-46872800Y6683809D02*
X-46825181Y6588571D01*
X-46825181Y6588571D02*
X-46825181Y6350476D01*
X-46825181Y6350476D02*
X-46872800Y6255238D01*
X-46872800Y6255238D02*
X-46968039Y6207619D01*
X-46968039Y6207619D02*
X-47063277Y6207619D01*
X-47063277Y6207619D02*
X-47158515Y6255238D01*
X-47158515Y6255238D02*
X-47206134Y6350476D01*
X-47206134Y6350476D02*
X-47206134Y6588571D01*
X-47206134Y6588571D02*
X-47253753Y6683809D01*
X-47491848Y7160000D02*
X-46825181Y7160000D01*
X-47396610Y7160000D02*
X-47444229Y7207619D01*
X-47444229Y7207619D02*
X-47491848Y7302857D01*
X-47491848Y7302857D02*
X-47491848Y7445714D01*
X-47491848Y7445714D02*
X-47444229Y7540952D01*
X-47444229Y7540952D02*
X-47348991Y7588571D01*
X-47348991Y7588571D02*
X-46825181Y7588571D01*
X-47491848Y7921905D02*
X-47491848Y8302857D01*
X-47825181Y8064762D02*
X-46968039Y8064762D01*
X-46968039Y8064762D02*
X-46872800Y8112381D01*
X-46872800Y8112381D02*
X-46825181Y8207619D01*
X-46825181Y8207619D02*
X-46825181Y8302857D01*
X-46872800Y9017143D02*
X-46825181Y8921905D01*
X-46825181Y8921905D02*
X-46825181Y8731429D01*
X-46825181Y8731429D02*
X-46872800Y8636191D01*
X-46872800Y8636191D02*
X-46968039Y8588572D01*
X-46968039Y8588572D02*
X-47348991Y8588572D01*
X-47348991Y8588572D02*
X-47444229Y8636191D01*
X-47444229Y8636191D02*
X-47491848Y8731429D01*
X-47491848Y8731429D02*
X-47491848Y8921905D01*
X-47491848Y8921905D02*
X-47444229Y9017143D01*
X-47444229Y9017143D02*
X-47348991Y9064762D01*
X-47348991Y9064762D02*
X-47253753Y9064762D01*
X-47253753Y9064762D02*
X-47158515Y8588572D01*
X-47491848Y9493334D02*
X-46825181Y9493334D01*
X-47396610Y9493334D02*
X-47444229Y9540953D01*
X-47444229Y9540953D02*
X-47491848Y9636191D01*
X-47491848Y9636191D02*
X-47491848Y9779048D01*
X-47491848Y9779048D02*
X-47444229Y9874286D01*
X-47444229Y9874286D02*
X-47348991Y9921905D01*
X-47348991Y9921905D02*
X-46825181Y9921905D01*
X-47491848Y10398096D02*
X-46825181Y10398096D01*
X-47396610Y10398096D02*
X-47444229Y10445715D01*
X-47444229Y10445715D02*
X-47491848Y10540953D01*
X-47491848Y10540953D02*
X-47491848Y10683810D01*
X-47491848Y10683810D02*
X-47444229Y10779048D01*
X-47444229Y10779048D02*
X-47348991Y10826667D01*
X-47348991Y10826667D02*
X-46825181Y10826667D01*
X-46825181Y11731429D02*
X-47348991Y11731429D01*
X-47348991Y11731429D02*
X-47444229Y11683810D01*
X-47444229Y11683810D02*
X-47491848Y11588572D01*
X-47491848Y11588572D02*
X-47491848Y11398096D01*
X-47491848Y11398096D02*
X-47444229Y11302858D01*
X-46872800Y11731429D02*
X-46825181Y11636191D01*
X-46825181Y11636191D02*
X-46825181Y11398096D01*
X-46825181Y11398096D02*
X-46872800Y11302858D01*
X-46872800Y11302858D02*
X-46968039Y11255239D01*
X-46968039Y11255239D02*
X-47063277Y11255239D01*
X-47063277Y11255239D02*
X-47158515Y11302858D01*
X-47158515Y11302858D02*
X-47206134Y11398096D01*
X-47206134Y11398096D02*
X-47206134Y11636191D01*
X-47206134Y11636191D02*
X-47253753Y11731429D01*
X-47729943Y12826668D02*
X-47872800Y13017144D01*
X-47872800Y13017144D02*
X-47729943Y13207620D01*
X31466667Y-2807200D02*
X31609524Y-2854819D01*
X31609524Y-2854819D02*
X31847619Y-2854819D01*
X31847619Y-2854819D02*
X31942857Y-2807200D01*
X31942857Y-2807200D02*
X31990476Y-2759580D01*
X31990476Y-2759580D02*
X32038095Y-2664342D01*
X32038095Y-2664342D02*
X32038095Y-2569104D01*
X32038095Y-2569104D02*
X31990476Y-2473866D01*
X31990476Y-2473866D02*
X31942857Y-2426247D01*
X31942857Y-2426247D02*
X31847619Y-2378628D01*
X31847619Y-2378628D02*
X31657143Y-2331009D01*
X31657143Y-2331009D02*
X31561905Y-2283390D01*
X31561905Y-2283390D02*
X31514286Y-2235771D01*
X31514286Y-2235771D02*
X31466667Y-2140533D01*
X31466667Y-2140533D02*
X31466667Y-2045295D01*
X31466667Y-2045295D02*
X31514286Y-1950057D01*
X31514286Y-1950057D02*
X31561905Y-1902438D01*
X31561905Y-1902438D02*
X31657143Y-1854819D01*
X31657143Y-1854819D02*
X31895238Y-1854819D01*
X31895238Y-1854819D02*
X32038095Y-1902438D01*
X32466667Y-2331009D02*
X32800000Y-2331009D01*
X32942857Y-2854819D02*
X32466667Y-2854819D01*
X32466667Y-2854819D02*
X32466667Y-1854819D01*
X32466667Y-1854819D02*
X32942857Y-1854819D01*
X33371429Y-2854819D02*
X33371429Y-1854819D01*
X33371429Y-1854819D02*
X33942857Y-2854819D01*
X33942857Y-2854819D02*
X33942857Y-1854819D01*
X34847619Y-1854819D02*
X34657143Y-1854819D01*
X34657143Y-1854819D02*
X34561905Y-1902438D01*
X34561905Y-1902438D02*
X34514286Y-1950057D01*
X34514286Y-1950057D02*
X34419048Y-2092914D01*
X34419048Y-2092914D02*
X34371429Y-2283390D01*
X34371429Y-2283390D02*
X34371429Y-2664342D01*
X34371429Y-2664342D02*
X34419048Y-2759580D01*
X34419048Y-2759580D02*
X34466667Y-2807200D01*
X34466667Y-2807200D02*
X34561905Y-2854819D01*
X34561905Y-2854819D02*
X34752381Y-2854819D01*
X34752381Y-2854819D02*
X34847619Y-2807200D01*
X34847619Y-2807200D02*
X34895238Y-2759580D01*
X34895238Y-2759580D02*
X34942857Y-2664342D01*
X34942857Y-2664342D02*
X34942857Y-2426247D01*
X34942857Y-2426247D02*
X34895238Y-2331009D01*
X34895238Y-2331009D02*
X34847619Y-2283390D01*
X34847619Y-2283390D02*
X34752381Y-2235771D01*
X34752381Y-2235771D02*
X34561905Y-2235771D01*
X34561905Y-2235771D02*
X34466667Y-2283390D01*
X34466667Y-2283390D02*
X34419048Y-2331009D01*
X34419048Y-2331009D02*
X34371429Y-2426247D01*
X35800000Y-1854819D02*
X35609524Y-1854819D01*
X35609524Y-1854819D02*
X35514286Y-1902438D01*
X35514286Y-1902438D02*
X35466667Y-1950057D01*
X35466667Y-1950057D02*
X35371429Y-2092914D01*
X35371429Y-2092914D02*
X35323810Y-2283390D01*
X35323810Y-2283390D02*
X35323810Y-2664342D01*
X35323810Y-2664342D02*
X35371429Y-2759580D01*
X35371429Y-2759580D02*
X35419048Y-2807200D01*
X35419048Y-2807200D02*
X35514286Y-2854819D01*
X35514286Y-2854819D02*
X35704762Y-2854819D01*
X35704762Y-2854819D02*
X35800000Y-2807200D01*
X35800000Y-2807200D02*
X35847619Y-2759580D01*
X35847619Y-2759580D02*
X35895238Y-2664342D01*
X35895238Y-2664342D02*
X35895238Y-2426247D01*
X35895238Y-2426247D02*
X35847619Y-2331009D01*
X35847619Y-2331009D02*
X35800000Y-2283390D01*
X35800000Y-2283390D02*
X35704762Y-2235771D01*
X35704762Y-2235771D02*
X35514286Y-2235771D01*
X35514286Y-2235771D02*
X35419048Y-2283390D01*
X35419048Y-2283390D02*
X35371429Y-2331009D01*
X35371429Y-2331009D02*
X35323810Y-2426247D01*
X37038096Y-2807200D02*
X37180953Y-2854819D01*
X37180953Y-2854819D02*
X37419048Y-2854819D01*
X37419048Y-2854819D02*
X37514286Y-2807200D01*
X37514286Y-2807200D02*
X37561905Y-2759580D01*
X37561905Y-2759580D02*
X37609524Y-2664342D01*
X37609524Y-2664342D02*
X37609524Y-2569104D01*
X37609524Y-2569104D02*
X37561905Y-2473866D01*
X37561905Y-2473866D02*
X37514286Y-2426247D01*
X37514286Y-2426247D02*
X37419048Y-2378628D01*
X37419048Y-2378628D02*
X37228572Y-2331009D01*
X37228572Y-2331009D02*
X37133334Y-2283390D01*
X37133334Y-2283390D02*
X37085715Y-2235771D01*
X37085715Y-2235771D02*
X37038096Y-2140533D01*
X37038096Y-2140533D02*
X37038096Y-2045295D01*
X37038096Y-2045295D02*
X37085715Y-1950057D01*
X37085715Y-1950057D02*
X37133334Y-1902438D01*
X37133334Y-1902438D02*
X37228572Y-1854819D01*
X37228572Y-1854819D02*
X37466667Y-1854819D01*
X37466667Y-1854819D02*
X37609524Y-1902438D01*
X38038096Y-2854819D02*
X38038096Y-1854819D01*
X38514286Y-2854819D02*
X38514286Y-1854819D01*
X38514286Y-1854819D02*
X39085714Y-2854819D01*
X39085714Y-2854819D02*
X39085714Y-1854819D01*
X39561905Y-2473866D02*
X40323810Y-2473866D01*
X40657143Y-1854819D02*
X41228571Y-1854819D01*
X40942857Y-2854819D02*
X40942857Y-1854819D01*
X-25783810Y36945181D02*
X-25783810Y37468991D01*
X-25783810Y37468991D02*
X-25831429Y37564229D01*
X-25831429Y37564229D02*
X-25926667Y37611848D01*
X-25926667Y37611848D02*
X-26117143Y37611848D01*
X-26117143Y37611848D02*
X-26212381Y37564229D01*
X-25783810Y36992800D02*
X-25879048Y36945181D01*
X-25879048Y36945181D02*
X-26117143Y36945181D01*
X-26117143Y36945181D02*
X-26212381Y36992800D01*
X-26212381Y36992800D02*
X-26260000Y37088039D01*
X-26260000Y37088039D02*
X-26260000Y37183277D01*
X-26260000Y37183277D02*
X-26212381Y37278515D01*
X-26212381Y37278515D02*
X-26117143Y37326134D01*
X-26117143Y37326134D02*
X-25879048Y37326134D01*
X-25879048Y37326134D02*
X-25783810Y37373753D01*
X-25307619Y37611848D02*
X-25307619Y36945181D01*
X-25307619Y37516610D02*
X-25260000Y37564229D01*
X-25260000Y37564229D02*
X-25164762Y37611848D01*
X-25164762Y37611848D02*
X-25021905Y37611848D01*
X-25021905Y37611848D02*
X-24926667Y37564229D01*
X-24926667Y37564229D02*
X-24879048Y37468991D01*
X-24879048Y37468991D02*
X-24879048Y36945181D01*
X-24545714Y37611848D02*
X-24164762Y37611848D01*
X-24402857Y37945181D02*
X-24402857Y37088039D01*
X-24402857Y37088039D02*
X-24355238Y36992800D01*
X-24355238Y36992800D02*
X-24260000Y36945181D01*
X-24260000Y36945181D02*
X-24164762Y36945181D01*
X-30531428Y-12519819D02*
X-30531428Y-11519819D01*
X-30531428Y-11519819D02*
X-30198095Y-12234104D01*
X-30198095Y-12234104D02*
X-29864762Y-11519819D01*
X-29864762Y-11519819D02*
X-29864762Y-12519819D01*
X-29388571Y-12519819D02*
X-29388571Y-11519819D01*
X-28912381Y-12519819D02*
X-28912381Y-11519819D01*
X-28340953Y-12519819D02*
X-28769524Y-11948390D01*
X-28340953Y-11519819D02*
X-28912381Y-12091247D01*
X-27340953Y-12519819D02*
X-27674286Y-12043628D01*
X-27912381Y-12519819D02*
X-27912381Y-11519819D01*
X-27912381Y-11519819D02*
X-27531429Y-11519819D01*
X-27531429Y-11519819D02*
X-27436191Y-11567438D01*
X-27436191Y-11567438D02*
X-27388572Y-11615057D01*
X-27388572Y-11615057D02*
X-27340953Y-11710295D01*
X-27340953Y-11710295D02*
X-27340953Y-11853152D01*
X-27340953Y-11853152D02*
X-27388572Y-11948390D01*
X-27388572Y-11948390D02*
X-27436191Y-11996009D01*
X-27436191Y-11996009D02*
X-27531429Y-12043628D01*
X-27531429Y-12043628D02*
X-27912381Y-12043628D01*
X-26721905Y-11519819D02*
X-26531429Y-11519819D01*
X-26531429Y-11519819D02*
X-26436191Y-11567438D01*
X-26436191Y-11567438D02*
X-26340953Y-11662676D01*
X-26340953Y-11662676D02*
X-26293334Y-11853152D01*
X-26293334Y-11853152D02*
X-26293334Y-12186485D01*
X-26293334Y-12186485D02*
X-26340953Y-12376961D01*
X-26340953Y-12376961D02*
X-26436191Y-12472200D01*
X-26436191Y-12472200D02*
X-26531429Y-12519819D01*
X-26531429Y-12519819D02*
X-26721905Y-12519819D01*
X-26721905Y-12519819D02*
X-26817143Y-12472200D01*
X-26817143Y-12472200D02*
X-26912381Y-12376961D01*
X-26912381Y-12376961D02*
X-26960000Y-12186485D01*
X-26960000Y-12186485D02*
X-26960000Y-11853152D01*
X-26960000Y-11853152D02*
X-26912381Y-11662676D01*
X-26912381Y-11662676D02*
X-26817143Y-11567438D01*
X-26817143Y-11567438D02*
X-26721905Y-11519819D01*
X-25864762Y-11996009D02*
X-25531429Y-11996009D01*
X-25388572Y-12519819D02*
X-25864762Y-12519819D01*
X-25864762Y-12519819D02*
X-25864762Y-11519819D01*
X-25864762Y-11519819D02*
X-25388572Y-11519819D01*
X-24960000Y-12138866D02*
X-24198095Y-12138866D01*
X-23769524Y-11615057D02*
X-23721905Y-11567438D01*
X-23721905Y-11567438D02*
X-23626667Y-11519819D01*
X-23626667Y-11519819D02*
X-23388572Y-11519819D01*
X-23388572Y-11519819D02*
X-23293334Y-11567438D01*
X-23293334Y-11567438D02*
X-23245715Y-11615057D01*
X-23245715Y-11615057D02*
X-23198096Y-11710295D01*
X-23198096Y-11710295D02*
X-23198096Y-11805533D01*
X-23198096Y-11805533D02*
X-23245715Y-11948390D01*
X-23245715Y-11948390D02*
X-23817143Y-12519819D01*
X-23817143Y-12519819D02*
X-23198096Y-12519819D01*
X-22340953Y-11853152D02*
X-22340953Y-12519819D01*
X-22579048Y-11472200D02*
X-22817143Y-12186485D01*
X-22817143Y-12186485D02*
X-22198096Y-12186485D01*
X-21388572Y-11519819D02*
X-21579048Y-11519819D01*
X-21579048Y-11519819D02*
X-21674286Y-11567438D01*
X-21674286Y-11567438D02*
X-21721905Y-11615057D01*
X-21721905Y-11615057D02*
X-21817143Y-11757914D01*
X-21817143Y-11757914D02*
X-21864762Y-11948390D01*
X-21864762Y-11948390D02*
X-21864762Y-12329342D01*
X-21864762Y-12329342D02*
X-21817143Y-12424580D01*
X-21817143Y-12424580D02*
X-21769524Y-12472200D01*
X-21769524Y-12472200D02*
X-21674286Y-12519819D01*
X-21674286Y-12519819D02*
X-21483810Y-12519819D01*
X-21483810Y-12519819D02*
X-21388572Y-12472200D01*
X-21388572Y-12472200D02*
X-21340953Y-12424580D01*
X-21340953Y-12424580D02*
X-21293334Y-12329342D01*
X-21293334Y-12329342D02*
X-21293334Y-12091247D01*
X-21293334Y-12091247D02*
X-21340953Y-11996009D01*
X-21340953Y-11996009D02*
X-21388572Y-11948390D01*
X-21388572Y-11948390D02*
X-21483810Y-11900771D01*
X-21483810Y-11900771D02*
X-21674286Y-11900771D01*
X-21674286Y-11900771D02*
X-21769524Y-11948390D01*
X-21769524Y-11948390D02*
X-21817143Y-11996009D01*
X-21817143Y-11996009D02*
X-21864762Y-12091247D01*
X-20912381Y-11615057D02*
X-20864762Y-11567438D01*
X-20864762Y-11567438D02*
X-20769524Y-11519819D01*
X-20769524Y-11519819D02*
X-20531429Y-11519819D01*
X-20531429Y-11519819D02*
X-20436191Y-11567438D01*
X-20436191Y-11567438D02*
X-20388572Y-11615057D01*
X-20388572Y-11615057D02*
X-20340953Y-11710295D01*
X-20340953Y-11710295D02*
X-20340953Y-11805533D01*
X-20340953Y-11805533D02*
X-20388572Y-11948390D01*
X-20388572Y-11948390D02*
X-20960000Y-12519819D01*
X-20960000Y-12519819D02*
X-20340953Y-12519819D01*
X8126822Y10791051D02*
X8603012Y10791051D01*
X8031584Y10505336D02*
X8364917Y11505336D01*
X8364917Y11505336D02*
X8698250Y10505336D01*
X9698250Y10410098D02*
X9603012Y10457717D01*
X9603012Y10457717D02*
X9507774Y10552955D01*
X9507774Y10552955D02*
X9364917Y10695813D01*
X9364917Y10695813D02*
X9269679Y10743432D01*
X9269679Y10743432D02*
X9174441Y10743432D01*
X9222060Y10505336D02*
X9126822Y10552955D01*
X9126822Y10552955D02*
X9031584Y10648194D01*
X9031584Y10648194D02*
X8983965Y10838670D01*
X8983965Y10838670D02*
X8983965Y11172003D01*
X8983965Y11172003D02*
X9031584Y11362479D01*
X9031584Y11362479D02*
X9126822Y11457717D01*
X9126822Y11457717D02*
X9222060Y11505336D01*
X9222060Y11505336D02*
X9412536Y11505336D01*
X9412536Y11505336D02*
X9507774Y11457717D01*
X9507774Y11457717D02*
X9603012Y11362479D01*
X9603012Y11362479D02*
X9650631Y11172003D01*
X9650631Y11172003D02*
X9650631Y10838670D01*
X9650631Y10838670D02*
X9603012Y10648194D01*
X9603012Y10648194D02*
X9507774Y10552955D01*
X9507774Y10552955D02*
X9412536Y10505336D01*
X9412536Y10505336D02*
X9222060Y10505336D01*
X10079203Y10505336D02*
X10079203Y11505336D01*
X11317298Y10505336D02*
X11317298Y11172003D01*
X11317298Y10981527D02*
X11364917Y11076765D01*
X11364917Y11076765D02*
X11412536Y11124384D01*
X11412536Y11124384D02*
X11507774Y11172003D01*
X11507774Y11172003D02*
X11603012Y11172003D01*
X11936346Y10505336D02*
X11936346Y11172003D01*
X11936346Y11505336D02*
X11888727Y11457717D01*
X11888727Y11457717D02*
X11936346Y11410098D01*
X11936346Y11410098D02*
X11983965Y11457717D01*
X11983965Y11457717D02*
X11936346Y11505336D01*
X11936346Y11505336D02*
X11936346Y11410098D01*
X12412536Y11172003D02*
X12412536Y10505336D01*
X12412536Y11076765D02*
X12460155Y11124384D01*
X12460155Y11124384D02*
X12555393Y11172003D01*
X12555393Y11172003D02*
X12698250Y11172003D01*
X12698250Y11172003D02*
X12793488Y11124384D01*
X12793488Y11124384D02*
X12841107Y11029146D01*
X12841107Y11029146D02*
X12841107Y10505336D01*
X13745869Y11172003D02*
X13745869Y10362479D01*
X13745869Y10362479D02*
X13698250Y10267241D01*
X13698250Y10267241D02*
X13650631Y10219622D01*
X13650631Y10219622D02*
X13555393Y10172003D01*
X13555393Y10172003D02*
X13412536Y10172003D01*
X13412536Y10172003D02*
X13317298Y10219622D01*
X13745869Y10552955D02*
X13650631Y10505336D01*
X13650631Y10505336D02*
X13460155Y10505336D01*
X13460155Y10505336D02*
X13364917Y10552955D01*
X13364917Y10552955D02*
X13317298Y10600575D01*
X13317298Y10600575D02*
X13269679Y10695813D01*
X13269679Y10695813D02*
X13269679Y10981527D01*
X13269679Y10981527D02*
X13317298Y11076765D01*
X13317298Y11076765D02*
X13364917Y11124384D01*
X13364917Y11124384D02*
X13460155Y11172003D01*
X13460155Y11172003D02*
X13650631Y11172003D01*
X13650631Y11172003D02*
X13745869Y11124384D01*
X12238094Y-21854819D02*
X12238094Y-22569104D01*
X12238094Y-22569104D02*
X12190475Y-22711961D01*
X12190475Y-22711961D02*
X12095237Y-22807200D01*
X12095237Y-22807200D02*
X11952380Y-22854819D01*
X11952380Y-22854819D02*
X11857142Y-22854819D01*
X13238094Y-22854819D02*
X12666666Y-22854819D01*
X12952380Y-22854819D02*
X12952380Y-21854819D01*
X12952380Y-21854819D02*
X12857142Y-21997676D01*
X12857142Y-21997676D02*
X12761904Y-22092914D01*
X12761904Y-22092914D02*
X12666666Y-22140533D01*
X14714285Y-23235771D02*
X14666666Y-23188152D01*
X14666666Y-23188152D02*
X14571428Y-23045295D01*
X14571428Y-23045295D02*
X14523809Y-22950057D01*
X14523809Y-22950057D02*
X14476190Y-22807200D01*
X14476190Y-22807200D02*
X14428571Y-22569104D01*
X14428571Y-22569104D02*
X14428571Y-22378628D01*
X14428571Y-22378628D02*
X14476190Y-22140533D01*
X14476190Y-22140533D02*
X14523809Y-21997676D01*
X14523809Y-21997676D02*
X14571428Y-21902438D01*
X14571428Y-21902438D02*
X14666666Y-21759580D01*
X14666666Y-21759580D02*
X14714285Y-21711961D01*
X15047619Y-21950057D02*
X15095238Y-21902438D01*
X15095238Y-21902438D02*
X15190476Y-21854819D01*
X15190476Y-21854819D02*
X15428571Y-21854819D01*
X15428571Y-21854819D02*
X15523809Y-21902438D01*
X15523809Y-21902438D02*
X15571428Y-21950057D01*
X15571428Y-21950057D02*
X15619047Y-22045295D01*
X15619047Y-22045295D02*
X15619047Y-22140533D01*
X15619047Y-22140533D02*
X15571428Y-22283390D01*
X15571428Y-22283390D02*
X15000000Y-22854819D01*
X15000000Y-22854819D02*
X15619047Y-22854819D01*
X16476190Y-22188152D02*
X16476190Y-22854819D01*
X16238095Y-21807200D02*
X16000000Y-22521485D01*
X16000000Y-22521485D02*
X16619047Y-22521485D01*
X16857143Y-21854819D02*
X17190476Y-22854819D01*
X17190476Y-22854819D02*
X17523809Y-21854819D01*
X17761905Y-23235771D02*
X17809524Y-23188152D01*
X17809524Y-23188152D02*
X17904762Y-23045295D01*
X17904762Y-23045295D02*
X17952381Y-22950057D01*
X17952381Y-22950057D02*
X18000000Y-22807200D01*
X18000000Y-22807200D02*
X18047619Y-22569104D01*
X18047619Y-22569104D02*
X18047619Y-22378628D01*
X18047619Y-22378628D02*
X18000000Y-22140533D01*
X18000000Y-22140533D02*
X17952381Y-21997676D01*
X17952381Y-21997676D02*
X17904762Y-21902438D01*
X17904762Y-21902438D02*
X17809524Y-21759580D01*
X17809524Y-21759580D02*
X17761905Y-21711961D01*
X6352380Y-25154819D02*
X6352380Y-25869104D01*
X6352380Y-25869104D02*
X6304761Y-26011961D01*
X6304761Y-26011961D02*
X6209523Y-26107200D01*
X6209523Y-26107200D02*
X6066666Y-26154819D01*
X6066666Y-26154819D02*
X5971428Y-26154819D01*
X7352380Y-26154819D02*
X6780952Y-26154819D01*
X7066666Y-26154819D02*
X7066666Y-25154819D01*
X7066666Y-25154819D02*
X6971428Y-25297676D01*
X6971428Y-25297676D02*
X6876190Y-25392914D01*
X6876190Y-25392914D02*
X6780952Y-25440533D01*
X7971428Y-25154819D02*
X8066666Y-25154819D01*
X8066666Y-25154819D02*
X8161904Y-25202438D01*
X8161904Y-25202438D02*
X8209523Y-25250057D01*
X8209523Y-25250057D02*
X8257142Y-25345295D01*
X8257142Y-25345295D02*
X8304761Y-25535771D01*
X8304761Y-25535771D02*
X8304761Y-25773866D01*
X8304761Y-25773866D02*
X8257142Y-25964342D01*
X8257142Y-25964342D02*
X8209523Y-26059580D01*
X8209523Y-26059580D02*
X8161904Y-26107200D01*
X8161904Y-26107200D02*
X8066666Y-26154819D01*
X8066666Y-26154819D02*
X7971428Y-26154819D01*
X7971428Y-26154819D02*
X7876190Y-26107200D01*
X7876190Y-26107200D02*
X7828571Y-26059580D01*
X7828571Y-26059580D02*
X7780952Y-25964342D01*
X7780952Y-25964342D02*
X7733333Y-25773866D01*
X7733333Y-25773866D02*
X7733333Y-25535771D01*
X7733333Y-25535771D02*
X7780952Y-25345295D01*
X7780952Y-25345295D02*
X7828571Y-25250057D01*
X7828571Y-25250057D02*
X7876190Y-25202438D01*
X7876190Y-25202438D02*
X7971428Y-25154819D01*
X9352381Y-25488152D02*
X9733333Y-25488152D01*
X9495238Y-26154819D02*
X9495238Y-25297676D01*
X9495238Y-25297676D02*
X9542857Y-25202438D01*
X9542857Y-25202438D02*
X9638095Y-25154819D01*
X9638095Y-25154819D02*
X9733333Y-25154819D01*
X10209524Y-26154819D02*
X10114286Y-26107200D01*
X10114286Y-26107200D02*
X10066667Y-26011961D01*
X10066667Y-26011961D02*
X10066667Y-25154819D01*
X11019048Y-26154819D02*
X11019048Y-25631009D01*
X11019048Y-25631009D02*
X10971429Y-25535771D01*
X10971429Y-25535771D02*
X10876191Y-25488152D01*
X10876191Y-25488152D02*
X10685715Y-25488152D01*
X10685715Y-25488152D02*
X10590477Y-25535771D01*
X11019048Y-26107200D02*
X10923810Y-26154819D01*
X10923810Y-26154819D02*
X10685715Y-26154819D01*
X10685715Y-26154819D02*
X10590477Y-26107200D01*
X10590477Y-26107200D02*
X10542858Y-26011961D01*
X10542858Y-26011961D02*
X10542858Y-25916723D01*
X10542858Y-25916723D02*
X10590477Y-25821485D01*
X10590477Y-25821485D02*
X10685715Y-25773866D01*
X10685715Y-25773866D02*
X10923810Y-25773866D01*
X10923810Y-25773866D02*
X11019048Y-25726247D01*
X11447620Y-26107200D02*
X11542858Y-26154819D01*
X11542858Y-26154819D02*
X11733334Y-26154819D01*
X11733334Y-26154819D02*
X11828572Y-26107200D01*
X11828572Y-26107200D02*
X11876191Y-26011961D01*
X11876191Y-26011961D02*
X11876191Y-25964342D01*
X11876191Y-25964342D02*
X11828572Y-25869104D01*
X11828572Y-25869104D02*
X11733334Y-25821485D01*
X11733334Y-25821485D02*
X11590477Y-25821485D01*
X11590477Y-25821485D02*
X11495239Y-25773866D01*
X11495239Y-25773866D02*
X11447620Y-25678628D01*
X11447620Y-25678628D02*
X11447620Y-25631009D01*
X11447620Y-25631009D02*
X11495239Y-25535771D01*
X11495239Y-25535771D02*
X11590477Y-25488152D01*
X11590477Y-25488152D02*
X11733334Y-25488152D01*
X11733334Y-25488152D02*
X11828572Y-25535771D01*
X12304763Y-26154819D02*
X12304763Y-25154819D01*
X12733334Y-26154819D02*
X12733334Y-25631009D01*
X12733334Y-25631009D02*
X12685715Y-25535771D01*
X12685715Y-25535771D02*
X12590477Y-25488152D01*
X12590477Y-25488152D02*
X12447620Y-25488152D01*
X12447620Y-25488152D02*
X12352382Y-25535771D01*
X12352382Y-25535771D02*
X12304763Y-25583390D01*
D11*
X19200000Y-35298000D02*
X22600000Y-35298000D01*
X22600000Y-43197798D01*
X19200000Y-43197798D01*
X19200000Y-35298000D01*
D10*
X21259580Y-40652661D02*
X21307200Y-40700280D01*
X21307200Y-40700280D02*
X21354819Y-40843137D01*
X21354819Y-40843137D02*
X21354819Y-40938375D01*
X21354819Y-40938375D02*
X21307200Y-41081232D01*
X21307200Y-41081232D02*
X21211961Y-41176470D01*
X21211961Y-41176470D02*
X21116723Y-41224089D01*
X21116723Y-41224089D02*
X20926247Y-41271708D01*
X20926247Y-41271708D02*
X20783390Y-41271708D01*
X20783390Y-41271708D02*
X20592914Y-41224089D01*
X20592914Y-41224089D02*
X20497676Y-41176470D01*
X20497676Y-41176470D02*
X20402438Y-41081232D01*
X20402438Y-41081232D02*
X20354819Y-40938375D01*
X20354819Y-40938375D02*
X20354819Y-40843137D01*
X20354819Y-40843137D02*
X20402438Y-40700280D01*
X20402438Y-40700280D02*
X20450057Y-40652661D01*
X20688152Y-39795518D02*
X21354819Y-39795518D01*
X20307200Y-40033613D02*
X21021485Y-40271708D01*
X21021485Y-40271708D02*
X21021485Y-39652661D01*
X20688152Y-38605041D02*
X21354819Y-38366946D01*
X21354819Y-38366946D02*
X20688152Y-38128851D01*
X20450057Y-37795517D02*
X20402438Y-37747898D01*
X20402438Y-37747898D02*
X20354819Y-37652660D01*
X20354819Y-37652660D02*
X20354819Y-37414565D01*
X20354819Y-37414565D02*
X20402438Y-37319327D01*
X20402438Y-37319327D02*
X20450057Y-37271708D01*
X20450057Y-37271708D02*
X20545295Y-37224089D01*
X20545295Y-37224089D02*
X20640533Y-37224089D01*
X20640533Y-37224089D02*
X20783390Y-37271708D01*
X20783390Y-37271708D02*
X21354819Y-37843136D01*
X21354819Y-37843136D02*
X21354819Y-37224089D01*
X28983333Y-33954819D02*
X28983333Y-34669104D01*
X28983333Y-34669104D02*
X28935714Y-34811961D01*
X28935714Y-34811961D02*
X28840476Y-34907200D01*
X28840476Y-34907200D02*
X28697619Y-34954819D01*
X28697619Y-34954819D02*
X28602381Y-34954819D01*
X29507143Y-34954819D02*
X29697619Y-34954819D01*
X29697619Y-34954819D02*
X29792857Y-34907200D01*
X29792857Y-34907200D02*
X29840476Y-34859580D01*
X29840476Y-34859580D02*
X29935714Y-34716723D01*
X29935714Y-34716723D02*
X29983333Y-34526247D01*
X29983333Y-34526247D02*
X29983333Y-34145295D01*
X29983333Y-34145295D02*
X29935714Y-34050057D01*
X29935714Y-34050057D02*
X29888095Y-34002438D01*
X29888095Y-34002438D02*
X29792857Y-33954819D01*
X29792857Y-33954819D02*
X29602381Y-33954819D01*
X29602381Y-33954819D02*
X29507143Y-34002438D01*
X29507143Y-34002438D02*
X29459524Y-34050057D01*
X29459524Y-34050057D02*
X29411905Y-34145295D01*
X29411905Y-34145295D02*
X29411905Y-34383390D01*
X29411905Y-34383390D02*
X29459524Y-34478628D01*
X29459524Y-34478628D02*
X29507143Y-34526247D01*
X29507143Y-34526247D02*
X29602381Y-34573866D01*
X29602381Y-34573866D02*
X29792857Y-34573866D01*
X29792857Y-34573866D02*
X29888095Y-34526247D01*
X29888095Y-34526247D02*
X29935714Y-34478628D01*
X29935714Y-34478628D02*
X29983333Y-34383390D01*
X31840476Y-35050057D02*
X31745238Y-35002438D01*
X31745238Y-35002438D02*
X31650000Y-34907200D01*
X31650000Y-34907200D02*
X31507143Y-34764342D01*
X31507143Y-34764342D02*
X31411905Y-34716723D01*
X31411905Y-34716723D02*
X31316667Y-34716723D01*
X31364286Y-34954819D02*
X31269048Y-34907200D01*
X31269048Y-34907200D02*
X31173810Y-34811961D01*
X31173810Y-34811961D02*
X31126191Y-34621485D01*
X31126191Y-34621485D02*
X31126191Y-34288152D01*
X31126191Y-34288152D02*
X31173810Y-34097676D01*
X31173810Y-34097676D02*
X31269048Y-34002438D01*
X31269048Y-34002438D02*
X31364286Y-33954819D01*
X31364286Y-33954819D02*
X31554762Y-33954819D01*
X31554762Y-33954819D02*
X31650000Y-34002438D01*
X31650000Y-34002438D02*
X31745238Y-34097676D01*
X31745238Y-34097676D02*
X31792857Y-34288152D01*
X31792857Y-34288152D02*
X31792857Y-34621485D01*
X31792857Y-34621485D02*
X31745238Y-34811961D01*
X31745238Y-34811961D02*
X31650000Y-34907200D01*
X31650000Y-34907200D02*
X31554762Y-34954819D01*
X31554762Y-34954819D02*
X31364286Y-34954819D01*
X32126191Y-34288152D02*
X32316667Y-34954819D01*
X32316667Y-34954819D02*
X32507143Y-34478628D01*
X32507143Y-34478628D02*
X32697619Y-34954819D01*
X32697619Y-34954819D02*
X32888095Y-34288152D01*
X33269048Y-34954819D02*
X33269048Y-34288152D01*
X33269048Y-33954819D02*
X33221429Y-34002438D01*
X33221429Y-34002438D02*
X33269048Y-34050057D01*
X33269048Y-34050057D02*
X33316667Y-34002438D01*
X33316667Y-34002438D02*
X33269048Y-33954819D01*
X33269048Y-33954819D02*
X33269048Y-34050057D01*
X33745238Y-34954819D02*
X33745238Y-34288152D01*
X33745238Y-33954819D02*
X33697619Y-34002438D01*
X33697619Y-34002438D02*
X33745238Y-34050057D01*
X33745238Y-34050057D02*
X33792857Y-34002438D01*
X33792857Y-34002438D02*
X33745238Y-33954819D01*
X33745238Y-33954819D02*
X33745238Y-34050057D01*
X34649999Y-34907200D02*
X34554761Y-34954819D01*
X34554761Y-34954819D02*
X34364285Y-34954819D01*
X34364285Y-34954819D02*
X34269047Y-34907200D01*
X34269047Y-34907200D02*
X34221428Y-34859580D01*
X34221428Y-34859580D02*
X34173809Y-34764342D01*
X34173809Y-34764342D02*
X34173809Y-34478628D01*
X34173809Y-34478628D02*
X34221428Y-34383390D01*
X34221428Y-34383390D02*
X34269047Y-34335771D01*
X34269047Y-34335771D02*
X34364285Y-34288152D01*
X34364285Y-34288152D02*
X34554761Y-34288152D01*
X34554761Y-34288152D02*
X34649999Y-34335771D01*
X15261905Y-6954819D02*
X15261905Y-5954819D01*
X15261905Y-5954819D02*
X15500000Y-5954819D01*
X15500000Y-5954819D02*
X15642857Y-6002438D01*
X15642857Y-6002438D02*
X15738095Y-6097676D01*
X15738095Y-6097676D02*
X15785714Y-6192914D01*
X15785714Y-6192914D02*
X15833333Y-6383390D01*
X15833333Y-6383390D02*
X15833333Y-6526247D01*
X15833333Y-6526247D02*
X15785714Y-6716723D01*
X15785714Y-6716723D02*
X15738095Y-6811961D01*
X15738095Y-6811961D02*
X15642857Y-6907200D01*
X15642857Y-6907200D02*
X15500000Y-6954819D01*
X15500000Y-6954819D02*
X15261905Y-6954819D01*
X16785714Y-6954819D02*
X16214286Y-6954819D01*
X16500000Y-6954819D02*
X16500000Y-5954819D01*
X16500000Y-5954819D02*
X16404762Y-6097676D01*
X16404762Y-6097676D02*
X16309524Y-6192914D01*
X16309524Y-6192914D02*
X16214286Y-6240533D01*
X53666666Y-4431009D02*
X53333333Y-4431009D01*
X53333333Y-4954819D02*
X53333333Y-3954819D01*
X53333333Y-3954819D02*
X53809523Y-3954819D01*
X54714285Y-4954819D02*
X54142857Y-4954819D01*
X54428571Y-4954819D02*
X54428571Y-3954819D01*
X54428571Y-3954819D02*
X54333333Y-4097676D01*
X54333333Y-4097676D02*
X54238095Y-4192914D01*
X54238095Y-4192914D02*
X54142857Y-4240533D01*
X26261905Y-30454819D02*
X26261905Y-29454819D01*
X26261905Y-29454819D02*
X26500000Y-29454819D01*
X26500000Y-29454819D02*
X26642857Y-29502438D01*
X26642857Y-29502438D02*
X26738095Y-29597676D01*
X26738095Y-29597676D02*
X26785714Y-29692914D01*
X26785714Y-29692914D02*
X26833333Y-29883390D01*
X26833333Y-29883390D02*
X26833333Y-30026247D01*
X26833333Y-30026247D02*
X26785714Y-30216723D01*
X26785714Y-30216723D02*
X26738095Y-30311961D01*
X26738095Y-30311961D02*
X26642857Y-30407200D01*
X26642857Y-30407200D02*
X26500000Y-30454819D01*
X26500000Y-30454819D02*
X26261905Y-30454819D01*
X27166667Y-29454819D02*
X27785714Y-29454819D01*
X27785714Y-29454819D02*
X27452381Y-29835771D01*
X27452381Y-29835771D02*
X27595238Y-29835771D01*
X27595238Y-29835771D02*
X27690476Y-29883390D01*
X27690476Y-29883390D02*
X27738095Y-29931009D01*
X27738095Y-29931009D02*
X27785714Y-30026247D01*
X27785714Y-30026247D02*
X27785714Y-30264342D01*
X27785714Y-30264342D02*
X27738095Y-30359580D01*
X27738095Y-30359580D02*
X27690476Y-30407200D01*
X27690476Y-30407200D02*
X27595238Y-30454819D01*
X27595238Y-30454819D02*
X27309524Y-30454819D01*
X27309524Y-30454819D02*
X27214286Y-30407200D01*
X27214286Y-30407200D02*
X27166667Y-30359580D01*
X27833333Y-33454819D02*
X27500000Y-32978628D01*
X27261905Y-33454819D02*
X27261905Y-32454819D01*
X27261905Y-32454819D02*
X27642857Y-32454819D01*
X27642857Y-32454819D02*
X27738095Y-32502438D01*
X27738095Y-32502438D02*
X27785714Y-32550057D01*
X27785714Y-32550057D02*
X27833333Y-32645295D01*
X27833333Y-32645295D02*
X27833333Y-32788152D01*
X27833333Y-32788152D02*
X27785714Y-32883390D01*
X27785714Y-32883390D02*
X27738095Y-32931009D01*
X27738095Y-32931009D02*
X27642857Y-32978628D01*
X27642857Y-32978628D02*
X27261905Y-32978628D01*
X28785714Y-33454819D02*
X28214286Y-33454819D01*
X28500000Y-33454819D02*
X28500000Y-32454819D01*
X28500000Y-32454819D02*
X28404762Y-32597676D01*
X28404762Y-32597676D02*
X28309524Y-32692914D01*
X28309524Y-32692914D02*
X28214286Y-32740533D01*
X27954819Y-35666666D02*
X27478628Y-35999999D01*
X27954819Y-36238094D02*
X26954819Y-36238094D01*
X26954819Y-36238094D02*
X26954819Y-35857142D01*
X26954819Y-35857142D02*
X27002438Y-35761904D01*
X27002438Y-35761904D02*
X27050057Y-35714285D01*
X27050057Y-35714285D02*
X27145295Y-35666666D01*
X27145295Y-35666666D02*
X27288152Y-35666666D01*
X27288152Y-35666666D02*
X27383390Y-35714285D01*
X27383390Y-35714285D02*
X27431009Y-35761904D01*
X27431009Y-35761904D02*
X27478628Y-35857142D01*
X27478628Y-35857142D02*
X27478628Y-36238094D01*
X27288152Y-34809523D02*
X27954819Y-34809523D01*
X26907200Y-35047618D02*
X27621485Y-35285713D01*
X27621485Y-35285713D02*
X27621485Y-34666666D01*
X24833333Y51640420D02*
X24785714Y51592800D01*
X24785714Y51592800D02*
X24642857Y51545181D01*
X24642857Y51545181D02*
X24547619Y51545181D01*
X24547619Y51545181D02*
X24404762Y51592800D01*
X24404762Y51592800D02*
X24309524Y51688039D01*
X24309524Y51688039D02*
X24261905Y51783277D01*
X24261905Y51783277D02*
X24214286Y51973753D01*
X24214286Y51973753D02*
X24214286Y52116610D01*
X24214286Y52116610D02*
X24261905Y52307086D01*
X24261905Y52307086D02*
X24309524Y52402324D01*
X24309524Y52402324D02*
X24404762Y52497562D01*
X24404762Y52497562D02*
X24547619Y52545181D01*
X24547619Y52545181D02*
X24642857Y52545181D01*
X24642857Y52545181D02*
X24785714Y52497562D01*
X24785714Y52497562D02*
X24833333Y52449943D01*
X25690476Y52211848D02*
X25690476Y51545181D01*
X25452381Y52592800D02*
X25214286Y51878515D01*
X25214286Y51878515D02*
X25833333Y51878515D01*
X-46166667Y26640420D02*
X-46214286Y26592800D01*
X-46214286Y26592800D02*
X-46357143Y26545181D01*
X-46357143Y26545181D02*
X-46452381Y26545181D01*
X-46452381Y26545181D02*
X-46595238Y26592800D01*
X-46595238Y26592800D02*
X-46690476Y26688039D01*
X-46690476Y26688039D02*
X-46738095Y26783277D01*
X-46738095Y26783277D02*
X-46785714Y26973753D01*
X-46785714Y26973753D02*
X-46785714Y27116610D01*
X-46785714Y27116610D02*
X-46738095Y27307086D01*
X-46738095Y27307086D02*
X-46690476Y27402324D01*
X-46690476Y27402324D02*
X-46595238Y27497562D01*
X-46595238Y27497562D02*
X-46452381Y27545181D01*
X-46452381Y27545181D02*
X-46357143Y27545181D01*
X-46357143Y27545181D02*
X-46214286Y27497562D01*
X-46214286Y27497562D02*
X-46166667Y27449943D01*
X-45785714Y27449943D02*
X-45738095Y27497562D01*
X-45738095Y27497562D02*
X-45642857Y27545181D01*
X-45642857Y27545181D02*
X-45404762Y27545181D01*
X-45404762Y27545181D02*
X-45309524Y27497562D01*
X-45309524Y27497562D02*
X-45261905Y27449943D01*
X-45261905Y27449943D02*
X-45214286Y27354705D01*
X-45214286Y27354705D02*
X-45214286Y27259467D01*
X-45214286Y27259467D02*
X-45261905Y27116610D01*
X-45261905Y27116610D02*
X-45833333Y26545181D01*
X-45833333Y26545181D02*
X-45214286Y26545181D01*
X45357142Y-34359580D02*
X45309523Y-34407200D01*
X45309523Y-34407200D02*
X45166666Y-34454819D01*
X45166666Y-34454819D02*
X45071428Y-34454819D01*
X45071428Y-34454819D02*
X44928571Y-34407200D01*
X44928571Y-34407200D02*
X44833333Y-34311961D01*
X44833333Y-34311961D02*
X44785714Y-34216723D01*
X44785714Y-34216723D02*
X44738095Y-34026247D01*
X44738095Y-34026247D02*
X44738095Y-33883390D01*
X44738095Y-33883390D02*
X44785714Y-33692914D01*
X44785714Y-33692914D02*
X44833333Y-33597676D01*
X44833333Y-33597676D02*
X44928571Y-33502438D01*
X44928571Y-33502438D02*
X45071428Y-33454819D01*
X45071428Y-33454819D02*
X45166666Y-33454819D01*
X45166666Y-33454819D02*
X45309523Y-33502438D01*
X45309523Y-33502438D02*
X45357142Y-33550057D01*
X46309523Y-34454819D02*
X45738095Y-34454819D01*
X46023809Y-34454819D02*
X46023809Y-33454819D01*
X46023809Y-33454819D02*
X45928571Y-33597676D01*
X45928571Y-33597676D02*
X45833333Y-33692914D01*
X45833333Y-33692914D02*
X45738095Y-33740533D01*
X46928571Y-33454819D02*
X47023809Y-33454819D01*
X47023809Y-33454819D02*
X47119047Y-33502438D01*
X47119047Y-33502438D02*
X47166666Y-33550057D01*
X47166666Y-33550057D02*
X47214285Y-33645295D01*
X47214285Y-33645295D02*
X47261904Y-33835771D01*
X47261904Y-33835771D02*
X47261904Y-34073866D01*
X47261904Y-34073866D02*
X47214285Y-34264342D01*
X47214285Y-34264342D02*
X47166666Y-34359580D01*
X47166666Y-34359580D02*
X47119047Y-34407200D01*
X47119047Y-34407200D02*
X47023809Y-34454819D01*
X47023809Y-34454819D02*
X46928571Y-34454819D01*
X46928571Y-34454819D02*
X46833333Y-34407200D01*
X46833333Y-34407200D02*
X46785714Y-34359580D01*
X46785714Y-34359580D02*
X46738095Y-34264342D01*
X46738095Y-34264342D02*
X46690476Y-34073866D01*
X46690476Y-34073866D02*
X46690476Y-33835771D01*
X46690476Y-33835771D02*
X46738095Y-33645295D01*
X46738095Y-33645295D02*
X46785714Y-33550057D01*
X46785714Y-33550057D02*
X46833333Y-33502438D01*
X46833333Y-33502438D02*
X46928571Y-33454819D01*
X-42642858Y-12359580D02*
X-42690477Y-12407200D01*
X-42690477Y-12407200D02*
X-42833334Y-12454819D01*
X-42833334Y-12454819D02*
X-42928572Y-12454819D01*
X-42928572Y-12454819D02*
X-43071429Y-12407200D01*
X-43071429Y-12407200D02*
X-43166667Y-12311961D01*
X-43166667Y-12311961D02*
X-43214286Y-12216723D01*
X-43214286Y-12216723D02*
X-43261905Y-12026247D01*
X-43261905Y-12026247D02*
X-43261905Y-11883390D01*
X-43261905Y-11883390D02*
X-43214286Y-11692914D01*
X-43214286Y-11692914D02*
X-43166667Y-11597676D01*
X-43166667Y-11597676D02*
X-43071429Y-11502438D01*
X-43071429Y-11502438D02*
X-42928572Y-11454819D01*
X-42928572Y-11454819D02*
X-42833334Y-11454819D01*
X-42833334Y-11454819D02*
X-42690477Y-11502438D01*
X-42690477Y-11502438D02*
X-42642858Y-11550057D01*
X-41690477Y-12454819D02*
X-42261905Y-12454819D01*
X-41976191Y-12454819D02*
X-41976191Y-11454819D01*
X-41976191Y-11454819D02*
X-42071429Y-11597676D01*
X-42071429Y-11597676D02*
X-42166667Y-11692914D01*
X-42166667Y-11692914D02*
X-42261905Y-11740533D01*
X-40738096Y-12454819D02*
X-41309524Y-12454819D01*
X-41023810Y-12454819D02*
X-41023810Y-11454819D01*
X-41023810Y-11454819D02*
X-41119048Y-11597676D01*
X-41119048Y-11597676D02*
X-41214286Y-11692914D01*
X-41214286Y-11692914D02*
X-41309524Y-11740533D01*
X-54333334Y10545181D02*
X-54333334Y9830896D01*
X-54333334Y9830896D02*
X-54380953Y9688039D01*
X-54380953Y9688039D02*
X-54476191Y9592800D01*
X-54476191Y9592800D02*
X-54619048Y9545181D01*
X-54619048Y9545181D02*
X-54714286Y9545181D01*
X-53904762Y10449943D02*
X-53857143Y10497562D01*
X-53857143Y10497562D02*
X-53761905Y10545181D01*
X-53761905Y10545181D02*
X-53523810Y10545181D01*
X-53523810Y10545181D02*
X-53428572Y10497562D01*
X-53428572Y10497562D02*
X-53380953Y10449943D01*
X-53380953Y10449943D02*
X-53333334Y10354705D01*
X-53333334Y10354705D02*
X-53333334Y10259467D01*
X-53333334Y10259467D02*
X-53380953Y10116610D01*
X-53380953Y10116610D02*
X-53952381Y9545181D01*
X-53952381Y9545181D02*
X-53333334Y9545181D01*
X-17353334Y23045181D02*
X-17353334Y22330896D01*
X-17353334Y22330896D02*
X-17400953Y22188039D01*
X-17400953Y22188039D02*
X-17496191Y22092800D01*
X-17496191Y22092800D02*
X-17639048Y22045181D01*
X-17639048Y22045181D02*
X-17734286Y22045181D01*
X-16400953Y23045181D02*
X-16877143Y23045181D01*
X-16877143Y23045181D02*
X-16924762Y22568991D01*
X-16924762Y22568991D02*
X-16877143Y22616610D01*
X-16877143Y22616610D02*
X-16781905Y22664229D01*
X-16781905Y22664229D02*
X-16543810Y22664229D01*
X-16543810Y22664229D02*
X-16448572Y22616610D01*
X-16448572Y22616610D02*
X-16400953Y22568991D01*
X-16400953Y22568991D02*
X-16353334Y22473753D01*
X-16353334Y22473753D02*
X-16353334Y22235658D01*
X-16353334Y22235658D02*
X-16400953Y22140420D01*
X-16400953Y22140420D02*
X-16448572Y22092800D01*
X-16448572Y22092800D02*
X-16543810Y22045181D01*
X-16543810Y22045181D02*
X-16781905Y22045181D01*
X-16781905Y22045181D02*
X-16877143Y22092800D01*
X-16877143Y22092800D02*
X-16924762Y22140420D01*
X-17353334Y53045181D02*
X-17353334Y52330896D01*
X-17353334Y52330896D02*
X-17400953Y52188039D01*
X-17400953Y52188039D02*
X-17496191Y52092800D01*
X-17496191Y52092800D02*
X-17639048Y52045181D01*
X-17639048Y52045181D02*
X-17734286Y52045181D01*
X-16448572Y53045181D02*
X-16639048Y53045181D01*
X-16639048Y53045181D02*
X-16734286Y52997562D01*
X-16734286Y52997562D02*
X-16781905Y52949943D01*
X-16781905Y52949943D02*
X-16877143Y52807086D01*
X-16877143Y52807086D02*
X-16924762Y52616610D01*
X-16924762Y52616610D02*
X-16924762Y52235658D01*
X-16924762Y52235658D02*
X-16877143Y52140420D01*
X-16877143Y52140420D02*
X-16829524Y52092800D01*
X-16829524Y52092800D02*
X-16734286Y52045181D01*
X-16734286Y52045181D02*
X-16543810Y52045181D01*
X-16543810Y52045181D02*
X-16448572Y52092800D01*
X-16448572Y52092800D02*
X-16400953Y52140420D01*
X-16400953Y52140420D02*
X-16353334Y52235658D01*
X-16353334Y52235658D02*
X-16353334Y52473753D01*
X-16353334Y52473753D02*
X-16400953Y52568991D01*
X-16400953Y52568991D02*
X-16448572Y52616610D01*
X-16448572Y52616610D02*
X-16543810Y52664229D01*
X-16543810Y52664229D02*
X-16734286Y52664229D01*
X-16734286Y52664229D02*
X-16829524Y52616610D01*
X-16829524Y52616610D02*
X-16877143Y52568991D01*
X-16877143Y52568991D02*
X-16924762Y52473753D01*
X-14363334Y-41654819D02*
X-14363334Y-42369104D01*
X-14363334Y-42369104D02*
X-14410953Y-42511961D01*
X-14410953Y-42511961D02*
X-14506191Y-42607200D01*
X-14506191Y-42607200D02*
X-14649048Y-42654819D01*
X-14649048Y-42654819D02*
X-14744286Y-42654819D01*
X-13982381Y-41654819D02*
X-13315715Y-41654819D01*
X-13315715Y-41654819D02*
X-13744286Y-42654819D01*
X-37223334Y-41654819D02*
X-37223334Y-42369104D01*
X-37223334Y-42369104D02*
X-37270953Y-42511961D01*
X-37270953Y-42511961D02*
X-37366191Y-42607200D01*
X-37366191Y-42607200D02*
X-37509048Y-42654819D01*
X-37509048Y-42654819D02*
X-37604286Y-42654819D01*
X-36604286Y-42083390D02*
X-36699524Y-42035771D01*
X-36699524Y-42035771D02*
X-36747143Y-41988152D01*
X-36747143Y-41988152D02*
X-36794762Y-41892914D01*
X-36794762Y-41892914D02*
X-36794762Y-41845295D01*
X-36794762Y-41845295D02*
X-36747143Y-41750057D01*
X-36747143Y-41750057D02*
X-36699524Y-41702438D01*
X-36699524Y-41702438D02*
X-36604286Y-41654819D01*
X-36604286Y-41654819D02*
X-36413810Y-41654819D01*
X-36413810Y-41654819D02*
X-36318572Y-41702438D01*
X-36318572Y-41702438D02*
X-36270953Y-41750057D01*
X-36270953Y-41750057D02*
X-36223334Y-41845295D01*
X-36223334Y-41845295D02*
X-36223334Y-41892914D01*
X-36223334Y-41892914D02*
X-36270953Y-41988152D01*
X-36270953Y-41988152D02*
X-36318572Y-42035771D01*
X-36318572Y-42035771D02*
X-36413810Y-42083390D01*
X-36413810Y-42083390D02*
X-36604286Y-42083390D01*
X-36604286Y-42083390D02*
X-36699524Y-42131009D01*
X-36699524Y-42131009D02*
X-36747143Y-42178628D01*
X-36747143Y-42178628D02*
X-36794762Y-42273866D01*
X-36794762Y-42273866D02*
X-36794762Y-42464342D01*
X-36794762Y-42464342D02*
X-36747143Y-42559580D01*
X-36747143Y-42559580D02*
X-36699524Y-42607200D01*
X-36699524Y-42607200D02*
X-36604286Y-42654819D01*
X-36604286Y-42654819D02*
X-36413810Y-42654819D01*
X-36413810Y-42654819D02*
X-36318572Y-42607200D01*
X-36318572Y-42607200D02*
X-36270953Y-42559580D01*
X-36270953Y-42559580D02*
X-36223334Y-42464342D01*
X-36223334Y-42464342D02*
X-36223334Y-42273866D01*
X-36223334Y-42273866D02*
X-36270953Y-42178628D01*
X-36270953Y-42178628D02*
X-36318572Y-42131009D01*
X-36318572Y-42131009D02*
X-36413810Y-42083390D01*
X50338095Y-27954819D02*
X50338095Y-26954819D01*
X50338095Y-27431009D02*
X50909523Y-27431009D01*
X50909523Y-27954819D02*
X50909523Y-26954819D01*
X51909523Y-27954819D02*
X51338095Y-27954819D01*
X51623809Y-27954819D02*
X51623809Y-26954819D01*
X51623809Y-26954819D02*
X51528571Y-27097676D01*
X51528571Y-27097676D02*
X51433333Y-27192914D01*
X51433333Y-27192914D02*
X51338095Y-27240533D01*
X-51861905Y-27954819D02*
X-51861905Y-26954819D01*
X-51861905Y-27431009D02*
X-51290477Y-27431009D01*
X-51290477Y-27954819D02*
X-51290477Y-26954819D01*
X-50861905Y-27050057D02*
X-50814286Y-27002438D01*
X-50814286Y-27002438D02*
X-50719048Y-26954819D01*
X-50719048Y-26954819D02*
X-50480953Y-26954819D01*
X-50480953Y-26954819D02*
X-50385715Y-27002438D01*
X-50385715Y-27002438D02*
X-50338096Y-27050057D01*
X-50338096Y-27050057D02*
X-50290477Y-27145295D01*
X-50290477Y-27145295D02*
X-50290477Y-27240533D01*
X-50290477Y-27240533D02*
X-50338096Y-27383390D01*
X-50338096Y-27383390D02*
X-50909524Y-27954819D01*
X-50909524Y-27954819D02*
X-50290477Y-27954819D01*
X-761905Y51395181D02*
X-761905Y52395181D01*
X-761905Y51918991D02*
X-190477Y51918991D01*
X-190477Y51395181D02*
X-190477Y52395181D01*
X190476Y52395181D02*
X809523Y52395181D01*
X809523Y52395181D02*
X476190Y52014229D01*
X476190Y52014229D02*
X619047Y52014229D01*
X619047Y52014229D02*
X714285Y51966610D01*
X714285Y51966610D02*
X761904Y51918991D01*
X761904Y51918991D02*
X809523Y51823753D01*
X809523Y51823753D02*
X809523Y51585658D01*
X809523Y51585658D02*
X761904Y51490420D01*
X761904Y51490420D02*
X714285Y51442800D01*
X714285Y51442800D02*
X619047Y51395181D01*
X619047Y51395181D02*
X333333Y51395181D01*
X333333Y51395181D02*
X238095Y51442800D01*
X238095Y51442800D02*
X190476Y51490420D01*
X34657142Y28745181D02*
X34657142Y28030896D01*
X34657142Y28030896D02*
X34609523Y27888039D01*
X34609523Y27888039D02*
X34514285Y27792800D01*
X34514285Y27792800D02*
X34371428Y27745181D01*
X34371428Y27745181D02*
X34276190Y27745181D01*
X35085714Y27792800D02*
X35228571Y27745181D01*
X35228571Y27745181D02*
X35466666Y27745181D01*
X35466666Y27745181D02*
X35561904Y27792800D01*
X35561904Y27792800D02*
X35609523Y27840420D01*
X35609523Y27840420D02*
X35657142Y27935658D01*
X35657142Y27935658D02*
X35657142Y28030896D01*
X35657142Y28030896D02*
X35609523Y28126134D01*
X35609523Y28126134D02*
X35561904Y28173753D01*
X35561904Y28173753D02*
X35466666Y28221372D01*
X35466666Y28221372D02*
X35276190Y28268991D01*
X35276190Y28268991D02*
X35180952Y28316610D01*
X35180952Y28316610D02*
X35133333Y28364229D01*
X35133333Y28364229D02*
X35085714Y28459467D01*
X35085714Y28459467D02*
X35085714Y28554705D01*
X35085714Y28554705D02*
X35133333Y28649943D01*
X35133333Y28649943D02*
X35180952Y28697562D01*
X35180952Y28697562D02*
X35276190Y28745181D01*
X35276190Y28745181D02*
X35514285Y28745181D01*
X35514285Y28745181D02*
X35657142Y28697562D01*
X35942857Y28745181D02*
X36514285Y28745181D01*
X36228571Y27745181D02*
X36228571Y28745181D01*
X38133333Y28697562D02*
X38038095Y28745181D01*
X38038095Y28745181D02*
X37895238Y28745181D01*
X37895238Y28745181D02*
X37752381Y28697562D01*
X37752381Y28697562D02*
X37657143Y28602324D01*
X37657143Y28602324D02*
X37609524Y28507086D01*
X37609524Y28507086D02*
X37561905Y28316610D01*
X37561905Y28316610D02*
X37561905Y28173753D01*
X37561905Y28173753D02*
X37609524Y27983277D01*
X37609524Y27983277D02*
X37657143Y27888039D01*
X37657143Y27888039D02*
X37752381Y27792800D01*
X37752381Y27792800D02*
X37895238Y27745181D01*
X37895238Y27745181D02*
X37990476Y27745181D01*
X37990476Y27745181D02*
X38133333Y27792800D01*
X38133333Y27792800D02*
X38180952Y27840420D01*
X38180952Y27840420D02*
X38180952Y28173753D01*
X38180952Y28173753D02*
X37990476Y28173753D01*
X38609524Y27745181D02*
X38609524Y28745181D01*
X38609524Y28268991D02*
X39180952Y28268991D01*
X39180952Y27745181D02*
X39180952Y28745181D01*
X40847619Y27792800D02*
X40752381Y27745181D01*
X40752381Y27745181D02*
X40561905Y27745181D01*
X40561905Y27745181D02*
X40466667Y27792800D01*
X40466667Y27792800D02*
X40419048Y27840420D01*
X40419048Y27840420D02*
X40371429Y27935658D01*
X40371429Y27935658D02*
X40371429Y28221372D01*
X40371429Y28221372D02*
X40419048Y28316610D01*
X40419048Y28316610D02*
X40466667Y28364229D01*
X40466667Y28364229D02*
X40561905Y28411848D01*
X40561905Y28411848D02*
X40752381Y28411848D01*
X40752381Y28411848D02*
X40847619Y28364229D01*
X41704762Y27745181D02*
X41704762Y28268991D01*
X41704762Y28268991D02*
X41657143Y28364229D01*
X41657143Y28364229D02*
X41561905Y28411848D01*
X41561905Y28411848D02*
X41371429Y28411848D01*
X41371429Y28411848D02*
X41276191Y28364229D01*
X41704762Y27792800D02*
X41609524Y27745181D01*
X41609524Y27745181D02*
X41371429Y27745181D01*
X41371429Y27745181D02*
X41276191Y27792800D01*
X41276191Y27792800D02*
X41228572Y27888039D01*
X41228572Y27888039D02*
X41228572Y27983277D01*
X41228572Y27983277D02*
X41276191Y28078515D01*
X41276191Y28078515D02*
X41371429Y28126134D01*
X41371429Y28126134D02*
X41609524Y28126134D01*
X41609524Y28126134D02*
X41704762Y28173753D01*
X42180953Y27745181D02*
X42180953Y28745181D01*
X42180953Y28364229D02*
X42276191Y28411848D01*
X42276191Y28411848D02*
X42466667Y28411848D01*
X42466667Y28411848D02*
X42561905Y28364229D01*
X42561905Y28364229D02*
X42609524Y28316610D01*
X42609524Y28316610D02*
X42657143Y28221372D01*
X42657143Y28221372D02*
X42657143Y27935658D01*
X42657143Y27935658D02*
X42609524Y27840420D01*
X42609524Y27840420D02*
X42561905Y27792800D01*
X42561905Y27792800D02*
X42466667Y27745181D01*
X42466667Y27745181D02*
X42276191Y27745181D01*
X42276191Y27745181D02*
X42180953Y27792800D01*
X43228572Y27745181D02*
X43133334Y27792800D01*
X43133334Y27792800D02*
X43085715Y27888039D01*
X43085715Y27888039D02*
X43085715Y28745181D01*
X43990477Y27792800D02*
X43895239Y27745181D01*
X43895239Y27745181D02*
X43704763Y27745181D01*
X43704763Y27745181D02*
X43609525Y27792800D01*
X43609525Y27792800D02*
X43561906Y27888039D01*
X43561906Y27888039D02*
X43561906Y28268991D01*
X43561906Y28268991D02*
X43609525Y28364229D01*
X43609525Y28364229D02*
X43704763Y28411848D01*
X43704763Y28411848D02*
X43895239Y28411848D01*
X43895239Y28411848D02*
X43990477Y28364229D01*
X43990477Y28364229D02*
X44038096Y28268991D01*
X44038096Y28268991D02*
X44038096Y28173753D01*
X44038096Y28173753D02*
X43561906Y28078515D01*
X45228573Y28126134D02*
X45990478Y28126134D01*
X46466668Y28411848D02*
X47228573Y28126134D01*
X47228573Y28126134D02*
X46466668Y27840420D01*
X19309524Y3745181D02*
X19976190Y3745181D01*
X19976190Y3745181D02*
X19309524Y2745181D01*
X19309524Y2745181D02*
X19976190Y2745181D01*
X20214286Y3745181D02*
X20785714Y3745181D01*
X20500000Y2745181D02*
X20500000Y3745181D01*
X21642857Y2745181D02*
X21071429Y2745181D01*
X21357143Y2745181D02*
X21357143Y3745181D01*
X21357143Y3745181D02*
X21261905Y3602324D01*
X21261905Y3602324D02*
X21166667Y3507086D01*
X21166667Y3507086D02*
X21071429Y3459467D01*
X50909524Y3745181D02*
X51576190Y3745181D01*
X51576190Y3745181D02*
X50909524Y2745181D01*
X50909524Y2745181D02*
X51576190Y2745181D01*
X51814286Y3745181D02*
X52385714Y3745181D01*
X52100000Y2745181D02*
X52100000Y3745181D01*
X52671429Y3649943D02*
X52719048Y3697562D01*
X52719048Y3697562D02*
X52814286Y3745181D01*
X52814286Y3745181D02*
X53052381Y3745181D01*
X53052381Y3745181D02*
X53147619Y3697562D01*
X53147619Y3697562D02*
X53195238Y3649943D01*
X53195238Y3649943D02*
X53242857Y3554705D01*
X53242857Y3554705D02*
X53242857Y3459467D01*
X53242857Y3459467D02*
X53195238Y3316610D01*
X53195238Y3316610D02*
X52623810Y2745181D01*
X52623810Y2745181D02*
X53242857Y2745181D01*
X19309524Y11745181D02*
X19976190Y11745181D01*
X19976190Y11745181D02*
X19309524Y10745181D01*
X19309524Y10745181D02*
X19976190Y10745181D01*
X20214286Y11745181D02*
X20785714Y11745181D01*
X20500000Y10745181D02*
X20500000Y11745181D01*
X21023810Y11745181D02*
X21642857Y11745181D01*
X21642857Y11745181D02*
X21309524Y11364229D01*
X21309524Y11364229D02*
X21452381Y11364229D01*
X21452381Y11364229D02*
X21547619Y11316610D01*
X21547619Y11316610D02*
X21595238Y11268991D01*
X21595238Y11268991D02*
X21642857Y11173753D01*
X21642857Y11173753D02*
X21642857Y10935658D01*
X21642857Y10935658D02*
X21595238Y10840420D01*
X21595238Y10840420D02*
X21547619Y10792800D01*
X21547619Y10792800D02*
X21452381Y10745181D01*
X21452381Y10745181D02*
X21166667Y10745181D01*
X21166667Y10745181D02*
X21071429Y10792800D01*
X21071429Y10792800D02*
X21023810Y10840420D01*
X50909524Y11745181D02*
X51576190Y11745181D01*
X51576190Y11745181D02*
X50909524Y10745181D01*
X50909524Y10745181D02*
X51576190Y10745181D01*
X51814286Y11745181D02*
X52385714Y11745181D01*
X52100000Y10745181D02*
X52100000Y11745181D01*
X53147619Y11411848D02*
X53147619Y10745181D01*
X52909524Y11792800D02*
X52671429Y11078515D01*
X52671429Y11078515D02*
X53290476Y11078515D01*
X35666666Y-22554819D02*
X35666666Y-23269104D01*
X35666666Y-23269104D02*
X35619047Y-23411961D01*
X35619047Y-23411961D02*
X35523809Y-23507200D01*
X35523809Y-23507200D02*
X35380952Y-23554819D01*
X35380952Y-23554819D02*
X35285714Y-23554819D01*
X36047619Y-22554819D02*
X36666666Y-22554819D01*
X36666666Y-22554819D02*
X36333333Y-22935771D01*
X36333333Y-22935771D02*
X36476190Y-22935771D01*
X36476190Y-22935771D02*
X36571428Y-22983390D01*
X36571428Y-22983390D02*
X36619047Y-23031009D01*
X36619047Y-23031009D02*
X36666666Y-23126247D01*
X36666666Y-23126247D02*
X36666666Y-23364342D01*
X36666666Y-23364342D02*
X36619047Y-23459580D01*
X36619047Y-23459580D02*
X36571428Y-23507200D01*
X36571428Y-23507200D02*
X36476190Y-23554819D01*
X36476190Y-23554819D02*
X36190476Y-23554819D01*
X36190476Y-23554819D02*
X36095238Y-23507200D01*
X36095238Y-23507200D02*
X36047619Y-23459580D01*
X-43385181Y-19383333D02*
X-42670896Y-19383333D01*
X-42670896Y-19383333D02*
X-42528039Y-19430952D01*
X-42528039Y-19430952D02*
X-42432800Y-19526190D01*
X-42432800Y-19526190D02*
X-42385181Y-19669047D01*
X-42385181Y-19669047D02*
X-42385181Y-19764285D01*
X-43051848Y-18478571D02*
X-42385181Y-18478571D01*
X-43432800Y-18716666D02*
X-42718515Y-18954761D01*
X-42718515Y-18954761D02*
X-42718515Y-18335714D01*
%TO.C,SENS1*%
D11*
X23700000Y33000000D02*
X48900000Y33000000D01*
X48900000Y-21800000D01*
X23700000Y-21800000D01*
X23700000Y33000000D01*
%TO.C,LDR1*%
X-43670000Y16310000D02*
X-50890000Y16310000D01*
X-43670000Y16310000D02*
X-43670000Y-17250000D01*
X-50890000Y16310000D02*
X-50890000Y-17250000D01*
%TO.C,ZT1*%
X22500000Y0D02*
G75*
G02*
X18500000Y0I-2000000J0D01*
G01*
X18500000Y0D02*
G75*
G02*
X22500000Y0I2000000J0D01*
G01*
%TO.C,ZT2*%
X54100000Y0D02*
G75*
G02*
X50100000Y0I-2000000J0D01*
G01*
X50100000Y0D02*
G75*
G02*
X54100000Y0I2000000J0D01*
G01*
%TO.C,ZT3*%
X22500000Y8000000D02*
G75*
G02*
X18500000Y8000000I-2000000J0D01*
G01*
X18500000Y8000000D02*
G75*
G02*
X22500000Y8000000I2000000J0D01*
G01*
%TO.C,ZT4*%
X54100000Y8000000D02*
G75*
G02*
X50100000Y8000000I-2000000J0D01*
G01*
X50100000Y8000000D02*
G75*
G02*
X54100000Y8000000I2000000J0D01*
G01*
%TO.C,J3*%
X30515000Y-25290000D02*
X32315000Y-25290000D01*
X30515000Y-26740000D02*
X30515000Y-25290000D01*
X31785000Y-29560000D02*
X40215000Y-29560000D01*
X32315000Y-25290000D02*
X32315000Y-24300000D01*
X41485000Y-25290000D02*
X39685000Y-25290000D01*
X41485000Y-26740000D02*
X41485000Y-25290000D01*
%TO.C,J4*%
X-43930000Y-17890000D02*
X-43930000Y-19050000D01*
X-44740000Y-17890000D02*
X-43930000Y-17890000D01*
X-45550000Y-17890000D02*
X-50565000Y-17890000D01*
X-45550000Y-17890000D02*
X-45550000Y-18383292D01*
X-50565000Y-17890000D02*
X-50565000Y-18732077D01*
X-50565000Y-19367923D02*
X-50565000Y-20210000D01*
X-45550000Y-19716708D02*
X-45550000Y-20210000D01*
X-45550000Y-20210000D02*
X-50565000Y-20210000D01*
%TO.C,J1*%
X6080000Y-12290000D02*
X4080000Y-12290000D01*
X5830000Y-13790000D02*
X6080000Y-12290000D01*
X5380000Y-25310000D02*
X4780000Y-25310000D01*
X5080000Y-24710000D02*
X5380000Y-25310000D01*
X4780000Y-25310000D02*
X5080000Y-24710000D01*
X4330000Y-13790000D02*
X5830000Y-13790000D01*
X4080000Y-12290000D02*
X4330000Y-13790000D01*
X1000000Y-12290000D02*
X-1000000Y-12290000D01*
X750000Y-13790000D02*
X1000000Y-12290000D01*
X-750000Y-13790000D02*
X750000Y-13790000D01*
X-1000000Y-12290000D02*
X-750000Y-13790000D01*
X-4080000Y-12290000D02*
X-6080000Y-12290000D01*
X-4330000Y-13790000D02*
X-4080000Y-12290000D01*
X-5830000Y-13790000D02*
X-4330000Y-13790000D01*
X-6080000Y-12290000D02*
X-5830000Y-13790000D01*
X-8730000Y-12290000D02*
X8730000Y-12290000D01*
X8730000Y-24510000D01*
X-8730000Y-24510000D01*
X-8730000Y-12290000D01*
X-8730000Y-13790000D02*
X8730000Y-13790000D01*
X8730000Y-15590000D01*
X-8730000Y-15590000D01*
X-8730000Y-13790000D01*
%TO.C,J9*%
X34760000Y-41475000D02*
X33710000Y-41475000D01*
X34760000Y-38975000D02*
X34760000Y-41475000D01*
X33710000Y-41475000D02*
X33710000Y-42465000D01*
X33590000Y-37005000D02*
X29710000Y-37005000D01*
X28540000Y-41475000D02*
X29590000Y-41475000D01*
X28540000Y-38975000D02*
X28540000Y-41475000D01*
%TO.C,J10*%
X10780000Y-42380000D02*
X9400000Y-42380000D01*
X10780000Y-41000000D02*
X10780000Y-42380000D01*
X10780000Y-39730000D02*
X10780000Y-26920000D01*
X10780000Y-39730000D02*
X8020000Y-39730000D01*
X10780000Y-26920000D02*
X8020000Y-26920000D01*
X8020000Y-39730000D02*
X8020000Y-26920000D01*
%TO.C,MOD1*%
X-27560000Y50600000D02*
X20300000Y50600000D01*
X20300000Y24200000D01*
X-27560000Y24200000D01*
X-27560000Y50600000D01*
%TO.C,MOD2*%
X-38660000Y16310000D02*
X-12260000Y16310000D01*
X-12260000Y-40440000D01*
X-38660000Y-40440000D01*
X-38660000Y16310000D01*
%TO.C,J5*%
X-21120000Y24640000D02*
X14500000Y24640000D01*
X-21120000Y24640000D02*
X-21120000Y27300000D01*
X14500000Y24640000D02*
X14500000Y27300000D01*
X-23720000Y25970000D02*
X-23720000Y27300000D01*
X-23720000Y27300000D02*
X-22390000Y27300000D01*
X-21120000Y27300000D02*
X14500000Y27300000D01*
%TO.C,J6*%
X-21120000Y47500000D02*
X14500000Y47500000D01*
X-21120000Y47500000D02*
X-21120000Y50160000D01*
X14500000Y47500000D02*
X14500000Y50160000D01*
X-23720000Y48830000D02*
X-23720000Y50160000D01*
X-23720000Y50160000D02*
X-22390000Y50160000D01*
X-21120000Y50160000D02*
X14500000Y50160000D01*
%TO.C,J7*%
X-12700000Y-36830000D02*
X-12700000Y-18990000D01*
X-12700000Y-36830000D02*
X-15360000Y-36830000D01*
X-12700000Y-18990000D02*
X-15360000Y-18990000D01*
X-14030000Y-39430000D02*
X-15360000Y-39430000D01*
X-15360000Y-39430000D02*
X-15360000Y-38100000D01*
X-15360000Y-36830000D02*
X-15360000Y-18990000D01*
%TO.C,J8*%
X-35560000Y-36830000D02*
X-35560000Y-18990000D01*
X-35560000Y-36830000D02*
X-38220000Y-36830000D01*
X-35560000Y-18990000D02*
X-38220000Y-18990000D01*
X-36890000Y-39430000D02*
X-38220000Y-39430000D01*
X-38220000Y-39430000D02*
X-38220000Y-38100000D01*
X-38220000Y-36830000D02*
X-38220000Y-18990000D01*
%TO.C,D11*%
D12*
X9395000Y1425000D02*
G75*
G02*
X9205000Y1425000I-95000J0D01*
G01*
X9205000Y1425000D02*
G75*
G02*
X9395000Y1425000I95000J0D01*
G01*
%TO.C,C20*%
D11*
X7960000Y107836D02*
X7960000Y-107836D01*
X7240000Y107836D02*
X7240000Y-107836D01*
%TO.C,D12*%
D12*
X8861536Y-3415914D02*
G75*
G02*
X8671536Y-3415914I-95000J0D01*
G01*
X8671536Y-3415914D02*
G75*
G02*
X8861536Y-3415914I95000J0D01*
G01*
%TO.C,C21*%
D11*
X6947480Y-3886611D02*
X6839644Y-4073389D01*
X6323942Y-3526611D02*
X6216106Y-3713389D01*
%TO.C,D13*%
D12*
X5979086Y-7341536D02*
G75*
G02*
X5789086Y-7341536I-95000J0D01*
G01*
X5789086Y-7341536D02*
G75*
G02*
X5979086Y-7341536I95000J0D01*
G01*
%TO.C,C22*%
D11*
X4073389Y-6839644D02*
X3886611Y-6947480D01*
X3713389Y-6216106D02*
X3526611Y-6323942D01*
%TO.C,D15*%
D12*
X-3320914Y-8766536D02*
G75*
G02*
X-3510914Y-8766536I-95000J0D01*
G01*
X-3510914Y-8766536D02*
G75*
G02*
X-3320914Y-8766536I95000J0D01*
G01*
%TO.C,C24*%
D11*
X-3886611Y-6947480D02*
X-4073389Y-6839644D01*
X-3526611Y-6323942D02*
X-3713389Y-6216106D01*
%TO.C,D16*%
D12*
X-7246536Y-5884086D02*
G75*
G02*
X-7436536Y-5884086I-95000J0D01*
G01*
X-7436536Y-5884086D02*
G75*
G02*
X-7246536Y-5884086I95000J0D01*
G01*
%TO.C,C25*%
D11*
X-6839644Y-4073389D02*
X-6947480Y-3886611D01*
X-6216106Y-3713389D02*
X-6323942Y-3526611D01*
%TO.C,D17*%
D12*
X-9205000Y-1425000D02*
G75*
G02*
X-9395000Y-1425000I-95000J0D01*
G01*
X-9395000Y-1425000D02*
G75*
G02*
X-9205000Y-1425000I95000J0D01*
G01*
%TO.C,C26*%
D11*
X-7960000Y-107836D02*
X-7960000Y107836D01*
X-7240000Y-107836D02*
X-7240000Y107836D01*
%TO.C,D18*%
D12*
X-8671536Y3415914D02*
G75*
G02*
X-8861536Y3415914I-95000J0D01*
G01*
X-8861536Y3415914D02*
G75*
G02*
X-8671536Y3415914I95000J0D01*
G01*
%TO.C,C27*%
D11*
X-6947480Y3886611D02*
X-6839644Y4073389D01*
X-6323942Y3526611D02*
X-6216106Y3713389D01*
%TO.C,D19*%
D12*
X-5789086Y7341536D02*
G75*
G02*
X-5979086Y7341536I-95000J0D01*
G01*
X-5979086Y7341536D02*
G75*
G02*
X-5789086Y7341536I95000J0D01*
G01*
%TO.C,C28*%
D11*
X-4073389Y6839644D02*
X-3886611Y6947480D01*
X-3713389Y6216106D02*
X-3526611Y6323942D01*
%TO.C,D20*%
D12*
X-1330000Y9300000D02*
G75*
G02*
X-1520000Y9300000I-95000J0D01*
G01*
X-1520000Y9300000D02*
G75*
G02*
X-1330000Y9300000I95000J0D01*
G01*
%TO.C,C29*%
D11*
X-107836Y7960000D02*
X107836Y7960000D01*
X-107836Y7240000D02*
X107836Y7240000D01*
%TO.C,D21*%
D12*
X3510914Y8766536D02*
G75*
G02*
X3320914Y8766536I-95000J0D01*
G01*
X3320914Y8766536D02*
G75*
G02*
X3510914Y8766536I95000J0D01*
G01*
%TO.C,C30*%
D11*
X3886611Y6947480D02*
X4073389Y6839644D01*
X3526611Y6323942D02*
X3713389Y6216106D01*
%TO.C,D22*%
D12*
X7436536Y5884086D02*
G75*
G02*
X7246536Y5884086I-95000J0D01*
G01*
X7246536Y5884086D02*
G75*
G02*
X7436536Y5884086I95000J0D01*
G01*
%TO.C,C31*%
D11*
X6839644Y4073389D02*
X6947480Y3886611D01*
X6216106Y3713389D02*
X6323942Y3526611D01*
%TO.C,D1*%
X19660000Y-11650000D02*
X19660000Y-7350000D01*
X19660000Y-11650000D02*
X13850000Y-11650000D01*
X19660000Y-7350000D02*
X13850000Y-7350000D01*
%TO.C,Q1*%
X26240000Y-23440000D02*
X27760000Y-23440000D01*
X26240000Y-23490000D02*
X26240000Y-23440000D01*
X26240000Y-25390000D02*
X26240000Y-24610000D01*
X26240000Y-26560000D02*
X26240000Y-26510000D01*
X27760000Y-23440000D02*
X27760000Y-24440000D01*
X27760000Y-25560000D02*
X27760000Y-26560000D01*
X27760000Y-26560000D02*
X26240000Y-26560000D01*
X25700000Y-24620000D02*
X25940000Y-24950000D01*
X25460000Y-24950000D01*
X25700000Y-24620000D01*
G36*
X25940000Y-24950000D02*
G01*
X25460000Y-24950000D01*
X25700000Y-24620000D01*
X25940000Y-24950000D01*
G37*
%TO.C,D3*%
X25390000Y-27150000D02*
X25390000Y-28850000D01*
X25390000Y-27150000D02*
X28050000Y-27150000D01*
X25390000Y-28850000D02*
X28050000Y-28850000D01*
%TO.C,F1*%
X51796248Y-6330000D02*
X56203752Y-6330000D01*
X51796248Y-11670000D02*
X56203752Y-11670000D01*
%TO.C,R1*%
X24762742Y-32477500D02*
X25237258Y-32477500D01*
X24762742Y-33522500D02*
X25237258Y-33522500D01*
%TO.C,R4*%
X24762742Y-34977500D02*
X25237258Y-34977500D01*
X24762742Y-36022500D02*
X25237258Y-36022500D01*
%TO.C,C1*%
X35590302Y-33685000D02*
X36390302Y-33685000D01*
X35990302Y-33285000D02*
X35990302Y-34085000D01*
X40000000Y-31920000D02*
X40000000Y-40080000D01*
X40040000Y-31920000D02*
X40040000Y-40080000D01*
X40080000Y-31921000D02*
X40080000Y-40079000D01*
X40120000Y-31922000D02*
X40120000Y-40078000D01*
X40160000Y-31923000D02*
X40160000Y-40077000D01*
X40200000Y-31925000D02*
X40200000Y-40075000D01*
X40240000Y-31927000D02*
X40240000Y-40073000D01*
X40280000Y-31930000D02*
X40280000Y-40070000D01*
X40320000Y-31932000D02*
X40320000Y-40068000D01*
X40360000Y-31936000D02*
X40360000Y-40064000D01*
X40400000Y-31939000D02*
X40400000Y-40061000D01*
X40440000Y-31944000D02*
X40440000Y-40056000D01*
X40480000Y-31948000D02*
X40480000Y-40052000D01*
X40520000Y-31953000D02*
X40520000Y-40047000D01*
X40560000Y-31958000D02*
X40560000Y-40042000D01*
X40600000Y-31964000D02*
X40600000Y-40036000D01*
X40640000Y-31970000D02*
X40640000Y-40030000D01*
X40680000Y-31977000D02*
X40680000Y-40023000D01*
X40720000Y-31983000D02*
X40720000Y-34960000D01*
X40720000Y-37040000D02*
X40720000Y-40017000D01*
X40760000Y-31991000D02*
X40760000Y-34960000D01*
X40760000Y-37040000D02*
X40760000Y-40009000D01*
X40800000Y-31998000D02*
X40800000Y-34960000D01*
X40800000Y-37040000D02*
X40800000Y-40002000D01*
X40840000Y-32007000D02*
X40840000Y-34960000D01*
X40840000Y-37040000D02*
X40840000Y-39993000D01*
X40880000Y-32015000D02*
X40880000Y-34960000D01*
X40880000Y-37040000D02*
X40880000Y-39985000D01*
X40920000Y-32024000D02*
X40920000Y-34960000D01*
X40920000Y-37040000D02*
X40920000Y-39976000D01*
X40960000Y-32033000D02*
X40960000Y-34960000D01*
X40960000Y-37040000D02*
X40960000Y-39967000D01*
X41000000Y-32043000D02*
X41000000Y-34960000D01*
X41000000Y-37040000D02*
X41000000Y-39957000D01*
X41040000Y-32053000D02*
X41040000Y-34960000D01*
X41040000Y-37040000D02*
X41040000Y-39947000D01*
X41080000Y-32064000D02*
X41080000Y-34960000D01*
X41080000Y-37040000D02*
X41080000Y-39936000D01*
X41120000Y-32075000D02*
X41120000Y-34960000D01*
X41120000Y-37040000D02*
X41120000Y-39925000D01*
X41160000Y-32087000D02*
X41160000Y-34960000D01*
X41160000Y-37040000D02*
X41160000Y-39913000D01*
X41200000Y-32099000D02*
X41200000Y-34960000D01*
X41200000Y-37040000D02*
X41200000Y-39901000D01*
X41240000Y-32111000D02*
X41240000Y-34960000D01*
X41240000Y-37040000D02*
X41240000Y-39889000D01*
X41280000Y-32124000D02*
X41280000Y-34960000D01*
X41280000Y-37040000D02*
X41280000Y-39876000D01*
X41320000Y-32137000D02*
X41320000Y-34960000D01*
X41320000Y-37040000D02*
X41320000Y-39863000D01*
X41360000Y-32151000D02*
X41360000Y-34960000D01*
X41360000Y-37040000D02*
X41360000Y-39849000D01*
X41400000Y-32165000D02*
X41400000Y-34960000D01*
X41400000Y-37040000D02*
X41400000Y-39835000D01*
X41440000Y-32180000D02*
X41440000Y-34960000D01*
X41440000Y-37040000D02*
X41440000Y-39820000D01*
X41480000Y-32195000D02*
X41480000Y-34960000D01*
X41480000Y-37040000D02*
X41480000Y-39805000D01*
X41520000Y-32211000D02*
X41520000Y-34960000D01*
X41520000Y-37040000D02*
X41520000Y-39789000D01*
X41560000Y-32227000D02*
X41560000Y-34960000D01*
X41560000Y-37040000D02*
X41560000Y-39773000D01*
X41600000Y-32243000D02*
X41600000Y-34960000D01*
X41600000Y-37040000D02*
X41600000Y-39757000D01*
X41640000Y-32260000D02*
X41640000Y-34960000D01*
X41640000Y-37040000D02*
X41640000Y-39740000D01*
X41680000Y-32278000D02*
X41680000Y-34960000D01*
X41680000Y-37040000D02*
X41680000Y-39722000D01*
X41720000Y-32296000D02*
X41720000Y-34960000D01*
X41720000Y-37040000D02*
X41720000Y-39704000D01*
X41760000Y-32315000D02*
X41760000Y-34960000D01*
X41760000Y-37040000D02*
X41760000Y-39685000D01*
X41800000Y-32334000D02*
X41800000Y-34960000D01*
X41800000Y-37040000D02*
X41800000Y-39666000D01*
X41840000Y-32354000D02*
X41840000Y-34960000D01*
X41840000Y-37040000D02*
X41840000Y-39646000D01*
X41880000Y-32374000D02*
X41880000Y-34960000D01*
X41880000Y-37040000D02*
X41880000Y-39626000D01*
X41920000Y-32395000D02*
X41920000Y-34960000D01*
X41920000Y-37040000D02*
X41920000Y-39605000D01*
X41960000Y-32416000D02*
X41960000Y-34960000D01*
X41960000Y-37040000D02*
X41960000Y-39584000D01*
X42000000Y-32438000D02*
X42000000Y-34960000D01*
X42000000Y-37040000D02*
X42000000Y-39562000D01*
X42040000Y-32461000D02*
X42040000Y-34960000D01*
X42040000Y-37040000D02*
X42040000Y-39539000D01*
X42080000Y-32484000D02*
X42080000Y-34960000D01*
X42080000Y-37040000D02*
X42080000Y-39516000D01*
X42120000Y-32507000D02*
X42120000Y-34960000D01*
X42120000Y-37040000D02*
X42120000Y-39493000D01*
X42160000Y-32532000D02*
X42160000Y-34960000D01*
X42160000Y-37040000D02*
X42160000Y-39468000D01*
X42200000Y-32557000D02*
X42200000Y-34960000D01*
X42200000Y-37040000D02*
X42200000Y-39443000D01*
X42240000Y-32582000D02*
X42240000Y-34960000D01*
X42240000Y-37040000D02*
X42240000Y-39418000D01*
X42280000Y-32608000D02*
X42280000Y-34960000D01*
X42280000Y-37040000D02*
X42280000Y-39392000D01*
X42320000Y-32635000D02*
X42320000Y-34960000D01*
X42320000Y-37040000D02*
X42320000Y-39365000D01*
X42360000Y-32663000D02*
X42360000Y-34960000D01*
X42360000Y-37040000D02*
X42360000Y-39337000D01*
X42400000Y-32691000D02*
X42400000Y-34960000D01*
X42400000Y-37040000D02*
X42400000Y-39309000D01*
X42440000Y-32720000D02*
X42440000Y-34960000D01*
X42440000Y-37040000D02*
X42440000Y-39280000D01*
X42480000Y-32750000D02*
X42480000Y-34960000D01*
X42480000Y-37040000D02*
X42480000Y-39250000D01*
X42520000Y-32781000D02*
X42520000Y-34960000D01*
X42520000Y-37040000D02*
X42520000Y-39219000D01*
X42560000Y-32812000D02*
X42560000Y-34960000D01*
X42560000Y-37040000D02*
X42560000Y-39188000D01*
X42600000Y-32844000D02*
X42600000Y-34960000D01*
X42600000Y-37040000D02*
X42600000Y-39156000D01*
X42640000Y-32877000D02*
X42640000Y-34960000D01*
X42640000Y-37040000D02*
X42640000Y-39123000D01*
X42680000Y-32911000D02*
X42680000Y-34960000D01*
X42680000Y-37040000D02*
X42680000Y-39089000D01*
X42720000Y-32945000D02*
X42720000Y-34960000D01*
X42720000Y-37040000D02*
X42720000Y-39055000D01*
X42760000Y-32981000D02*
X42760000Y-34960000D01*
X42760000Y-37040000D02*
X42760000Y-39019000D01*
X42800000Y-33018000D02*
X42800000Y-38982000D01*
X42840000Y-33055000D02*
X42840000Y-38945000D01*
X42880000Y-33094000D02*
X42880000Y-38906000D01*
X42920000Y-33133000D02*
X42920000Y-38867000D01*
X42960000Y-33174000D02*
X42960000Y-38826000D01*
X43000000Y-33216000D02*
X43000000Y-38784000D01*
X43040000Y-33259000D02*
X43040000Y-38741000D01*
X43080000Y-33304000D02*
X43080000Y-38696000D01*
X43120000Y-33349000D02*
X43120000Y-38651000D01*
X43160000Y-33396000D02*
X43160000Y-38604000D01*
X43200000Y-33445000D02*
X43200000Y-38555000D01*
X43240000Y-33495000D02*
X43240000Y-38505000D01*
X43280000Y-33547000D02*
X43280000Y-38453000D01*
X43320000Y-33600000D02*
X43320000Y-38400000D01*
X43360000Y-33656000D02*
X43360000Y-38344000D01*
X43400000Y-33713000D02*
X43400000Y-38287000D01*
X43440000Y-33773000D02*
X43440000Y-38227000D01*
X43480000Y-33835000D02*
X43480000Y-38165000D01*
X43520000Y-33899000D02*
X43520000Y-38101000D01*
X43560000Y-33966000D02*
X43560000Y-38034000D01*
X43600000Y-34036000D02*
X43600000Y-37964000D01*
X43640000Y-34110000D02*
X43640000Y-37890000D01*
X43680000Y-34187000D02*
X43680000Y-37813000D01*
X43720000Y-34269000D02*
X43720000Y-37731000D01*
X43760000Y-34356000D02*
X43760000Y-37644000D01*
X43800000Y-34448000D02*
X43800000Y-37552000D01*
X43840000Y-34547000D02*
X43840000Y-37453000D01*
X43880000Y-34654000D02*
X43880000Y-37346000D01*
X43920000Y-34772000D02*
X43920000Y-37228000D01*
X43960000Y-34903000D02*
X43960000Y-37097000D01*
X44000000Y-35053000D02*
X44000000Y-36947000D01*
X44040000Y-35232000D02*
X44040000Y-36768000D01*
X44080000Y-35467000D02*
X44080000Y-36533000D01*
X44120000Y-36000000D02*
G75*
G02*
X35880000Y-36000000I-4120000J0D01*
G01*
X35880000Y-36000000D02*
G75*
G02*
X44120000Y-36000000I4120000J0D01*
G01*
%TO.C,C3*%
X-38409698Y26315000D02*
X-37609698Y26315000D01*
X-38009698Y26715000D02*
X-38009698Y25915000D01*
X-34000000Y28080000D02*
X-34000000Y19920000D01*
X-33960000Y28080000D02*
X-33960000Y19920000D01*
X-33920000Y28079000D02*
X-33920000Y19921000D01*
X-33880000Y28078000D02*
X-33880000Y19922000D01*
X-33840000Y28077000D02*
X-33840000Y19923000D01*
X-33800000Y28075000D02*
X-33800000Y19925000D01*
X-33760000Y28073000D02*
X-33760000Y19927000D01*
X-33720000Y28070000D02*
X-33720000Y19930000D01*
X-33680000Y28068000D02*
X-33680000Y19932000D01*
X-33640000Y28064000D02*
X-33640000Y19936000D01*
X-33600000Y28061000D02*
X-33600000Y19939000D01*
X-33560000Y28056000D02*
X-33560000Y19944000D01*
X-33520000Y28052000D02*
X-33520000Y19948000D01*
X-33480000Y28047000D02*
X-33480000Y19953000D01*
X-33440000Y28042000D02*
X-33440000Y19958000D01*
X-33400000Y28036000D02*
X-33400000Y19964000D01*
X-33360000Y28030000D02*
X-33360000Y19970000D01*
X-33320000Y28023000D02*
X-33320000Y19977000D01*
X-33280000Y28017000D02*
X-33280000Y25040000D01*
X-33280000Y22960000D02*
X-33280000Y19983000D01*
X-33240000Y28009000D02*
X-33240000Y25040000D01*
X-33240000Y22960000D02*
X-33240000Y19991000D01*
X-33200000Y28002000D02*
X-33200000Y25040000D01*
X-33200000Y22960000D02*
X-33200000Y19998000D01*
X-33160000Y27993000D02*
X-33160000Y25040000D01*
X-33160000Y22960000D02*
X-33160000Y20007000D01*
X-33120000Y27985000D02*
X-33120000Y25040000D01*
X-33120000Y22960000D02*
X-33120000Y20015000D01*
X-33080000Y27976000D02*
X-33080000Y25040000D01*
X-33080000Y22960000D02*
X-33080000Y20024000D01*
X-33040000Y27967000D02*
X-33040000Y25040000D01*
X-33040000Y22960000D02*
X-33040000Y20033000D01*
X-33000000Y27957000D02*
X-33000000Y25040000D01*
X-33000000Y22960000D02*
X-33000000Y20043000D01*
X-32960000Y27947000D02*
X-32960000Y25040000D01*
X-32960000Y22960000D02*
X-32960000Y20053000D01*
X-32920000Y27936000D02*
X-32920000Y25040000D01*
X-32920000Y22960000D02*
X-32920000Y20064000D01*
X-32880000Y27925000D02*
X-32880000Y25040000D01*
X-32880000Y22960000D02*
X-32880000Y20075000D01*
X-32840000Y27913000D02*
X-32840000Y25040000D01*
X-32840000Y22960000D02*
X-32840000Y20087000D01*
X-32800000Y27901000D02*
X-32800000Y25040000D01*
X-32800000Y22960000D02*
X-32800000Y20099000D01*
X-32760000Y27889000D02*
X-32760000Y25040000D01*
X-32760000Y22960000D02*
X-32760000Y20111000D01*
X-32720000Y27876000D02*
X-32720000Y25040000D01*
X-32720000Y22960000D02*
X-32720000Y20124000D01*
X-32680000Y27863000D02*
X-32680000Y25040000D01*
X-32680000Y22960000D02*
X-32680000Y20137000D01*
X-32640000Y27849000D02*
X-32640000Y25040000D01*
X-32640000Y22960000D02*
X-32640000Y20151000D01*
X-32600000Y27835000D02*
X-32600000Y25040000D01*
X-32600000Y22960000D02*
X-32600000Y20165000D01*
X-32560000Y27820000D02*
X-32560000Y25040000D01*
X-32560000Y22960000D02*
X-32560000Y20180000D01*
X-32520000Y27805000D02*
X-32520000Y25040000D01*
X-32520000Y22960000D02*
X-32520000Y20195000D01*
X-32480000Y27789000D02*
X-32480000Y25040000D01*
X-32480000Y22960000D02*
X-32480000Y20211000D01*
X-32440000Y27773000D02*
X-32440000Y25040000D01*
X-32440000Y22960000D02*
X-32440000Y20227000D01*
X-32400000Y27757000D02*
X-32400000Y25040000D01*
X-32400000Y22960000D02*
X-32400000Y20243000D01*
X-32360000Y27740000D02*
X-32360000Y25040000D01*
X-32360000Y22960000D02*
X-32360000Y20260000D01*
X-32320000Y27722000D02*
X-32320000Y25040000D01*
X-32320000Y22960000D02*
X-32320000Y20278000D01*
X-32280000Y27704000D02*
X-32280000Y25040000D01*
X-32280000Y22960000D02*
X-32280000Y20296000D01*
X-32240000Y27685000D02*
X-32240000Y25040000D01*
X-32240000Y22960000D02*
X-32240000Y20315000D01*
X-32200000Y27666000D02*
X-32200000Y25040000D01*
X-32200000Y22960000D02*
X-32200000Y20334000D01*
X-32160000Y27646000D02*
X-32160000Y25040000D01*
X-32160000Y22960000D02*
X-32160000Y20354000D01*
X-32120000Y27626000D02*
X-32120000Y25040000D01*
X-32120000Y22960000D02*
X-32120000Y20374000D01*
X-32080000Y27605000D02*
X-32080000Y25040000D01*
X-32080000Y22960000D02*
X-32080000Y20395000D01*
X-32040000Y27584000D02*
X-32040000Y25040000D01*
X-32040000Y22960000D02*
X-32040000Y20416000D01*
X-32000000Y27562000D02*
X-32000000Y25040000D01*
X-32000000Y22960000D02*
X-32000000Y20438000D01*
X-31960000Y27539000D02*
X-31960000Y25040000D01*
X-31960000Y22960000D02*
X-31960000Y20461000D01*
X-31920000Y27516000D02*
X-31920000Y25040000D01*
X-31920000Y22960000D02*
X-31920000Y20484000D01*
X-31880000Y27493000D02*
X-31880000Y25040000D01*
X-31880000Y22960000D02*
X-31880000Y20507000D01*
X-31840000Y27468000D02*
X-31840000Y25040000D01*
X-31840000Y22960000D02*
X-31840000Y20532000D01*
X-31800000Y27443000D02*
X-31800000Y25040000D01*
X-31800000Y22960000D02*
X-31800000Y20557000D01*
X-31760000Y27418000D02*
X-31760000Y25040000D01*
X-31760000Y22960000D02*
X-31760000Y20582000D01*
X-31720000Y27392000D02*
X-31720000Y25040000D01*
X-31720000Y22960000D02*
X-31720000Y20608000D01*
X-31680000Y27365000D02*
X-31680000Y25040000D01*
X-31680000Y22960000D02*
X-31680000Y20635000D01*
X-31640000Y27337000D02*
X-31640000Y25040000D01*
X-31640000Y22960000D02*
X-31640000Y20663000D01*
X-31600000Y27309000D02*
X-31600000Y25040000D01*
X-31600000Y22960000D02*
X-31600000Y20691000D01*
X-31560000Y27280000D02*
X-31560000Y25040000D01*
X-31560000Y22960000D02*
X-31560000Y20720000D01*
X-31520000Y27250000D02*
X-31520000Y25040000D01*
X-31520000Y22960000D02*
X-31520000Y20750000D01*
X-31480000Y27219000D02*
X-31480000Y25040000D01*
X-31480000Y22960000D02*
X-31480000Y20781000D01*
X-31440000Y27188000D02*
X-31440000Y25040000D01*
X-31440000Y22960000D02*
X-31440000Y20812000D01*
X-31400000Y27156000D02*
X-31400000Y25040000D01*
X-31400000Y22960000D02*
X-31400000Y20844000D01*
X-31360000Y27123000D02*
X-31360000Y25040000D01*
X-31360000Y22960000D02*
X-31360000Y20877000D01*
X-31320000Y27089000D02*
X-31320000Y25040000D01*
X-31320000Y22960000D02*
X-31320000Y20911000D01*
X-31280000Y27055000D02*
X-31280000Y25040000D01*
X-31280000Y22960000D02*
X-31280000Y20945000D01*
X-31240000Y27019000D02*
X-31240000Y25040000D01*
X-31240000Y22960000D02*
X-31240000Y20981000D01*
X-31200000Y26982000D02*
X-31200000Y21018000D01*
X-31160000Y26945000D02*
X-31160000Y21055000D01*
X-31120000Y26906000D02*
X-31120000Y21094000D01*
X-31080000Y26867000D02*
X-31080000Y21133000D01*
X-31040000Y26826000D02*
X-31040000Y21174000D01*
X-31000000Y26784000D02*
X-31000000Y21216000D01*
X-30960000Y26741000D02*
X-30960000Y21259000D01*
X-30920000Y26696000D02*
X-30920000Y21304000D01*
X-30880000Y26651000D02*
X-30880000Y21349000D01*
X-30840000Y26604000D02*
X-30840000Y21396000D01*
X-30800000Y26555000D02*
X-30800000Y21445000D01*
X-30760000Y26505000D02*
X-30760000Y21495000D01*
X-30720000Y26453000D02*
X-30720000Y21547000D01*
X-30680000Y26400000D02*
X-30680000Y21600000D01*
X-30640000Y26344000D02*
X-30640000Y21656000D01*
X-30600000Y26287000D02*
X-30600000Y21713000D01*
X-30560000Y26227000D02*
X-30560000Y21773000D01*
X-30520000Y26165000D02*
X-30520000Y21835000D01*
X-30480000Y26101000D02*
X-30480000Y21899000D01*
X-30440000Y26034000D02*
X-30440000Y21966000D01*
X-30400000Y25964000D02*
X-30400000Y22036000D01*
X-30360000Y25890000D02*
X-30360000Y22110000D01*
X-30320000Y25813000D02*
X-30320000Y22187000D01*
X-30280000Y25731000D02*
X-30280000Y22269000D01*
X-30240000Y25644000D02*
X-30240000Y22356000D01*
X-30200000Y25552000D02*
X-30200000Y22448000D01*
X-30160000Y25453000D02*
X-30160000Y22547000D01*
X-30120000Y25346000D02*
X-30120000Y22654000D01*
X-30080000Y25228000D02*
X-30080000Y22772000D01*
X-30040000Y25097000D02*
X-30040000Y22903000D01*
X-30000000Y24947000D02*
X-30000000Y23053000D01*
X-29960000Y24768000D02*
X-29960000Y23232000D01*
X-29920000Y24533000D02*
X-29920000Y23467000D01*
X-29880000Y24000000D02*
G75*
G02*
X-38120000Y24000000I-4120000J0D01*
G01*
X-38120000Y24000000D02*
G75*
G02*
X-29880000Y24000000I4120000J0D01*
G01*
%TO.C,U1*%
X-38825000Y39200000D02*
X-38825000Y38250000D01*
X-38825000Y28800000D02*
X-38825000Y29750000D01*
X-37460000Y39200000D02*
X-38825000Y39200000D01*
X-37460000Y28800000D02*
X-38825000Y28800000D01*
X-41650000Y38210000D02*
X-41990000Y38680000D01*
X-41310000Y38680000D01*
X-41650000Y38210000D01*
G36*
X-41650000Y38210000D02*
G01*
X-41990000Y38680000D01*
X-41310000Y38680000D01*
X-41650000Y38210000D01*
G37*
%TO.C,D2*%
X-1510000Y38650000D02*
X-1510000Y35350000D01*
X-1510000Y38650000D02*
X4000000Y38650000D01*
X-1510000Y35350000D02*
X4000000Y35350000D01*
%TO.C,L1*%
X6390000Y39610000D02*
X11610000Y39610000D01*
X6390000Y39360000D02*
X6390000Y39610000D01*
X6390000Y34390000D02*
X6390000Y34640000D01*
X11610000Y39610000D02*
X11610000Y39360000D01*
X11610000Y34640000D02*
X11610000Y34390000D01*
X11610000Y34390000D02*
X6390000Y34390000D01*
%TO.C,C4*%
X21499759Y48839000D02*
X22129759Y48839000D01*
X21814759Y49154000D02*
X21814759Y48524000D01*
X25000000Y50230000D02*
X25000000Y43770000D01*
X25040000Y50230000D02*
X25040000Y43770000D01*
X25080000Y50229000D02*
X25080000Y43771000D01*
X25120000Y50228000D02*
X25120000Y43772000D01*
X25160000Y50226000D02*
X25160000Y43774000D01*
X25200000Y50224000D02*
X25200000Y43776000D01*
X25240000Y50221000D02*
X25240000Y48040000D01*
X25240000Y45960000D02*
X25240000Y43779000D01*
X25280000Y50218000D02*
X25280000Y48040000D01*
X25280000Y45960000D02*
X25280000Y43782000D01*
X25320000Y50214000D02*
X25320000Y48040000D01*
X25320000Y45960000D02*
X25320000Y43786000D01*
X25360000Y50210000D02*
X25360000Y48040000D01*
X25360000Y45960000D02*
X25360000Y43790000D01*
X25400000Y50205000D02*
X25400000Y48040000D01*
X25400000Y45960000D02*
X25400000Y43795000D01*
X25440000Y50200000D02*
X25440000Y48040000D01*
X25440000Y45960000D02*
X25440000Y43800000D01*
X25480000Y50195000D02*
X25480000Y48040000D01*
X25480000Y45960000D02*
X25480000Y43805000D01*
X25520000Y50188000D02*
X25520000Y48040000D01*
X25520000Y45960000D02*
X25520000Y43812000D01*
X25560000Y50182000D02*
X25560000Y48040000D01*
X25560000Y45960000D02*
X25560000Y43818000D01*
X25600000Y50174000D02*
X25600000Y48040000D01*
X25600000Y45960000D02*
X25600000Y43826000D01*
X25640000Y50167000D02*
X25640000Y48040000D01*
X25640000Y45960000D02*
X25640000Y43833000D01*
X25680000Y50159000D02*
X25680000Y48040000D01*
X25680000Y45960000D02*
X25680000Y43841000D01*
X25720000Y50150000D02*
X25720000Y48040000D01*
X25720000Y45960000D02*
X25720000Y43850000D01*
X25760000Y50140000D02*
X25760000Y48040000D01*
X25760000Y45960000D02*
X25760000Y43860000D01*
X25800000Y50131000D02*
X25800000Y48040000D01*
X25800000Y45960000D02*
X25800000Y43869000D01*
X25840000Y50120000D02*
X25840000Y48040000D01*
X25840000Y45960000D02*
X25840000Y43880000D01*
X25880000Y50109000D02*
X25880000Y48040000D01*
X25880000Y45960000D02*
X25880000Y43891000D01*
X25920000Y50098000D02*
X25920000Y48040000D01*
X25920000Y45960000D02*
X25920000Y43902000D01*
X25960000Y50086000D02*
X25960000Y48040000D01*
X25960000Y45960000D02*
X25960000Y43914000D01*
X26000000Y50073000D02*
X26000000Y48040000D01*
X26000000Y45960000D02*
X26000000Y43927000D01*
X26040000Y50060000D02*
X26040000Y48040000D01*
X26040000Y45960000D02*
X26040000Y43940000D01*
X26080000Y50047000D02*
X26080000Y48040000D01*
X26080000Y45960000D02*
X26080000Y43953000D01*
X26120000Y50032000D02*
X26120000Y48040000D01*
X26120000Y45960000D02*
X26120000Y43968000D01*
X26160000Y50017000D02*
X26160000Y48040000D01*
X26160000Y45960000D02*
X26160000Y43983000D01*
X26200000Y50002000D02*
X26200000Y48040000D01*
X26200000Y45960000D02*
X26200000Y43998000D01*
X26240000Y49986000D02*
X26240000Y48040000D01*
X26240000Y45960000D02*
X26240000Y44014000D01*
X26280000Y49969000D02*
X26280000Y48040000D01*
X26280000Y45960000D02*
X26280000Y44031000D01*
X26320000Y49952000D02*
X26320000Y48040000D01*
X26320000Y45960000D02*
X26320000Y44048000D01*
X26360000Y49934000D02*
X26360000Y48040000D01*
X26360000Y45960000D02*
X26360000Y44066000D01*
X26400000Y49915000D02*
X26400000Y48040000D01*
X26400000Y45960000D02*
X26400000Y44085000D01*
X26440000Y49896000D02*
X26440000Y48040000D01*
X26440000Y45960000D02*
X26440000Y44104000D01*
X26480000Y49876000D02*
X26480000Y48040000D01*
X26480000Y45960000D02*
X26480000Y44124000D01*
X26520000Y49855000D02*
X26520000Y48040000D01*
X26520000Y45960000D02*
X26520000Y44145000D01*
X26560000Y49834000D02*
X26560000Y48040000D01*
X26560000Y45960000D02*
X26560000Y44166000D01*
X26600000Y49812000D02*
X26600000Y48040000D01*
X26600000Y45960000D02*
X26600000Y44188000D01*
X26640000Y49789000D02*
X26640000Y48040000D01*
X26640000Y45960000D02*
X26640000Y44211000D01*
X26680000Y49765000D02*
X26680000Y48040000D01*
X26680000Y45960000D02*
X26680000Y44235000D01*
X26720000Y49741000D02*
X26720000Y48040000D01*
X26720000Y45960000D02*
X26720000Y44259000D01*
X26760000Y49716000D02*
X26760000Y48040000D01*
X26760000Y45960000D02*
X26760000Y44284000D01*
X26800000Y49690000D02*
X26800000Y48040000D01*
X26800000Y45960000D02*
X26800000Y44310000D01*
X26840000Y49663000D02*
X26840000Y48040000D01*
X26840000Y45960000D02*
X26840000Y44337000D01*
X26880000Y49636000D02*
X26880000Y48040000D01*
X26880000Y45960000D02*
X26880000Y44364000D01*
X26920000Y49607000D02*
X26920000Y48040000D01*
X26920000Y45960000D02*
X26920000Y44393000D01*
X26960000Y49577000D02*
X26960000Y48040000D01*
X26960000Y45960000D02*
X26960000Y44423000D01*
X27000000Y49547000D02*
X27000000Y48040000D01*
X27000000Y45960000D02*
X27000000Y44453000D01*
X27040000Y49516000D02*
X27040000Y48040000D01*
X27040000Y45960000D02*
X27040000Y44484000D01*
X27080000Y49483000D02*
X27080000Y48040000D01*
X27080000Y45960000D02*
X27080000Y44517000D01*
X27120000Y49450000D02*
X27120000Y48040000D01*
X27120000Y45960000D02*
X27120000Y44550000D01*
X27160000Y49415000D02*
X27160000Y48040000D01*
X27160000Y45960000D02*
X27160000Y44585000D01*
X27200000Y49379000D02*
X27200000Y48040000D01*
X27200000Y45960000D02*
X27200000Y44621000D01*
X27240000Y49342000D02*
X27240000Y48040000D01*
X27240000Y45960000D02*
X27240000Y44658000D01*
X27280000Y49304000D02*
X27280000Y48040000D01*
X27280000Y45960000D02*
X27280000Y44696000D01*
X27320000Y49264000D02*
X27320000Y44736000D01*
X27360000Y49223000D02*
X27360000Y44777000D01*
X27400000Y49181000D02*
X27400000Y44819000D01*
X27440000Y49137000D02*
X27440000Y44863000D01*
X27480000Y49091000D02*
X27480000Y44909000D01*
X27520000Y49044000D02*
X27520000Y44956000D01*
X27560000Y48995000D02*
X27560000Y45005000D01*
X27600000Y48943000D02*
X27600000Y45057000D01*
X27640000Y48890000D02*
X27640000Y45110000D01*
X27680000Y48834000D02*
X27680000Y45166000D01*
X27720000Y48775000D02*
X27720000Y45225000D01*
X27760000Y48714000D02*
X27760000Y45286000D01*
X27800000Y48649000D02*
X27800000Y45351000D01*
X27840000Y48581000D02*
X27840000Y45419000D01*
X27880000Y48509000D02*
X27880000Y45491000D01*
X27920000Y48432000D02*
X27920000Y45568000D01*
X27960000Y48350000D02*
X27960000Y45650000D01*
X28000000Y48261000D02*
X28000000Y45739000D01*
X28040000Y48165000D02*
X28040000Y45835000D01*
X28080000Y48058000D02*
X28080000Y45942000D01*
X28120000Y47939000D02*
X28120000Y46061000D01*
X28160000Y47801000D02*
X28160000Y46199000D01*
X28200000Y47633000D02*
X28200000Y46367000D01*
X28240000Y47402000D02*
X28240000Y46598000D01*
X28270000Y47000000D02*
G75*
G02*
X21730000Y47000000I-3270000J0D01*
G01*
X21730000Y47000000D02*
G75*
G02*
X28270000Y47000000I3270000J0D01*
G01*
%TO.C,U2*%
X-1350000Y44660000D02*
X-2400000Y44660000D01*
X-1350000Y42340000D02*
X-2650000Y42340000D01*
X-2760000Y44660000D02*
X-3040000Y44660000D01*
X-2760000Y44940000D01*
X-2760000Y44660000D01*
G36*
X-2760000Y44660000D02*
G01*
X-3040000Y44660000D01*
X-2760000Y44940000D01*
X-2760000Y44660000D01*
G37*
%TO.C,L2*%
X1390000Y46610000D02*
X6610000Y46610000D01*
X1390000Y46360000D02*
X1390000Y46610000D01*
X1390000Y41390000D02*
X1390000Y41640000D01*
X6610000Y46610000D02*
X6610000Y46360000D01*
X6610000Y41640000D02*
X6610000Y41390000D01*
X6610000Y41390000D02*
X1390000Y41390000D01*
%TO.C,R2*%
X9762742Y44522500D02*
X10237258Y44522500D01*
X9762742Y43477500D02*
X10237258Y43477500D01*
%TO.C,R3*%
X12762742Y44522500D02*
X13237258Y44522500D01*
X12762742Y43477500D02*
X13237258Y43477500D01*
%TO.C,C13*%
X-14140580Y30510000D02*
X-13859420Y30510000D01*
X-14140580Y29490000D02*
X-13859420Y29490000D01*
%TO.C,C14*%
X-6140580Y30510000D02*
X-5859420Y30510000D01*
X-6140580Y29490000D02*
X-5859420Y29490000D01*
%TO.C,C9*%
X-261252Y30735000D02*
X261252Y30735000D01*
X-261252Y29265000D02*
X261252Y29265000D01*
%TO.C,C17*%
X3859420Y30510000D02*
X4140580Y30510000D01*
X3859420Y29490000D02*
X4140580Y29490000D01*
%TO.C,R5*%
X7762742Y30522500D02*
X8237258Y30522500D01*
X7762742Y29477500D02*
X8237258Y29477500D01*
%TO.C,R6*%
X10762742Y30522500D02*
X11237258Y30522500D01*
X10762742Y29477500D02*
X11237258Y29477500D01*
%TO.C,R7*%
X13762742Y30522500D02*
X14237258Y30522500D01*
X13762742Y29477500D02*
X14237258Y29477500D01*
%TO.C,C5*%
X-25261252Y46735000D02*
X-24738748Y46735000D01*
X-25261252Y45265000D02*
X-24738748Y45265000D01*
%TO.C,C15*%
X-18640580Y46510000D02*
X-18359420Y46510000D01*
X-18640580Y45490000D02*
X-18359420Y45490000D01*
%TO.C,C6*%
X-14261252Y46735000D02*
X-13738748Y46735000D01*
X-14261252Y45265000D02*
X-13738748Y45265000D01*
%TO.C,C16*%
X-10140580Y46510000D02*
X-9859420Y46510000D01*
X-10140580Y45490000D02*
X-9859420Y45490000D01*
%TO.C,C7*%
X-6140580Y46510000D02*
X-5859420Y46510000D01*
X-6140580Y45490000D02*
X-5859420Y45490000D01*
%TO.C,C8*%
X-2140580Y46510000D02*
X-1859420Y46510000D01*
X-2140580Y45490000D02*
X-1859420Y45490000D01*
%TO.C,C2*%
X-46261252Y25735000D02*
X-45738748Y25735000D01*
X-46261252Y24265000D02*
X-45738748Y24265000D01*
%TO.C,C10*%
X45859420Y-31490000D02*
X46140580Y-31490000D01*
X45859420Y-32510000D02*
X46140580Y-32510000D01*
%TO.C,C11*%
X-42140580Y-13490000D02*
X-41859420Y-13490000D01*
X-42140580Y-14510000D02*
X-41859420Y-14510000D01*
%TO.C,C12*%
X-25140580Y-22490000D02*
X-24859420Y-22490000D01*
X-25140580Y-23510000D02*
X-24859420Y-23510000D01*
%TD*%
%LPC*%
D13*
%TO.C,H1*%
X47631397Y-27500000D03*
%TD*%
%TO.C,H2*%
X-47631397Y-27500000D03*
%TD*%
%TO.C,H3*%
X0Y55000000D03*
%TD*%
D14*
%TO.C,ZT1*%
X20500000Y0D03*
%TD*%
%TO.C,ZT2*%
X52100000Y0D03*
%TD*%
%TO.C,ZT3*%
X20500000Y8000000D03*
%TD*%
%TO.C,ZT4*%
X52100000Y8000000D03*
%TD*%
D15*
%TO.C,J3*%
X32875000Y-25150000D03*
X34125000Y-25150000D03*
X35375000Y-25150000D03*
X36625000Y-25150000D03*
X37875000Y-25150000D03*
X39125000Y-25150000D03*
D16*
X31025000Y-28350000D03*
X40975000Y-28350000D03*
%TD*%
D17*
%TO.C,J4*%
X-44740000Y-19050000D03*
D18*
X-46010000Y-19050000D03*
X-47280000Y-19050000D03*
X-48550000Y-19050000D03*
X-49820000Y-19050000D03*
%TD*%
D19*
%TO.C,J1*%
X5080000Y-22400000D03*
D20*
X0Y-22400000D03*
X-5080000Y-22400000D03*
%TD*%
D21*
%TO.C,J9*%
X33150000Y-41690000D03*
X32150000Y-41690000D03*
X31150000Y-41690000D03*
X30150000Y-41690000D03*
D22*
X34450000Y-37815000D03*
X28850000Y-37815000D03*
%TD*%
D23*
%TO.C,J10*%
X9400000Y-41000000D03*
D24*
X9400000Y-38460000D03*
X9400000Y-35920000D03*
X9400000Y-33380000D03*
X9400000Y-30840000D03*
X9400000Y-28300000D03*
%TD*%
D23*
%TO.C,J5*%
X-22390000Y25970000D03*
D24*
X-19850000Y25970000D03*
X-17310000Y25970000D03*
X-14770000Y25970000D03*
X-12230000Y25970000D03*
X-9690000Y25970000D03*
X-7150000Y25970000D03*
X-4610000Y25970000D03*
X-2070000Y25970000D03*
X470000Y25970000D03*
X3010000Y25970000D03*
X5550000Y25970000D03*
X8090000Y25970000D03*
X10630000Y25970000D03*
X13170000Y25970000D03*
%TD*%
D23*
%TO.C,J6*%
X-22390000Y48830000D03*
D24*
X-19850000Y48830000D03*
X-17310000Y48830000D03*
X-14770000Y48830000D03*
X-12230000Y48830000D03*
X-9690000Y48830000D03*
X-7150000Y48830000D03*
X-4610000Y48830000D03*
X-2070000Y48830000D03*
X470000Y48830000D03*
X3010000Y48830000D03*
X5550000Y48830000D03*
X8090000Y48830000D03*
X10630000Y48830000D03*
X13170000Y48830000D03*
%TD*%
D23*
%TO.C,J7*%
X-14030000Y-38100000D03*
D24*
X-14030000Y-35560000D03*
X-14030000Y-33020000D03*
X-14030000Y-30480000D03*
X-14030000Y-27940000D03*
X-14030000Y-25400000D03*
X-14030000Y-22860000D03*
X-14030000Y-20320000D03*
%TD*%
D23*
%TO.C,J8*%
X-36890000Y-38100000D03*
D24*
X-36890000Y-35560000D03*
X-36890000Y-33020000D03*
X-36890000Y-30480000D03*
X-36890000Y-27940000D03*
X-36890000Y-25400000D03*
X-36890000Y-22860000D03*
X-36890000Y-20320000D03*
%TD*%
D25*
%TO.C,D11*%
X10150000Y1425000D03*
X10150000Y475000D03*
X10150000Y-475000D03*
X10150000Y-1425000D03*
%TD*%
D26*
%TO.C,C20*%
X7600000Y480000D03*
X7600000Y-480000D03*
%TD*%
D27*
%TO.C,D12*%
X9502657Y-3840914D03*
X9027657Y-4663638D03*
X8552657Y-5486362D03*
X8077657Y-6309086D03*
%TD*%
D28*
%TO.C,C21*%
X6821793Y-3384308D03*
X6341793Y-4215692D03*
%TD*%
D29*
%TO.C,D13*%
X6309086Y-8077657D03*
X5486362Y-8552657D03*
X4663638Y-9027657D03*
X3840914Y-9502657D03*
%TD*%
D30*
%TO.C,C22*%
X4215692Y-6341793D03*
X3384308Y-6821793D03*
%TD*%
D31*
%TO.C,D15*%
X-3840914Y-9502657D03*
X-4663638Y-9027657D03*
X-5486362Y-8552657D03*
X-6309086Y-8077657D03*
%TD*%
D32*
%TO.C,C24*%
X-3384308Y-6821793D03*
X-4215692Y-6341793D03*
%TD*%
D33*
%TO.C,D16*%
X-8077657Y-6309086D03*
X-8552657Y-5486362D03*
X-9027657Y-4663638D03*
X-9502657Y-3840914D03*
%TD*%
D34*
%TO.C,C25*%
X-6341793Y-4215692D03*
X-6821793Y-3384308D03*
%TD*%
D25*
%TO.C,D17*%
X-10150000Y-1425000D03*
X-10150000Y-475000D03*
X-10150000Y475000D03*
X-10150000Y1425000D03*
%TD*%
D35*
%TO.C,C26*%
X-7600000Y-480000D03*
X-7600000Y480000D03*
%TD*%
D36*
%TO.C,D18*%
X-9502657Y3840914D03*
X-9027657Y4663638D03*
X-8552657Y5486362D03*
X-8077657Y6309086D03*
%TD*%
D37*
%TO.C,C27*%
X-6821793Y3384308D03*
X-6341793Y4215692D03*
%TD*%
D38*
%TO.C,D19*%
X-6309086Y8077657D03*
X-5486362Y8552657D03*
X-4663638Y9027657D03*
X-3840914Y9502657D03*
%TD*%
D39*
%TO.C,C28*%
X-4215692Y6341793D03*
X-3384308Y6821793D03*
%TD*%
D40*
%TO.C,D20*%
X-1425000Y10150000D03*
X-475000Y10150000D03*
X475000Y10150000D03*
X1425000Y10150000D03*
%TD*%
D41*
%TO.C,C29*%
X-480000Y7600000D03*
X480000Y7600000D03*
%TD*%
D42*
%TO.C,D21*%
X3840914Y9502657D03*
X4663638Y9027657D03*
X5486362Y8552657D03*
X6309086Y8077657D03*
%TD*%
D43*
%TO.C,C30*%
X3384308Y6821793D03*
X4215692Y6341793D03*
%TD*%
D44*
%TO.C,D22*%
X8077657Y6309086D03*
X8552657Y5486362D03*
X9027657Y4663638D03*
X9502657Y3840914D03*
%TD*%
D45*
%TO.C,C31*%
X6341793Y4215692D03*
X6821793Y3384308D03*
%TD*%
D46*
%TO.C,D1*%
X18150000Y-9500000D03*
X13850000Y-9500000D03*
%TD*%
D47*
%TO.C,Q1*%
X26062500Y-24050000D03*
X26062500Y-25950000D03*
X27937500Y-25000000D03*
%TD*%
D48*
%TO.C,D3*%
X25950000Y-28000000D03*
X28050000Y-28000000D03*
%TD*%
D49*
%TO.C,F1*%
X50612500Y-9000000D03*
X57387500Y-9000000D03*
%TD*%
D50*
%TO.C,R1*%
X24175000Y-33000000D03*
X25825000Y-33000000D03*
%TD*%
%TO.C,R4*%
X24175000Y-35500000D03*
X25825000Y-35500000D03*
%TD*%
D51*
%TO.C,C1*%
X38250000Y-36000000D03*
D52*
X41750000Y-36000000D03*
%TD*%
D51*
%TO.C,C3*%
X-35750000Y24000000D03*
D52*
X-32250000Y24000000D03*
%TD*%
D53*
%TO.C,U1*%
X-41650000Y37400000D03*
X-41650000Y35700000D03*
X-41650000Y34000000D03*
X-41650000Y32300000D03*
X-41650000Y30600000D03*
D54*
X-32500000Y34000000D03*
%TD*%
D55*
%TO.C,D2*%
X0Y37000000D03*
X4000000Y37000000D03*
%TD*%
D56*
%TO.C,L1*%
X7350000Y37000000D03*
X10650000Y37000000D03*
%TD*%
D51*
%TO.C,C4*%
X23750000Y47000000D03*
D52*
X26250000Y47000000D03*
%TD*%
D57*
%TO.C,U2*%
X-2740000Y44250000D03*
X-2740000Y43750000D03*
X-2740000Y43250000D03*
X-2740000Y42750000D03*
X-1260000Y42750000D03*
X-1260000Y43250000D03*
X-1260000Y43750000D03*
X-1260000Y44250000D03*
%TD*%
D56*
%TO.C,L2*%
X2350000Y44000000D03*
X5650000Y44000000D03*
%TD*%
D50*
%TO.C,R2*%
X9175000Y44000000D03*
X10825000Y44000000D03*
%TD*%
%TO.C,R3*%
X12175000Y44000000D03*
X13825000Y44000000D03*
%TD*%
D58*
%TO.C,C13*%
X-14775000Y30000000D03*
X-13225000Y30000000D03*
%TD*%
%TO.C,C14*%
X-6775000Y30000000D03*
X-5225000Y30000000D03*
%TD*%
D59*
%TO.C,C9*%
X-950000Y30000000D03*
X950000Y30000000D03*
%TD*%
D58*
%TO.C,C17*%
X3225000Y30000000D03*
X4775000Y30000000D03*
%TD*%
D50*
%TO.C,R5*%
X7175000Y30000000D03*
X8825000Y30000000D03*
%TD*%
%TO.C,R6*%
X10175000Y30000000D03*
X11825000Y30000000D03*
%TD*%
%TO.C,R7*%
X13175000Y30000000D03*
X14825000Y30000000D03*
%TD*%
D59*
%TO.C,C5*%
X-25950000Y46000000D03*
X-24050000Y46000000D03*
%TD*%
D58*
%TO.C,C15*%
X-19275000Y46000000D03*
X-17725000Y46000000D03*
%TD*%
D59*
%TO.C,C6*%
X-14950000Y46000000D03*
X-13050000Y46000000D03*
%TD*%
D58*
%TO.C,C16*%
X-10775000Y46000000D03*
X-9225000Y46000000D03*
%TD*%
%TO.C,C7*%
X-6775000Y46000000D03*
X-5225000Y46000000D03*
%TD*%
%TO.C,C8*%
X-2775000Y46000000D03*
X-1225000Y46000000D03*
%TD*%
D59*
%TO.C,C2*%
X-46950000Y25000000D03*
X-45050000Y25000000D03*
%TD*%
D58*
%TO.C,C10*%
X45225000Y-32000000D03*
X46775000Y-32000000D03*
%TD*%
%TO.C,C11*%
X-42775000Y-14000000D03*
X-41225000Y-14000000D03*
%TD*%
%TO.C,C12*%
X-25775000Y-23000000D03*
X-24225000Y-23000000D03*
%TD*%
D23*
%TO.C,J2*%
X-54000000Y8000000D03*
D24*
X-54000000Y5460000D03*
X-54000000Y2920000D03*
X-54000000Y380000D03*
X-54000000Y-2160000D03*
X-54000000Y-4700000D03*
%TD*%
%LPD*%
M02*
