%TF.GenerationSoftware,KiCad,Pcbnew,10.0.2*%
%TF.CreationDate,2026-05-15T22:36:33+02:00*%
%TF.ProjectId,oas,6f61732e-6b69-4636-9164-5f7063625858,rev?*%
%TF.SameCoordinates,Original*%
%TF.FileFunction,Legend,Top*%
%TF.FilePolarity,Positive*%
%FSLAX46Y46*%
G04 Gerber Fmt 4.6, Leading zero omitted, Abs format (unit mm)*
G04 Created by KiCad (PCBNEW 10.0.2) date 2026-05-15 22:36:33*
%MOMM*%
%LPD*%
G01*
G04 APERTURE LIST*
G04 Aperture macros list*
%AMRoundRect*
0 Rectangle with rounded corners*
0 $1 Rounding radius*
0 $2 $3 $4 $5 $6 $7 $8 $9 X,Y pos of 4 corners*
0 Add a 4 corners polygon primitive as box body*
4,1,4,$2,$3,$4,$5,$6,$7,$8,$9,$2,$3,0*
0 Add four circle primitives for the rounded corners*
1,1,$1+$1,$2,$3*
1,1,$1+$1,$4,$5*
1,1,$1+$1,$6,$7*
1,1,$1+$1,$8,$9*
0 Add four rect primitives between the rounded corners*
20,1,$1+$1,$2,$3,$4,$5,0*
20,1,$1+$1,$4,$5,$6,$7,0*
20,1,$1+$1,$6,$7,$8,$9,0*
20,1,$1+$1,$8,$9,$2,$3,0*%
%AMRotRect*
0 Rectangle, with rotation*
0 The origin of the aperture is its center*
0 $1 length*
0 $2 width*
0 $3 Rotation angle, in degrees counterclockwise*
0 Add horizontal line*
21,1,$1,$2,0,0,$3*%
G04 Aperture macros list end*
%ADD10C,0.150000*%
%ADD11C,0.120000*%
%ADD12C,0.190000*%
%ADD13C,0.450000*%
%ADD14C,3.800000*%
%ADD15C,3.000000*%
%ADD16RoundRect,0.150000X-0.150000X-0.700000X0.150000X-0.700000X0.150000X0.700000X-0.150000X0.700000X0*%
%ADD17RoundRect,0.250000X-0.250000X-1.100000X0.250000X-1.100000X0.250000X1.100000X-0.250000X1.100000X0*%
%ADD18R,1.000000X1.000000*%
%ADD19C,1.000000*%
%ADD20RoundRect,0.249999X0.790001X1.550001X-0.790001X1.550001X-0.790001X-1.550001X0.790001X-1.550001X0*%
%ADD21O,2.080000X3.600000*%
%ADD22RoundRect,0.150000X0.150000X0.625000X-0.150000X0.625000X-0.150000X-0.625000X0.150000X-0.625000X0*%
%ADD23RoundRect,0.250000X0.350000X0.650000X-0.350000X0.650000X-0.350000X-0.650000X0.350000X-0.650000X0*%
%ADD24R,1.700000X1.700000*%
%ADD25C,1.700000*%
%ADD26R,1.000000X0.600000*%
%ADD27R,0.700000X0.620000*%
%ADD28RotRect,0.600000X1.000000X240.000000*%
%ADD29RotRect,0.620000X0.700000X240.000000*%
%ADD30RotRect,0.600000X1.000000X210.000000*%
%ADD31RotRect,0.620000X0.700000X210.000000*%
%ADD32RotRect,0.600000X1.000000X150.000000*%
%ADD33RotRect,0.620000X0.700000X150.000000*%
%ADD34RotRect,0.600000X1.000000X120.000000*%
%ADD35RotRect,0.620000X0.700000X120.000000*%
%ADD36RotRect,0.600000X1.000000X60.000000*%
%ADD37RotRect,0.620000X0.700000X60.000000*%
%ADD38RotRect,0.600000X1.000000X30.000000*%
%ADD39RotRect,0.620000X0.700000X30.000000*%
%ADD40R,0.600000X1.000000*%
%ADD41R,0.620000X0.700000*%
%ADD42RotRect,0.600000X1.000000X330.000000*%
%ADD43RotRect,0.620000X0.700000X330.000000*%
%ADD44RotRect,0.600000X1.000000X300.000000*%
%ADD45RotRect,0.620000X0.700000X300.000000*%
%ADD46RoundRect,0.550000X0.800000X0.550000X-0.800000X0.550000X-0.800000X-0.550000X0.800000X-0.550000X0*%
%ADD47RoundRect,0.150000X-0.350000X-0.150000X0.350000X-0.150000X0.350000X0.150000X-0.350000X0.150000X0*%
%ADD48RoundRect,0.225000X-0.225000X-0.225000X0.225000X-0.225000X0.225000X0.225000X-0.225000X0.225000X0*%
%ADD49RoundRect,0.500000X-0.500000X-2.200000X0.500000X-2.200000X0.500000X2.200000X-0.500000X2.200000X0*%
%ADD50RoundRect,0.237500X-0.237500X-0.237500X0.237500X-0.237500X0.237500X0.237500X-0.237500X0.237500X0*%
%ADD51R,1.600000X1.600000*%
%ADD52C,1.600000*%
%ADD53RoundRect,0.300000X-0.300000X-1.050000X0.300000X-1.050000X0.300000X1.050000X-0.300000X1.050000X0*%
%ADD54RoundRect,0.300000X-3.900000X-2.700000X3.900000X-2.700000X3.900000X2.700000X-3.900000X2.700000X0*%
%ADD55RoundRect,0.425000X-0.775000X-0.425000X0.775000X-0.425000X0.775000X0.425000X-0.775000X0.425000X0*%
%ADD56RoundRect,0.450000X-0.450000X-1.750000X0.450000X-1.750000X0.450000X1.750000X-0.450000X1.750000X0*%
%ADD57RoundRect,0.075000X-0.075000X-0.100000X0.075000X-0.100000X0.075000X0.100000X-0.075000X0.100000X0*%
%ADD58RoundRect,0.287500X-0.287500X-0.412500X0.287500X-0.412500X0.287500X0.412500X-0.287500X0.412500X0*%
G04 APERTURE END LIST*
D10*
X29799999Y2592800D02*
X29942856Y2545181D01*
X29942856Y2545181D02*
X30180951Y2545181D01*
X30180951Y2545181D02*
X30276189Y2592800D01*
X30276189Y2592800D02*
X30323808Y2640420D01*
X30323808Y2640420D02*
X30371427Y2735658D01*
X30371427Y2735658D02*
X30371427Y2830896D01*
X30371427Y2830896D02*
X30323808Y2926134D01*
X30323808Y2926134D02*
X30276189Y2973753D01*
X30276189Y2973753D02*
X30180951Y3021372D01*
X30180951Y3021372D02*
X29990475Y3068991D01*
X29990475Y3068991D02*
X29895237Y3116610D01*
X29895237Y3116610D02*
X29847618Y3164229D01*
X29847618Y3164229D02*
X29799999Y3259467D01*
X29799999Y3259467D02*
X29799999Y3354705D01*
X29799999Y3354705D02*
X29847618Y3449943D01*
X29847618Y3449943D02*
X29895237Y3497562D01*
X29895237Y3497562D02*
X29990475Y3545181D01*
X29990475Y3545181D02*
X30228570Y3545181D01*
X30228570Y3545181D02*
X30371427Y3497562D01*
X30799999Y3068991D02*
X31133332Y3068991D01*
X31276189Y2545181D02*
X30799999Y2545181D01*
X30799999Y2545181D02*
X30799999Y3545181D01*
X30799999Y3545181D02*
X31276189Y3545181D01*
X31704761Y2545181D02*
X31704761Y3545181D01*
X31704761Y3545181D02*
X32276189Y2545181D01*
X32276189Y2545181D02*
X32276189Y3545181D01*
X33180951Y3545181D02*
X32990475Y3545181D01*
X32990475Y3545181D02*
X32895237Y3497562D01*
X32895237Y3497562D02*
X32847618Y3449943D01*
X32847618Y3449943D02*
X32752380Y3307086D01*
X32752380Y3307086D02*
X32704761Y3116610D01*
X32704761Y3116610D02*
X32704761Y2735658D01*
X32704761Y2735658D02*
X32752380Y2640420D01*
X32752380Y2640420D02*
X32799999Y2592800D01*
X32799999Y2592800D02*
X32895237Y2545181D01*
X32895237Y2545181D02*
X33085713Y2545181D01*
X33085713Y2545181D02*
X33180951Y2592800D01*
X33180951Y2592800D02*
X33228570Y2640420D01*
X33228570Y2640420D02*
X33276189Y2735658D01*
X33276189Y2735658D02*
X33276189Y2973753D01*
X33276189Y2973753D02*
X33228570Y3068991D01*
X33228570Y3068991D02*
X33180951Y3116610D01*
X33180951Y3116610D02*
X33085713Y3164229D01*
X33085713Y3164229D02*
X32895237Y3164229D01*
X32895237Y3164229D02*
X32799999Y3116610D01*
X32799999Y3116610D02*
X32752380Y3068991D01*
X32752380Y3068991D02*
X32704761Y2973753D01*
X34133332Y3545181D02*
X33942856Y3545181D01*
X33942856Y3545181D02*
X33847618Y3497562D01*
X33847618Y3497562D02*
X33799999Y3449943D01*
X33799999Y3449943D02*
X33704761Y3307086D01*
X33704761Y3307086D02*
X33657142Y3116610D01*
X33657142Y3116610D02*
X33657142Y2735658D01*
X33657142Y2735658D02*
X33704761Y2640420D01*
X33704761Y2640420D02*
X33752380Y2592800D01*
X33752380Y2592800D02*
X33847618Y2545181D01*
X33847618Y2545181D02*
X34038094Y2545181D01*
X34038094Y2545181D02*
X34133332Y2592800D01*
X34133332Y2592800D02*
X34180951Y2640420D01*
X34180951Y2640420D02*
X34228570Y2735658D01*
X34228570Y2735658D02*
X34228570Y2973753D01*
X34228570Y2973753D02*
X34180951Y3068991D01*
X34180951Y3068991D02*
X34133332Y3116610D01*
X34133332Y3116610D02*
X34038094Y3164229D01*
X34038094Y3164229D02*
X33847618Y3164229D01*
X33847618Y3164229D02*
X33752380Y3116610D01*
X33752380Y3116610D02*
X33704761Y3068991D01*
X33704761Y3068991D02*
X33657142Y2973753D01*
X35847618Y2545181D02*
X35847618Y3068991D01*
X35847618Y3068991D02*
X35799999Y3164229D01*
X35799999Y3164229D02*
X35704761Y3211848D01*
X35704761Y3211848D02*
X35514285Y3211848D01*
X35514285Y3211848D02*
X35419047Y3164229D01*
X35847618Y2592800D02*
X35752380Y2545181D01*
X35752380Y2545181D02*
X35514285Y2545181D01*
X35514285Y2545181D02*
X35419047Y2592800D01*
X35419047Y2592800D02*
X35371428Y2688039D01*
X35371428Y2688039D02*
X35371428Y2783277D01*
X35371428Y2783277D02*
X35419047Y2878515D01*
X35419047Y2878515D02*
X35514285Y2926134D01*
X35514285Y2926134D02*
X35752380Y2926134D01*
X35752380Y2926134D02*
X35847618Y2973753D01*
X36323809Y2545181D02*
X36323809Y3211848D01*
X36323809Y3545181D02*
X36276190Y3497562D01*
X36276190Y3497562D02*
X36323809Y3449943D01*
X36323809Y3449943D02*
X36371428Y3497562D01*
X36371428Y3497562D02*
X36323809Y3545181D01*
X36323809Y3545181D02*
X36323809Y3449943D01*
X36799999Y2545181D02*
X36799999Y3211848D01*
X36799999Y3021372D02*
X36847618Y3116610D01*
X36847618Y3116610D02*
X36895237Y3164229D01*
X36895237Y3164229D02*
X36990475Y3211848D01*
X36990475Y3211848D02*
X37085713Y3211848D01*
X38609523Y3211848D02*
X38609523Y2211848D01*
X38609523Y2592800D02*
X38514285Y2545181D01*
X38514285Y2545181D02*
X38323809Y2545181D01*
X38323809Y2545181D02*
X38228571Y2592800D01*
X38228571Y2592800D02*
X38180952Y2640420D01*
X38180952Y2640420D02*
X38133333Y2735658D01*
X38133333Y2735658D02*
X38133333Y3021372D01*
X38133333Y3021372D02*
X38180952Y3116610D01*
X38180952Y3116610D02*
X38228571Y3164229D01*
X38228571Y3164229D02*
X38323809Y3211848D01*
X38323809Y3211848D02*
X38514285Y3211848D01*
X38514285Y3211848D02*
X38609523Y3164229D01*
X39514285Y3211848D02*
X39514285Y2545181D01*
X39085714Y3211848D02*
X39085714Y2688039D01*
X39085714Y2688039D02*
X39133333Y2592800D01*
X39133333Y2592800D02*
X39228571Y2545181D01*
X39228571Y2545181D02*
X39371428Y2545181D01*
X39371428Y2545181D02*
X39466666Y2592800D01*
X39466666Y2592800D02*
X39514285Y2640420D01*
X40419047Y2545181D02*
X40419047Y3068991D01*
X40419047Y3068991D02*
X40371428Y3164229D01*
X40371428Y3164229D02*
X40276190Y3211848D01*
X40276190Y3211848D02*
X40085714Y3211848D01*
X40085714Y3211848D02*
X39990476Y3164229D01*
X40419047Y2592800D02*
X40323809Y2545181D01*
X40323809Y2545181D02*
X40085714Y2545181D01*
X40085714Y2545181D02*
X39990476Y2592800D01*
X39990476Y2592800D02*
X39942857Y2688039D01*
X39942857Y2688039D02*
X39942857Y2783277D01*
X39942857Y2783277D02*
X39990476Y2878515D01*
X39990476Y2878515D02*
X40085714Y2926134D01*
X40085714Y2926134D02*
X40323809Y2926134D01*
X40323809Y2926134D02*
X40419047Y2973753D01*
X41038095Y2545181D02*
X40942857Y2592800D01*
X40942857Y2592800D02*
X40895238Y2688039D01*
X40895238Y2688039D02*
X40895238Y3545181D01*
X41419048Y2545181D02*
X41419048Y3211848D01*
X41419048Y3545181D02*
X41371429Y3497562D01*
X41371429Y3497562D02*
X41419048Y3449943D01*
X41419048Y3449943D02*
X41466667Y3497562D01*
X41466667Y3497562D02*
X41419048Y3545181D01*
X41419048Y3545181D02*
X41419048Y3449943D01*
X41752381Y3211848D02*
X42133333Y3211848D01*
X41895238Y3545181D02*
X41895238Y2688039D01*
X41895238Y2688039D02*
X41942857Y2592800D01*
X41942857Y2592800D02*
X42038095Y2545181D01*
X42038095Y2545181D02*
X42133333Y2545181D01*
X42371429Y3211848D02*
X42609524Y2545181D01*
X42847619Y3211848D02*
X42609524Y2545181D01*
X42609524Y2545181D02*
X42514286Y2307086D01*
X42514286Y2307086D02*
X42466667Y2259467D01*
X42466667Y2259467D02*
X42371429Y2211848D01*
X-11666668Y-29454819D02*
X-11476192Y-29454819D01*
X-11476192Y-29454819D02*
X-11380954Y-29502438D01*
X-11380954Y-29502438D02*
X-11285716Y-29597676D01*
X-11285716Y-29597676D02*
X-11238097Y-29788152D01*
X-11238097Y-29788152D02*
X-11238097Y-30121485D01*
X-11238097Y-30121485D02*
X-11285716Y-30311961D01*
X-11285716Y-30311961D02*
X-11380954Y-30407200D01*
X-11380954Y-30407200D02*
X-11476192Y-30454819D01*
X-11476192Y-30454819D02*
X-11666668Y-30454819D01*
X-11666668Y-30454819D02*
X-11761906Y-30407200D01*
X-11761906Y-30407200D02*
X-11857144Y-30311961D01*
X-11857144Y-30311961D02*
X-11904763Y-30121485D01*
X-11904763Y-30121485D02*
X-11904763Y-29788152D01*
X-11904763Y-29788152D02*
X-11857144Y-29597676D01*
X-11857144Y-29597676D02*
X-11761906Y-29502438D01*
X-11761906Y-29502438D02*
X-11666668Y-29454819D01*
X-10809525Y-29788152D02*
X-10809525Y-30788152D01*
X-10809525Y-29835771D02*
X-10714287Y-29788152D01*
X-10714287Y-29788152D02*
X-10523811Y-29788152D01*
X-10523811Y-29788152D02*
X-10428573Y-29835771D01*
X-10428573Y-29835771D02*
X-10380954Y-29883390D01*
X-10380954Y-29883390D02*
X-10333335Y-29978628D01*
X-10333335Y-29978628D02*
X-10333335Y-30264342D01*
X-10333335Y-30264342D02*
X-10380954Y-30359580D01*
X-10380954Y-30359580D02*
X-10428573Y-30407200D01*
X-10428573Y-30407200D02*
X-10523811Y-30454819D01*
X-10523811Y-30454819D02*
X-10714287Y-30454819D01*
X-10714287Y-30454819D02*
X-10809525Y-30407200D01*
X-9523811Y-30407200D02*
X-9619049Y-30454819D01*
X-9619049Y-30454819D02*
X-9809525Y-30454819D01*
X-9809525Y-30454819D02*
X-9904763Y-30407200D01*
X-9904763Y-30407200D02*
X-9952382Y-30311961D01*
X-9952382Y-30311961D02*
X-9952382Y-29931009D01*
X-9952382Y-29931009D02*
X-9904763Y-29835771D01*
X-9904763Y-29835771D02*
X-9809525Y-29788152D01*
X-9809525Y-29788152D02*
X-9619049Y-29788152D01*
X-9619049Y-29788152D02*
X-9523811Y-29835771D01*
X-9523811Y-29835771D02*
X-9476192Y-29931009D01*
X-9476192Y-29931009D02*
X-9476192Y-30026247D01*
X-9476192Y-30026247D02*
X-9952382Y-30121485D01*
X-9047620Y-29788152D02*
X-9047620Y-30454819D01*
X-9047620Y-29883390D02*
X-9000001Y-29835771D01*
X-9000001Y-29835771D02*
X-8904763Y-29788152D01*
X-8904763Y-29788152D02*
X-8761906Y-29788152D01*
X-8761906Y-29788152D02*
X-8666668Y-29835771D01*
X-8666668Y-29835771D02*
X-8619049Y-29931009D01*
X-8619049Y-29931009D02*
X-8619049Y-30454819D01*
X-7428572Y-30169104D02*
X-6952382Y-30169104D01*
X-7523810Y-30454819D02*
X-7190477Y-29454819D01*
X-7190477Y-29454819D02*
X-6857144Y-30454819D01*
X-6523810Y-30454819D02*
X-6523810Y-29788152D01*
X-6523810Y-29883390D02*
X-6476191Y-29835771D01*
X-6476191Y-29835771D02*
X-6380953Y-29788152D01*
X-6380953Y-29788152D02*
X-6238096Y-29788152D01*
X-6238096Y-29788152D02*
X-6142858Y-29835771D01*
X-6142858Y-29835771D02*
X-6095239Y-29931009D01*
X-6095239Y-29931009D02*
X-6095239Y-30454819D01*
X-6095239Y-29931009D02*
X-6047620Y-29835771D01*
X-6047620Y-29835771D02*
X-5952382Y-29788152D01*
X-5952382Y-29788152D02*
X-5809525Y-29788152D01*
X-5809525Y-29788152D02*
X-5714286Y-29835771D01*
X-5714286Y-29835771D02*
X-5666667Y-29931009D01*
X-5666667Y-29931009D02*
X-5666667Y-30454819D01*
X-5190477Y-30454819D02*
X-5190477Y-29454819D01*
X-5190477Y-29835771D02*
X-5095239Y-29788152D01*
X-5095239Y-29788152D02*
X-4904763Y-29788152D01*
X-4904763Y-29788152D02*
X-4809525Y-29835771D01*
X-4809525Y-29835771D02*
X-4761906Y-29883390D01*
X-4761906Y-29883390D02*
X-4714287Y-29978628D01*
X-4714287Y-29978628D02*
X-4714287Y-30264342D01*
X-4714287Y-30264342D02*
X-4761906Y-30359580D01*
X-4761906Y-30359580D02*
X-4809525Y-30407200D01*
X-4809525Y-30407200D02*
X-4904763Y-30454819D01*
X-4904763Y-30454819D02*
X-5095239Y-30454819D01*
X-5095239Y-30454819D02*
X-5190477Y-30407200D01*
X-4285715Y-30454819D02*
X-4285715Y-29788152D01*
X-4285715Y-29454819D02*
X-4333334Y-29502438D01*
X-4333334Y-29502438D02*
X-4285715Y-29550057D01*
X-4285715Y-29550057D02*
X-4238096Y-29502438D01*
X-4238096Y-29502438D02*
X-4285715Y-29454819D01*
X-4285715Y-29454819D02*
X-4285715Y-29550057D01*
X-3428573Y-30407200D02*
X-3523811Y-30454819D01*
X-3523811Y-30454819D02*
X-3714287Y-30454819D01*
X-3714287Y-30454819D02*
X-3809525Y-30407200D01*
X-3809525Y-30407200D02*
X-3857144Y-30311961D01*
X-3857144Y-30311961D02*
X-3857144Y-29931009D01*
X-3857144Y-29931009D02*
X-3809525Y-29835771D01*
X-3809525Y-29835771D02*
X-3714287Y-29788152D01*
X-3714287Y-29788152D02*
X-3523811Y-29788152D01*
X-3523811Y-29788152D02*
X-3428573Y-29835771D01*
X-3428573Y-29835771D02*
X-3380954Y-29931009D01*
X-3380954Y-29931009D02*
X-3380954Y-30026247D01*
X-3380954Y-30026247D02*
X-3857144Y-30121485D01*
X-2952382Y-29788152D02*
X-2952382Y-30454819D01*
X-2952382Y-29883390D02*
X-2904763Y-29835771D01*
X-2904763Y-29835771D02*
X-2809525Y-29788152D01*
X-2809525Y-29788152D02*
X-2666668Y-29788152D01*
X-2666668Y-29788152D02*
X-2571430Y-29835771D01*
X-2571430Y-29835771D02*
X-2523811Y-29931009D01*
X-2523811Y-29931009D02*
X-2523811Y-30454819D01*
X-2190477Y-29788152D02*
X-1809525Y-29788152D01*
X-2047620Y-29454819D02*
X-2047620Y-30311961D01*
X-2047620Y-30311961D02*
X-2000001Y-30407200D01*
X-2000001Y-30407200D02*
X-1904763Y-30454819D01*
X-1904763Y-30454819D02*
X-1809525Y-30454819D01*
X-761905Y-30407200D02*
X-619048Y-30454819D01*
X-619048Y-30454819D02*
X-380953Y-30454819D01*
X-380953Y-30454819D02*
X-285715Y-30407200D01*
X-285715Y-30407200D02*
X-238096Y-30359580D01*
X-238096Y-30359580D02*
X-190477Y-30264342D01*
X-190477Y-30264342D02*
X-190477Y-30169104D01*
X-190477Y-30169104D02*
X-238096Y-30073866D01*
X-238096Y-30073866D02*
X-285715Y-30026247D01*
X-285715Y-30026247D02*
X-380953Y-29978628D01*
X-380953Y-29978628D02*
X-571429Y-29931009D01*
X-571429Y-29931009D02*
X-666667Y-29883390D01*
X-666667Y-29883390D02*
X-714286Y-29835771D01*
X-714286Y-29835771D02*
X-761905Y-29740533D01*
X-761905Y-29740533D02*
X-761905Y-29645295D01*
X-761905Y-29645295D02*
X-714286Y-29550057D01*
X-714286Y-29550057D02*
X-666667Y-29502438D01*
X-666667Y-29502438D02*
X-571429Y-29454819D01*
X-571429Y-29454819D02*
X-333334Y-29454819D01*
X-333334Y-29454819D02*
X-190477Y-29502438D01*
X619047Y-30407200D02*
X523809Y-30454819D01*
X523809Y-30454819D02*
X333333Y-30454819D01*
X333333Y-30454819D02*
X238095Y-30407200D01*
X238095Y-30407200D02*
X190476Y-30311961D01*
X190476Y-30311961D02*
X190476Y-29931009D01*
X190476Y-29931009D02*
X238095Y-29835771D01*
X238095Y-29835771D02*
X333333Y-29788152D01*
X333333Y-29788152D02*
X523809Y-29788152D01*
X523809Y-29788152D02*
X619047Y-29835771D01*
X619047Y-29835771D02*
X666666Y-29931009D01*
X666666Y-29931009D02*
X666666Y-30026247D01*
X666666Y-30026247D02*
X190476Y-30121485D01*
X1095238Y-29788152D02*
X1095238Y-30454819D01*
X1095238Y-29883390D02*
X1142857Y-29835771D01*
X1142857Y-29835771D02*
X1238095Y-29788152D01*
X1238095Y-29788152D02*
X1380952Y-29788152D01*
X1380952Y-29788152D02*
X1476190Y-29835771D01*
X1476190Y-29835771D02*
X1523809Y-29931009D01*
X1523809Y-29931009D02*
X1523809Y-30454819D01*
X1952381Y-30407200D02*
X2047619Y-30454819D01*
X2047619Y-30454819D02*
X2238095Y-30454819D01*
X2238095Y-30454819D02*
X2333333Y-30407200D01*
X2333333Y-30407200D02*
X2380952Y-30311961D01*
X2380952Y-30311961D02*
X2380952Y-30264342D01*
X2380952Y-30264342D02*
X2333333Y-30169104D01*
X2333333Y-30169104D02*
X2238095Y-30121485D01*
X2238095Y-30121485D02*
X2095238Y-30121485D01*
X2095238Y-30121485D02*
X2000000Y-30073866D01*
X2000000Y-30073866D02*
X1952381Y-29978628D01*
X1952381Y-29978628D02*
X1952381Y-29931009D01*
X1952381Y-29931009D02*
X2000000Y-29835771D01*
X2000000Y-29835771D02*
X2095238Y-29788152D01*
X2095238Y-29788152D02*
X2238095Y-29788152D01*
X2238095Y-29788152D02*
X2333333Y-29835771D01*
X2952381Y-30454819D02*
X2857143Y-30407200D01*
X2857143Y-30407200D02*
X2809524Y-30359580D01*
X2809524Y-30359580D02*
X2761905Y-30264342D01*
X2761905Y-30264342D02*
X2761905Y-29978628D01*
X2761905Y-29978628D02*
X2809524Y-29883390D01*
X2809524Y-29883390D02*
X2857143Y-29835771D01*
X2857143Y-29835771D02*
X2952381Y-29788152D01*
X2952381Y-29788152D02*
X3095238Y-29788152D01*
X3095238Y-29788152D02*
X3190476Y-29835771D01*
X3190476Y-29835771D02*
X3238095Y-29883390D01*
X3238095Y-29883390D02*
X3285714Y-29978628D01*
X3285714Y-29978628D02*
X3285714Y-30264342D01*
X3285714Y-30264342D02*
X3238095Y-30359580D01*
X3238095Y-30359580D02*
X3190476Y-30407200D01*
X3190476Y-30407200D02*
X3095238Y-30454819D01*
X3095238Y-30454819D02*
X2952381Y-30454819D01*
X3714286Y-30454819D02*
X3714286Y-29788152D01*
X3714286Y-29978628D02*
X3761905Y-29883390D01*
X3761905Y-29883390D02*
X3809524Y-29835771D01*
X3809524Y-29835771D02*
X3904762Y-29788152D01*
X3904762Y-29788152D02*
X4000000Y-29788152D01*
X-7809524Y-32454819D02*
X-7619048Y-32454819D01*
X-7619048Y-32454819D02*
X-7523810Y-32502438D01*
X-7523810Y-32502438D02*
X-7428572Y-32597676D01*
X-7428572Y-32597676D02*
X-7380953Y-32788152D01*
X-7380953Y-32788152D02*
X-7380953Y-33121485D01*
X-7380953Y-33121485D02*
X-7428572Y-33311961D01*
X-7428572Y-33311961D02*
X-7523810Y-33407200D01*
X-7523810Y-33407200D02*
X-7619048Y-33454819D01*
X-7619048Y-33454819D02*
X-7809524Y-33454819D01*
X-7809524Y-33454819D02*
X-7904762Y-33407200D01*
X-7904762Y-33407200D02*
X-8000000Y-33311961D01*
X-8000000Y-33311961D02*
X-8047619Y-33121485D01*
X-8047619Y-33121485D02*
X-8047619Y-32788152D01*
X-8047619Y-32788152D02*
X-8000000Y-32597676D01*
X-8000000Y-32597676D02*
X-7904762Y-32502438D01*
X-7904762Y-32502438D02*
X-7809524Y-32454819D01*
X-7000000Y-33169104D02*
X-6523810Y-33169104D01*
X-7095238Y-33454819D02*
X-6761905Y-32454819D01*
X-6761905Y-32454819D02*
X-6428572Y-33454819D01*
X-6142857Y-33407200D02*
X-6000000Y-33454819D01*
X-6000000Y-33454819D02*
X-5761905Y-33454819D01*
X-5761905Y-33454819D02*
X-5666667Y-33407200D01*
X-5666667Y-33407200D02*
X-5619048Y-33359580D01*
X-5619048Y-33359580D02*
X-5571429Y-33264342D01*
X-5571429Y-33264342D02*
X-5571429Y-33169104D01*
X-5571429Y-33169104D02*
X-5619048Y-33073866D01*
X-5619048Y-33073866D02*
X-5666667Y-33026247D01*
X-5666667Y-33026247D02*
X-5761905Y-32978628D01*
X-5761905Y-32978628D02*
X-5952381Y-32931009D01*
X-5952381Y-32931009D02*
X-6047619Y-32883390D01*
X-6047619Y-32883390D02*
X-6095238Y-32835771D01*
X-6095238Y-32835771D02*
X-6142857Y-32740533D01*
X-6142857Y-32740533D02*
X-6142857Y-32645295D01*
X-6142857Y-32645295D02*
X-6095238Y-32550057D01*
X-6095238Y-32550057D02*
X-6047619Y-32502438D01*
X-6047619Y-32502438D02*
X-5952381Y-32454819D01*
X-5952381Y-32454819D02*
X-5714286Y-32454819D01*
X-5714286Y-32454819D02*
X-5571429Y-32502438D01*
X-3714285Y-32788152D02*
X-3476190Y-33454819D01*
X-3476190Y-33454819D02*
X-3238095Y-32788152D01*
X-2666666Y-32454819D02*
X-2571428Y-32454819D01*
X-2571428Y-32454819D02*
X-2476190Y-32502438D01*
X-2476190Y-32502438D02*
X-2428571Y-32550057D01*
X-2428571Y-32550057D02*
X-2380952Y-32645295D01*
X-2380952Y-32645295D02*
X-2333333Y-32835771D01*
X-2333333Y-32835771D02*
X-2333333Y-33073866D01*
X-2333333Y-33073866D02*
X-2380952Y-33264342D01*
X-2380952Y-33264342D02*
X-2428571Y-33359580D01*
X-2428571Y-33359580D02*
X-2476190Y-33407200D01*
X-2476190Y-33407200D02*
X-2571428Y-33454819D01*
X-2571428Y-33454819D02*
X-2666666Y-33454819D01*
X-2666666Y-33454819D02*
X-2761904Y-33407200D01*
X-2761904Y-33407200D02*
X-2809523Y-33359580D01*
X-2809523Y-33359580D02*
X-2857142Y-33264342D01*
X-2857142Y-33264342D02*
X-2904761Y-33073866D01*
X-2904761Y-33073866D02*
X-2904761Y-32835771D01*
X-2904761Y-32835771D02*
X-2857142Y-32645295D01*
X-2857142Y-32645295D02*
X-2809523Y-32550057D01*
X-2809523Y-32550057D02*
X-2761904Y-32502438D01*
X-2761904Y-32502438D02*
X-2666666Y-32454819D01*
X-1904761Y-33359580D02*
X-1857142Y-33407200D01*
X-1857142Y-33407200D02*
X-1904761Y-33454819D01*
X-1904761Y-33454819D02*
X-1952380Y-33407200D01*
X-1952380Y-33407200D02*
X-1904761Y-33359580D01*
X-1904761Y-33359580D02*
X-1904761Y-33454819D01*
X-1000000Y-32788152D02*
X-1000000Y-33454819D01*
X-1238095Y-32407200D02*
X-1476190Y-33121485D01*
X-1476190Y-33121485D02*
X-857143Y-33121485D01*
X-285714Y-32454819D02*
X-190476Y-32454819D01*
X-190476Y-32454819D02*
X-95238Y-32502438D01*
X-95238Y-32502438D02*
X-47619Y-32550057D01*
X-47619Y-32550057D02*
X0Y-32645295D01*
X0Y-32645295D02*
X47619Y-32835771D01*
X47619Y-32835771D02*
X47619Y-33073866D01*
X47619Y-33073866D02*
X0Y-33264342D01*
X0Y-33264342D02*
X-47619Y-33359580D01*
X-47619Y-33359580D02*
X-95238Y-33407200D01*
X-95238Y-33407200D02*
X-190476Y-33454819D01*
X-190476Y-33454819D02*
X-285714Y-33454819D01*
X-285714Y-33454819D02*
X-380952Y-33407200D01*
X-380952Y-33407200D02*
X-428571Y-33359580D01*
X-428571Y-33359580D02*
X-476190Y-33264342D01*
X-476190Y-33264342D02*
X-523809Y-33073866D01*
X-523809Y-33073866D02*
X-523809Y-32835771D01*
X-523809Y-32835771D02*
X-476190Y-32645295D01*
X-476190Y-32645295D02*
X-428571Y-32550057D01*
X-428571Y-32550057D02*
X-380952Y-32502438D01*
X-380952Y-32502438D02*
X-285714Y-32454819D01*
X-46825181Y-6389047D02*
X-47825181Y-6389047D01*
X-47348991Y-6389047D02*
X-47348991Y-5817619D01*
X-46825181Y-5817619D02*
X-47825181Y-5817619D01*
X-46825181Y-4865238D02*
X-46825181Y-5341428D01*
X-46825181Y-5341428D02*
X-47825181Y-5341428D01*
X-46825181Y-4531904D02*
X-47825181Y-4531904D01*
X-46825181Y-3960476D02*
X-47396610Y-4389047D01*
X-47825181Y-3960476D02*
X-47253753Y-4531904D01*
X-47206134Y-3531904D02*
X-47206134Y-2770000D01*
X-46825181Y-1817619D02*
X-46825181Y-2293809D01*
X-46825181Y-2293809D02*
X-47825181Y-2293809D01*
X-46825181Y-1484285D02*
X-47825181Y-1484285D01*
X-47825181Y-1484285D02*
X-47825181Y-1246190D01*
X-47825181Y-1246190D02*
X-47777562Y-1103333D01*
X-47777562Y-1103333D02*
X-47682324Y-1008095D01*
X-47682324Y-1008095D02*
X-47587086Y-960476D01*
X-47587086Y-960476D02*
X-47396610Y-912857D01*
X-47396610Y-912857D02*
X-47253753Y-912857D01*
X-47253753Y-912857D02*
X-47063277Y-960476D01*
X-47063277Y-960476D02*
X-46968039Y-1008095D01*
X-46968039Y-1008095D02*
X-46872800Y-1103333D01*
X-46872800Y-1103333D02*
X-46825181Y-1246190D01*
X-46825181Y-1246190D02*
X-46825181Y-1484285D01*
X-47729943Y-531904D02*
X-47777562Y-484285D01*
X-47777562Y-484285D02*
X-47825181Y-389047D01*
X-47825181Y-389047D02*
X-47825181Y-150952D01*
X-47825181Y-150952D02*
X-47777562Y-55714D01*
X-47777562Y-55714D02*
X-47729943Y-8095D01*
X-47729943Y-8095D02*
X-47634705Y39524D01*
X-47634705Y39524D02*
X-47539467Y39524D01*
X-47539467Y39524D02*
X-47396610Y-8095D01*
X-47396610Y-8095D02*
X-46825181Y-579523D01*
X-46825181Y-579523D02*
X-46825181Y39524D01*
X-47491848Y896667D02*
X-46825181Y896667D01*
X-47872800Y658572D02*
X-47158515Y420477D01*
X-47158515Y420477D02*
X-47158515Y1039524D01*
X-46825181Y1944286D02*
X-46825181Y1372858D01*
X-46825181Y1658572D02*
X-47825181Y1658572D01*
X-47825181Y1658572D02*
X-47682324Y1563334D01*
X-47682324Y1563334D02*
X-47587086Y1468096D01*
X-47587086Y1468096D02*
X-47539467Y1372858D01*
X-47825181Y2563334D02*
X-47825181Y2658572D01*
X-47825181Y2658572D02*
X-47777562Y2753810D01*
X-47777562Y2753810D02*
X-47729943Y2801429D01*
X-47729943Y2801429D02*
X-47634705Y2849048D01*
X-47634705Y2849048D02*
X-47444229Y2896667D01*
X-47444229Y2896667D02*
X-47206134Y2896667D01*
X-47206134Y2896667D02*
X-47015658Y2849048D01*
X-47015658Y2849048D02*
X-46920420Y2801429D01*
X-46920420Y2801429D02*
X-46872800Y2753810D01*
X-46872800Y2753810D02*
X-46825181Y2658572D01*
X-46825181Y2658572D02*
X-46825181Y2563334D01*
X-46825181Y2563334D02*
X-46872800Y2468096D01*
X-46872800Y2468096D02*
X-46920420Y2420477D01*
X-46920420Y2420477D02*
X-47015658Y2372858D01*
X-47015658Y2372858D02*
X-47206134Y2325239D01*
X-47206134Y2325239D02*
X-47444229Y2325239D01*
X-47444229Y2325239D02*
X-47634705Y2372858D01*
X-47634705Y2372858D02*
X-47729943Y2420477D01*
X-47729943Y2420477D02*
X-47777562Y2468096D01*
X-47777562Y2468096D02*
X-47825181Y2563334D01*
X-47348991Y3658572D02*
X-47301372Y3801429D01*
X-47301372Y3801429D02*
X-47253753Y3849048D01*
X-47253753Y3849048D02*
X-47158515Y3896667D01*
X-47158515Y3896667D02*
X-47015658Y3896667D01*
X-47015658Y3896667D02*
X-46920420Y3849048D01*
X-46920420Y3849048D02*
X-46872800Y3801429D01*
X-46872800Y3801429D02*
X-46825181Y3706191D01*
X-46825181Y3706191D02*
X-46825181Y3325239D01*
X-46825181Y3325239D02*
X-47825181Y3325239D01*
X-47825181Y3325239D02*
X-47825181Y3658572D01*
X-47825181Y3658572D02*
X-47777562Y3753810D01*
X-47777562Y3753810D02*
X-47729943Y3801429D01*
X-47729943Y3801429D02*
X-47634705Y3849048D01*
X-47634705Y3849048D02*
X-47539467Y3849048D01*
X-47539467Y3849048D02*
X-47444229Y3801429D01*
X-47444229Y3801429D02*
X-47396610Y3753810D01*
X-47396610Y3753810D02*
X-47348991Y3658572D01*
X-47348991Y3658572D02*
X-47348991Y3325239D01*
X-46825181Y6683809D02*
X-47348991Y6683809D01*
X-47348991Y6683809D02*
X-47444229Y6636190D01*
X-47444229Y6636190D02*
X-47491848Y6540952D01*
X-47491848Y6540952D02*
X-47491848Y6350476D01*
X-47491848Y6350476D02*
X-47444229Y6255238D01*
X-46872800Y6683809D02*
X-46825181Y6588571D01*
X-46825181Y6588571D02*
X-46825181Y6350476D01*
X-46825181Y6350476D02*
X-46872800Y6255238D01*
X-46872800Y6255238D02*
X-46968039Y6207619D01*
X-46968039Y6207619D02*
X-47063277Y6207619D01*
X-47063277Y6207619D02*
X-47158515Y6255238D01*
X-47158515Y6255238D02*
X-47206134Y6350476D01*
X-47206134Y6350476D02*
X-47206134Y6588571D01*
X-47206134Y6588571D02*
X-47253753Y6683809D01*
X-47491848Y7160000D02*
X-46825181Y7160000D01*
X-47396610Y7160000D02*
X-47444229Y7207619D01*
X-47444229Y7207619D02*
X-47491848Y7302857D01*
X-47491848Y7302857D02*
X-47491848Y7445714D01*
X-47491848Y7445714D02*
X-47444229Y7540952D01*
X-47444229Y7540952D02*
X-47348991Y7588571D01*
X-47348991Y7588571D02*
X-46825181Y7588571D01*
X-47491848Y7921905D02*
X-47491848Y8302857D01*
X-47825181Y8064762D02*
X-46968039Y8064762D01*
X-46968039Y8064762D02*
X-46872800Y8112381D01*
X-46872800Y8112381D02*
X-46825181Y8207619D01*
X-46825181Y8207619D02*
X-46825181Y8302857D01*
X-46872800Y9017143D02*
X-46825181Y8921905D01*
X-46825181Y8921905D02*
X-46825181Y8731429D01*
X-46825181Y8731429D02*
X-46872800Y8636191D01*
X-46872800Y8636191D02*
X-46968039Y8588572D01*
X-46968039Y8588572D02*
X-47348991Y8588572D01*
X-47348991Y8588572D02*
X-47444229Y8636191D01*
X-47444229Y8636191D02*
X-47491848Y8731429D01*
X-47491848Y8731429D02*
X-47491848Y8921905D01*
X-47491848Y8921905D02*
X-47444229Y9017143D01*
X-47444229Y9017143D02*
X-47348991Y9064762D01*
X-47348991Y9064762D02*
X-47253753Y9064762D01*
X-47253753Y9064762D02*
X-47158515Y8588572D01*
X-47491848Y9493334D02*
X-46825181Y9493334D01*
X-47396610Y9493334D02*
X-47444229Y9540953D01*
X-47444229Y9540953D02*
X-47491848Y9636191D01*
X-47491848Y9636191D02*
X-47491848Y9779048D01*
X-47491848Y9779048D02*
X-47444229Y9874286D01*
X-47444229Y9874286D02*
X-47348991Y9921905D01*
X-47348991Y9921905D02*
X-46825181Y9921905D01*
X-47491848Y10398096D02*
X-46825181Y10398096D01*
X-47396610Y10398096D02*
X-47444229Y10445715D01*
X-47444229Y10445715D02*
X-47491848Y10540953D01*
X-47491848Y10540953D02*
X-47491848Y10683810D01*
X-47491848Y10683810D02*
X-47444229Y10779048D01*
X-47444229Y10779048D02*
X-47348991Y10826667D01*
X-47348991Y10826667D02*
X-46825181Y10826667D01*
X-46825181Y11731429D02*
X-47348991Y11731429D01*
X-47348991Y11731429D02*
X-47444229Y11683810D01*
X-47444229Y11683810D02*
X-47491848Y11588572D01*
X-47491848Y11588572D02*
X-47491848Y11398096D01*
X-47491848Y11398096D02*
X-47444229Y11302858D01*
X-46872800Y11731429D02*
X-46825181Y11636191D01*
X-46825181Y11636191D02*
X-46825181Y11398096D01*
X-46825181Y11398096D02*
X-46872800Y11302858D01*
X-46872800Y11302858D02*
X-46968039Y11255239D01*
X-46968039Y11255239D02*
X-47063277Y11255239D01*
X-47063277Y11255239D02*
X-47158515Y11302858D01*
X-47158515Y11302858D02*
X-47206134Y11398096D01*
X-47206134Y11398096D02*
X-47206134Y11636191D01*
X-47206134Y11636191D02*
X-47253753Y11731429D01*
X-47729943Y12826668D02*
X-47872800Y13017144D01*
X-47872800Y13017144D02*
X-47729943Y13207620D01*
X31466667Y-2807200D02*
X31609524Y-2854819D01*
X31609524Y-2854819D02*
X31847619Y-2854819D01*
X31847619Y-2854819D02*
X31942857Y-2807200D01*
X31942857Y-2807200D02*
X31990476Y-2759580D01*
X31990476Y-2759580D02*
X32038095Y-2664342D01*
X32038095Y-2664342D02*
X32038095Y-2569104D01*
X32038095Y-2569104D02*
X31990476Y-2473866D01*
X31990476Y-2473866D02*
X31942857Y-2426247D01*
X31942857Y-2426247D02*
X31847619Y-2378628D01*
X31847619Y-2378628D02*
X31657143Y-2331009D01*
X31657143Y-2331009D02*
X31561905Y-2283390D01*
X31561905Y-2283390D02*
X31514286Y-2235771D01*
X31514286Y-2235771D02*
X31466667Y-2140533D01*
X31466667Y-2140533D02*
X31466667Y-2045295D01*
X31466667Y-2045295D02*
X31514286Y-1950057D01*
X31514286Y-1950057D02*
X31561905Y-1902438D01*
X31561905Y-1902438D02*
X31657143Y-1854819D01*
X31657143Y-1854819D02*
X31895238Y-1854819D01*
X31895238Y-1854819D02*
X32038095Y-1902438D01*
X32466667Y-2331009D02*
X32800000Y-2331009D01*
X32942857Y-2854819D02*
X32466667Y-2854819D01*
X32466667Y-2854819D02*
X32466667Y-1854819D01*
X32466667Y-1854819D02*
X32942857Y-1854819D01*
X33371429Y-2854819D02*
X33371429Y-1854819D01*
X33371429Y-1854819D02*
X33942857Y-2854819D01*
X33942857Y-2854819D02*
X33942857Y-1854819D01*
X34847619Y-1854819D02*
X34657143Y-1854819D01*
X34657143Y-1854819D02*
X34561905Y-1902438D01*
X34561905Y-1902438D02*
X34514286Y-1950057D01*
X34514286Y-1950057D02*
X34419048Y-2092914D01*
X34419048Y-2092914D02*
X34371429Y-2283390D01*
X34371429Y-2283390D02*
X34371429Y-2664342D01*
X34371429Y-2664342D02*
X34419048Y-2759580D01*
X34419048Y-2759580D02*
X34466667Y-2807200D01*
X34466667Y-2807200D02*
X34561905Y-2854819D01*
X34561905Y-2854819D02*
X34752381Y-2854819D01*
X34752381Y-2854819D02*
X34847619Y-2807200D01*
X34847619Y-2807200D02*
X34895238Y-2759580D01*
X34895238Y-2759580D02*
X34942857Y-2664342D01*
X34942857Y-2664342D02*
X34942857Y-2426247D01*
X34942857Y-2426247D02*
X34895238Y-2331009D01*
X34895238Y-2331009D02*
X34847619Y-2283390D01*
X34847619Y-2283390D02*
X34752381Y-2235771D01*
X34752381Y-2235771D02*
X34561905Y-2235771D01*
X34561905Y-2235771D02*
X34466667Y-2283390D01*
X34466667Y-2283390D02*
X34419048Y-2331009D01*
X34419048Y-2331009D02*
X34371429Y-2426247D01*
X35800000Y-1854819D02*
X35609524Y-1854819D01*
X35609524Y-1854819D02*
X35514286Y-1902438D01*
X35514286Y-1902438D02*
X35466667Y-1950057D01*
X35466667Y-1950057D02*
X35371429Y-2092914D01*
X35371429Y-2092914D02*
X35323810Y-2283390D01*
X35323810Y-2283390D02*
X35323810Y-2664342D01*
X35323810Y-2664342D02*
X35371429Y-2759580D01*
X35371429Y-2759580D02*
X35419048Y-2807200D01*
X35419048Y-2807200D02*
X35514286Y-2854819D01*
X35514286Y-2854819D02*
X35704762Y-2854819D01*
X35704762Y-2854819D02*
X35800000Y-2807200D01*
X35800000Y-2807200D02*
X35847619Y-2759580D01*
X35847619Y-2759580D02*
X35895238Y-2664342D01*
X35895238Y-2664342D02*
X35895238Y-2426247D01*
X35895238Y-2426247D02*
X35847619Y-2331009D01*
X35847619Y-2331009D02*
X35800000Y-2283390D01*
X35800000Y-2283390D02*
X35704762Y-2235771D01*
X35704762Y-2235771D02*
X35514286Y-2235771D01*
X35514286Y-2235771D02*
X35419048Y-2283390D01*
X35419048Y-2283390D02*
X35371429Y-2331009D01*
X35371429Y-2331009D02*
X35323810Y-2426247D01*
X37038096Y-2807200D02*
X37180953Y-2854819D01*
X37180953Y-2854819D02*
X37419048Y-2854819D01*
X37419048Y-2854819D02*
X37514286Y-2807200D01*
X37514286Y-2807200D02*
X37561905Y-2759580D01*
X37561905Y-2759580D02*
X37609524Y-2664342D01*
X37609524Y-2664342D02*
X37609524Y-2569104D01*
X37609524Y-2569104D02*
X37561905Y-2473866D01*
X37561905Y-2473866D02*
X37514286Y-2426247D01*
X37514286Y-2426247D02*
X37419048Y-2378628D01*
X37419048Y-2378628D02*
X37228572Y-2331009D01*
X37228572Y-2331009D02*
X37133334Y-2283390D01*
X37133334Y-2283390D02*
X37085715Y-2235771D01*
X37085715Y-2235771D02*
X37038096Y-2140533D01*
X37038096Y-2140533D02*
X37038096Y-2045295D01*
X37038096Y-2045295D02*
X37085715Y-1950057D01*
X37085715Y-1950057D02*
X37133334Y-1902438D01*
X37133334Y-1902438D02*
X37228572Y-1854819D01*
X37228572Y-1854819D02*
X37466667Y-1854819D01*
X37466667Y-1854819D02*
X37609524Y-1902438D01*
X38038096Y-2854819D02*
X38038096Y-1854819D01*
X38514286Y-2854819D02*
X38514286Y-1854819D01*
X38514286Y-1854819D02*
X39085714Y-2854819D01*
X39085714Y-2854819D02*
X39085714Y-1854819D01*
X39561905Y-2473866D02*
X40323810Y-2473866D01*
X40657143Y-1854819D02*
X41228571Y-1854819D01*
X40942857Y-2854819D02*
X40942857Y-1854819D01*
X-25783810Y36945181D02*
X-25783810Y37468991D01*
X-25783810Y37468991D02*
X-25831429Y37564229D01*
X-25831429Y37564229D02*
X-25926667Y37611848D01*
X-25926667Y37611848D02*
X-26117143Y37611848D01*
X-26117143Y37611848D02*
X-26212381Y37564229D01*
X-25783810Y36992800D02*
X-25879048Y36945181D01*
X-25879048Y36945181D02*
X-26117143Y36945181D01*
X-26117143Y36945181D02*
X-26212381Y36992800D01*
X-26212381Y36992800D02*
X-26260000Y37088039D01*
X-26260000Y37088039D02*
X-26260000Y37183277D01*
X-26260000Y37183277D02*
X-26212381Y37278515D01*
X-26212381Y37278515D02*
X-26117143Y37326134D01*
X-26117143Y37326134D02*
X-25879048Y37326134D01*
X-25879048Y37326134D02*
X-25783810Y37373753D01*
X-25307619Y37611848D02*
X-25307619Y36945181D01*
X-25307619Y37516610D02*
X-25260000Y37564229D01*
X-25260000Y37564229D02*
X-25164762Y37611848D01*
X-25164762Y37611848D02*
X-25021905Y37611848D01*
X-25021905Y37611848D02*
X-24926667Y37564229D01*
X-24926667Y37564229D02*
X-24879048Y37468991D01*
X-24879048Y37468991D02*
X-24879048Y36945181D01*
X-24545714Y37611848D02*
X-24164762Y37611848D01*
X-24402857Y37945181D02*
X-24402857Y37088039D01*
X-24402857Y37088039D02*
X-24355238Y36992800D01*
X-24355238Y36992800D02*
X-24260000Y36945181D01*
X-24260000Y36945181D02*
X-24164762Y36945181D01*
X-30531428Y-12519819D02*
X-30531428Y-11519819D01*
X-30531428Y-11519819D02*
X-30198095Y-12234104D01*
X-30198095Y-12234104D02*
X-29864762Y-11519819D01*
X-29864762Y-11519819D02*
X-29864762Y-12519819D01*
X-29388571Y-12519819D02*
X-29388571Y-11519819D01*
X-28912381Y-12519819D02*
X-28912381Y-11519819D01*
X-28340953Y-12519819D02*
X-28769524Y-11948390D01*
X-28340953Y-11519819D02*
X-28912381Y-12091247D01*
X-27340953Y-12519819D02*
X-27674286Y-12043628D01*
X-27912381Y-12519819D02*
X-27912381Y-11519819D01*
X-27912381Y-11519819D02*
X-27531429Y-11519819D01*
X-27531429Y-11519819D02*
X-27436191Y-11567438D01*
X-27436191Y-11567438D02*
X-27388572Y-11615057D01*
X-27388572Y-11615057D02*
X-27340953Y-11710295D01*
X-27340953Y-11710295D02*
X-27340953Y-11853152D01*
X-27340953Y-11853152D02*
X-27388572Y-11948390D01*
X-27388572Y-11948390D02*
X-27436191Y-11996009D01*
X-27436191Y-11996009D02*
X-27531429Y-12043628D01*
X-27531429Y-12043628D02*
X-27912381Y-12043628D01*
X-26721905Y-11519819D02*
X-26531429Y-11519819D01*
X-26531429Y-11519819D02*
X-26436191Y-11567438D01*
X-26436191Y-11567438D02*
X-26340953Y-11662676D01*
X-26340953Y-11662676D02*
X-26293334Y-11853152D01*
X-26293334Y-11853152D02*
X-26293334Y-12186485D01*
X-26293334Y-12186485D02*
X-26340953Y-12376961D01*
X-26340953Y-12376961D02*
X-26436191Y-12472200D01*
X-26436191Y-12472200D02*
X-26531429Y-12519819D01*
X-26531429Y-12519819D02*
X-26721905Y-12519819D01*
X-26721905Y-12519819D02*
X-26817143Y-12472200D01*
X-26817143Y-12472200D02*
X-26912381Y-12376961D01*
X-26912381Y-12376961D02*
X-26960000Y-12186485D01*
X-26960000Y-12186485D02*
X-26960000Y-11853152D01*
X-26960000Y-11853152D02*
X-26912381Y-11662676D01*
X-26912381Y-11662676D02*
X-26817143Y-11567438D01*
X-26817143Y-11567438D02*
X-26721905Y-11519819D01*
X-25864762Y-11996009D02*
X-25531429Y-11996009D01*
X-25388572Y-12519819D02*
X-25864762Y-12519819D01*
X-25864762Y-12519819D02*
X-25864762Y-11519819D01*
X-25864762Y-11519819D02*
X-25388572Y-11519819D01*
X-24960000Y-12138866D02*
X-24198095Y-12138866D01*
X-23769524Y-11615057D02*
X-23721905Y-11567438D01*
X-23721905Y-11567438D02*
X-23626667Y-11519819D01*
X-23626667Y-11519819D02*
X-23388572Y-11519819D01*
X-23388572Y-11519819D02*
X-23293334Y-11567438D01*
X-23293334Y-11567438D02*
X-23245715Y-11615057D01*
X-23245715Y-11615057D02*
X-23198096Y-11710295D01*
X-23198096Y-11710295D02*
X-23198096Y-11805533D01*
X-23198096Y-11805533D02*
X-23245715Y-11948390D01*
X-23245715Y-11948390D02*
X-23817143Y-12519819D01*
X-23817143Y-12519819D02*
X-23198096Y-12519819D01*
X-22340953Y-11853152D02*
X-22340953Y-12519819D01*
X-22579048Y-11472200D02*
X-22817143Y-12186485D01*
X-22817143Y-12186485D02*
X-22198096Y-12186485D01*
X-21388572Y-11519819D02*
X-21579048Y-11519819D01*
X-21579048Y-11519819D02*
X-21674286Y-11567438D01*
X-21674286Y-11567438D02*
X-21721905Y-11615057D01*
X-21721905Y-11615057D02*
X-21817143Y-11757914D01*
X-21817143Y-11757914D02*
X-21864762Y-11948390D01*
X-21864762Y-11948390D02*
X-21864762Y-12329342D01*
X-21864762Y-12329342D02*
X-21817143Y-12424580D01*
X-21817143Y-12424580D02*
X-21769524Y-12472200D01*
X-21769524Y-12472200D02*
X-21674286Y-12519819D01*
X-21674286Y-12519819D02*
X-21483810Y-12519819D01*
X-21483810Y-12519819D02*
X-21388572Y-12472200D01*
X-21388572Y-12472200D02*
X-21340953Y-12424580D01*
X-21340953Y-12424580D02*
X-21293334Y-12329342D01*
X-21293334Y-12329342D02*
X-21293334Y-12091247D01*
X-21293334Y-12091247D02*
X-21340953Y-11996009D01*
X-21340953Y-11996009D02*
X-21388572Y-11948390D01*
X-21388572Y-11948390D02*
X-21483810Y-11900771D01*
X-21483810Y-11900771D02*
X-21674286Y-11900771D01*
X-21674286Y-11900771D02*
X-21769524Y-11948390D01*
X-21769524Y-11948390D02*
X-21817143Y-11996009D01*
X-21817143Y-11996009D02*
X-21864762Y-12091247D01*
X-20912381Y-11615057D02*
X-20864762Y-11567438D01*
X-20864762Y-11567438D02*
X-20769524Y-11519819D01*
X-20769524Y-11519819D02*
X-20531429Y-11519819D01*
X-20531429Y-11519819D02*
X-20436191Y-11567438D01*
X-20436191Y-11567438D02*
X-20388572Y-11615057D01*
X-20388572Y-11615057D02*
X-20340953Y-11710295D01*
X-20340953Y-11710295D02*
X-20340953Y-11805533D01*
X-20340953Y-11805533D02*
X-20388572Y-11948390D01*
X-20388572Y-11948390D02*
X-20960000Y-12519819D01*
X-20960000Y-12519819D02*
X-20340953Y-12519819D01*
X8126822Y10791051D02*
X8603012Y10791051D01*
X8031584Y10505336D02*
X8364917Y11505336D01*
X8364917Y11505336D02*
X8698250Y10505336D01*
X9698250Y10410098D02*
X9603012Y10457717D01*
X9603012Y10457717D02*
X9507774Y10552955D01*
X9507774Y10552955D02*
X9364917Y10695813D01*
X9364917Y10695813D02*
X9269679Y10743432D01*
X9269679Y10743432D02*
X9174441Y10743432D01*
X9222060Y10505336D02*
X9126822Y10552955D01*
X9126822Y10552955D02*
X9031584Y10648194D01*
X9031584Y10648194D02*
X8983965Y10838670D01*
X8983965Y10838670D02*
X8983965Y11172003D01*
X8983965Y11172003D02*
X9031584Y11362479D01*
X9031584Y11362479D02*
X9126822Y11457717D01*
X9126822Y11457717D02*
X9222060Y11505336D01*
X9222060Y11505336D02*
X9412536Y11505336D01*
X9412536Y11505336D02*
X9507774Y11457717D01*
X9507774Y11457717D02*
X9603012Y11362479D01*
X9603012Y11362479D02*
X9650631Y11172003D01*
X9650631Y11172003D02*
X9650631Y10838670D01*
X9650631Y10838670D02*
X9603012Y10648194D01*
X9603012Y10648194D02*
X9507774Y10552955D01*
X9507774Y10552955D02*
X9412536Y10505336D01*
X9412536Y10505336D02*
X9222060Y10505336D01*
X10079203Y10505336D02*
X10079203Y11505336D01*
X11317298Y10505336D02*
X11317298Y11172003D01*
X11317298Y10981527D02*
X11364917Y11076765D01*
X11364917Y11076765D02*
X11412536Y11124384D01*
X11412536Y11124384D02*
X11507774Y11172003D01*
X11507774Y11172003D02*
X11603012Y11172003D01*
X11936346Y10505336D02*
X11936346Y11172003D01*
X11936346Y11505336D02*
X11888727Y11457717D01*
X11888727Y11457717D02*
X11936346Y11410098D01*
X11936346Y11410098D02*
X11983965Y11457717D01*
X11983965Y11457717D02*
X11936346Y11505336D01*
X11936346Y11505336D02*
X11936346Y11410098D01*
X12412536Y11172003D02*
X12412536Y10505336D01*
X12412536Y11076765D02*
X12460155Y11124384D01*
X12460155Y11124384D02*
X12555393Y11172003D01*
X12555393Y11172003D02*
X12698250Y11172003D01*
X12698250Y11172003D02*
X12793488Y11124384D01*
X12793488Y11124384D02*
X12841107Y11029146D01*
X12841107Y11029146D02*
X12841107Y10505336D01*
X13745869Y11172003D02*
X13745869Y10362479D01*
X13745869Y10362479D02*
X13698250Y10267241D01*
X13698250Y10267241D02*
X13650631Y10219622D01*
X13650631Y10219622D02*
X13555393Y10172003D01*
X13555393Y10172003D02*
X13412536Y10172003D01*
X13412536Y10172003D02*
X13317298Y10219622D01*
X13745869Y10552955D02*
X13650631Y10505336D01*
X13650631Y10505336D02*
X13460155Y10505336D01*
X13460155Y10505336D02*
X13364917Y10552955D01*
X13364917Y10552955D02*
X13317298Y10600575D01*
X13317298Y10600575D02*
X13269679Y10695813D01*
X13269679Y10695813D02*
X13269679Y10981527D01*
X13269679Y10981527D02*
X13317298Y11076765D01*
X13317298Y11076765D02*
X13364917Y11124384D01*
X13364917Y11124384D02*
X13460155Y11172003D01*
X13460155Y11172003D02*
X13650631Y11172003D01*
X13650631Y11172003D02*
X13745869Y11124384D01*
X12238094Y-21854819D02*
X12238094Y-22569104D01*
X12238094Y-22569104D02*
X12190475Y-22711961D01*
X12190475Y-22711961D02*
X12095237Y-22807200D01*
X12095237Y-22807200D02*
X11952380Y-22854819D01*
X11952380Y-22854819D02*
X11857142Y-22854819D01*
X13238094Y-22854819D02*
X12666666Y-22854819D01*
X12952380Y-22854819D02*
X12952380Y-21854819D01*
X12952380Y-21854819D02*
X12857142Y-21997676D01*
X12857142Y-21997676D02*
X12761904Y-22092914D01*
X12761904Y-22092914D02*
X12666666Y-22140533D01*
X14714285Y-23235771D02*
X14666666Y-23188152D01*
X14666666Y-23188152D02*
X14571428Y-23045295D01*
X14571428Y-23045295D02*
X14523809Y-22950057D01*
X14523809Y-22950057D02*
X14476190Y-22807200D01*
X14476190Y-22807200D02*
X14428571Y-22569104D01*
X14428571Y-22569104D02*
X14428571Y-22378628D01*
X14428571Y-22378628D02*
X14476190Y-22140533D01*
X14476190Y-22140533D02*
X14523809Y-21997676D01*
X14523809Y-21997676D02*
X14571428Y-21902438D01*
X14571428Y-21902438D02*
X14666666Y-21759580D01*
X14666666Y-21759580D02*
X14714285Y-21711961D01*
X15047619Y-21950057D02*
X15095238Y-21902438D01*
X15095238Y-21902438D02*
X15190476Y-21854819D01*
X15190476Y-21854819D02*
X15428571Y-21854819D01*
X15428571Y-21854819D02*
X15523809Y-21902438D01*
X15523809Y-21902438D02*
X15571428Y-21950057D01*
X15571428Y-21950057D02*
X15619047Y-22045295D01*
X15619047Y-22045295D02*
X15619047Y-22140533D01*
X15619047Y-22140533D02*
X15571428Y-22283390D01*
X15571428Y-22283390D02*
X15000000Y-22854819D01*
X15000000Y-22854819D02*
X15619047Y-22854819D01*
X16476190Y-22188152D02*
X16476190Y-22854819D01*
X16238095Y-21807200D02*
X16000000Y-22521485D01*
X16000000Y-22521485D02*
X16619047Y-22521485D01*
X16857143Y-21854819D02*
X17190476Y-22854819D01*
X17190476Y-22854819D02*
X17523809Y-21854819D01*
X17761905Y-23235771D02*
X17809524Y-23188152D01*
X17809524Y-23188152D02*
X17904762Y-23045295D01*
X17904762Y-23045295D02*
X17952381Y-22950057D01*
X17952381Y-22950057D02*
X18000000Y-22807200D01*
X18000000Y-22807200D02*
X18047619Y-22569104D01*
X18047619Y-22569104D02*
X18047619Y-22378628D01*
X18047619Y-22378628D02*
X18000000Y-22140533D01*
X18000000Y-22140533D02*
X17952381Y-21997676D01*
X17952381Y-21997676D02*
X17904762Y-21902438D01*
X17904762Y-21902438D02*
X17809524Y-21759580D01*
X17809524Y-21759580D02*
X17761905Y-21711961D01*
X6352380Y-25154819D02*
X6352380Y-25869104D01*
X6352380Y-25869104D02*
X6304761Y-26011961D01*
X6304761Y-26011961D02*
X6209523Y-26107200D01*
X6209523Y-26107200D02*
X6066666Y-26154819D01*
X6066666Y-26154819D02*
X5971428Y-26154819D01*
X7352380Y-26154819D02*
X6780952Y-26154819D01*
X7066666Y-26154819D02*
X7066666Y-25154819D01*
X7066666Y-25154819D02*
X6971428Y-25297676D01*
X6971428Y-25297676D02*
X6876190Y-25392914D01*
X6876190Y-25392914D02*
X6780952Y-25440533D01*
X7971428Y-25154819D02*
X8066666Y-25154819D01*
X8066666Y-25154819D02*
X8161904Y-25202438D01*
X8161904Y-25202438D02*
X8209523Y-25250057D01*
X8209523Y-25250057D02*
X8257142Y-25345295D01*
X8257142Y-25345295D02*
X8304761Y-25535771D01*
X8304761Y-25535771D02*
X8304761Y-25773866D01*
X8304761Y-25773866D02*
X8257142Y-25964342D01*
X8257142Y-25964342D02*
X8209523Y-26059580D01*
X8209523Y-26059580D02*
X8161904Y-26107200D01*
X8161904Y-26107200D02*
X8066666Y-26154819D01*
X8066666Y-26154819D02*
X7971428Y-26154819D01*
X7971428Y-26154819D02*
X7876190Y-26107200D01*
X7876190Y-26107200D02*
X7828571Y-26059580D01*
X7828571Y-26059580D02*
X7780952Y-25964342D01*
X7780952Y-25964342D02*
X7733333Y-25773866D01*
X7733333Y-25773866D02*
X7733333Y-25535771D01*
X7733333Y-25535771D02*
X7780952Y-25345295D01*
X7780952Y-25345295D02*
X7828571Y-25250057D01*
X7828571Y-25250057D02*
X7876190Y-25202438D01*
X7876190Y-25202438D02*
X7971428Y-25154819D01*
X9352381Y-25488152D02*
X9733333Y-25488152D01*
X9495238Y-26154819D02*
X9495238Y-25297676D01*
X9495238Y-25297676D02*
X9542857Y-25202438D01*
X9542857Y-25202438D02*
X9638095Y-25154819D01*
X9638095Y-25154819D02*
X9733333Y-25154819D01*
X10209524Y-26154819D02*
X10114286Y-26107200D01*
X10114286Y-26107200D02*
X10066667Y-26011961D01*
X10066667Y-26011961D02*
X10066667Y-25154819D01*
X11019048Y-26154819D02*
X11019048Y-25631009D01*
X11019048Y-25631009D02*
X10971429Y-25535771D01*
X10971429Y-25535771D02*
X10876191Y-25488152D01*
X10876191Y-25488152D02*
X10685715Y-25488152D01*
X10685715Y-25488152D02*
X10590477Y-25535771D01*
X11019048Y-26107200D02*
X10923810Y-26154819D01*
X10923810Y-26154819D02*
X10685715Y-26154819D01*
X10685715Y-26154819D02*
X10590477Y-26107200D01*
X10590477Y-26107200D02*
X10542858Y-26011961D01*
X10542858Y-26011961D02*
X10542858Y-25916723D01*
X10542858Y-25916723D02*
X10590477Y-25821485D01*
X10590477Y-25821485D02*
X10685715Y-25773866D01*
X10685715Y-25773866D02*
X10923810Y-25773866D01*
X10923810Y-25773866D02*
X11019048Y-25726247D01*
X11447620Y-26107200D02*
X11542858Y-26154819D01*
X11542858Y-26154819D02*
X11733334Y-26154819D01*
X11733334Y-26154819D02*
X11828572Y-26107200D01*
X11828572Y-26107200D02*
X11876191Y-26011961D01*
X11876191Y-26011961D02*
X11876191Y-25964342D01*
X11876191Y-25964342D02*
X11828572Y-25869104D01*
X11828572Y-25869104D02*
X11733334Y-25821485D01*
X11733334Y-25821485D02*
X11590477Y-25821485D01*
X11590477Y-25821485D02*
X11495239Y-25773866D01*
X11495239Y-25773866D02*
X11447620Y-25678628D01*
X11447620Y-25678628D02*
X11447620Y-25631009D01*
X11447620Y-25631009D02*
X11495239Y-25535771D01*
X11495239Y-25535771D02*
X11590477Y-25488152D01*
X11590477Y-25488152D02*
X11733334Y-25488152D01*
X11733334Y-25488152D02*
X11828572Y-25535771D01*
X12304763Y-26154819D02*
X12304763Y-25154819D01*
X12733334Y-26154819D02*
X12733334Y-25631009D01*
X12733334Y-25631009D02*
X12685715Y-25535771D01*
X12685715Y-25535771D02*
X12590477Y-25488152D01*
X12590477Y-25488152D02*
X12447620Y-25488152D01*
X12447620Y-25488152D02*
X12352382Y-25535771D01*
X12352382Y-25535771D02*
X12304763Y-25583390D01*
D11*
X19200000Y-35298000D02*
X22600000Y-35298000D01*
X22600000Y-43197798D01*
X19200000Y-43197798D01*
X19200000Y-35298000D01*
D10*
X21259580Y-40652661D02*
X21307200Y-40700280D01*
X21307200Y-40700280D02*
X21354819Y-40843137D01*
X21354819Y-40843137D02*
X21354819Y-40938375D01*
X21354819Y-40938375D02*
X21307200Y-41081232D01*
X21307200Y-41081232D02*
X21211961Y-41176470D01*
X21211961Y-41176470D02*
X21116723Y-41224089D01*
X21116723Y-41224089D02*
X20926247Y-41271708D01*
X20926247Y-41271708D02*
X20783390Y-41271708D01*
X20783390Y-41271708D02*
X20592914Y-41224089D01*
X20592914Y-41224089D02*
X20497676Y-41176470D01*
X20497676Y-41176470D02*
X20402438Y-41081232D01*
X20402438Y-41081232D02*
X20354819Y-40938375D01*
X20354819Y-40938375D02*
X20354819Y-40843137D01*
X20354819Y-40843137D02*
X20402438Y-40700280D01*
X20402438Y-40700280D02*
X20450057Y-40652661D01*
X20688152Y-39795518D02*
X21354819Y-39795518D01*
X20307200Y-40033613D02*
X21021485Y-40271708D01*
X21021485Y-40271708D02*
X21021485Y-39652661D01*
X20688152Y-38605041D02*
X21354819Y-38366946D01*
X21354819Y-38366946D02*
X20688152Y-38128851D01*
X20450057Y-37795517D02*
X20402438Y-37747898D01*
X20402438Y-37747898D02*
X20354819Y-37652660D01*
X20354819Y-37652660D02*
X20354819Y-37414565D01*
X20354819Y-37414565D02*
X20402438Y-37319327D01*
X20402438Y-37319327D02*
X20450057Y-37271708D01*
X20450057Y-37271708D02*
X20545295Y-37224089D01*
X20545295Y-37224089D02*
X20640533Y-37224089D01*
X20640533Y-37224089D02*
X20783390Y-37271708D01*
X20783390Y-37271708D02*
X21354819Y-37843136D01*
X21354819Y-37843136D02*
X21354819Y-37224089D01*
X28983333Y-33954819D02*
X28983333Y-34669104D01*
X28983333Y-34669104D02*
X28935714Y-34811961D01*
X28935714Y-34811961D02*
X28840476Y-34907200D01*
X28840476Y-34907200D02*
X28697619Y-34954819D01*
X28697619Y-34954819D02*
X28602381Y-34954819D01*
X29507143Y-34954819D02*
X29697619Y-34954819D01*
X29697619Y-34954819D02*
X29792857Y-34907200D01*
X29792857Y-34907200D02*
X29840476Y-34859580D01*
X29840476Y-34859580D02*
X29935714Y-34716723D01*
X29935714Y-34716723D02*
X29983333Y-34526247D01*
X29983333Y-34526247D02*
X29983333Y-34145295D01*
X29983333Y-34145295D02*
X29935714Y-34050057D01*
X29935714Y-34050057D02*
X29888095Y-34002438D01*
X29888095Y-34002438D02*
X29792857Y-33954819D01*
X29792857Y-33954819D02*
X29602381Y-33954819D01*
X29602381Y-33954819D02*
X29507143Y-34002438D01*
X29507143Y-34002438D02*
X29459524Y-34050057D01*
X29459524Y-34050057D02*
X29411905Y-34145295D01*
X29411905Y-34145295D02*
X29411905Y-34383390D01*
X29411905Y-34383390D02*
X29459524Y-34478628D01*
X29459524Y-34478628D02*
X29507143Y-34526247D01*
X29507143Y-34526247D02*
X29602381Y-34573866D01*
X29602381Y-34573866D02*
X29792857Y-34573866D01*
X29792857Y-34573866D02*
X29888095Y-34526247D01*
X29888095Y-34526247D02*
X29935714Y-34478628D01*
X29935714Y-34478628D02*
X29983333Y-34383390D01*
X31840476Y-35050057D02*
X31745238Y-35002438D01*
X31745238Y-35002438D02*
X31650000Y-34907200D01*
X31650000Y-34907200D02*
X31507143Y-34764342D01*
X31507143Y-34764342D02*
X31411905Y-34716723D01*
X31411905Y-34716723D02*
X31316667Y-34716723D01*
X31364286Y-34954819D02*
X31269048Y-34907200D01*
X31269048Y-34907200D02*
X31173810Y-34811961D01*
X31173810Y-34811961D02*
X31126191Y-34621485D01*
X31126191Y-34621485D02*
X31126191Y-34288152D01*
X31126191Y-34288152D02*
X31173810Y-34097676D01*
X31173810Y-34097676D02*
X31269048Y-34002438D01*
X31269048Y-34002438D02*
X31364286Y-33954819D01*
X31364286Y-33954819D02*
X31554762Y-33954819D01*
X31554762Y-33954819D02*
X31650000Y-34002438D01*
X31650000Y-34002438D02*
X31745238Y-34097676D01*
X31745238Y-34097676D02*
X31792857Y-34288152D01*
X31792857Y-34288152D02*
X31792857Y-34621485D01*
X31792857Y-34621485D02*
X31745238Y-34811961D01*
X31745238Y-34811961D02*
X31650000Y-34907200D01*
X31650000Y-34907200D02*
X31554762Y-34954819D01*
X31554762Y-34954819D02*
X31364286Y-34954819D01*
X32126191Y-34288152D02*
X32316667Y-34954819D01*
X32316667Y-34954819D02*
X32507143Y-34478628D01*
X32507143Y-34478628D02*
X32697619Y-34954819D01*
X32697619Y-34954819D02*
X32888095Y-34288152D01*
X33269048Y-34954819D02*
X33269048Y-34288152D01*
X33269048Y-33954819D02*
X33221429Y-34002438D01*
X33221429Y-34002438D02*
X33269048Y-34050057D01*
X33269048Y-34050057D02*
X33316667Y-34002438D01*
X33316667Y-34002438D02*
X33269048Y-33954819D01*
X33269048Y-33954819D02*
X33269048Y-34050057D01*
X33745238Y-34954819D02*
X33745238Y-34288152D01*
X33745238Y-33954819D02*
X33697619Y-34002438D01*
X33697619Y-34002438D02*
X33745238Y-34050057D01*
X33745238Y-34050057D02*
X33792857Y-34002438D01*
X33792857Y-34002438D02*
X33745238Y-33954819D01*
X33745238Y-33954819D02*
X33745238Y-34050057D01*
X34649999Y-34907200D02*
X34554761Y-34954819D01*
X34554761Y-34954819D02*
X34364285Y-34954819D01*
X34364285Y-34954819D02*
X34269047Y-34907200D01*
X34269047Y-34907200D02*
X34221428Y-34859580D01*
X34221428Y-34859580D02*
X34173809Y-34764342D01*
X34173809Y-34764342D02*
X34173809Y-34478628D01*
X34173809Y-34478628D02*
X34221428Y-34383390D01*
X34221428Y-34383390D02*
X34269047Y-34335771D01*
X34269047Y-34335771D02*
X34364285Y-34288152D01*
X34364285Y-34288152D02*
X34554761Y-34288152D01*
X34554761Y-34288152D02*
X34649999Y-34335771D01*
X15261905Y-6954819D02*
X15261905Y-5954819D01*
X15261905Y-5954819D02*
X15500000Y-5954819D01*
X15500000Y-5954819D02*
X15642857Y-6002438D01*
X15642857Y-6002438D02*
X15738095Y-6097676D01*
X15738095Y-6097676D02*
X15785714Y-6192914D01*
X15785714Y-6192914D02*
X15833333Y-6383390D01*
X15833333Y-6383390D02*
X15833333Y-6526247D01*
X15833333Y-6526247D02*
X15785714Y-6716723D01*
X15785714Y-6716723D02*
X15738095Y-6811961D01*
X15738095Y-6811961D02*
X15642857Y-6907200D01*
X15642857Y-6907200D02*
X15500000Y-6954819D01*
X15500000Y-6954819D02*
X15261905Y-6954819D01*
X16785714Y-6954819D02*
X16214286Y-6954819D01*
X16500000Y-6954819D02*
X16500000Y-5954819D01*
X16500000Y-5954819D02*
X16404762Y-6097676D01*
X16404762Y-6097676D02*
X16309524Y-6192914D01*
X16309524Y-6192914D02*
X16214286Y-6240533D01*
X53666666Y-4431009D02*
X53333333Y-4431009D01*
X53333333Y-4954819D02*
X53333333Y-3954819D01*
X53333333Y-3954819D02*
X53809523Y-3954819D01*
X54714285Y-4954819D02*
X54142857Y-4954819D01*
X54428571Y-4954819D02*
X54428571Y-3954819D01*
X54428571Y-3954819D02*
X54333333Y-4097676D01*
X54333333Y-4097676D02*
X54238095Y-4192914D01*
X54238095Y-4192914D02*
X54142857Y-4240533D01*
X26904761Y-23250057D02*
X26809523Y-23202438D01*
X26809523Y-23202438D02*
X26714285Y-23107200D01*
X26714285Y-23107200D02*
X26571428Y-22964342D01*
X26571428Y-22964342D02*
X26476190Y-22916723D01*
X26476190Y-22916723D02*
X26380952Y-22916723D01*
X26428571Y-23154819D02*
X26333333Y-23107200D01*
X26333333Y-23107200D02*
X26238095Y-23011961D01*
X26238095Y-23011961D02*
X26190476Y-22821485D01*
X26190476Y-22821485D02*
X26190476Y-22488152D01*
X26190476Y-22488152D02*
X26238095Y-22297676D01*
X26238095Y-22297676D02*
X26333333Y-22202438D01*
X26333333Y-22202438D02*
X26428571Y-22154819D01*
X26428571Y-22154819D02*
X26619047Y-22154819D01*
X26619047Y-22154819D02*
X26714285Y-22202438D01*
X26714285Y-22202438D02*
X26809523Y-22297676D01*
X26809523Y-22297676D02*
X26857142Y-22488152D01*
X26857142Y-22488152D02*
X26857142Y-22821485D01*
X26857142Y-22821485D02*
X26809523Y-23011961D01*
X26809523Y-23011961D02*
X26714285Y-23107200D01*
X26714285Y-23107200D02*
X26619047Y-23154819D01*
X26619047Y-23154819D02*
X26428571Y-23154819D01*
X27809523Y-23154819D02*
X27238095Y-23154819D01*
X27523809Y-23154819D02*
X27523809Y-22154819D01*
X27523809Y-22154819D02*
X27428571Y-22297676D01*
X27428571Y-22297676D02*
X27333333Y-22392914D01*
X27333333Y-22392914D02*
X27238095Y-22440533D01*
X26261905Y-30454819D02*
X26261905Y-29454819D01*
X26261905Y-29454819D02*
X26500000Y-29454819D01*
X26500000Y-29454819D02*
X26642857Y-29502438D01*
X26642857Y-29502438D02*
X26738095Y-29597676D01*
X26738095Y-29597676D02*
X26785714Y-29692914D01*
X26785714Y-29692914D02*
X26833333Y-29883390D01*
X26833333Y-29883390D02*
X26833333Y-30026247D01*
X26833333Y-30026247D02*
X26785714Y-30216723D01*
X26785714Y-30216723D02*
X26738095Y-30311961D01*
X26738095Y-30311961D02*
X26642857Y-30407200D01*
X26642857Y-30407200D02*
X26500000Y-30454819D01*
X26500000Y-30454819D02*
X26261905Y-30454819D01*
X27166667Y-29454819D02*
X27785714Y-29454819D01*
X27785714Y-29454819D02*
X27452381Y-29835771D01*
X27452381Y-29835771D02*
X27595238Y-29835771D01*
X27595238Y-29835771D02*
X27690476Y-29883390D01*
X27690476Y-29883390D02*
X27738095Y-29931009D01*
X27738095Y-29931009D02*
X27785714Y-30026247D01*
X27785714Y-30026247D02*
X27785714Y-30264342D01*
X27785714Y-30264342D02*
X27738095Y-30359580D01*
X27738095Y-30359580D02*
X27690476Y-30407200D01*
X27690476Y-30407200D02*
X27595238Y-30454819D01*
X27595238Y-30454819D02*
X27309524Y-30454819D01*
X27309524Y-30454819D02*
X27214286Y-30407200D01*
X27214286Y-30407200D02*
X27166667Y-30359580D01*
X27833333Y-33454819D02*
X27500000Y-32978628D01*
X27261905Y-33454819D02*
X27261905Y-32454819D01*
X27261905Y-32454819D02*
X27642857Y-32454819D01*
X27642857Y-32454819D02*
X27738095Y-32502438D01*
X27738095Y-32502438D02*
X27785714Y-32550057D01*
X27785714Y-32550057D02*
X27833333Y-32645295D01*
X27833333Y-32645295D02*
X27833333Y-32788152D01*
X27833333Y-32788152D02*
X27785714Y-32883390D01*
X27785714Y-32883390D02*
X27738095Y-32931009D01*
X27738095Y-32931009D02*
X27642857Y-32978628D01*
X27642857Y-32978628D02*
X27261905Y-32978628D01*
X28785714Y-33454819D02*
X28214286Y-33454819D01*
X28500000Y-33454819D02*
X28500000Y-32454819D01*
X28500000Y-32454819D02*
X28404762Y-32597676D01*
X28404762Y-32597676D02*
X28309524Y-32692914D01*
X28309524Y-32692914D02*
X28214286Y-32740533D01*
X27954819Y-35666666D02*
X27478628Y-35999999D01*
X27954819Y-36238094D02*
X26954819Y-36238094D01*
X26954819Y-36238094D02*
X26954819Y-35857142D01*
X26954819Y-35857142D02*
X27002438Y-35761904D01*
X27002438Y-35761904D02*
X27050057Y-35714285D01*
X27050057Y-35714285D02*
X27145295Y-35666666D01*
X27145295Y-35666666D02*
X27288152Y-35666666D01*
X27288152Y-35666666D02*
X27383390Y-35714285D01*
X27383390Y-35714285D02*
X27431009Y-35761904D01*
X27431009Y-35761904D02*
X27478628Y-35857142D01*
X27478628Y-35857142D02*
X27478628Y-36238094D01*
X27288152Y-34809523D02*
X27954819Y-34809523D01*
X26907200Y-35047618D02*
X27621485Y-35285713D01*
X27621485Y-35285713D02*
X27621485Y-34666666D01*
X39833333Y-30859580D02*
X39785714Y-30907200D01*
X39785714Y-30907200D02*
X39642857Y-30954819D01*
X39642857Y-30954819D02*
X39547619Y-30954819D01*
X39547619Y-30954819D02*
X39404762Y-30907200D01*
X39404762Y-30907200D02*
X39309524Y-30811961D01*
X39309524Y-30811961D02*
X39261905Y-30716723D01*
X39261905Y-30716723D02*
X39214286Y-30526247D01*
X39214286Y-30526247D02*
X39214286Y-30383390D01*
X39214286Y-30383390D02*
X39261905Y-30192914D01*
X39261905Y-30192914D02*
X39309524Y-30097676D01*
X39309524Y-30097676D02*
X39404762Y-30002438D01*
X39404762Y-30002438D02*
X39547619Y-29954819D01*
X39547619Y-29954819D02*
X39642857Y-29954819D01*
X39642857Y-29954819D02*
X39785714Y-30002438D01*
X39785714Y-30002438D02*
X39833333Y-30050057D01*
X40785714Y-30954819D02*
X40214286Y-30954819D01*
X40500000Y-30954819D02*
X40500000Y-29954819D01*
X40500000Y-29954819D02*
X40404762Y-30097676D01*
X40404762Y-30097676D02*
X40309524Y-30192914D01*
X40309524Y-30192914D02*
X40214286Y-30240533D01*
X-34166667Y25640420D02*
X-34214286Y25592800D01*
X-34214286Y25592800D02*
X-34357143Y25545181D01*
X-34357143Y25545181D02*
X-34452381Y25545181D01*
X-34452381Y25545181D02*
X-34595238Y25592800D01*
X-34595238Y25592800D02*
X-34690476Y25688039D01*
X-34690476Y25688039D02*
X-34738095Y25783277D01*
X-34738095Y25783277D02*
X-34785714Y25973753D01*
X-34785714Y25973753D02*
X-34785714Y26116610D01*
X-34785714Y26116610D02*
X-34738095Y26307086D01*
X-34738095Y26307086D02*
X-34690476Y26402324D01*
X-34690476Y26402324D02*
X-34595238Y26497562D01*
X-34595238Y26497562D02*
X-34452381Y26545181D01*
X-34452381Y26545181D02*
X-34357143Y26545181D01*
X-34357143Y26545181D02*
X-34214286Y26497562D01*
X-34214286Y26497562D02*
X-34166667Y26449943D01*
X-33833333Y26545181D02*
X-33214286Y26545181D01*
X-33214286Y26545181D02*
X-33547619Y26164229D01*
X-33547619Y26164229D02*
X-33404762Y26164229D01*
X-33404762Y26164229D02*
X-33309524Y26116610D01*
X-33309524Y26116610D02*
X-33261905Y26068991D01*
X-33261905Y26068991D02*
X-33214286Y25973753D01*
X-33214286Y25973753D02*
X-33214286Y25735658D01*
X-33214286Y25735658D02*
X-33261905Y25640420D01*
X-33261905Y25640420D02*
X-33309524Y25592800D01*
X-33309524Y25592800D02*
X-33404762Y25545181D01*
X-33404762Y25545181D02*
X-33690476Y25545181D01*
X-33690476Y25545181D02*
X-33785714Y25592800D01*
X-33785714Y25592800D02*
X-33833333Y25640420D01*
X-41261905Y34545181D02*
X-41261905Y33735658D01*
X-41261905Y33735658D02*
X-41214286Y33640420D01*
X-41214286Y33640420D02*
X-41166667Y33592800D01*
X-41166667Y33592800D02*
X-41071429Y33545181D01*
X-41071429Y33545181D02*
X-40880953Y33545181D01*
X-40880953Y33545181D02*
X-40785715Y33592800D01*
X-40785715Y33592800D02*
X-40738096Y33640420D01*
X-40738096Y33640420D02*
X-40690477Y33735658D01*
X-40690477Y33735658D02*
X-40690477Y34545181D01*
X-39690477Y33545181D02*
X-40261905Y33545181D01*
X-39976191Y33545181D02*
X-39976191Y34545181D01*
X-39976191Y34545181D02*
X-40071429Y34402324D01*
X-40071429Y34402324D02*
X-40166667Y34307086D01*
X-40166667Y34307086D02*
X-40261905Y34259467D01*
X24833333Y51140420D02*
X24785714Y51092800D01*
X24785714Y51092800D02*
X24642857Y51045181D01*
X24642857Y51045181D02*
X24547619Y51045181D01*
X24547619Y51045181D02*
X24404762Y51092800D01*
X24404762Y51092800D02*
X24309524Y51188039D01*
X24309524Y51188039D02*
X24261905Y51283277D01*
X24261905Y51283277D02*
X24214286Y51473753D01*
X24214286Y51473753D02*
X24214286Y51616610D01*
X24214286Y51616610D02*
X24261905Y51807086D01*
X24261905Y51807086D02*
X24309524Y51902324D01*
X24309524Y51902324D02*
X24404762Y51997562D01*
X24404762Y51997562D02*
X24547619Y52045181D01*
X24547619Y52045181D02*
X24642857Y52045181D01*
X24642857Y52045181D02*
X24785714Y51997562D01*
X24785714Y51997562D02*
X24833333Y51949943D01*
X25690476Y51711848D02*
X25690476Y51045181D01*
X25452381Y52092800D02*
X25214286Y51378515D01*
X25214286Y51378515D02*
X25833333Y51378515D01*
X-46166667Y26640420D02*
X-46214286Y26592800D01*
X-46214286Y26592800D02*
X-46357143Y26545181D01*
X-46357143Y26545181D02*
X-46452381Y26545181D01*
X-46452381Y26545181D02*
X-46595238Y26592800D01*
X-46595238Y26592800D02*
X-46690476Y26688039D01*
X-46690476Y26688039D02*
X-46738095Y26783277D01*
X-46738095Y26783277D02*
X-46785714Y26973753D01*
X-46785714Y26973753D02*
X-46785714Y27116610D01*
X-46785714Y27116610D02*
X-46738095Y27307086D01*
X-46738095Y27307086D02*
X-46690476Y27402324D01*
X-46690476Y27402324D02*
X-46595238Y27497562D01*
X-46595238Y27497562D02*
X-46452381Y27545181D01*
X-46452381Y27545181D02*
X-46357143Y27545181D01*
X-46357143Y27545181D02*
X-46214286Y27497562D01*
X-46214286Y27497562D02*
X-46166667Y27449943D01*
X-45785714Y27449943D02*
X-45738095Y27497562D01*
X-45738095Y27497562D02*
X-45642857Y27545181D01*
X-45642857Y27545181D02*
X-45404762Y27545181D01*
X-45404762Y27545181D02*
X-45309524Y27497562D01*
X-45309524Y27497562D02*
X-45261905Y27449943D01*
X-45261905Y27449943D02*
X-45214286Y27354705D01*
X-45214286Y27354705D02*
X-45214286Y27259467D01*
X-45214286Y27259467D02*
X-45261905Y27116610D01*
X-45261905Y27116610D02*
X-45833333Y26545181D01*
X-45833333Y26545181D02*
X-45214286Y26545181D01*
X41357142Y-32359580D02*
X41309523Y-32407200D01*
X41309523Y-32407200D02*
X41166666Y-32454819D01*
X41166666Y-32454819D02*
X41071428Y-32454819D01*
X41071428Y-32454819D02*
X40928571Y-32407200D01*
X40928571Y-32407200D02*
X40833333Y-32311961D01*
X40833333Y-32311961D02*
X40785714Y-32216723D01*
X40785714Y-32216723D02*
X40738095Y-32026247D01*
X40738095Y-32026247D02*
X40738095Y-31883390D01*
X40738095Y-31883390D02*
X40785714Y-31692914D01*
X40785714Y-31692914D02*
X40833333Y-31597676D01*
X40833333Y-31597676D02*
X40928571Y-31502438D01*
X40928571Y-31502438D02*
X41071428Y-31454819D01*
X41071428Y-31454819D02*
X41166666Y-31454819D01*
X41166666Y-31454819D02*
X41309523Y-31502438D01*
X41309523Y-31502438D02*
X41357142Y-31550057D01*
X42309523Y-32454819D02*
X41738095Y-32454819D01*
X42023809Y-32454819D02*
X42023809Y-31454819D01*
X42023809Y-31454819D02*
X41928571Y-31597676D01*
X41928571Y-31597676D02*
X41833333Y-31692914D01*
X41833333Y-31692914D02*
X41738095Y-31740533D01*
X42928571Y-31454819D02*
X43023809Y-31454819D01*
X43023809Y-31454819D02*
X43119047Y-31502438D01*
X43119047Y-31502438D02*
X43166666Y-31550057D01*
X43166666Y-31550057D02*
X43214285Y-31645295D01*
X43214285Y-31645295D02*
X43261904Y-31835771D01*
X43261904Y-31835771D02*
X43261904Y-32073866D01*
X43261904Y-32073866D02*
X43214285Y-32264342D01*
X43214285Y-32264342D02*
X43166666Y-32359580D01*
X43166666Y-32359580D02*
X43119047Y-32407200D01*
X43119047Y-32407200D02*
X43023809Y-32454819D01*
X43023809Y-32454819D02*
X42928571Y-32454819D01*
X42928571Y-32454819D02*
X42833333Y-32407200D01*
X42833333Y-32407200D02*
X42785714Y-32359580D01*
X42785714Y-32359580D02*
X42738095Y-32264342D01*
X42738095Y-32264342D02*
X42690476Y-32073866D01*
X42690476Y-32073866D02*
X42690476Y-31835771D01*
X42690476Y-31835771D02*
X42738095Y-31645295D01*
X42738095Y-31645295D02*
X42785714Y-31550057D01*
X42785714Y-31550057D02*
X42833333Y-31502438D01*
X42833333Y-31502438D02*
X42928571Y-31454819D01*
X-42642858Y-12359580D02*
X-42690477Y-12407200D01*
X-42690477Y-12407200D02*
X-42833334Y-12454819D01*
X-42833334Y-12454819D02*
X-42928572Y-12454819D01*
X-42928572Y-12454819D02*
X-43071429Y-12407200D01*
X-43071429Y-12407200D02*
X-43166667Y-12311961D01*
X-43166667Y-12311961D02*
X-43214286Y-12216723D01*
X-43214286Y-12216723D02*
X-43261905Y-12026247D01*
X-43261905Y-12026247D02*
X-43261905Y-11883390D01*
X-43261905Y-11883390D02*
X-43214286Y-11692914D01*
X-43214286Y-11692914D02*
X-43166667Y-11597676D01*
X-43166667Y-11597676D02*
X-43071429Y-11502438D01*
X-43071429Y-11502438D02*
X-42928572Y-11454819D01*
X-42928572Y-11454819D02*
X-42833334Y-11454819D01*
X-42833334Y-11454819D02*
X-42690477Y-11502438D01*
X-42690477Y-11502438D02*
X-42642858Y-11550057D01*
X-41690477Y-12454819D02*
X-42261905Y-12454819D01*
X-41976191Y-12454819D02*
X-41976191Y-11454819D01*
X-41976191Y-11454819D02*
X-42071429Y-11597676D01*
X-42071429Y-11597676D02*
X-42166667Y-11692914D01*
X-42166667Y-11692914D02*
X-42261905Y-11740533D01*
X-40738096Y-12454819D02*
X-41309524Y-12454819D01*
X-41023810Y-12454819D02*
X-41023810Y-11454819D01*
X-41023810Y-11454819D02*
X-41119048Y-11597676D01*
X-41119048Y-11597676D02*
X-41214286Y-11692914D01*
X-41214286Y-11692914D02*
X-41309524Y-11740533D01*
X-54333334Y10545181D02*
X-54333334Y9830896D01*
X-54333334Y9830896D02*
X-54380953Y9688039D01*
X-54380953Y9688039D02*
X-54476191Y9592800D01*
X-54476191Y9592800D02*
X-54619048Y9545181D01*
X-54619048Y9545181D02*
X-54714286Y9545181D01*
X-53904762Y10449943D02*
X-53857143Y10497562D01*
X-53857143Y10497562D02*
X-53761905Y10545181D01*
X-53761905Y10545181D02*
X-53523810Y10545181D01*
X-53523810Y10545181D02*
X-53428572Y10497562D01*
X-53428572Y10497562D02*
X-53380953Y10449943D01*
X-53380953Y10449943D02*
X-53333334Y10354705D01*
X-53333334Y10354705D02*
X-53333334Y10259467D01*
X-53333334Y10259467D02*
X-53380953Y10116610D01*
X-53380953Y10116610D02*
X-53952381Y9545181D01*
X-53952381Y9545181D02*
X-53333334Y9545181D01*
X-17353334Y23045181D02*
X-17353334Y22330896D01*
X-17353334Y22330896D02*
X-17400953Y22188039D01*
X-17400953Y22188039D02*
X-17496191Y22092800D01*
X-17496191Y22092800D02*
X-17639048Y22045181D01*
X-17639048Y22045181D02*
X-17734286Y22045181D01*
X-16400953Y23045181D02*
X-16877143Y23045181D01*
X-16877143Y23045181D02*
X-16924762Y22568991D01*
X-16924762Y22568991D02*
X-16877143Y22616610D01*
X-16877143Y22616610D02*
X-16781905Y22664229D01*
X-16781905Y22664229D02*
X-16543810Y22664229D01*
X-16543810Y22664229D02*
X-16448572Y22616610D01*
X-16448572Y22616610D02*
X-16400953Y22568991D01*
X-16400953Y22568991D02*
X-16353334Y22473753D01*
X-16353334Y22473753D02*
X-16353334Y22235658D01*
X-16353334Y22235658D02*
X-16400953Y22140420D01*
X-16400953Y22140420D02*
X-16448572Y22092800D01*
X-16448572Y22092800D02*
X-16543810Y22045181D01*
X-16543810Y22045181D02*
X-16781905Y22045181D01*
X-16781905Y22045181D02*
X-16877143Y22092800D01*
X-16877143Y22092800D02*
X-16924762Y22140420D01*
X-17353334Y53045181D02*
X-17353334Y52330896D01*
X-17353334Y52330896D02*
X-17400953Y52188039D01*
X-17400953Y52188039D02*
X-17496191Y52092800D01*
X-17496191Y52092800D02*
X-17639048Y52045181D01*
X-17639048Y52045181D02*
X-17734286Y52045181D01*
X-16448572Y53045181D02*
X-16639048Y53045181D01*
X-16639048Y53045181D02*
X-16734286Y52997562D01*
X-16734286Y52997562D02*
X-16781905Y52949943D01*
X-16781905Y52949943D02*
X-16877143Y52807086D01*
X-16877143Y52807086D02*
X-16924762Y52616610D01*
X-16924762Y52616610D02*
X-16924762Y52235658D01*
X-16924762Y52235658D02*
X-16877143Y52140420D01*
X-16877143Y52140420D02*
X-16829524Y52092800D01*
X-16829524Y52092800D02*
X-16734286Y52045181D01*
X-16734286Y52045181D02*
X-16543810Y52045181D01*
X-16543810Y52045181D02*
X-16448572Y52092800D01*
X-16448572Y52092800D02*
X-16400953Y52140420D01*
X-16400953Y52140420D02*
X-16353334Y52235658D01*
X-16353334Y52235658D02*
X-16353334Y52473753D01*
X-16353334Y52473753D02*
X-16400953Y52568991D01*
X-16400953Y52568991D02*
X-16448572Y52616610D01*
X-16448572Y52616610D02*
X-16543810Y52664229D01*
X-16543810Y52664229D02*
X-16734286Y52664229D01*
X-16734286Y52664229D02*
X-16829524Y52616610D01*
X-16829524Y52616610D02*
X-16877143Y52568991D01*
X-16877143Y52568991D02*
X-16924762Y52473753D01*
X-14363334Y-41654819D02*
X-14363334Y-42369104D01*
X-14363334Y-42369104D02*
X-14410953Y-42511961D01*
X-14410953Y-42511961D02*
X-14506191Y-42607200D01*
X-14506191Y-42607200D02*
X-14649048Y-42654819D01*
X-14649048Y-42654819D02*
X-14744286Y-42654819D01*
X-13982381Y-41654819D02*
X-13315715Y-41654819D01*
X-13315715Y-41654819D02*
X-13744286Y-42654819D01*
X-37223334Y-41654819D02*
X-37223334Y-42369104D01*
X-37223334Y-42369104D02*
X-37270953Y-42511961D01*
X-37270953Y-42511961D02*
X-37366191Y-42607200D01*
X-37366191Y-42607200D02*
X-37509048Y-42654819D01*
X-37509048Y-42654819D02*
X-37604286Y-42654819D01*
X-36604286Y-42083390D02*
X-36699524Y-42035771D01*
X-36699524Y-42035771D02*
X-36747143Y-41988152D01*
X-36747143Y-41988152D02*
X-36794762Y-41892914D01*
X-36794762Y-41892914D02*
X-36794762Y-41845295D01*
X-36794762Y-41845295D02*
X-36747143Y-41750057D01*
X-36747143Y-41750057D02*
X-36699524Y-41702438D01*
X-36699524Y-41702438D02*
X-36604286Y-41654819D01*
X-36604286Y-41654819D02*
X-36413810Y-41654819D01*
X-36413810Y-41654819D02*
X-36318572Y-41702438D01*
X-36318572Y-41702438D02*
X-36270953Y-41750057D01*
X-36270953Y-41750057D02*
X-36223334Y-41845295D01*
X-36223334Y-41845295D02*
X-36223334Y-41892914D01*
X-36223334Y-41892914D02*
X-36270953Y-41988152D01*
X-36270953Y-41988152D02*
X-36318572Y-42035771D01*
X-36318572Y-42035771D02*
X-36413810Y-42083390D01*
X-36413810Y-42083390D02*
X-36604286Y-42083390D01*
X-36604286Y-42083390D02*
X-36699524Y-42131009D01*
X-36699524Y-42131009D02*
X-36747143Y-42178628D01*
X-36747143Y-42178628D02*
X-36794762Y-42273866D01*
X-36794762Y-42273866D02*
X-36794762Y-42464342D01*
X-36794762Y-42464342D02*
X-36747143Y-42559580D01*
X-36747143Y-42559580D02*
X-36699524Y-42607200D01*
X-36699524Y-42607200D02*
X-36604286Y-42654819D01*
X-36604286Y-42654819D02*
X-36413810Y-42654819D01*
X-36413810Y-42654819D02*
X-36318572Y-42607200D01*
X-36318572Y-42607200D02*
X-36270953Y-42559580D01*
X-36270953Y-42559580D02*
X-36223334Y-42464342D01*
X-36223334Y-42464342D02*
X-36223334Y-42273866D01*
X-36223334Y-42273866D02*
X-36270953Y-42178628D01*
X-36270953Y-42178628D02*
X-36318572Y-42131009D01*
X-36318572Y-42131009D02*
X-36413810Y-42083390D01*
X50338095Y-27954819D02*
X50338095Y-26954819D01*
X50338095Y-27431009D02*
X50909523Y-27431009D01*
X50909523Y-27954819D02*
X50909523Y-26954819D01*
X51909523Y-27954819D02*
X51338095Y-27954819D01*
X51623809Y-27954819D02*
X51623809Y-26954819D01*
X51623809Y-26954819D02*
X51528571Y-27097676D01*
X51528571Y-27097676D02*
X51433333Y-27192914D01*
X51433333Y-27192914D02*
X51338095Y-27240533D01*
X-51861905Y-27954819D02*
X-51861905Y-26954819D01*
X-51861905Y-27431009D02*
X-51290477Y-27431009D01*
X-51290477Y-27954819D02*
X-51290477Y-26954819D01*
X-50861905Y-27050057D02*
X-50814286Y-27002438D01*
X-50814286Y-27002438D02*
X-50719048Y-26954819D01*
X-50719048Y-26954819D02*
X-50480953Y-26954819D01*
X-50480953Y-26954819D02*
X-50385715Y-27002438D01*
X-50385715Y-27002438D02*
X-50338096Y-27050057D01*
X-50338096Y-27050057D02*
X-50290477Y-27145295D01*
X-50290477Y-27145295D02*
X-50290477Y-27240533D01*
X-50290477Y-27240533D02*
X-50338096Y-27383390D01*
X-50338096Y-27383390D02*
X-50909524Y-27954819D01*
X-50909524Y-27954819D02*
X-50290477Y-27954819D01*
X-761905Y51395181D02*
X-761905Y52395181D01*
X-761905Y51918991D02*
X-190477Y51918991D01*
X-190477Y51395181D02*
X-190477Y52395181D01*
X190476Y52395181D02*
X809523Y52395181D01*
X809523Y52395181D02*
X476190Y52014229D01*
X476190Y52014229D02*
X619047Y52014229D01*
X619047Y52014229D02*
X714285Y51966610D01*
X714285Y51966610D02*
X761904Y51918991D01*
X761904Y51918991D02*
X809523Y51823753D01*
X809523Y51823753D02*
X809523Y51585658D01*
X809523Y51585658D02*
X761904Y51490420D01*
X761904Y51490420D02*
X714285Y51442800D01*
X714285Y51442800D02*
X619047Y51395181D01*
X619047Y51395181D02*
X333333Y51395181D01*
X333333Y51395181D02*
X238095Y51442800D01*
X238095Y51442800D02*
X190476Y51490420D01*
X34657142Y28745181D02*
X34657142Y28030896D01*
X34657142Y28030896D02*
X34609523Y27888039D01*
X34609523Y27888039D02*
X34514285Y27792800D01*
X34514285Y27792800D02*
X34371428Y27745181D01*
X34371428Y27745181D02*
X34276190Y27745181D01*
X35085714Y27792800D02*
X35228571Y27745181D01*
X35228571Y27745181D02*
X35466666Y27745181D01*
X35466666Y27745181D02*
X35561904Y27792800D01*
X35561904Y27792800D02*
X35609523Y27840420D01*
X35609523Y27840420D02*
X35657142Y27935658D01*
X35657142Y27935658D02*
X35657142Y28030896D01*
X35657142Y28030896D02*
X35609523Y28126134D01*
X35609523Y28126134D02*
X35561904Y28173753D01*
X35561904Y28173753D02*
X35466666Y28221372D01*
X35466666Y28221372D02*
X35276190Y28268991D01*
X35276190Y28268991D02*
X35180952Y28316610D01*
X35180952Y28316610D02*
X35133333Y28364229D01*
X35133333Y28364229D02*
X35085714Y28459467D01*
X35085714Y28459467D02*
X35085714Y28554705D01*
X35085714Y28554705D02*
X35133333Y28649943D01*
X35133333Y28649943D02*
X35180952Y28697562D01*
X35180952Y28697562D02*
X35276190Y28745181D01*
X35276190Y28745181D02*
X35514285Y28745181D01*
X35514285Y28745181D02*
X35657142Y28697562D01*
X35942857Y28745181D02*
X36514285Y28745181D01*
X36228571Y27745181D02*
X36228571Y28745181D01*
X38133333Y28697562D02*
X38038095Y28745181D01*
X38038095Y28745181D02*
X37895238Y28745181D01*
X37895238Y28745181D02*
X37752381Y28697562D01*
X37752381Y28697562D02*
X37657143Y28602324D01*
X37657143Y28602324D02*
X37609524Y28507086D01*
X37609524Y28507086D02*
X37561905Y28316610D01*
X37561905Y28316610D02*
X37561905Y28173753D01*
X37561905Y28173753D02*
X37609524Y27983277D01*
X37609524Y27983277D02*
X37657143Y27888039D01*
X37657143Y27888039D02*
X37752381Y27792800D01*
X37752381Y27792800D02*
X37895238Y27745181D01*
X37895238Y27745181D02*
X37990476Y27745181D01*
X37990476Y27745181D02*
X38133333Y27792800D01*
X38133333Y27792800D02*
X38180952Y27840420D01*
X38180952Y27840420D02*
X38180952Y28173753D01*
X38180952Y28173753D02*
X37990476Y28173753D01*
X38609524Y27745181D02*
X38609524Y28745181D01*
X38609524Y28268991D02*
X39180952Y28268991D01*
X39180952Y27745181D02*
X39180952Y28745181D01*
X40847619Y27792800D02*
X40752381Y27745181D01*
X40752381Y27745181D02*
X40561905Y27745181D01*
X40561905Y27745181D02*
X40466667Y27792800D01*
X40466667Y27792800D02*
X40419048Y27840420D01*
X40419048Y27840420D02*
X40371429Y27935658D01*
X40371429Y27935658D02*
X40371429Y28221372D01*
X40371429Y28221372D02*
X40419048Y28316610D01*
X40419048Y28316610D02*
X40466667Y28364229D01*
X40466667Y28364229D02*
X40561905Y28411848D01*
X40561905Y28411848D02*
X40752381Y28411848D01*
X40752381Y28411848D02*
X40847619Y28364229D01*
X41704762Y27745181D02*
X41704762Y28268991D01*
X41704762Y28268991D02*
X41657143Y28364229D01*
X41657143Y28364229D02*
X41561905Y28411848D01*
X41561905Y28411848D02*
X41371429Y28411848D01*
X41371429Y28411848D02*
X41276191Y28364229D01*
X41704762Y27792800D02*
X41609524Y27745181D01*
X41609524Y27745181D02*
X41371429Y27745181D01*
X41371429Y27745181D02*
X41276191Y27792800D01*
X41276191Y27792800D02*
X41228572Y27888039D01*
X41228572Y27888039D02*
X41228572Y27983277D01*
X41228572Y27983277D02*
X41276191Y28078515D01*
X41276191Y28078515D02*
X41371429Y28126134D01*
X41371429Y28126134D02*
X41609524Y28126134D01*
X41609524Y28126134D02*
X41704762Y28173753D01*
X42180953Y27745181D02*
X42180953Y28745181D01*
X42180953Y28364229D02*
X42276191Y28411848D01*
X42276191Y28411848D02*
X42466667Y28411848D01*
X42466667Y28411848D02*
X42561905Y28364229D01*
X42561905Y28364229D02*
X42609524Y28316610D01*
X42609524Y28316610D02*
X42657143Y28221372D01*
X42657143Y28221372D02*
X42657143Y27935658D01*
X42657143Y27935658D02*
X42609524Y27840420D01*
X42609524Y27840420D02*
X42561905Y27792800D01*
X42561905Y27792800D02*
X42466667Y27745181D01*
X42466667Y27745181D02*
X42276191Y27745181D01*
X42276191Y27745181D02*
X42180953Y27792800D01*
X43228572Y27745181D02*
X43133334Y27792800D01*
X43133334Y27792800D02*
X43085715Y27888039D01*
X43085715Y27888039D02*
X43085715Y28745181D01*
X43990477Y27792800D02*
X43895239Y27745181D01*
X43895239Y27745181D02*
X43704763Y27745181D01*
X43704763Y27745181D02*
X43609525Y27792800D01*
X43609525Y27792800D02*
X43561906Y27888039D01*
X43561906Y27888039D02*
X43561906Y28268991D01*
X43561906Y28268991D02*
X43609525Y28364229D01*
X43609525Y28364229D02*
X43704763Y28411848D01*
X43704763Y28411848D02*
X43895239Y28411848D01*
X43895239Y28411848D02*
X43990477Y28364229D01*
X43990477Y28364229D02*
X44038096Y28268991D01*
X44038096Y28268991D02*
X44038096Y28173753D01*
X44038096Y28173753D02*
X43561906Y28078515D01*
X45228573Y28126134D02*
X45990478Y28126134D01*
X46466668Y28411848D02*
X47228573Y28126134D01*
X47228573Y28126134D02*
X46466668Y27840420D01*
X19309524Y3745181D02*
X19976190Y3745181D01*
X19976190Y3745181D02*
X19309524Y2745181D01*
X19309524Y2745181D02*
X19976190Y2745181D01*
X20214286Y3745181D02*
X20785714Y3745181D01*
X20500000Y2745181D02*
X20500000Y3745181D01*
X21642857Y2745181D02*
X21071429Y2745181D01*
X21357143Y2745181D02*
X21357143Y3745181D01*
X21357143Y3745181D02*
X21261905Y3602324D01*
X21261905Y3602324D02*
X21166667Y3507086D01*
X21166667Y3507086D02*
X21071429Y3459467D01*
X50909524Y3745181D02*
X51576190Y3745181D01*
X51576190Y3745181D02*
X50909524Y2745181D01*
X50909524Y2745181D02*
X51576190Y2745181D01*
X51814286Y3745181D02*
X52385714Y3745181D01*
X52100000Y2745181D02*
X52100000Y3745181D01*
X52671429Y3649943D02*
X52719048Y3697562D01*
X52719048Y3697562D02*
X52814286Y3745181D01*
X52814286Y3745181D02*
X53052381Y3745181D01*
X53052381Y3745181D02*
X53147619Y3697562D01*
X53147619Y3697562D02*
X53195238Y3649943D01*
X53195238Y3649943D02*
X53242857Y3554705D01*
X53242857Y3554705D02*
X53242857Y3459467D01*
X53242857Y3459467D02*
X53195238Y3316610D01*
X53195238Y3316610D02*
X52623810Y2745181D01*
X52623810Y2745181D02*
X53242857Y2745181D01*
X19309524Y11745181D02*
X19976190Y11745181D01*
X19976190Y11745181D02*
X19309524Y10745181D01*
X19309524Y10745181D02*
X19976190Y10745181D01*
X20214286Y11745181D02*
X20785714Y11745181D01*
X20500000Y10745181D02*
X20500000Y11745181D01*
X21023810Y11745181D02*
X21642857Y11745181D01*
X21642857Y11745181D02*
X21309524Y11364229D01*
X21309524Y11364229D02*
X21452381Y11364229D01*
X21452381Y11364229D02*
X21547619Y11316610D01*
X21547619Y11316610D02*
X21595238Y11268991D01*
X21595238Y11268991D02*
X21642857Y11173753D01*
X21642857Y11173753D02*
X21642857Y10935658D01*
X21642857Y10935658D02*
X21595238Y10840420D01*
X21595238Y10840420D02*
X21547619Y10792800D01*
X21547619Y10792800D02*
X21452381Y10745181D01*
X21452381Y10745181D02*
X21166667Y10745181D01*
X21166667Y10745181D02*
X21071429Y10792800D01*
X21071429Y10792800D02*
X21023810Y10840420D01*
X50909524Y11745181D02*
X51576190Y11745181D01*
X51576190Y11745181D02*
X50909524Y10745181D01*
X50909524Y10745181D02*
X51576190Y10745181D01*
X51814286Y11745181D02*
X52385714Y11745181D01*
X52100000Y10745181D02*
X52100000Y11745181D01*
X53147619Y11411848D02*
X53147619Y10745181D01*
X52909524Y11792800D02*
X52671429Y11078515D01*
X52671429Y11078515D02*
X53290476Y11078515D01*
X35666666Y-22554819D02*
X35666666Y-23269104D01*
X35666666Y-23269104D02*
X35619047Y-23411961D01*
X35619047Y-23411961D02*
X35523809Y-23507200D01*
X35523809Y-23507200D02*
X35380952Y-23554819D01*
X35380952Y-23554819D02*
X35285714Y-23554819D01*
X36047619Y-22554819D02*
X36666666Y-22554819D01*
X36666666Y-22554819D02*
X36333333Y-22935771D01*
X36333333Y-22935771D02*
X36476190Y-22935771D01*
X36476190Y-22935771D02*
X36571428Y-22983390D01*
X36571428Y-22983390D02*
X36619047Y-23031009D01*
X36619047Y-23031009D02*
X36666666Y-23126247D01*
X36666666Y-23126247D02*
X36666666Y-23364342D01*
X36666666Y-23364342D02*
X36619047Y-23459580D01*
X36619047Y-23459580D02*
X36571428Y-23507200D01*
X36571428Y-23507200D02*
X36476190Y-23554819D01*
X36476190Y-23554819D02*
X36190476Y-23554819D01*
X36190476Y-23554819D02*
X36095238Y-23507200D01*
X36095238Y-23507200D02*
X36047619Y-23459580D01*
X-43385181Y-19383333D02*
X-42670896Y-19383333D01*
X-42670896Y-19383333D02*
X-42528039Y-19430952D01*
X-42528039Y-19430952D02*
X-42432800Y-19526190D01*
X-42432800Y-19526190D02*
X-42385181Y-19669047D01*
X-42385181Y-19669047D02*
X-42385181Y-19764285D01*
X-43051848Y-18478571D02*
X-42385181Y-18478571D01*
X-43432800Y-18716666D02*
X-42718515Y-18954761D01*
X-42718515Y-18954761D02*
X-42718515Y-18335714D01*
%TO.C,SENS1*%
D11*
X23700000Y33000000D02*
X48900000Y33000000D01*
X48900000Y-21800000D01*
X23700000Y-21800000D01*
X23700000Y33000000D01*
%TO.C,LDR1*%
X-43670000Y16310000D02*
X-50890000Y16310000D01*
X-43670000Y16310000D02*
X-43670000Y-17250000D01*
X-50890000Y16310000D02*
X-50890000Y-17250000D01*
%TO.C,ZT1*%
X22500000Y0D02*
G75*
G02*
X18500000Y0I-2000000J0D01*
G01*
X18500000Y0D02*
G75*
G02*
X22500000Y0I2000000J0D01*
G01*
%TO.C,ZT2*%
X54100000Y0D02*
G75*
G02*
X50100000Y0I-2000000J0D01*
G01*
X50100000Y0D02*
G75*
G02*
X54100000Y0I2000000J0D01*
G01*
%TO.C,ZT3*%
X22500000Y8000000D02*
G75*
G02*
X18500000Y8000000I-2000000J0D01*
G01*
X18500000Y8000000D02*
G75*
G02*
X22500000Y8000000I2000000J0D01*
G01*
%TO.C,ZT4*%
X54100000Y8000000D02*
G75*
G02*
X50100000Y8000000I-2000000J0D01*
G01*
X50100000Y8000000D02*
G75*
G02*
X54100000Y8000000I2000000J0D01*
G01*
%TO.C,J3*%
X30515000Y-25290000D02*
X32315000Y-25290000D01*
X30515000Y-26740000D02*
X30515000Y-25290000D01*
X31785000Y-29560000D02*
X40215000Y-29560000D01*
X32315000Y-25290000D02*
X32315000Y-24300000D01*
X41485000Y-25290000D02*
X39685000Y-25290000D01*
X41485000Y-26740000D02*
X41485000Y-25290000D01*
%TO.C,J4*%
X-43930000Y-17890000D02*
X-43930000Y-19050000D01*
X-44740000Y-17890000D02*
X-43930000Y-17890000D01*
X-45550000Y-17890000D02*
X-50565000Y-17890000D01*
X-45550000Y-17890000D02*
X-45550000Y-18383292D01*
X-50565000Y-17890000D02*
X-50565000Y-18732077D01*
X-50565000Y-19367923D02*
X-50565000Y-20210000D01*
X-45550000Y-19716708D02*
X-45550000Y-20210000D01*
X-45550000Y-20210000D02*
X-50565000Y-20210000D01*
%TO.C,J1*%
X6080000Y-12290000D02*
X4080000Y-12290000D01*
X5830000Y-13790000D02*
X6080000Y-12290000D01*
X5380000Y-25310000D02*
X4780000Y-25310000D01*
X5080000Y-24710000D02*
X5380000Y-25310000D01*
X4780000Y-25310000D02*
X5080000Y-24710000D01*
X4330000Y-13790000D02*
X5830000Y-13790000D01*
X4080000Y-12290000D02*
X4330000Y-13790000D01*
X1000000Y-12290000D02*
X-1000000Y-12290000D01*
X750000Y-13790000D02*
X1000000Y-12290000D01*
X-750000Y-13790000D02*
X750000Y-13790000D01*
X-1000000Y-12290000D02*
X-750000Y-13790000D01*
X-4080000Y-12290000D02*
X-6080000Y-12290000D01*
X-4330000Y-13790000D02*
X-4080000Y-12290000D01*
X-5830000Y-13790000D02*
X-4330000Y-13790000D01*
X-6080000Y-12290000D02*
X-5830000Y-13790000D01*
X-8730000Y-12290000D02*
X8730000Y-12290000D01*
X8730000Y-24510000D01*
X-8730000Y-24510000D01*
X-8730000Y-12290000D01*
X-8730000Y-13790000D02*
X8730000Y-13790000D01*
X8730000Y-15590000D01*
X-8730000Y-15590000D01*
X-8730000Y-13790000D01*
%TO.C,J9*%
X34760000Y-41475000D02*
X33710000Y-41475000D01*
X34760000Y-38975000D02*
X34760000Y-41475000D01*
X33710000Y-41475000D02*
X33710000Y-42465000D01*
X33590000Y-37005000D02*
X29710000Y-37005000D01*
X28540000Y-41475000D02*
X29590000Y-41475000D01*
X28540000Y-38975000D02*
X28540000Y-41475000D01*
%TO.C,J10*%
X10780000Y-42380000D02*
X9400000Y-42380000D01*
X10780000Y-41000000D02*
X10780000Y-42380000D01*
X10780000Y-39730000D02*
X10780000Y-26920000D01*
X10780000Y-39730000D02*
X8020000Y-39730000D01*
X10780000Y-26920000D02*
X8020000Y-26920000D01*
X8020000Y-39730000D02*
X8020000Y-26920000D01*
%TO.C,MOD1*%
X-27560000Y50600000D02*
X20300000Y50600000D01*
X20300000Y24200000D01*
X-27560000Y24200000D01*
X-27560000Y50600000D01*
%TO.C,MOD2*%
X-38660000Y16310000D02*
X-12260000Y16310000D01*
X-12260000Y-40440000D01*
X-38660000Y-40440000D01*
X-38660000Y16310000D01*
%TO.C,J5*%
X-21120000Y24640000D02*
X14500000Y24640000D01*
X-21120000Y24640000D02*
X-21120000Y27300000D01*
X14500000Y24640000D02*
X14500000Y27300000D01*
X-23720000Y25970000D02*
X-23720000Y27300000D01*
X-23720000Y27300000D02*
X-22390000Y27300000D01*
X-21120000Y27300000D02*
X14500000Y27300000D01*
%TO.C,J6*%
X-21120000Y47500000D02*
X14500000Y47500000D01*
X-21120000Y47500000D02*
X-21120000Y50160000D01*
X14500000Y47500000D02*
X14500000Y50160000D01*
X-23720000Y48830000D02*
X-23720000Y50160000D01*
X-23720000Y50160000D02*
X-22390000Y50160000D01*
X-21120000Y50160000D02*
X14500000Y50160000D01*
%TO.C,J7*%
X-12700000Y-36830000D02*
X-12700000Y-18990000D01*
X-12700000Y-36830000D02*
X-15360000Y-36830000D01*
X-12700000Y-18990000D02*
X-15360000Y-18990000D01*
X-14030000Y-39430000D02*
X-15360000Y-39430000D01*
X-15360000Y-39430000D02*
X-15360000Y-38100000D01*
X-15360000Y-36830000D02*
X-15360000Y-18990000D01*
%TO.C,J8*%
X-35560000Y-36830000D02*
X-35560000Y-18990000D01*
X-35560000Y-36830000D02*
X-38220000Y-36830000D01*
X-35560000Y-18990000D02*
X-38220000Y-18990000D01*
X-36890000Y-39430000D02*
X-38220000Y-39430000D01*
X-38220000Y-39430000D02*
X-38220000Y-38100000D01*
X-38220000Y-36830000D02*
X-38220000Y-18990000D01*
%TO.C,D11*%
D12*
X9395000Y1425000D02*
G75*
G02*
X9205000Y1425000I-95000J0D01*
G01*
X9205000Y1425000D02*
G75*
G02*
X9395000Y1425000I95000J0D01*
G01*
%TO.C,D12*%
X8861536Y-3415914D02*
G75*
G02*
X8671536Y-3415914I-95000J0D01*
G01*
X8671536Y-3415914D02*
G75*
G02*
X8861536Y-3415914I95000J0D01*
G01*
%TO.C,D13*%
X5979086Y-7341536D02*
G75*
G02*
X5789086Y-7341536I-95000J0D01*
G01*
X5789086Y-7341536D02*
G75*
G02*
X5979086Y-7341536I95000J0D01*
G01*
%TO.C,D15*%
X-3320914Y-8766536D02*
G75*
G02*
X-3510914Y-8766536I-95000J0D01*
G01*
X-3510914Y-8766536D02*
G75*
G02*
X-3320914Y-8766536I95000J0D01*
G01*
%TO.C,D16*%
X-7246536Y-5884086D02*
G75*
G02*
X-7436536Y-5884086I-95000J0D01*
G01*
X-7436536Y-5884086D02*
G75*
G02*
X-7246536Y-5884086I95000J0D01*
G01*
%TO.C,D17*%
X-9205000Y-1425000D02*
G75*
G02*
X-9395000Y-1425000I-95000J0D01*
G01*
X-9395000Y-1425000D02*
G75*
G02*
X-9205000Y-1425000I95000J0D01*
G01*
%TO.C,D18*%
X-8671536Y3415914D02*
G75*
G02*
X-8861536Y3415914I-95000J0D01*
G01*
X-8861536Y3415914D02*
G75*
G02*
X-8671536Y3415914I95000J0D01*
G01*
%TO.C,D19*%
X-5789086Y7341536D02*
G75*
G02*
X-5979086Y7341536I-95000J0D01*
G01*
X-5979086Y7341536D02*
G75*
G02*
X-5789086Y7341536I95000J0D01*
G01*
%TO.C,D20*%
X-1330000Y9300000D02*
G75*
G02*
X-1520000Y9300000I-95000J0D01*
G01*
X-1520000Y9300000D02*
G75*
G02*
X-1330000Y9300000I95000J0D01*
G01*
%TO.C,D21*%
X3510914Y8766536D02*
G75*
G02*
X3320914Y8766536I-95000J0D01*
G01*
X3320914Y8766536D02*
G75*
G02*
X3510914Y8766536I95000J0D01*
G01*
%TO.C,D22*%
X7436536Y5884086D02*
G75*
G02*
X7246536Y5884086I-95000J0D01*
G01*
X7246536Y5884086D02*
G75*
G02*
X7436536Y5884086I95000J0D01*
G01*
%TO.C,D1*%
D11*
X16950000Y-10600000D02*
X16950000Y-8400000D01*
%TO.C,D3*%
X26500000Y-27550000D02*
X26500000Y-28450000D01*
%TO.C,C1*%
D10*
X35300000Y-35500000D02*
X35300000Y-36500000D01*
X34800000Y-36000000D02*
X35800000Y-36000000D01*
%TO.C,C3*%
X-38700000Y24500000D02*
X-38700000Y23500000D01*
X-39200000Y24000000D02*
X-38200000Y24000000D01*
%TO.C,U1*%
D13*
X-38275000Y32500000D02*
G75*
G02*
X-38725000Y32500000I-225000J0D01*
G01*
X-38725000Y32500000D02*
G75*
G02*
X-38275000Y32500000I225000J0D01*
G01*
%TO.C,D2*%
D11*
X1200000Y37850000D02*
X1200000Y36150000D01*
%TO.C,C4*%
D10*
X21150000Y47500000D02*
X21150000Y46500000D01*
X20650000Y47000000D02*
X21650000Y47000000D01*
%TD*%
%LPC*%
D14*
%TO.C,H1*%
X47631397Y-27500000D03*
%TD*%
%TO.C,H2*%
X-47631397Y-27500000D03*
%TD*%
%TO.C,H3*%
X0Y55000000D03*
%TD*%
D15*
%TO.C,ZT1*%
X20500000Y0D03*
%TD*%
%TO.C,ZT2*%
X52100000Y0D03*
%TD*%
%TO.C,ZT3*%
X20500000Y8000000D03*
%TD*%
%TO.C,ZT4*%
X52100000Y8000000D03*
%TD*%
D16*
%TO.C,J3*%
X32875000Y-25150000D03*
X34125000Y-25150000D03*
X35375000Y-25150000D03*
X36625000Y-25150000D03*
X37875000Y-25150000D03*
X39125000Y-25150000D03*
D17*
X31025000Y-28350000D03*
X40975000Y-28350000D03*
%TD*%
D18*
%TO.C,J4*%
X-44740000Y-19050000D03*
D19*
X-46010000Y-19050000D03*
X-47280000Y-19050000D03*
X-48550000Y-19050000D03*
X-49820000Y-19050000D03*
%TD*%
D20*
%TO.C,J1*%
X5080000Y-22400000D03*
D21*
X0Y-22400000D03*
X-5080000Y-22400000D03*
%TD*%
D22*
%TO.C,J9*%
X33150000Y-41690000D03*
X32150000Y-41690000D03*
X31150000Y-41690000D03*
X30150000Y-41690000D03*
D23*
X34450000Y-37815000D03*
X28850000Y-37815000D03*
%TD*%
D24*
%TO.C,J10*%
X9400000Y-41000000D03*
D25*
X9400000Y-38460000D03*
X9400000Y-35920000D03*
X9400000Y-33380000D03*
X9400000Y-30840000D03*
X9400000Y-28300000D03*
%TD*%
D24*
%TO.C,J5*%
X-22390000Y25970000D03*
D25*
X-19850000Y25970000D03*
X-17310000Y25970000D03*
X-14770000Y25970000D03*
X-12230000Y25970000D03*
X-9690000Y25970000D03*
X-7150000Y25970000D03*
X-4610000Y25970000D03*
X-2070000Y25970000D03*
X470000Y25970000D03*
X3010000Y25970000D03*
X5550000Y25970000D03*
X8090000Y25970000D03*
X10630000Y25970000D03*
X13170000Y25970000D03*
%TD*%
D24*
%TO.C,J6*%
X-22390000Y48830000D03*
D25*
X-19850000Y48830000D03*
X-17310000Y48830000D03*
X-14770000Y48830000D03*
X-12230000Y48830000D03*
X-9690000Y48830000D03*
X-7150000Y48830000D03*
X-4610000Y48830000D03*
X-2070000Y48830000D03*
X470000Y48830000D03*
X3010000Y48830000D03*
X5550000Y48830000D03*
X8090000Y48830000D03*
X10630000Y48830000D03*
X13170000Y48830000D03*
%TD*%
D24*
%TO.C,J7*%
X-14030000Y-38100000D03*
D25*
X-14030000Y-35560000D03*
X-14030000Y-33020000D03*
X-14030000Y-30480000D03*
X-14030000Y-27940000D03*
X-14030000Y-25400000D03*
X-14030000Y-22860000D03*
X-14030000Y-20320000D03*
%TD*%
D24*
%TO.C,J8*%
X-36890000Y-38100000D03*
D25*
X-36890000Y-35560000D03*
X-36890000Y-33020000D03*
X-36890000Y-30480000D03*
X-36890000Y-27940000D03*
X-36890000Y-25400000D03*
X-36890000Y-22860000D03*
X-36890000Y-20320000D03*
%TD*%
D26*
%TO.C,D11*%
X10150000Y1425000D03*
X10150000Y475000D03*
X10150000Y-475000D03*
X10150000Y-1425000D03*
%TD*%
D27*
%TO.C,C20*%
X7600000Y425000D03*
X7600000Y-425000D03*
%TD*%
D28*
%TO.C,D12*%
X9502657Y-3840914D03*
X9027657Y-4663638D03*
X8552657Y-5486362D03*
X8077657Y-6309086D03*
%TD*%
D29*
%TO.C,C21*%
X6794293Y-3431939D03*
X6369293Y-4168061D03*
%TD*%
D30*
%TO.C,D13*%
X6309086Y-8077657D03*
X5486362Y-8552657D03*
X4663638Y-9027657D03*
X3840914Y-9502657D03*
%TD*%
D31*
%TO.C,C22*%
X4168061Y-6369293D03*
X3431939Y-6794293D03*
%TD*%
D32*
%TO.C,D15*%
X-3840914Y-9502657D03*
X-4663638Y-9027657D03*
X-5486362Y-8552657D03*
X-6309086Y-8077657D03*
%TD*%
D33*
%TO.C,C24*%
X-3431939Y-6794293D03*
X-4168061Y-6369293D03*
%TD*%
D34*
%TO.C,D16*%
X-8077657Y-6309086D03*
X-8552657Y-5486362D03*
X-9027657Y-4663638D03*
X-9502657Y-3840914D03*
%TD*%
D35*
%TO.C,C25*%
X-6369293Y-4168061D03*
X-6794293Y-3431939D03*
%TD*%
D26*
%TO.C,D17*%
X-10150000Y-1425000D03*
X-10150000Y-475000D03*
X-10150000Y475000D03*
X-10150000Y1425000D03*
%TD*%
D27*
%TO.C,C26*%
X-7600000Y-425000D03*
X-7600000Y425000D03*
%TD*%
D36*
%TO.C,D18*%
X-9502657Y3840914D03*
X-9027657Y4663638D03*
X-8552657Y5486362D03*
X-8077657Y6309086D03*
%TD*%
D37*
%TO.C,C27*%
X-6794293Y3431939D03*
X-6369293Y4168061D03*
%TD*%
D38*
%TO.C,D19*%
X-6309086Y8077657D03*
X-5486362Y8552657D03*
X-4663638Y9027657D03*
X-3840914Y9502657D03*
%TD*%
D39*
%TO.C,C28*%
X-4168061Y6369293D03*
X-3431939Y6794293D03*
%TD*%
D40*
%TO.C,D20*%
X-1425000Y10150000D03*
X-475000Y10150000D03*
X475000Y10150000D03*
X1425000Y10150000D03*
%TD*%
D41*
%TO.C,C29*%
X-425000Y7600000D03*
X425000Y7600000D03*
%TD*%
D42*
%TO.C,D21*%
X3840914Y9502657D03*
X4663638Y9027657D03*
X5486362Y8552657D03*
X6309086Y8077657D03*
%TD*%
D43*
%TO.C,C30*%
X3431939Y6794293D03*
X4168061Y6369293D03*
%TD*%
D44*
%TO.C,D22*%
X8077657Y6309086D03*
X8552657Y5486362D03*
X9027657Y4663638D03*
X9502657Y3840914D03*
%TD*%
D45*
%TO.C,C31*%
X6369293Y4168061D03*
X6794293Y3431939D03*
%TD*%
D46*
%TO.C,D1*%
X18550000Y-9500000D03*
X13450000Y-9500000D03*
%TD*%
D47*
%TO.C,Q1*%
X26050000Y-26100000D03*
X27950000Y-26100000D03*
X27000000Y-23900000D03*
%TD*%
D48*
%TO.C,D3*%
X25800000Y-28000000D03*
X28200000Y-28000000D03*
%TD*%
D49*
%TO.C,F1*%
X51150000Y-9000000D03*
X56850000Y-9000000D03*
%TD*%
D50*
%TO.C,R1*%
X24150000Y-33000000D03*
X25850000Y-33000000D03*
%TD*%
%TO.C,R4*%
X24150000Y-35500000D03*
X25850000Y-35500000D03*
%TD*%
D51*
%TO.C,C1*%
X38250000Y-36000000D03*
D52*
X41750000Y-36000000D03*
%TD*%
D51*
%TO.C,C3*%
X-35750000Y24000000D03*
D52*
X-32250000Y24000000D03*
%TD*%
D53*
%TO.C,U1*%
X-37400000Y30550000D03*
X-35700000Y30550000D03*
X-34000000Y30550000D03*
X-32300000Y30550000D03*
X-30600000Y30550000D03*
D54*
X-34000000Y36000000D03*
%TD*%
D55*
%TO.C,D2*%
X-250000Y37000000D03*
X4250000Y37000000D03*
%TD*%
D56*
%TO.C,L1*%
X7250000Y37000000D03*
X10750000Y37000000D03*
%TD*%
D51*
%TO.C,C4*%
X23750000Y47000000D03*
D52*
X26250000Y47000000D03*
%TD*%
D57*
%TO.C,U2*%
X-2950000Y44250000D03*
X-2950000Y43750000D03*
X-2950000Y43250000D03*
X-2950000Y42750000D03*
X-1050000Y42750000D03*
X-1050000Y43250000D03*
X-1050000Y43750000D03*
X-1050000Y44250000D03*
%TD*%
D56*
%TO.C,L2*%
X2250000Y44000000D03*
X5750000Y44000000D03*
%TD*%
D50*
%TO.C,R2*%
X9150000Y44000000D03*
X10850000Y44000000D03*
%TD*%
%TO.C,R3*%
X12150000Y44000000D03*
X13850000Y44000000D03*
%TD*%
%TO.C,C13*%
X-14850000Y30000000D03*
X-13150000Y30000000D03*
%TD*%
%TO.C,C14*%
X-6850000Y30000000D03*
X-5150000Y30000000D03*
%TD*%
D58*
%TO.C,C9*%
X-900000Y30000000D03*
X900000Y30000000D03*
%TD*%
D50*
%TO.C,C17*%
X3150000Y30000000D03*
X4850000Y30000000D03*
%TD*%
%TO.C,R5*%
X7150000Y30000000D03*
X8850000Y30000000D03*
%TD*%
%TO.C,R6*%
X10150000Y30000000D03*
X11850000Y30000000D03*
%TD*%
%TO.C,R7*%
X13150000Y30000000D03*
X14850000Y30000000D03*
%TD*%
D58*
%TO.C,C5*%
X-25900000Y46000000D03*
X-24100000Y46000000D03*
%TD*%
D50*
%TO.C,C15*%
X-17850000Y46000000D03*
X-16150000Y46000000D03*
%TD*%
D58*
%TO.C,C6*%
X-14900000Y46000000D03*
X-13100000Y46000000D03*
%TD*%
D50*
%TO.C,C16*%
X-10850000Y46000000D03*
X-9150000Y46000000D03*
%TD*%
%TO.C,C7*%
X-6850000Y46000000D03*
X-5150000Y46000000D03*
%TD*%
%TO.C,C8*%
X-2850000Y46000000D03*
X-1150000Y46000000D03*
%TD*%
D58*
%TO.C,C2*%
X-46900000Y25000000D03*
X-45100000Y25000000D03*
%TD*%
D50*
%TO.C,C10*%
X45150000Y-32000000D03*
X46850000Y-32000000D03*
%TD*%
%TO.C,C11*%
X-42850000Y-14000000D03*
X-41150000Y-14000000D03*
%TD*%
%TO.C,C12*%
X-25850000Y-23000000D03*
X-24150000Y-23000000D03*
%TD*%
D24*
%TO.C,J2*%
X-54000000Y8000000D03*
D25*
X-54000000Y5460000D03*
X-54000000Y2920000D03*
X-54000000Y380000D03*
X-54000000Y-2160000D03*
X-54000000Y-4700000D03*
%TD*%
%LPD*%
M02*
