%TF.GenerationSoftware,KiCad,Pcbnew,10.0.2*%
%TF.CreationDate,2026-05-17T23:49:45+02:00*%
%TF.ProjectId,oas,6f61732e-6b69-4636-9164-5f7063625858,rev?*%
%TF.SameCoordinates,Original*%
%TF.FileFunction,Paste,Top*%
%TF.FilePolarity,Positive*%
%FSLAX46Y46*%
G04 Gerber Fmt 4.6, Leading zero omitted, Abs format (unit mm)*
G04 Created by KiCad (PCBNEW 10.0.2) date 2026-05-17 23:49:45*
%MOMM*%
%LPD*%
G01*
G04 APERTURE LIST*
G04 Aperture macros list*
%AMRoundRect*
0 Rectangle with rounded corners*
0 $1 Rounding radius*
0 $2 $3 $4 $5 $6 $7 $8 $9 X,Y pos of 4 corners*
0 Add a 4 corners polygon primitive as box body*
4,1,4,$2,$3,$4,$5,$6,$7,$8,$9,$2,$3,0*
0 Add four circle primitives for the rounded corners*
1,1,$1+$1,$2,$3*
1,1,$1+$1,$4,$5*
1,1,$1+$1,$6,$7*
1,1,$1+$1,$8,$9*
0 Add four rect primitives between the rounded corners*
20,1,$1+$1,$2,$3,$4,$5,0*
20,1,$1+$1,$4,$5,$6,$7,0*
20,1,$1+$1,$6,$7,$8,$9,0*
20,1,$1+$1,$8,$9,$2,$3,0*%
%AMRotRect*
0 Rectangle, with rotation*
0 The origin of the aperture is its center*
0 $1 length*
0 $2 width*
0 $3 Rotation angle, in degrees counterclockwise*
0 Add horizontal line*
21,1,$1,$2,0,0,$3*%
G04 Aperture macros list end*
%ADD10RoundRect,0.150000X-0.150000X-0.700000X0.150000X-0.700000X0.150000X0.700000X-0.150000X0.700000X0*%
%ADD11RoundRect,0.250000X-0.250000X-1.100000X0.250000X-1.100000X0.250000X1.100000X-0.250000X1.100000X0*%
%ADD12RoundRect,0.150000X0.150000X0.625000X-0.150000X0.625000X-0.150000X-0.625000X0.150000X-0.625000X0*%
%ADD13RoundRect,0.250000X0.350000X0.650000X-0.350000X0.650000X-0.350000X-0.650000X0.350000X-0.650000X0*%
%ADD14R,1.000000X0.600000*%
%ADD15RoundRect,0.140000X-0.170000X0.140000X-0.170000X-0.140000X0.170000X-0.140000X0.170000X0.140000X0*%
%ADD16RotRect,0.600000X1.000000X240.000000*%
%ADD17RoundRect,0.140000X-0.077224X0.206244X-0.217224X-0.036244X0.077224X-0.206244X0.217224X0.036244X0*%
%ADD18RotRect,0.600000X1.000000X210.000000*%
%ADD19RoundRect,0.140000X0.036244X0.217224X-0.206244X0.077224X-0.036244X-0.217224X0.206244X-0.077224X0*%
%ADD20RotRect,0.600000X1.000000X150.000000*%
%ADD21RoundRect,0.140000X0.206244X0.077224X-0.036244X0.217224X-0.206244X-0.077224X0.036244X-0.217224X0*%
%ADD22RotRect,0.600000X1.000000X120.000000*%
%ADD23RoundRect,0.140000X0.217224X-0.036244X0.077224X0.206244X-0.217224X0.036244X-0.077224X-0.206244X0*%
%ADD24RoundRect,0.140000X0.170000X-0.140000X0.170000X0.140000X-0.170000X0.140000X-0.170000X-0.140000X0*%
%ADD25RotRect,0.600000X1.000000X60.000000*%
%ADD26RoundRect,0.140000X0.077224X-0.206244X0.217224X0.036244X-0.077224X0.206244X-0.217224X-0.036244X0*%
%ADD27RotRect,0.600000X1.000000X30.000000*%
%ADD28RoundRect,0.140000X-0.036244X-0.217224X0.206244X-0.077224X0.036244X0.217224X-0.206244X0.077224X0*%
%ADD29R,0.600000X1.000000*%
%ADD30RoundRect,0.140000X-0.140000X-0.170000X0.140000X-0.170000X0.140000X0.170000X-0.140000X0.170000X0*%
%ADD31RotRect,0.600000X1.000000X330.000000*%
%ADD32RoundRect,0.140000X-0.206244X-0.077224X0.036244X-0.217224X0.206244X0.077224X-0.036244X0.217224X0*%
%ADD33RotRect,0.600000X1.000000X300.000000*%
%ADD34RoundRect,0.140000X-0.217224X0.036244X-0.077224X-0.206244X0.217224X-0.036244X0.077224X0.206244X0*%
%ADD35RoundRect,0.250000X1.000000X0.900000X-1.000000X0.900000X-1.000000X-0.900000X1.000000X-0.900000X0*%
%ADD36RoundRect,0.150000X-0.587500X-0.150000X0.587500X-0.150000X0.587500X0.150000X-0.587500X0.150000X0*%
%ADD37RoundRect,0.112500X-0.187500X-0.112500X0.187500X-0.112500X0.187500X0.112500X-0.187500X0.112500X0*%
%ADD38RoundRect,0.250000X-0.712500X-2.475000X0.712500X-2.475000X0.712500X2.475000X-0.712500X2.475000X0*%
%ADD39RoundRect,0.200000X-0.200000X-0.275000X0.200000X-0.275000X0.200000X0.275000X-0.200000X0.275000X0*%
%ADD40RoundRect,0.250000X-2.025000X-2.375000X2.025000X-2.375000X2.025000X2.375000X-2.025000X2.375000X0*%
%ADD41RoundRect,0.250000X-2.050000X-0.300000X2.050000X-0.300000X2.050000X0.300000X-2.050000X0.300000X0*%
%ADD42RoundRect,0.250000X-1.000000X-0.650000X1.000000X-0.650000X1.000000X0.650000X-1.000000X0.650000X0*%
%ADD43RoundRect,0.249999X-0.850001X-1.850001X0.850001X-1.850001X0.850001X1.850001X-0.850001X1.850001X0*%
%ADD44RoundRect,0.050000X-0.285000X-0.100000X0.285000X-0.100000X0.285000X0.100000X-0.285000X0.100000X0*%
%ADD45RoundRect,0.225000X-0.225000X-0.250000X0.225000X-0.250000X0.225000X0.250000X-0.225000X0.250000X0*%
%ADD46RoundRect,0.250000X-0.250000X-0.475000X0.250000X-0.475000X0.250000X0.475000X-0.250000X0.475000X0*%
G04 APERTURE END LIST*
D10*
%TO.C,J3*%
X32875000Y-25150000D03*
X34125000Y-25150000D03*
X35375000Y-25150000D03*
X36625000Y-25150000D03*
X37875000Y-25150000D03*
X39125000Y-25150000D03*
D11*
X31025000Y-28350000D03*
X40975000Y-28350000D03*
%TD*%
D12*
%TO.C,J9*%
X33150000Y-41690000D03*
X32150000Y-41690000D03*
X31150000Y-41690000D03*
X30150000Y-41690000D03*
D13*
X34450000Y-37815000D03*
X28850000Y-37815000D03*
%TD*%
D14*
%TO.C,D11*%
X10150000Y1425000D03*
X10150000Y475000D03*
X10150000Y-475000D03*
X10150000Y-1425000D03*
%TD*%
D15*
%TO.C,C20*%
X7600000Y480000D03*
X7600000Y-480000D03*
%TD*%
D16*
%TO.C,D12*%
X9502657Y-3840914D03*
X9027657Y-4663638D03*
X8552657Y-5486362D03*
X8077657Y-6309086D03*
%TD*%
D17*
%TO.C,C21*%
X6821793Y-3384308D03*
X6341793Y-4215692D03*
%TD*%
D18*
%TO.C,D13*%
X6309086Y-8077657D03*
X5486362Y-8552657D03*
X4663638Y-9027657D03*
X3840914Y-9502657D03*
%TD*%
D19*
%TO.C,C22*%
X4215692Y-6341793D03*
X3384308Y-6821793D03*
%TD*%
D20*
%TO.C,D15*%
X-3840914Y-9502657D03*
X-4663638Y-9027657D03*
X-5486362Y-8552657D03*
X-6309086Y-8077657D03*
%TD*%
D21*
%TO.C,C24*%
X-3384308Y-6821793D03*
X-4215692Y-6341793D03*
%TD*%
D22*
%TO.C,D16*%
X-8077657Y-6309086D03*
X-8552657Y-5486362D03*
X-9027657Y-4663638D03*
X-9502657Y-3840914D03*
%TD*%
D23*
%TO.C,C25*%
X-6341793Y-4215692D03*
X-6821793Y-3384308D03*
%TD*%
D14*
%TO.C,D17*%
X-10150000Y-1425000D03*
X-10150000Y-475000D03*
X-10150000Y475000D03*
X-10150000Y1425000D03*
%TD*%
D24*
%TO.C,C26*%
X-7600000Y-480000D03*
X-7600000Y480000D03*
%TD*%
D25*
%TO.C,D18*%
X-9502657Y3840914D03*
X-9027657Y4663638D03*
X-8552657Y5486362D03*
X-8077657Y6309086D03*
%TD*%
D26*
%TO.C,C27*%
X-6821793Y3384308D03*
X-6341793Y4215692D03*
%TD*%
D27*
%TO.C,D19*%
X-6309086Y8077657D03*
X-5486362Y8552657D03*
X-4663638Y9027657D03*
X-3840914Y9502657D03*
%TD*%
D28*
%TO.C,C28*%
X-4215692Y6341793D03*
X-3384308Y6821793D03*
%TD*%
D29*
%TO.C,D20*%
X-1425000Y10150000D03*
X-475000Y10150000D03*
X475000Y10150000D03*
X1425000Y10150000D03*
%TD*%
D30*
%TO.C,C29*%
X-480000Y7600000D03*
X480000Y7600000D03*
%TD*%
D31*
%TO.C,D21*%
X3840914Y9502657D03*
X4663638Y9027657D03*
X5486362Y8552657D03*
X6309086Y8077657D03*
%TD*%
D32*
%TO.C,C30*%
X3384308Y6821793D03*
X4215692Y6341793D03*
%TD*%
D33*
%TO.C,D22*%
X8077657Y6309086D03*
X8552657Y5486362D03*
X9027657Y4663638D03*
X9502657Y3840914D03*
%TD*%
D34*
%TO.C,C31*%
X6341793Y4215692D03*
X6821793Y3384308D03*
%TD*%
D35*
%TO.C,D1*%
X18150000Y-9500000D03*
X13850000Y-9500000D03*
%TD*%
D36*
%TO.C,Q1*%
X26062500Y-24050000D03*
X26062500Y-25950000D03*
X27937500Y-25000000D03*
%TD*%
D37*
%TO.C,D3*%
X25950000Y-28000000D03*
X28050000Y-28000000D03*
%TD*%
D38*
%TO.C,F1*%
X50612500Y-9000000D03*
X57387500Y-9000000D03*
%TD*%
D39*
%TO.C,R1*%
X24175000Y-33000000D03*
X25825000Y-33000000D03*
%TD*%
%TO.C,R4*%
X24175000Y-35500000D03*
X25825000Y-35500000D03*
%TD*%
D40*
%TO.C,U1*%
X-34925000Y36775000D03*
X-34925000Y31225000D03*
X-30075000Y36775000D03*
X-30075000Y31225000D03*
D41*
X-41650000Y37400000D03*
X-41650000Y35700000D03*
X-41650000Y34000000D03*
X-41650000Y32300000D03*
X-41650000Y30600000D03*
%TD*%
D42*
%TO.C,D2*%
X0Y37000000D03*
X4000000Y37000000D03*
%TD*%
D43*
%TO.C,L1*%
X7350000Y37000000D03*
X10650000Y37000000D03*
%TD*%
D44*
%TO.C,U2*%
X-2740000Y44250000D03*
X-2740000Y43750000D03*
X-2740000Y43250000D03*
X-2740000Y42750000D03*
X-1260000Y42750000D03*
X-1260000Y43250000D03*
X-1260000Y43750000D03*
X-1260000Y44250000D03*
%TD*%
D43*
%TO.C,L2*%
X2350000Y44000000D03*
X5650000Y44000000D03*
%TD*%
D39*
%TO.C,R2*%
X9175000Y44000000D03*
X10825000Y44000000D03*
%TD*%
%TO.C,R3*%
X12175000Y44000000D03*
X13825000Y44000000D03*
%TD*%
D45*
%TO.C,C13*%
X-14775000Y30000000D03*
X-13225000Y30000000D03*
%TD*%
%TO.C,C14*%
X-6775000Y30000000D03*
X-5225000Y30000000D03*
%TD*%
D46*
%TO.C,C9*%
X-950000Y30000000D03*
X950000Y30000000D03*
%TD*%
D45*
%TO.C,C17*%
X3225000Y30000000D03*
X4775000Y30000000D03*
%TD*%
D39*
%TO.C,R5*%
X7175000Y30000000D03*
X8825000Y30000000D03*
%TD*%
%TO.C,R6*%
X10175000Y30000000D03*
X11825000Y30000000D03*
%TD*%
%TO.C,R7*%
X13175000Y30000000D03*
X14825000Y30000000D03*
%TD*%
D46*
%TO.C,C5*%
X-25950000Y46000000D03*
X-24050000Y46000000D03*
%TD*%
D45*
%TO.C,C15*%
X-19275000Y46000000D03*
X-17725000Y46000000D03*
%TD*%
D46*
%TO.C,C6*%
X-14950000Y46000000D03*
X-13050000Y46000000D03*
%TD*%
D45*
%TO.C,C16*%
X-10775000Y46000000D03*
X-9225000Y46000000D03*
%TD*%
%TO.C,C7*%
X-6775000Y46000000D03*
X-5225000Y46000000D03*
%TD*%
%TO.C,C8*%
X-2775000Y46000000D03*
X-1225000Y46000000D03*
%TD*%
D46*
%TO.C,C2*%
X-46950000Y25000000D03*
X-45050000Y25000000D03*
%TD*%
D45*
%TO.C,C10*%
X45225000Y-32000000D03*
X46775000Y-32000000D03*
%TD*%
%TO.C,C11*%
X-42775000Y-14000000D03*
X-41225000Y-14000000D03*
%TD*%
%TO.C,C12*%
X-25775000Y-23000000D03*
X-24225000Y-23000000D03*
%TD*%
M02*
