M48
; DRILL file KiCad 10.0.2 date 2026-05-18T22:45:42
; FORMAT={-:-/ absolute / metric / decimal}
; #@! TF.CreationDate,2026-05-18T22:45:42+02:00
; #@! TF.GenerationSoftware,Kicad,Pcbnew,10.0.2
; #@! TF.FileFunction,Plated,1,2,PTH
FMAT,2
METRIC
; #@! TA.AperFunction,Plated,PTH,ViaDrill
T1C0.300
; #@! TA.AperFunction,Plated,PTH,ComponentDrill
T2C0.650
; #@! TA.AperFunction,Plated,PTH,ComponentDrill
T3C0.800
; #@! TA.AperFunction,Plated,PTH,ComponentDrill
T4C1.000
; #@! TA.AperFunction,Plated,PTH,ComponentDrill
T5C1.400
%
G90
G05
T1
X95.12Y-100.85
X95.19Y-98.47
X97.53Y-115.94
X98.66Y-108.683
X105.85Y-71.0
X109.61Y-70.084
X110.97Y-59.037
X115.27Y-93.005
X120.24Y-73.12
X126.62Y-128.03
X136.5Y-124.9
X137.27Y-109.84
X139.0Y-109.38
X139.576Y-96.758
X140.687Y-95.977
X142.32Y-113.29
X142.638Y-60.419
X143.275Y-75.0
X143.28Y-113.07
X144.0Y-60.0
X144.689Y-59.331
X144.81Y-94.87
X146.013Y-82.405
X146.7Y-59.0
X147.27Y-63.19
X147.77Y-60.0
X148.021Y-62.676
X148.156Y-80.086
X148.238Y-61.852
X148.5Y-139.0
X149.131Y-62.975
X149.204Y-64.231
X150.57Y-76.588
X151.36Y-94.76
X151.434Y-126.377
X152.44Y-57.62
X153.56Y-75.59
X154.061Y-81.307
X154.255Y-67.924
X154.366Y-122.982
X154.49Y-96.77
X155.102Y-82.188
X156.57Y-110.22
X156.59Y-82.0
X156.83Y-120.451
X157.05Y-100.62
X157.298Y-129.34
X157.953Y-70.883
X158.72Y-107.8
X158.84Y-125.11
X159.0Y-87.0
X159.73Y-100.16
X161.67Y-82.0
X163.09Y-141.22
X166.36Y-60.79
X178.65Y-123.5
X178.65Y-126.5
X179.65Y-124.5
X179.65Y-127.5
X182.625Y-130.15
X184.63Y-130.15
T2
X98.68Y-124.05
X99.95Y-124.05
X101.22Y-124.05
X102.49Y-124.05
X103.76Y-124.05
T3
X112.75Y-83.0
X116.25Y-83.0
X172.25Y-58.0
X174.75Y-58.0
X179.75Y-63.0
X183.25Y-63.0
T4
X94.5Y-97.0
X94.5Y-99.54
X94.5Y-102.08
X94.5Y-104.62
X94.5Y-107.16
X94.5Y-109.7
X109.61Y-125.32
X109.61Y-127.86
X109.61Y-130.4
X109.61Y-132.94
X109.61Y-135.48
X109.61Y-138.02
X109.61Y-140.56
X109.61Y-143.1
X126.11Y-56.17
X126.11Y-79.03
X128.65Y-56.17
X128.65Y-79.03
X131.19Y-56.17
X131.19Y-79.03
X132.47Y-125.32
X132.47Y-127.86
X132.47Y-130.4
X132.47Y-132.94
X132.47Y-135.48
X132.47Y-138.02
X132.47Y-140.56
X132.47Y-143.1
X133.73Y-56.17
X133.73Y-79.03
X136.27Y-56.17
X136.27Y-79.03
X137.54Y-85.0
X138.81Y-56.17
X138.81Y-79.03
X140.08Y-85.0
X141.35Y-56.17
X141.35Y-79.03
X142.62Y-85.0
X143.89Y-56.17
X143.89Y-79.03
X145.16Y-85.0
X146.43Y-56.17
X146.43Y-79.03
X147.7Y-85.0
X148.97Y-56.17
X148.97Y-79.03
X150.24Y-85.0
X151.51Y-56.17
X151.51Y-79.03
X154.05Y-56.17
X154.05Y-79.03
X156.59Y-56.17
X156.59Y-79.03
X159.13Y-56.17
X159.13Y-79.03
X161.67Y-56.17
X161.67Y-79.03
T5
X143.42Y-132.4
X148.5Y-132.4
X153.58Y-132.4
M30
