%TF.GenerationSoftware,KiCad,Pcbnew,10.0.2*%
%TF.CreationDate,2026-05-18T22:45:41+02:00*%
%TF.ProjectId,oas,6f61732e-6b69-4636-9164-5f7063625858,rev?*%
%TF.SameCoordinates,Original*%
%TF.FileFunction,Legend,Top*%
%TF.FilePolarity,Positive*%
%FSLAX46Y46*%
G04 Gerber Fmt 4.6, Leading zero omitted, Abs format (unit mm)*
G04 Created by KiCad (PCBNEW 10.0.2) date 2026-05-18 22:45:41*
%MOMM*%
%LPD*%
G01*
G04 APERTURE LIST*
G04 Aperture macros list*
%AMRoundRect*
0 Rectangle with rounded corners*
0 $1 Rounding radius*
0 $2 $3 $4 $5 $6 $7 $8 $9 X,Y pos of 4 corners*
0 Add a 4 corners polygon primitive as box body*
4,1,4,$2,$3,$4,$5,$6,$7,$8,$9,$2,$3,0*
0 Add four circle primitives for the rounded corners*
1,1,$1+$1,$2,$3*
1,1,$1+$1,$4,$5*
1,1,$1+$1,$6,$7*
1,1,$1+$1,$8,$9*
0 Add four rect primitives between the rounded corners*
20,1,$1+$1,$2,$3,$4,$5,0*
20,1,$1+$1,$4,$5,$6,$7,0*
20,1,$1+$1,$6,$7,$8,$9,0*
20,1,$1+$1,$8,$9,$2,$3,0*%
%AMRotRect*
0 Rectangle, with rotation*
0 The origin of the aperture is its center*
0 $1 length*
0 $2 width*
0 $3 Rotation angle, in degrees counterclockwise*
0 Add horizontal line*
21,1,$1,$2,0,0,$3*%
G04 Aperture macros list end*
%ADD10C,0.150000*%
%ADD11C,0.120000*%
%ADD12C,0.190000*%
%ADD13C,3.800000*%
%ADD14C,3.000000*%
%ADD15RoundRect,0.150000X-0.150000X-0.700000X0.150000X-0.700000X0.150000X0.700000X-0.150000X0.700000X0*%
%ADD16RoundRect,0.250000X-0.250000X-1.100000X0.250000X-1.100000X0.250000X1.100000X-0.250000X1.100000X0*%
%ADD17R,1.000000X1.000000*%
%ADD18C,1.000000*%
%ADD19RoundRect,0.249999X0.790001X1.550001X-0.790001X1.550001X-0.790001X-1.550001X0.790001X-1.550001X0*%
%ADD20O,2.080000X3.600000*%
%ADD21RoundRect,0.150000X0.150000X0.625000X-0.150000X0.625000X-0.150000X-0.625000X0.150000X-0.625000X0*%
%ADD22RoundRect,0.250000X0.350000X0.650000X-0.350000X0.650000X-0.350000X-0.650000X0.350000X-0.650000X0*%
%ADD23R,1.700000X1.700000*%
%ADD24C,1.700000*%
%ADD25R,1.000000X0.600000*%
%ADD26RoundRect,0.140000X-0.170000X0.140000X-0.170000X-0.140000X0.170000X-0.140000X0.170000X0.140000X0*%
%ADD27RotRect,0.600000X1.000000X240.000000*%
%ADD28RoundRect,0.140000X-0.077224X0.206244X-0.217224X-0.036244X0.077224X-0.206244X0.217224X0.036244X0*%
%ADD29RotRect,0.600000X1.000000X210.000000*%
%ADD30RoundRect,0.140000X0.036244X0.217224X-0.206244X0.077224X-0.036244X-0.217224X0.206244X-0.077224X0*%
%ADD31RotRect,0.600000X1.000000X150.000000*%
%ADD32RoundRect,0.140000X0.206244X0.077224X-0.036244X0.217224X-0.206244X-0.077224X0.036244X-0.217224X0*%
%ADD33RotRect,0.600000X1.000000X120.000000*%
%ADD34RoundRect,0.140000X0.217224X-0.036244X0.077224X0.206244X-0.217224X0.036244X-0.077224X-0.206244X0*%
%ADD35RoundRect,0.140000X0.170000X-0.140000X0.170000X0.140000X-0.170000X0.140000X-0.170000X-0.140000X0*%
%ADD36RotRect,0.600000X1.000000X60.000000*%
%ADD37RoundRect,0.140000X0.077224X-0.206244X0.217224X0.036244X-0.077224X0.206244X-0.217224X-0.036244X0*%
%ADD38RotRect,0.600000X1.000000X30.000000*%
%ADD39RoundRect,0.140000X-0.036244X-0.217224X0.206244X-0.077224X0.036244X0.217224X-0.206244X0.077224X0*%
%ADD40R,0.600000X1.000000*%
%ADD41RoundRect,0.140000X-0.140000X-0.170000X0.140000X-0.170000X0.140000X0.170000X-0.140000X0.170000X0*%
%ADD42RotRect,0.600000X1.000000X330.000000*%
%ADD43RoundRect,0.140000X-0.206244X-0.077224X0.036244X-0.217224X0.206244X0.077224X-0.036244X0.217224X0*%
%ADD44RotRect,0.600000X1.000000X300.000000*%
%ADD45RoundRect,0.140000X-0.217224X0.036244X-0.077224X-0.206244X0.217224X-0.036244X0.077224X0.206244X0*%
%ADD46RoundRect,0.250000X1.000000X0.900000X-1.000000X0.900000X-1.000000X-0.900000X1.000000X-0.900000X0*%
%ADD47RoundRect,0.150000X-0.587500X-0.150000X0.587500X-0.150000X0.587500X0.150000X-0.587500X0.150000X0*%
%ADD48RoundRect,0.112500X-0.187500X-0.112500X0.187500X-0.112500X0.187500X0.112500X-0.187500X0.112500X0*%
%ADD49RoundRect,0.250000X-0.712500X-2.475000X0.712500X-2.475000X0.712500X2.475000X-0.712500X2.475000X0*%
%ADD50RoundRect,0.200000X-0.200000X-0.275000X0.200000X-0.275000X0.200000X0.275000X-0.200000X0.275000X0*%
%ADD51RoundRect,0.250000X-0.550000X-0.550000X0.550000X-0.550000X0.550000X0.550000X-0.550000X0.550000X0*%
%ADD52C,1.600000*%
%ADD53RoundRect,0.250000X-2.050000X-0.300000X2.050000X-0.300000X2.050000X0.300000X-2.050000X0.300000X0*%
%ADD54RoundRect,0.250002X-4.449998X-5.149998X4.449998X-5.149998X4.449998X5.149998X-4.449998X5.149998X0*%
%ADD55RoundRect,0.250000X-1.000000X-0.650000X1.000000X-0.650000X1.000000X0.650000X-1.000000X0.650000X0*%
%ADD56RoundRect,0.249999X-0.850001X-1.850001X0.850001X-1.850001X0.850001X1.850001X-0.850001X1.850001X0*%
%ADD57RoundRect,0.050000X-0.285000X-0.100000X0.285000X-0.100000X0.285000X0.100000X-0.285000X0.100000X0*%
%ADD58RoundRect,0.225000X-0.225000X-0.250000X0.225000X-0.250000X0.225000X0.250000X-0.225000X0.250000X0*%
%ADD59RoundRect,0.250000X-0.250000X-0.475000X0.250000X-0.475000X0.250000X0.475000X-0.250000X0.475000X0*%
G04 APERTURE END LIST*
D10*
X29799999Y2592800D02*
X29942856Y2545181D01*
X29942856Y2545181D02*
X30180951Y2545181D01*
X30180951Y2545181D02*
X30276189Y2592800D01*
X30276189Y2592800D02*
X30323808Y2640420D01*
X30323808Y2640420D02*
X30371427Y2735658D01*
X30371427Y2735658D02*
X30371427Y2830896D01*
X30371427Y2830896D02*
X30323808Y2926134D01*
X30323808Y2926134D02*
X30276189Y2973753D01*
X30276189Y2973753D02*
X30180951Y3021372D01*
X30180951Y3021372D02*
X29990475Y3068991D01*
X29990475Y3068991D02*
X29895237Y3116610D01*
X29895237Y3116610D02*
X29847618Y3164229D01*
X29847618Y3164229D02*
X29799999Y3259467D01*
X29799999Y3259467D02*
X29799999Y3354705D01*
X29799999Y3354705D02*
X29847618Y3449943D01*
X29847618Y3449943D02*
X29895237Y3497562D01*
X29895237Y3497562D02*
X29990475Y3545181D01*
X29990475Y3545181D02*
X30228570Y3545181D01*
X30228570Y3545181D02*
X30371427Y3497562D01*
X30799999Y3068991D02*
X31133332Y3068991D01*
X31276189Y2545181D02*
X30799999Y2545181D01*
X30799999Y2545181D02*
X30799999Y3545181D01*
X30799999Y3545181D02*
X31276189Y3545181D01*
X31704761Y2545181D02*
X31704761Y3545181D01*
X31704761Y3545181D02*
X32276189Y2545181D01*
X32276189Y2545181D02*
X32276189Y3545181D01*
X33180951Y3545181D02*
X32990475Y3545181D01*
X32990475Y3545181D02*
X32895237Y3497562D01*
X32895237Y3497562D02*
X32847618Y3449943D01*
X32847618Y3449943D02*
X32752380Y3307086D01*
X32752380Y3307086D02*
X32704761Y3116610D01*
X32704761Y3116610D02*
X32704761Y2735658D01*
X32704761Y2735658D02*
X32752380Y2640420D01*
X32752380Y2640420D02*
X32799999Y2592800D01*
X32799999Y2592800D02*
X32895237Y2545181D01*
X32895237Y2545181D02*
X33085713Y2545181D01*
X33085713Y2545181D02*
X33180951Y2592800D01*
X33180951Y2592800D02*
X33228570Y2640420D01*
X33228570Y2640420D02*
X33276189Y2735658D01*
X33276189Y2735658D02*
X33276189Y2973753D01*
X33276189Y2973753D02*
X33228570Y3068991D01*
X33228570Y3068991D02*
X33180951Y3116610D01*
X33180951Y3116610D02*
X33085713Y3164229D01*
X33085713Y3164229D02*
X32895237Y3164229D01*
X32895237Y3164229D02*
X32799999Y3116610D01*
X32799999Y3116610D02*
X32752380Y3068991D01*
X32752380Y3068991D02*
X32704761Y2973753D01*
X34133332Y3545181D02*
X33942856Y3545181D01*
X33942856Y3545181D02*
X33847618Y3497562D01*
X33847618Y3497562D02*
X33799999Y3449943D01*
X33799999Y3449943D02*
X33704761Y3307086D01*
X33704761Y3307086D02*
X33657142Y3116610D01*
X33657142Y3116610D02*
X33657142Y2735658D01*
X33657142Y2735658D02*
X33704761Y2640420D01*
X33704761Y2640420D02*
X33752380Y2592800D01*
X33752380Y2592800D02*
X33847618Y2545181D01*
X33847618Y2545181D02*
X34038094Y2545181D01*
X34038094Y2545181D02*
X34133332Y2592800D01*
X34133332Y2592800D02*
X34180951Y2640420D01*
X34180951Y2640420D02*
X34228570Y2735658D01*
X34228570Y2735658D02*
X34228570Y2973753D01*
X34228570Y2973753D02*
X34180951Y3068991D01*
X34180951Y3068991D02*
X34133332Y3116610D01*
X34133332Y3116610D02*
X34038094Y3164229D01*
X34038094Y3164229D02*
X33847618Y3164229D01*
X33847618Y3164229D02*
X33752380Y3116610D01*
X33752380Y3116610D02*
X33704761Y3068991D01*
X33704761Y3068991D02*
X33657142Y2973753D01*
X35847618Y2545181D02*
X35847618Y3068991D01*
X35847618Y3068991D02*
X35799999Y3164229D01*
X35799999Y3164229D02*
X35704761Y3211848D01*
X35704761Y3211848D02*
X35514285Y3211848D01*
X35514285Y3211848D02*
X35419047Y3164229D01*
X35847618Y2592800D02*
X35752380Y2545181D01*
X35752380Y2545181D02*
X35514285Y2545181D01*
X35514285Y2545181D02*
X35419047Y2592800D01*
X35419047Y2592800D02*
X35371428Y2688039D01*
X35371428Y2688039D02*
X35371428Y2783277D01*
X35371428Y2783277D02*
X35419047Y2878515D01*
X35419047Y2878515D02*
X35514285Y2926134D01*
X35514285Y2926134D02*
X35752380Y2926134D01*
X35752380Y2926134D02*
X35847618Y2973753D01*
X36323809Y2545181D02*
X36323809Y3211848D01*
X36323809Y3545181D02*
X36276190Y3497562D01*
X36276190Y3497562D02*
X36323809Y3449943D01*
X36323809Y3449943D02*
X36371428Y3497562D01*
X36371428Y3497562D02*
X36323809Y3545181D01*
X36323809Y3545181D02*
X36323809Y3449943D01*
X36799999Y2545181D02*
X36799999Y3211848D01*
X36799999Y3021372D02*
X36847618Y3116610D01*
X36847618Y3116610D02*
X36895237Y3164229D01*
X36895237Y3164229D02*
X36990475Y3211848D01*
X36990475Y3211848D02*
X37085713Y3211848D01*
X38609523Y3211848D02*
X38609523Y2211848D01*
X38609523Y2592800D02*
X38514285Y2545181D01*
X38514285Y2545181D02*
X38323809Y2545181D01*
X38323809Y2545181D02*
X38228571Y2592800D01*
X38228571Y2592800D02*
X38180952Y2640420D01*
X38180952Y2640420D02*
X38133333Y2735658D01*
X38133333Y2735658D02*
X38133333Y3021372D01*
X38133333Y3021372D02*
X38180952Y3116610D01*
X38180952Y3116610D02*
X38228571Y3164229D01*
X38228571Y3164229D02*
X38323809Y3211848D01*
X38323809Y3211848D02*
X38514285Y3211848D01*
X38514285Y3211848D02*
X38609523Y3164229D01*
X39514285Y3211848D02*
X39514285Y2545181D01*
X39085714Y3211848D02*
X39085714Y2688039D01*
X39085714Y2688039D02*
X39133333Y2592800D01*
X39133333Y2592800D02*
X39228571Y2545181D01*
X39228571Y2545181D02*
X39371428Y2545181D01*
X39371428Y2545181D02*
X39466666Y2592800D01*
X39466666Y2592800D02*
X39514285Y2640420D01*
X40419047Y2545181D02*
X40419047Y3068991D01*
X40419047Y3068991D02*
X40371428Y3164229D01*
X40371428Y3164229D02*
X40276190Y3211848D01*
X40276190Y3211848D02*
X40085714Y3211848D01*
X40085714Y3211848D02*
X39990476Y3164229D01*
X40419047Y2592800D02*
X40323809Y2545181D01*
X40323809Y2545181D02*
X40085714Y2545181D01*
X40085714Y2545181D02*
X39990476Y2592800D01*
X39990476Y2592800D02*
X39942857Y2688039D01*
X39942857Y2688039D02*
X39942857Y2783277D01*
X39942857Y2783277D02*
X39990476Y2878515D01*
X39990476Y2878515D02*
X40085714Y2926134D01*
X40085714Y2926134D02*
X40323809Y2926134D01*
X40323809Y2926134D02*
X40419047Y2973753D01*
X41038095Y2545181D02*
X40942857Y2592800D01*
X40942857Y2592800D02*
X40895238Y2688039D01*
X40895238Y2688039D02*
X40895238Y3545181D01*
X41419048Y2545181D02*
X41419048Y3211848D01*
X41419048Y3545181D02*
X41371429Y3497562D01*
X41371429Y3497562D02*
X41419048Y3449943D01*
X41419048Y3449943D02*
X41466667Y3497562D01*
X41466667Y3497562D02*
X41419048Y3545181D01*
X41419048Y3545181D02*
X41419048Y3449943D01*
X41752381Y3211848D02*
X42133333Y3211848D01*
X41895238Y3545181D02*
X41895238Y2688039D01*
X41895238Y2688039D02*
X41942857Y2592800D01*
X41942857Y2592800D02*
X42038095Y2545181D01*
X42038095Y2545181D02*
X42133333Y2545181D01*
X42371429Y3211848D02*
X42609524Y2545181D01*
X42847619Y3211848D02*
X42609524Y2545181D01*
X42609524Y2545181D02*
X42514286Y2307086D01*
X42514286Y2307086D02*
X42466667Y2259467D01*
X42466667Y2259467D02*
X42371429Y2211848D01*
X-46825181Y-6389047D02*
X-47825181Y-6389047D01*
X-47348991Y-6389047D02*
X-47348991Y-5817619D01*
X-46825181Y-5817619D02*
X-47825181Y-5817619D01*
X-46825181Y-4865238D02*
X-46825181Y-5341428D01*
X-46825181Y-5341428D02*
X-47825181Y-5341428D01*
X-46825181Y-4531904D02*
X-47825181Y-4531904D01*
X-46825181Y-3960476D02*
X-47396610Y-4389047D01*
X-47825181Y-3960476D02*
X-47253753Y-4531904D01*
X-47206134Y-3531904D02*
X-47206134Y-2770000D01*
X-46825181Y-1817619D02*
X-46825181Y-2293809D01*
X-46825181Y-2293809D02*
X-47825181Y-2293809D01*
X-46825181Y-1484285D02*
X-47825181Y-1484285D01*
X-47825181Y-1484285D02*
X-47825181Y-1246190D01*
X-47825181Y-1246190D02*
X-47777562Y-1103333D01*
X-47777562Y-1103333D02*
X-47682324Y-1008095D01*
X-47682324Y-1008095D02*
X-47587086Y-960476D01*
X-47587086Y-960476D02*
X-47396610Y-912857D01*
X-47396610Y-912857D02*
X-47253753Y-912857D01*
X-47253753Y-912857D02*
X-47063277Y-960476D01*
X-47063277Y-960476D02*
X-46968039Y-1008095D01*
X-46968039Y-1008095D02*
X-46872800Y-1103333D01*
X-46872800Y-1103333D02*
X-46825181Y-1246190D01*
X-46825181Y-1246190D02*
X-46825181Y-1484285D01*
X-47729943Y-531904D02*
X-47777562Y-484285D01*
X-47777562Y-484285D02*
X-47825181Y-389047D01*
X-47825181Y-389047D02*
X-47825181Y-150952D01*
X-47825181Y-150952D02*
X-47777562Y-55714D01*
X-47777562Y-55714D02*
X-47729943Y-8095D01*
X-47729943Y-8095D02*
X-47634705Y39524D01*
X-47634705Y39524D02*
X-47539467Y39524D01*
X-47539467Y39524D02*
X-47396610Y-8095D01*
X-47396610Y-8095D02*
X-46825181Y-579523D01*
X-46825181Y-579523D02*
X-46825181Y39524D01*
X-47491848Y896667D02*
X-46825181Y896667D01*
X-47872800Y658572D02*
X-47158515Y420477D01*
X-47158515Y420477D02*
X-47158515Y1039524D01*
X-46825181Y1944286D02*
X-46825181Y1372858D01*
X-46825181Y1658572D02*
X-47825181Y1658572D01*
X-47825181Y1658572D02*
X-47682324Y1563334D01*
X-47682324Y1563334D02*
X-47587086Y1468096D01*
X-47587086Y1468096D02*
X-47539467Y1372858D01*
X-47825181Y2563334D02*
X-47825181Y2658572D01*
X-47825181Y2658572D02*
X-47777562Y2753810D01*
X-47777562Y2753810D02*
X-47729943Y2801429D01*
X-47729943Y2801429D02*
X-47634705Y2849048D01*
X-47634705Y2849048D02*
X-47444229Y2896667D01*
X-47444229Y2896667D02*
X-47206134Y2896667D01*
X-47206134Y2896667D02*
X-47015658Y2849048D01*
X-47015658Y2849048D02*
X-46920420Y2801429D01*
X-46920420Y2801429D02*
X-46872800Y2753810D01*
X-46872800Y2753810D02*
X-46825181Y2658572D01*
X-46825181Y2658572D02*
X-46825181Y2563334D01*
X-46825181Y2563334D02*
X-46872800Y2468096D01*
X-46872800Y2468096D02*
X-46920420Y2420477D01*
X-46920420Y2420477D02*
X-47015658Y2372858D01*
X-47015658Y2372858D02*
X-47206134Y2325239D01*
X-47206134Y2325239D02*
X-47444229Y2325239D01*
X-47444229Y2325239D02*
X-47634705Y2372858D01*
X-47634705Y2372858D02*
X-47729943Y2420477D01*
X-47729943Y2420477D02*
X-47777562Y2468096D01*
X-47777562Y2468096D02*
X-47825181Y2563334D01*
X-47348991Y3658572D02*
X-47301372Y3801429D01*
X-47301372Y3801429D02*
X-47253753Y3849048D01*
X-47253753Y3849048D02*
X-47158515Y3896667D01*
X-47158515Y3896667D02*
X-47015658Y3896667D01*
X-47015658Y3896667D02*
X-46920420Y3849048D01*
X-46920420Y3849048D02*
X-46872800Y3801429D01*
X-46872800Y3801429D02*
X-46825181Y3706191D01*
X-46825181Y3706191D02*
X-46825181Y3325239D01*
X-46825181Y3325239D02*
X-47825181Y3325239D01*
X-47825181Y3325239D02*
X-47825181Y3658572D01*
X-47825181Y3658572D02*
X-47777562Y3753810D01*
X-47777562Y3753810D02*
X-47729943Y3801429D01*
X-47729943Y3801429D02*
X-47634705Y3849048D01*
X-47634705Y3849048D02*
X-47539467Y3849048D01*
X-47539467Y3849048D02*
X-47444229Y3801429D01*
X-47444229Y3801429D02*
X-47396610Y3753810D01*
X-47396610Y3753810D02*
X-47348991Y3658572D01*
X-47348991Y3658572D02*
X-47348991Y3325239D01*
X-46825181Y6683809D02*
X-47348991Y6683809D01*
X-47348991Y6683809D02*
X-47444229Y6636190D01*
X-47444229Y6636190D02*
X-47491848Y6540952D01*
X-47491848Y6540952D02*
X-47491848Y6350476D01*
X-47491848Y6350476D02*
X-47444229Y6255238D01*
X-46872800Y6683809D02*
X-46825181Y6588571D01*
X-46825181Y6588571D02*
X-46825181Y6350476D01*
X-46825181Y6350476D02*
X-46872800Y6255238D01*
X-46872800Y6255238D02*
X-46968039Y6207619D01*
X-46968039Y6207619D02*
X-47063277Y6207619D01*
X-47063277Y6207619D02*
X-47158515Y6255238D01*
X-47158515Y6255238D02*
X-47206134Y6350476D01*
X-47206134Y6350476D02*
X-47206134Y6588571D01*
X-47206134Y6588571D02*
X-47253753Y6683809D01*
X-47491848Y7160000D02*
X-46825181Y7160000D01*
X-47396610Y7160000D02*
X-47444229Y7207619D01*
X-47444229Y7207619D02*
X-47491848Y7302857D01*
X-47491848Y7302857D02*
X-47491848Y7445714D01*
X-47491848Y7445714D02*
X-47444229Y7540952D01*
X-47444229Y7540952D02*
X-47348991Y7588571D01*
X-47348991Y7588571D02*
X-46825181Y7588571D01*
X-47491848Y7921905D02*
X-47491848Y8302857D01*
X-47825181Y8064762D02*
X-46968039Y8064762D01*
X-46968039Y8064762D02*
X-46872800Y8112381D01*
X-46872800Y8112381D02*
X-46825181Y8207619D01*
X-46825181Y8207619D02*
X-46825181Y8302857D01*
X-46872800Y9017143D02*
X-46825181Y8921905D01*
X-46825181Y8921905D02*
X-46825181Y8731429D01*
X-46825181Y8731429D02*
X-46872800Y8636191D01*
X-46872800Y8636191D02*
X-46968039Y8588572D01*
X-46968039Y8588572D02*
X-47348991Y8588572D01*
X-47348991Y8588572D02*
X-47444229Y8636191D01*
X-47444229Y8636191D02*
X-47491848Y8731429D01*
X-47491848Y8731429D02*
X-47491848Y8921905D01*
X-47491848Y8921905D02*
X-47444229Y9017143D01*
X-47444229Y9017143D02*
X-47348991Y9064762D01*
X-47348991Y9064762D02*
X-47253753Y9064762D01*
X-47253753Y9064762D02*
X-47158515Y8588572D01*
X-47491848Y9493334D02*
X-46825181Y9493334D01*
X-47396610Y9493334D02*
X-47444229Y9540953D01*
X-47444229Y9540953D02*
X-47491848Y9636191D01*
X-47491848Y9636191D02*
X-47491848Y9779048D01*
X-47491848Y9779048D02*
X-47444229Y9874286D01*
X-47444229Y9874286D02*
X-47348991Y9921905D01*
X-47348991Y9921905D02*
X-46825181Y9921905D01*
X-47491848Y10398096D02*
X-46825181Y10398096D01*
X-47396610Y10398096D02*
X-47444229Y10445715D01*
X-47444229Y10445715D02*
X-47491848Y10540953D01*
X-47491848Y10540953D02*
X-47491848Y10683810D01*
X-47491848Y10683810D02*
X-47444229Y10779048D01*
X-47444229Y10779048D02*
X-47348991Y10826667D01*
X-47348991Y10826667D02*
X-46825181Y10826667D01*
X-46825181Y11731429D02*
X-47348991Y11731429D01*
X-47348991Y11731429D02*
X-47444229Y11683810D01*
X-47444229Y11683810D02*
X-47491848Y11588572D01*
X-47491848Y11588572D02*
X-47491848Y11398096D01*
X-47491848Y11398096D02*
X-47444229Y11302858D01*
X-46872800Y11731429D02*
X-46825181Y11636191D01*
X-46825181Y11636191D02*
X-46825181Y11398096D01*
X-46825181Y11398096D02*
X-46872800Y11302858D01*
X-46872800Y11302858D02*
X-46968039Y11255239D01*
X-46968039Y11255239D02*
X-47063277Y11255239D01*
X-47063277Y11255239D02*
X-47158515Y11302858D01*
X-47158515Y11302858D02*
X-47206134Y11398096D01*
X-47206134Y11398096D02*
X-47206134Y11636191D01*
X-47206134Y11636191D02*
X-47253753Y11731429D01*
X-47729943Y12826668D02*
X-47872800Y13017144D01*
X-47872800Y13017144D02*
X-47729943Y13207620D01*
X31466667Y-2807200D02*
X31609524Y-2854819D01*
X31609524Y-2854819D02*
X31847619Y-2854819D01*
X31847619Y-2854819D02*
X31942857Y-2807200D01*
X31942857Y-2807200D02*
X31990476Y-2759580D01*
X31990476Y-2759580D02*
X32038095Y-2664342D01*
X32038095Y-2664342D02*
X32038095Y-2569104D01*
X32038095Y-2569104D02*
X31990476Y-2473866D01*
X31990476Y-2473866D02*
X31942857Y-2426247D01*
X31942857Y-2426247D02*
X31847619Y-2378628D01*
X31847619Y-2378628D02*
X31657143Y-2331009D01*
X31657143Y-2331009D02*
X31561905Y-2283390D01*
X31561905Y-2283390D02*
X31514286Y-2235771D01*
X31514286Y-2235771D02*
X31466667Y-2140533D01*
X31466667Y-2140533D02*
X31466667Y-2045295D01*
X31466667Y-2045295D02*
X31514286Y-1950057D01*
X31514286Y-1950057D02*
X31561905Y-1902438D01*
X31561905Y-1902438D02*
X31657143Y-1854819D01*
X31657143Y-1854819D02*
X31895238Y-1854819D01*
X31895238Y-1854819D02*
X32038095Y-1902438D01*
X32466667Y-2331009D02*
X32800000Y-2331009D01*
X32942857Y-2854819D02*
X32466667Y-2854819D01*
X32466667Y-2854819D02*
X32466667Y-1854819D01*
X32466667Y-1854819D02*
X32942857Y-1854819D01*
X33371429Y-2854819D02*
X33371429Y-1854819D01*
X33371429Y-1854819D02*
X33942857Y-2854819D01*
X33942857Y-2854819D02*
X33942857Y-1854819D01*
X34847619Y-1854819D02*
X34657143Y-1854819D01*
X34657143Y-1854819D02*
X34561905Y-1902438D01*
X34561905Y-1902438D02*
X34514286Y-1950057D01*
X34514286Y-1950057D02*
X34419048Y-2092914D01*
X34419048Y-2092914D02*
X34371429Y-2283390D01*
X34371429Y-2283390D02*
X34371429Y-2664342D01*
X34371429Y-2664342D02*
X34419048Y-2759580D01*
X34419048Y-2759580D02*
X34466667Y-2807200D01*
X34466667Y-2807200D02*
X34561905Y-2854819D01*
X34561905Y-2854819D02*
X34752381Y-2854819D01*
X34752381Y-2854819D02*
X34847619Y-2807200D01*
X34847619Y-2807200D02*
X34895238Y-2759580D01*
X34895238Y-2759580D02*
X34942857Y-2664342D01*
X34942857Y-2664342D02*
X34942857Y-2426247D01*
X34942857Y-2426247D02*
X34895238Y-2331009D01*
X34895238Y-2331009D02*
X34847619Y-2283390D01*
X34847619Y-2283390D02*
X34752381Y-2235771D01*
X34752381Y-2235771D02*
X34561905Y-2235771D01*
X34561905Y-2235771D02*
X34466667Y-2283390D01*
X34466667Y-2283390D02*
X34419048Y-2331009D01*
X34419048Y-2331009D02*
X34371429Y-2426247D01*
X35800000Y-1854819D02*
X35609524Y-1854819D01*
X35609524Y-1854819D02*
X35514286Y-1902438D01*
X35514286Y-1902438D02*
X35466667Y-1950057D01*
X35466667Y-1950057D02*
X35371429Y-2092914D01*
X35371429Y-2092914D02*
X35323810Y-2283390D01*
X35323810Y-2283390D02*
X35323810Y-2664342D01*
X35323810Y-2664342D02*
X35371429Y-2759580D01*
X35371429Y-2759580D02*
X35419048Y-2807200D01*
X35419048Y-2807200D02*
X35514286Y-2854819D01*
X35514286Y-2854819D02*
X35704762Y-2854819D01*
X35704762Y-2854819D02*
X35800000Y-2807200D01*
X35800000Y-2807200D02*
X35847619Y-2759580D01*
X35847619Y-2759580D02*
X35895238Y-2664342D01*
X35895238Y-2664342D02*
X35895238Y-2426247D01*
X35895238Y-2426247D02*
X35847619Y-2331009D01*
X35847619Y-2331009D02*
X35800000Y-2283390D01*
X35800000Y-2283390D02*
X35704762Y-2235771D01*
X35704762Y-2235771D02*
X35514286Y-2235771D01*
X35514286Y-2235771D02*
X35419048Y-2283390D01*
X35419048Y-2283390D02*
X35371429Y-2331009D01*
X35371429Y-2331009D02*
X35323810Y-2426247D01*
X37038096Y-2807200D02*
X37180953Y-2854819D01*
X37180953Y-2854819D02*
X37419048Y-2854819D01*
X37419048Y-2854819D02*
X37514286Y-2807200D01*
X37514286Y-2807200D02*
X37561905Y-2759580D01*
X37561905Y-2759580D02*
X37609524Y-2664342D01*
X37609524Y-2664342D02*
X37609524Y-2569104D01*
X37609524Y-2569104D02*
X37561905Y-2473866D01*
X37561905Y-2473866D02*
X37514286Y-2426247D01*
X37514286Y-2426247D02*
X37419048Y-2378628D01*
X37419048Y-2378628D02*
X37228572Y-2331009D01*
X37228572Y-2331009D02*
X37133334Y-2283390D01*
X37133334Y-2283390D02*
X37085715Y-2235771D01*
X37085715Y-2235771D02*
X37038096Y-2140533D01*
X37038096Y-2140533D02*
X37038096Y-2045295D01*
X37038096Y-2045295D02*
X37085715Y-1950057D01*
X37085715Y-1950057D02*
X37133334Y-1902438D01*
X37133334Y-1902438D02*
X37228572Y-1854819D01*
X37228572Y-1854819D02*
X37466667Y-1854819D01*
X37466667Y-1854819D02*
X37609524Y-1902438D01*
X38038096Y-2854819D02*
X38038096Y-1854819D01*
X38514286Y-2854819D02*
X38514286Y-1854819D01*
X38514286Y-1854819D02*
X39085714Y-2854819D01*
X39085714Y-2854819D02*
X39085714Y-1854819D01*
X39561905Y-2473866D02*
X40323810Y-2473866D01*
X40657143Y-1854819D02*
X41228571Y-1854819D01*
X40942857Y-2854819D02*
X40942857Y-1854819D01*
X-25783810Y36945181D02*
X-25783810Y37468991D01*
X-25783810Y37468991D02*
X-25831429Y37564229D01*
X-25831429Y37564229D02*
X-25926667Y37611848D01*
X-25926667Y37611848D02*
X-26117143Y37611848D01*
X-26117143Y37611848D02*
X-26212381Y37564229D01*
X-25783810Y36992800D02*
X-25879048Y36945181D01*
X-25879048Y36945181D02*
X-26117143Y36945181D01*
X-26117143Y36945181D02*
X-26212381Y36992800D01*
X-26212381Y36992800D02*
X-26260000Y37088039D01*
X-26260000Y37088039D02*
X-26260000Y37183277D01*
X-26260000Y37183277D02*
X-26212381Y37278515D01*
X-26212381Y37278515D02*
X-26117143Y37326134D01*
X-26117143Y37326134D02*
X-25879048Y37326134D01*
X-25879048Y37326134D02*
X-25783810Y37373753D01*
X-25307619Y37611848D02*
X-25307619Y36945181D01*
X-25307619Y37516610D02*
X-25260000Y37564229D01*
X-25260000Y37564229D02*
X-25164762Y37611848D01*
X-25164762Y37611848D02*
X-25021905Y37611848D01*
X-25021905Y37611848D02*
X-24926667Y37564229D01*
X-24926667Y37564229D02*
X-24879048Y37468991D01*
X-24879048Y37468991D02*
X-24879048Y36945181D01*
X-24545714Y37611848D02*
X-24164762Y37611848D01*
X-24402857Y37945181D02*
X-24402857Y37088039D01*
X-24402857Y37088039D02*
X-24355238Y36992800D01*
X-24355238Y36992800D02*
X-24260000Y36945181D01*
X-24260000Y36945181D02*
X-24164762Y36945181D01*
X-32531428Y-12519819D02*
X-32531428Y-11519819D01*
X-32531428Y-11519819D02*
X-32198095Y-12234104D01*
X-32198095Y-12234104D02*
X-31864762Y-11519819D01*
X-31864762Y-11519819D02*
X-31864762Y-12519819D01*
X-31388571Y-12519819D02*
X-31388571Y-11519819D01*
X-30912381Y-12519819D02*
X-30912381Y-11519819D01*
X-30340953Y-12519819D02*
X-30769524Y-11948390D01*
X-30340953Y-11519819D02*
X-30912381Y-12091247D01*
X-29340953Y-12519819D02*
X-29674286Y-12043628D01*
X-29912381Y-12519819D02*
X-29912381Y-11519819D01*
X-29912381Y-11519819D02*
X-29531429Y-11519819D01*
X-29531429Y-11519819D02*
X-29436191Y-11567438D01*
X-29436191Y-11567438D02*
X-29388572Y-11615057D01*
X-29388572Y-11615057D02*
X-29340953Y-11710295D01*
X-29340953Y-11710295D02*
X-29340953Y-11853152D01*
X-29340953Y-11853152D02*
X-29388572Y-11948390D01*
X-29388572Y-11948390D02*
X-29436191Y-11996009D01*
X-29436191Y-11996009D02*
X-29531429Y-12043628D01*
X-29531429Y-12043628D02*
X-29912381Y-12043628D01*
X-28721905Y-11519819D02*
X-28531429Y-11519819D01*
X-28531429Y-11519819D02*
X-28436191Y-11567438D01*
X-28436191Y-11567438D02*
X-28340953Y-11662676D01*
X-28340953Y-11662676D02*
X-28293334Y-11853152D01*
X-28293334Y-11853152D02*
X-28293334Y-12186485D01*
X-28293334Y-12186485D02*
X-28340953Y-12376961D01*
X-28340953Y-12376961D02*
X-28436191Y-12472200D01*
X-28436191Y-12472200D02*
X-28531429Y-12519819D01*
X-28531429Y-12519819D02*
X-28721905Y-12519819D01*
X-28721905Y-12519819D02*
X-28817143Y-12472200D01*
X-28817143Y-12472200D02*
X-28912381Y-12376961D01*
X-28912381Y-12376961D02*
X-28960000Y-12186485D01*
X-28960000Y-12186485D02*
X-28960000Y-11853152D01*
X-28960000Y-11853152D02*
X-28912381Y-11662676D01*
X-28912381Y-11662676D02*
X-28817143Y-11567438D01*
X-28817143Y-11567438D02*
X-28721905Y-11519819D01*
X-27864762Y-11996009D02*
X-27531429Y-11996009D01*
X-27388572Y-12519819D02*
X-27864762Y-12519819D01*
X-27864762Y-12519819D02*
X-27864762Y-11519819D01*
X-27864762Y-11519819D02*
X-27388572Y-11519819D01*
X-26960000Y-12138866D02*
X-26198095Y-12138866D01*
X-25769524Y-11615057D02*
X-25721905Y-11567438D01*
X-25721905Y-11567438D02*
X-25626667Y-11519819D01*
X-25626667Y-11519819D02*
X-25388572Y-11519819D01*
X-25388572Y-11519819D02*
X-25293334Y-11567438D01*
X-25293334Y-11567438D02*
X-25245715Y-11615057D01*
X-25245715Y-11615057D02*
X-25198096Y-11710295D01*
X-25198096Y-11710295D02*
X-25198096Y-11805533D01*
X-25198096Y-11805533D02*
X-25245715Y-11948390D01*
X-25245715Y-11948390D02*
X-25817143Y-12519819D01*
X-25817143Y-12519819D02*
X-25198096Y-12519819D01*
X-24340953Y-11853152D02*
X-24340953Y-12519819D01*
X-24579048Y-11472200D02*
X-24817143Y-12186485D01*
X-24817143Y-12186485D02*
X-24198096Y-12186485D01*
X-23388572Y-11519819D02*
X-23579048Y-11519819D01*
X-23579048Y-11519819D02*
X-23674286Y-11567438D01*
X-23674286Y-11567438D02*
X-23721905Y-11615057D01*
X-23721905Y-11615057D02*
X-23817143Y-11757914D01*
X-23817143Y-11757914D02*
X-23864762Y-11948390D01*
X-23864762Y-11948390D02*
X-23864762Y-12329342D01*
X-23864762Y-12329342D02*
X-23817143Y-12424580D01*
X-23817143Y-12424580D02*
X-23769524Y-12472200D01*
X-23769524Y-12472200D02*
X-23674286Y-12519819D01*
X-23674286Y-12519819D02*
X-23483810Y-12519819D01*
X-23483810Y-12519819D02*
X-23388572Y-12472200D01*
X-23388572Y-12472200D02*
X-23340953Y-12424580D01*
X-23340953Y-12424580D02*
X-23293334Y-12329342D01*
X-23293334Y-12329342D02*
X-23293334Y-12091247D01*
X-23293334Y-12091247D02*
X-23340953Y-11996009D01*
X-23340953Y-11996009D02*
X-23388572Y-11948390D01*
X-23388572Y-11948390D02*
X-23483810Y-11900771D01*
X-23483810Y-11900771D02*
X-23674286Y-11900771D01*
X-23674286Y-11900771D02*
X-23769524Y-11948390D01*
X-23769524Y-11948390D02*
X-23817143Y-11996009D01*
X-23817143Y-11996009D02*
X-23864762Y-12091247D01*
X-22912381Y-11615057D02*
X-22864762Y-11567438D01*
X-22864762Y-11567438D02*
X-22769524Y-11519819D01*
X-22769524Y-11519819D02*
X-22531429Y-11519819D01*
X-22531429Y-11519819D02*
X-22436191Y-11567438D01*
X-22436191Y-11567438D02*
X-22388572Y-11615057D01*
X-22388572Y-11615057D02*
X-22340953Y-11710295D01*
X-22340953Y-11710295D02*
X-22340953Y-11805533D01*
X-22340953Y-11805533D02*
X-22388572Y-11948390D01*
X-22388572Y-11948390D02*
X-22960000Y-12519819D01*
X-22960000Y-12519819D02*
X-22340953Y-12519819D01*
X8126822Y10791051D02*
X8603012Y10791051D01*
X8031584Y10505336D02*
X8364917Y11505336D01*
X8364917Y11505336D02*
X8698250Y10505336D01*
X9698250Y10410098D02*
X9603012Y10457717D01*
X9603012Y10457717D02*
X9507774Y10552955D01*
X9507774Y10552955D02*
X9364917Y10695813D01*
X9364917Y10695813D02*
X9269679Y10743432D01*
X9269679Y10743432D02*
X9174441Y10743432D01*
X9222060Y10505336D02*
X9126822Y10552955D01*
X9126822Y10552955D02*
X9031584Y10648194D01*
X9031584Y10648194D02*
X8983965Y10838670D01*
X8983965Y10838670D02*
X8983965Y11172003D01*
X8983965Y11172003D02*
X9031584Y11362479D01*
X9031584Y11362479D02*
X9126822Y11457717D01*
X9126822Y11457717D02*
X9222060Y11505336D01*
X9222060Y11505336D02*
X9412536Y11505336D01*
X9412536Y11505336D02*
X9507774Y11457717D01*
X9507774Y11457717D02*
X9603012Y11362479D01*
X9603012Y11362479D02*
X9650631Y11172003D01*
X9650631Y11172003D02*
X9650631Y10838670D01*
X9650631Y10838670D02*
X9603012Y10648194D01*
X9603012Y10648194D02*
X9507774Y10552955D01*
X9507774Y10552955D02*
X9412536Y10505336D01*
X9412536Y10505336D02*
X9222060Y10505336D01*
X10079203Y10505336D02*
X10079203Y11505336D01*
X11317298Y10505336D02*
X11317298Y11172003D01*
X11317298Y10981527D02*
X11364917Y11076765D01*
X11364917Y11076765D02*
X11412536Y11124384D01*
X11412536Y11124384D02*
X11507774Y11172003D01*
X11507774Y11172003D02*
X11603012Y11172003D01*
X11936346Y10505336D02*
X11936346Y11172003D01*
X11936346Y11505336D02*
X11888727Y11457717D01*
X11888727Y11457717D02*
X11936346Y11410098D01*
X11936346Y11410098D02*
X11983965Y11457717D01*
X11983965Y11457717D02*
X11936346Y11505336D01*
X11936346Y11505336D02*
X11936346Y11410098D01*
X12412536Y11172003D02*
X12412536Y10505336D01*
X12412536Y11076765D02*
X12460155Y11124384D01*
X12460155Y11124384D02*
X12555393Y11172003D01*
X12555393Y11172003D02*
X12698250Y11172003D01*
X12698250Y11172003D02*
X12793488Y11124384D01*
X12793488Y11124384D02*
X12841107Y11029146D01*
X12841107Y11029146D02*
X12841107Y10505336D01*
X13745869Y11172003D02*
X13745869Y10362479D01*
X13745869Y10362479D02*
X13698250Y10267241D01*
X13698250Y10267241D02*
X13650631Y10219622D01*
X13650631Y10219622D02*
X13555393Y10172003D01*
X13555393Y10172003D02*
X13412536Y10172003D01*
X13412536Y10172003D02*
X13317298Y10219622D01*
X13745869Y10552955D02*
X13650631Y10505336D01*
X13650631Y10505336D02*
X13460155Y10505336D01*
X13460155Y10505336D02*
X13364917Y10552955D01*
X13364917Y10552955D02*
X13317298Y10600575D01*
X13317298Y10600575D02*
X13269679Y10695813D01*
X13269679Y10695813D02*
X13269679Y10981527D01*
X13269679Y10981527D02*
X13317298Y11076765D01*
X13317298Y11076765D02*
X13364917Y11124384D01*
X13364917Y11124384D02*
X13460155Y11172003D01*
X13460155Y11172003D02*
X13650631Y11172003D01*
X13650631Y11172003D02*
X13745869Y11124384D01*
X-7657620Y16045181D02*
X-7657620Y15330896D01*
X-7657620Y15330896D02*
X-7705239Y15188039D01*
X-7705239Y15188039D02*
X-7800477Y15092800D01*
X-7800477Y15092800D02*
X-7943334Y15045181D01*
X-7943334Y15045181D02*
X-8038572Y15045181D01*
X-6657620Y15045181D02*
X-7229048Y15045181D01*
X-6943334Y15045181D02*
X-6943334Y16045181D01*
X-6943334Y16045181D02*
X-7038572Y15902324D01*
X-7038572Y15902324D02*
X-7133810Y15807086D01*
X-7133810Y15807086D02*
X-7229048Y15759467D01*
X-6038572Y16045181D02*
X-5943334Y16045181D01*
X-5943334Y16045181D02*
X-5848096Y15997562D01*
X-5848096Y15997562D02*
X-5800477Y15949943D01*
X-5800477Y15949943D02*
X-5752858Y15854705D01*
X-5752858Y15854705D02*
X-5705239Y15664229D01*
X-5705239Y15664229D02*
X-5705239Y15426134D01*
X-5705239Y15426134D02*
X-5752858Y15235658D01*
X-5752858Y15235658D02*
X-5800477Y15140420D01*
X-5800477Y15140420D02*
X-5848096Y15092800D01*
X-5848096Y15092800D02*
X-5943334Y15045181D01*
X-5943334Y15045181D02*
X-6038572Y15045181D01*
X-6038572Y15045181D02*
X-6133810Y15092800D01*
X-6133810Y15092800D02*
X-6181429Y15140420D01*
X-6181429Y15140420D02*
X-6229048Y15235658D01*
X-6229048Y15235658D02*
X-6276667Y15426134D01*
X-6276667Y15426134D02*
X-6276667Y15664229D01*
X-6276667Y15664229D02*
X-6229048Y15854705D01*
X-6229048Y15854705D02*
X-6181429Y15949943D01*
X-6181429Y15949943D02*
X-6133810Y15997562D01*
X-6133810Y15997562D02*
X-6038572Y16045181D01*
X-4657619Y15711848D02*
X-4276667Y15711848D01*
X-4514762Y15045181D02*
X-4514762Y15902324D01*
X-4514762Y15902324D02*
X-4467143Y15997562D01*
X-4467143Y15997562D02*
X-4371905Y16045181D01*
X-4371905Y16045181D02*
X-4276667Y16045181D01*
X-3800476Y15045181D02*
X-3895714Y15092800D01*
X-3895714Y15092800D02*
X-3943333Y15188039D01*
X-3943333Y15188039D02*
X-3943333Y16045181D01*
X-2990952Y15045181D02*
X-2990952Y15568991D01*
X-2990952Y15568991D02*
X-3038571Y15664229D01*
X-3038571Y15664229D02*
X-3133809Y15711848D01*
X-3133809Y15711848D02*
X-3324285Y15711848D01*
X-3324285Y15711848D02*
X-3419523Y15664229D01*
X-2990952Y15092800D02*
X-3086190Y15045181D01*
X-3086190Y15045181D02*
X-3324285Y15045181D01*
X-3324285Y15045181D02*
X-3419523Y15092800D01*
X-3419523Y15092800D02*
X-3467142Y15188039D01*
X-3467142Y15188039D02*
X-3467142Y15283277D01*
X-3467142Y15283277D02*
X-3419523Y15378515D01*
X-3419523Y15378515D02*
X-3324285Y15426134D01*
X-3324285Y15426134D02*
X-3086190Y15426134D01*
X-3086190Y15426134D02*
X-2990952Y15473753D01*
X-2562380Y15092800D02*
X-2467142Y15045181D01*
X-2467142Y15045181D02*
X-2276666Y15045181D01*
X-2276666Y15045181D02*
X-2181428Y15092800D01*
X-2181428Y15092800D02*
X-2133809Y15188039D01*
X-2133809Y15188039D02*
X-2133809Y15235658D01*
X-2133809Y15235658D02*
X-2181428Y15330896D01*
X-2181428Y15330896D02*
X-2276666Y15378515D01*
X-2276666Y15378515D02*
X-2419523Y15378515D01*
X-2419523Y15378515D02*
X-2514761Y15426134D01*
X-2514761Y15426134D02*
X-2562380Y15521372D01*
X-2562380Y15521372D02*
X-2562380Y15568991D01*
X-2562380Y15568991D02*
X-2514761Y15664229D01*
X-2514761Y15664229D02*
X-2419523Y15711848D01*
X-2419523Y15711848D02*
X-2276666Y15711848D01*
X-2276666Y15711848D02*
X-2181428Y15664229D01*
X-1705237Y15045181D02*
X-1705237Y16045181D01*
X-1276666Y15045181D02*
X-1276666Y15568991D01*
X-1276666Y15568991D02*
X-1324285Y15664229D01*
X-1324285Y15664229D02*
X-1419523Y15711848D01*
X-1419523Y15711848D02*
X-1562380Y15711848D01*
X-1562380Y15711848D02*
X-1657618Y15664229D01*
X-1657618Y15664229D02*
X-1705237Y15616610D01*
X28983333Y-33954819D02*
X28983333Y-34669104D01*
X28983333Y-34669104D02*
X28935714Y-34811961D01*
X28935714Y-34811961D02*
X28840476Y-34907200D01*
X28840476Y-34907200D02*
X28697619Y-34954819D01*
X28697619Y-34954819D02*
X28602381Y-34954819D01*
X29507143Y-34954819D02*
X29697619Y-34954819D01*
X29697619Y-34954819D02*
X29792857Y-34907200D01*
X29792857Y-34907200D02*
X29840476Y-34859580D01*
X29840476Y-34859580D02*
X29935714Y-34716723D01*
X29935714Y-34716723D02*
X29983333Y-34526247D01*
X29983333Y-34526247D02*
X29983333Y-34145295D01*
X29983333Y-34145295D02*
X29935714Y-34050057D01*
X29935714Y-34050057D02*
X29888095Y-34002438D01*
X29888095Y-34002438D02*
X29792857Y-33954819D01*
X29792857Y-33954819D02*
X29602381Y-33954819D01*
X29602381Y-33954819D02*
X29507143Y-34002438D01*
X29507143Y-34002438D02*
X29459524Y-34050057D01*
X29459524Y-34050057D02*
X29411905Y-34145295D01*
X29411905Y-34145295D02*
X29411905Y-34383390D01*
X29411905Y-34383390D02*
X29459524Y-34478628D01*
X29459524Y-34478628D02*
X29507143Y-34526247D01*
X29507143Y-34526247D02*
X29602381Y-34573866D01*
X29602381Y-34573866D02*
X29792857Y-34573866D01*
X29792857Y-34573866D02*
X29888095Y-34526247D01*
X29888095Y-34526247D02*
X29935714Y-34478628D01*
X29935714Y-34478628D02*
X29983333Y-34383390D01*
X31840476Y-35050057D02*
X31745238Y-35002438D01*
X31745238Y-35002438D02*
X31650000Y-34907200D01*
X31650000Y-34907200D02*
X31507143Y-34764342D01*
X31507143Y-34764342D02*
X31411905Y-34716723D01*
X31411905Y-34716723D02*
X31316667Y-34716723D01*
X31364286Y-34954819D02*
X31269048Y-34907200D01*
X31269048Y-34907200D02*
X31173810Y-34811961D01*
X31173810Y-34811961D02*
X31126191Y-34621485D01*
X31126191Y-34621485D02*
X31126191Y-34288152D01*
X31126191Y-34288152D02*
X31173810Y-34097676D01*
X31173810Y-34097676D02*
X31269048Y-34002438D01*
X31269048Y-34002438D02*
X31364286Y-33954819D01*
X31364286Y-33954819D02*
X31554762Y-33954819D01*
X31554762Y-33954819D02*
X31650000Y-34002438D01*
X31650000Y-34002438D02*
X31745238Y-34097676D01*
X31745238Y-34097676D02*
X31792857Y-34288152D01*
X31792857Y-34288152D02*
X31792857Y-34621485D01*
X31792857Y-34621485D02*
X31745238Y-34811961D01*
X31745238Y-34811961D02*
X31650000Y-34907200D01*
X31650000Y-34907200D02*
X31554762Y-34954819D01*
X31554762Y-34954819D02*
X31364286Y-34954819D01*
X32126191Y-34288152D02*
X32316667Y-34954819D01*
X32316667Y-34954819D02*
X32507143Y-34478628D01*
X32507143Y-34478628D02*
X32697619Y-34954819D01*
X32697619Y-34954819D02*
X32888095Y-34288152D01*
X33269048Y-34954819D02*
X33269048Y-34288152D01*
X33269048Y-33954819D02*
X33221429Y-34002438D01*
X33221429Y-34002438D02*
X33269048Y-34050057D01*
X33269048Y-34050057D02*
X33316667Y-34002438D01*
X33316667Y-34002438D02*
X33269048Y-33954819D01*
X33269048Y-33954819D02*
X33269048Y-34050057D01*
X33745238Y-34954819D02*
X33745238Y-34288152D01*
X33745238Y-33954819D02*
X33697619Y-34002438D01*
X33697619Y-34002438D02*
X33745238Y-34050057D01*
X33745238Y-34050057D02*
X33792857Y-34002438D01*
X33792857Y-34002438D02*
X33745238Y-33954819D01*
X33745238Y-33954819D02*
X33745238Y-34050057D01*
X34649999Y-34907200D02*
X34554761Y-34954819D01*
X34554761Y-34954819D02*
X34364285Y-34954819D01*
X34364285Y-34954819D02*
X34269047Y-34907200D01*
X34269047Y-34907200D02*
X34221428Y-34859580D01*
X34221428Y-34859580D02*
X34173809Y-34764342D01*
X34173809Y-34764342D02*
X34173809Y-34478628D01*
X34173809Y-34478628D02*
X34221428Y-34383390D01*
X34221428Y-34383390D02*
X34269047Y-34335771D01*
X34269047Y-34335771D02*
X34364285Y-34288152D01*
X34364285Y-34288152D02*
X34554761Y-34288152D01*
X34554761Y-34288152D02*
X34649999Y-34335771D01*
X18261905Y-6954819D02*
X18261905Y-5954819D01*
X18261905Y-5954819D02*
X18500000Y-5954819D01*
X18500000Y-5954819D02*
X18642857Y-6002438D01*
X18642857Y-6002438D02*
X18738095Y-6097676D01*
X18738095Y-6097676D02*
X18785714Y-6192914D01*
X18785714Y-6192914D02*
X18833333Y-6383390D01*
X18833333Y-6383390D02*
X18833333Y-6526247D01*
X18833333Y-6526247D02*
X18785714Y-6716723D01*
X18785714Y-6716723D02*
X18738095Y-6811961D01*
X18738095Y-6811961D02*
X18642857Y-6907200D01*
X18642857Y-6907200D02*
X18500000Y-6954819D01*
X18500000Y-6954819D02*
X18261905Y-6954819D01*
X19785714Y-6954819D02*
X19214286Y-6954819D01*
X19500000Y-6954819D02*
X19500000Y-5954819D01*
X19500000Y-5954819D02*
X19404762Y-6097676D01*
X19404762Y-6097676D02*
X19309524Y-6192914D01*
X19309524Y-6192914D02*
X19214286Y-6240533D01*
X14666666Y-20431009D02*
X14333333Y-20431009D01*
X14333333Y-20954819D02*
X14333333Y-19954819D01*
X14333333Y-19954819D02*
X14809523Y-19954819D01*
X15714285Y-20954819D02*
X15142857Y-20954819D01*
X15428571Y-20954819D02*
X15428571Y-19954819D01*
X15428571Y-19954819D02*
X15333333Y-20097676D01*
X15333333Y-20097676D02*
X15238095Y-20192914D01*
X15238095Y-20192914D02*
X15142857Y-20240533D01*
X32833333Y35140420D02*
X32785714Y35092800D01*
X32785714Y35092800D02*
X32642857Y35045181D01*
X32642857Y35045181D02*
X32547619Y35045181D01*
X32547619Y35045181D02*
X32404762Y35092800D01*
X32404762Y35092800D02*
X32309524Y35188039D01*
X32309524Y35188039D02*
X32261905Y35283277D01*
X32261905Y35283277D02*
X32214286Y35473753D01*
X32214286Y35473753D02*
X32214286Y35616610D01*
X32214286Y35616610D02*
X32261905Y35807086D01*
X32261905Y35807086D02*
X32309524Y35902324D01*
X32309524Y35902324D02*
X32404762Y35997562D01*
X32404762Y35997562D02*
X32547619Y36045181D01*
X32547619Y36045181D02*
X32642857Y36045181D01*
X32642857Y36045181D02*
X32785714Y35997562D01*
X32785714Y35997562D02*
X32833333Y35949943D01*
X33785714Y35045181D02*
X33214286Y35045181D01*
X33500000Y35045181D02*
X33500000Y36045181D01*
X33500000Y36045181D02*
X33404762Y35902324D01*
X33404762Y35902324D02*
X33309524Y35807086D01*
X33309524Y35807086D02*
X33214286Y35759467D01*
X-40166667Y21640420D02*
X-40214286Y21592800D01*
X-40214286Y21592800D02*
X-40357143Y21545181D01*
X-40357143Y21545181D02*
X-40452381Y21545181D01*
X-40452381Y21545181D02*
X-40595238Y21592800D01*
X-40595238Y21592800D02*
X-40690476Y21688039D01*
X-40690476Y21688039D02*
X-40738095Y21783277D01*
X-40738095Y21783277D02*
X-40785714Y21973753D01*
X-40785714Y21973753D02*
X-40785714Y22116610D01*
X-40785714Y22116610D02*
X-40738095Y22307086D01*
X-40738095Y22307086D02*
X-40690476Y22402324D01*
X-40690476Y22402324D02*
X-40595238Y22497562D01*
X-40595238Y22497562D02*
X-40452381Y22545181D01*
X-40452381Y22545181D02*
X-40357143Y22545181D01*
X-40357143Y22545181D02*
X-40214286Y22497562D01*
X-40214286Y22497562D02*
X-40166667Y22449943D01*
X-39833333Y22545181D02*
X-39214286Y22545181D01*
X-39214286Y22545181D02*
X-39547619Y22164229D01*
X-39547619Y22164229D02*
X-39404762Y22164229D01*
X-39404762Y22164229D02*
X-39309524Y22116610D01*
X-39309524Y22116610D02*
X-39261905Y22068991D01*
X-39261905Y22068991D02*
X-39214286Y21973753D01*
X-39214286Y21973753D02*
X-39214286Y21735658D01*
X-39214286Y21735658D02*
X-39261905Y21640420D01*
X-39261905Y21640420D02*
X-39309524Y21592800D01*
X-39309524Y21592800D02*
X-39404762Y21545181D01*
X-39404762Y21545181D02*
X-39690476Y21545181D01*
X-39690476Y21545181D02*
X-39785714Y21592800D01*
X-39785714Y21592800D02*
X-39833333Y21640420D01*
X24833333Y51640420D02*
X24785714Y51592800D01*
X24785714Y51592800D02*
X24642857Y51545181D01*
X24642857Y51545181D02*
X24547619Y51545181D01*
X24547619Y51545181D02*
X24404762Y51592800D01*
X24404762Y51592800D02*
X24309524Y51688039D01*
X24309524Y51688039D02*
X24261905Y51783277D01*
X24261905Y51783277D02*
X24214286Y51973753D01*
X24214286Y51973753D02*
X24214286Y52116610D01*
X24214286Y52116610D02*
X24261905Y52307086D01*
X24261905Y52307086D02*
X24309524Y52402324D01*
X24309524Y52402324D02*
X24404762Y52497562D01*
X24404762Y52497562D02*
X24547619Y52545181D01*
X24547619Y52545181D02*
X24642857Y52545181D01*
X24642857Y52545181D02*
X24785714Y52497562D01*
X24785714Y52497562D02*
X24833333Y52449943D01*
X25690476Y52211848D02*
X25690476Y51545181D01*
X25452381Y52592800D02*
X25214286Y51878515D01*
X25214286Y51878515D02*
X25833333Y51878515D01*
X-46166667Y26640420D02*
X-46214286Y26592800D01*
X-46214286Y26592800D02*
X-46357143Y26545181D01*
X-46357143Y26545181D02*
X-46452381Y26545181D01*
X-46452381Y26545181D02*
X-46595238Y26592800D01*
X-46595238Y26592800D02*
X-46690476Y26688039D01*
X-46690476Y26688039D02*
X-46738095Y26783277D01*
X-46738095Y26783277D02*
X-46785714Y26973753D01*
X-46785714Y26973753D02*
X-46785714Y27116610D01*
X-46785714Y27116610D02*
X-46738095Y27307086D01*
X-46738095Y27307086D02*
X-46690476Y27402324D01*
X-46690476Y27402324D02*
X-46595238Y27497562D01*
X-46595238Y27497562D02*
X-46452381Y27545181D01*
X-46452381Y27545181D02*
X-46357143Y27545181D01*
X-46357143Y27545181D02*
X-46214286Y27497562D01*
X-46214286Y27497562D02*
X-46166667Y27449943D01*
X-45785714Y27449943D02*
X-45738095Y27497562D01*
X-45738095Y27497562D02*
X-45642857Y27545181D01*
X-45642857Y27545181D02*
X-45404762Y27545181D01*
X-45404762Y27545181D02*
X-45309524Y27497562D01*
X-45309524Y27497562D02*
X-45261905Y27449943D01*
X-45261905Y27449943D02*
X-45214286Y27354705D01*
X-45214286Y27354705D02*
X-45214286Y27259467D01*
X-45214286Y27259467D02*
X-45261905Y27116610D01*
X-45261905Y27116610D02*
X-45833333Y26545181D01*
X-45833333Y26545181D02*
X-45214286Y26545181D01*
X-57833334Y8545181D02*
X-57833334Y7830896D01*
X-57833334Y7830896D02*
X-57880953Y7688039D01*
X-57880953Y7688039D02*
X-57976191Y7592800D01*
X-57976191Y7592800D02*
X-58119048Y7545181D01*
X-58119048Y7545181D02*
X-58214286Y7545181D01*
X-57404762Y8449943D02*
X-57357143Y8497562D01*
X-57357143Y8497562D02*
X-57261905Y8545181D01*
X-57261905Y8545181D02*
X-57023810Y8545181D01*
X-57023810Y8545181D02*
X-56928572Y8497562D01*
X-56928572Y8497562D02*
X-56880953Y8449943D01*
X-56880953Y8449943D02*
X-56833334Y8354705D01*
X-56833334Y8354705D02*
X-56833334Y8259467D01*
X-56833334Y8259467D02*
X-56880953Y8116610D01*
X-56880953Y8116610D02*
X-57452381Y7545181D01*
X-57452381Y7545181D02*
X-56833334Y7545181D01*
X-17353334Y23045181D02*
X-17353334Y22330896D01*
X-17353334Y22330896D02*
X-17400953Y22188039D01*
X-17400953Y22188039D02*
X-17496191Y22092800D01*
X-17496191Y22092800D02*
X-17639048Y22045181D01*
X-17639048Y22045181D02*
X-17734286Y22045181D01*
X-16400953Y23045181D02*
X-16877143Y23045181D01*
X-16877143Y23045181D02*
X-16924762Y22568991D01*
X-16924762Y22568991D02*
X-16877143Y22616610D01*
X-16877143Y22616610D02*
X-16781905Y22664229D01*
X-16781905Y22664229D02*
X-16543810Y22664229D01*
X-16543810Y22664229D02*
X-16448572Y22616610D01*
X-16448572Y22616610D02*
X-16400953Y22568991D01*
X-16400953Y22568991D02*
X-16353334Y22473753D01*
X-16353334Y22473753D02*
X-16353334Y22235658D01*
X-16353334Y22235658D02*
X-16400953Y22140420D01*
X-16400953Y22140420D02*
X-16448572Y22092800D01*
X-16448572Y22092800D02*
X-16543810Y22045181D01*
X-16543810Y22045181D02*
X-16781905Y22045181D01*
X-16781905Y22045181D02*
X-16877143Y22092800D01*
X-16877143Y22092800D02*
X-16924762Y22140420D01*
X-17353334Y53045181D02*
X-17353334Y52330896D01*
X-17353334Y52330896D02*
X-17400953Y52188039D01*
X-17400953Y52188039D02*
X-17496191Y52092800D01*
X-17496191Y52092800D02*
X-17639048Y52045181D01*
X-17639048Y52045181D02*
X-17734286Y52045181D01*
X-16448572Y53045181D02*
X-16639048Y53045181D01*
X-16639048Y53045181D02*
X-16734286Y52997562D01*
X-16734286Y52997562D02*
X-16781905Y52949943D01*
X-16781905Y52949943D02*
X-16877143Y52807086D01*
X-16877143Y52807086D02*
X-16924762Y52616610D01*
X-16924762Y52616610D02*
X-16924762Y52235658D01*
X-16924762Y52235658D02*
X-16877143Y52140420D01*
X-16877143Y52140420D02*
X-16829524Y52092800D01*
X-16829524Y52092800D02*
X-16734286Y52045181D01*
X-16734286Y52045181D02*
X-16543810Y52045181D01*
X-16543810Y52045181D02*
X-16448572Y52092800D01*
X-16448572Y52092800D02*
X-16400953Y52140420D01*
X-16400953Y52140420D02*
X-16353334Y52235658D01*
X-16353334Y52235658D02*
X-16353334Y52473753D01*
X-16353334Y52473753D02*
X-16400953Y52568991D01*
X-16400953Y52568991D02*
X-16448572Y52616610D01*
X-16448572Y52616610D02*
X-16543810Y52664229D01*
X-16543810Y52664229D02*
X-16734286Y52664229D01*
X-16734286Y52664229D02*
X-16829524Y52616610D01*
X-16829524Y52616610D02*
X-16877143Y52568991D01*
X-16877143Y52568991D02*
X-16924762Y52473753D01*
X-14363334Y-41654819D02*
X-14363334Y-42369104D01*
X-14363334Y-42369104D02*
X-14410953Y-42511961D01*
X-14410953Y-42511961D02*
X-14506191Y-42607200D01*
X-14506191Y-42607200D02*
X-14649048Y-42654819D01*
X-14649048Y-42654819D02*
X-14744286Y-42654819D01*
X-13982381Y-41654819D02*
X-13315715Y-41654819D01*
X-13315715Y-41654819D02*
X-13744286Y-42654819D01*
X-37223334Y-41654819D02*
X-37223334Y-42369104D01*
X-37223334Y-42369104D02*
X-37270953Y-42511961D01*
X-37270953Y-42511961D02*
X-37366191Y-42607200D01*
X-37366191Y-42607200D02*
X-37509048Y-42654819D01*
X-37509048Y-42654819D02*
X-37604286Y-42654819D01*
X-36604286Y-42083390D02*
X-36699524Y-42035771D01*
X-36699524Y-42035771D02*
X-36747143Y-41988152D01*
X-36747143Y-41988152D02*
X-36794762Y-41892914D01*
X-36794762Y-41892914D02*
X-36794762Y-41845295D01*
X-36794762Y-41845295D02*
X-36747143Y-41750057D01*
X-36747143Y-41750057D02*
X-36699524Y-41702438D01*
X-36699524Y-41702438D02*
X-36604286Y-41654819D01*
X-36604286Y-41654819D02*
X-36413810Y-41654819D01*
X-36413810Y-41654819D02*
X-36318572Y-41702438D01*
X-36318572Y-41702438D02*
X-36270953Y-41750057D01*
X-36270953Y-41750057D02*
X-36223334Y-41845295D01*
X-36223334Y-41845295D02*
X-36223334Y-41892914D01*
X-36223334Y-41892914D02*
X-36270953Y-41988152D01*
X-36270953Y-41988152D02*
X-36318572Y-42035771D01*
X-36318572Y-42035771D02*
X-36413810Y-42083390D01*
X-36413810Y-42083390D02*
X-36604286Y-42083390D01*
X-36604286Y-42083390D02*
X-36699524Y-42131009D01*
X-36699524Y-42131009D02*
X-36747143Y-42178628D01*
X-36747143Y-42178628D02*
X-36794762Y-42273866D01*
X-36794762Y-42273866D02*
X-36794762Y-42464342D01*
X-36794762Y-42464342D02*
X-36747143Y-42559580D01*
X-36747143Y-42559580D02*
X-36699524Y-42607200D01*
X-36699524Y-42607200D02*
X-36604286Y-42654819D01*
X-36604286Y-42654819D02*
X-36413810Y-42654819D01*
X-36413810Y-42654819D02*
X-36318572Y-42607200D01*
X-36318572Y-42607200D02*
X-36270953Y-42559580D01*
X-36270953Y-42559580D02*
X-36223334Y-42464342D01*
X-36223334Y-42464342D02*
X-36223334Y-42273866D01*
X-36223334Y-42273866D02*
X-36270953Y-42178628D01*
X-36270953Y-42178628D02*
X-36318572Y-42131009D01*
X-36318572Y-42131009D02*
X-36413810Y-42083390D01*
X50338095Y-27954819D02*
X50338095Y-26954819D01*
X50338095Y-27431009D02*
X50909523Y-27431009D01*
X50909523Y-27954819D02*
X50909523Y-26954819D01*
X51909523Y-27954819D02*
X51338095Y-27954819D01*
X51623809Y-27954819D02*
X51623809Y-26954819D01*
X51623809Y-26954819D02*
X51528571Y-27097676D01*
X51528571Y-27097676D02*
X51433333Y-27192914D01*
X51433333Y-27192914D02*
X51338095Y-27240533D01*
X-51861905Y-27954819D02*
X-51861905Y-26954819D01*
X-51861905Y-27431009D02*
X-51290477Y-27431009D01*
X-51290477Y-27954819D02*
X-51290477Y-26954819D01*
X-50861905Y-27050057D02*
X-50814286Y-27002438D01*
X-50814286Y-27002438D02*
X-50719048Y-26954819D01*
X-50719048Y-26954819D02*
X-50480953Y-26954819D01*
X-50480953Y-26954819D02*
X-50385715Y-27002438D01*
X-50385715Y-27002438D02*
X-50338096Y-27050057D01*
X-50338096Y-27050057D02*
X-50290477Y-27145295D01*
X-50290477Y-27145295D02*
X-50290477Y-27240533D01*
X-50290477Y-27240533D02*
X-50338096Y-27383390D01*
X-50338096Y-27383390D02*
X-50909524Y-27954819D01*
X-50909524Y-27954819D02*
X-50290477Y-27954819D01*
X-761905Y51395181D02*
X-761905Y52395181D01*
X-761905Y51918991D02*
X-190477Y51918991D01*
X-190477Y51395181D02*
X-190477Y52395181D01*
X190476Y52395181D02*
X809523Y52395181D01*
X809523Y52395181D02*
X476190Y52014229D01*
X476190Y52014229D02*
X619047Y52014229D01*
X619047Y52014229D02*
X714285Y51966610D01*
X714285Y51966610D02*
X761904Y51918991D01*
X761904Y51918991D02*
X809523Y51823753D01*
X809523Y51823753D02*
X809523Y51585658D01*
X809523Y51585658D02*
X761904Y51490420D01*
X761904Y51490420D02*
X714285Y51442800D01*
X714285Y51442800D02*
X619047Y51395181D01*
X619047Y51395181D02*
X333333Y51395181D01*
X333333Y51395181D02*
X238095Y51442800D01*
X238095Y51442800D02*
X190476Y51490420D01*
X34657142Y28745181D02*
X34657142Y28030896D01*
X34657142Y28030896D02*
X34609523Y27888039D01*
X34609523Y27888039D02*
X34514285Y27792800D01*
X34514285Y27792800D02*
X34371428Y27745181D01*
X34371428Y27745181D02*
X34276190Y27745181D01*
X35085714Y27792800D02*
X35228571Y27745181D01*
X35228571Y27745181D02*
X35466666Y27745181D01*
X35466666Y27745181D02*
X35561904Y27792800D01*
X35561904Y27792800D02*
X35609523Y27840420D01*
X35609523Y27840420D02*
X35657142Y27935658D01*
X35657142Y27935658D02*
X35657142Y28030896D01*
X35657142Y28030896D02*
X35609523Y28126134D01*
X35609523Y28126134D02*
X35561904Y28173753D01*
X35561904Y28173753D02*
X35466666Y28221372D01*
X35466666Y28221372D02*
X35276190Y28268991D01*
X35276190Y28268991D02*
X35180952Y28316610D01*
X35180952Y28316610D02*
X35133333Y28364229D01*
X35133333Y28364229D02*
X35085714Y28459467D01*
X35085714Y28459467D02*
X35085714Y28554705D01*
X35085714Y28554705D02*
X35133333Y28649943D01*
X35133333Y28649943D02*
X35180952Y28697562D01*
X35180952Y28697562D02*
X35276190Y28745181D01*
X35276190Y28745181D02*
X35514285Y28745181D01*
X35514285Y28745181D02*
X35657142Y28697562D01*
X35942857Y28745181D02*
X36514285Y28745181D01*
X36228571Y27745181D02*
X36228571Y28745181D01*
X38133333Y28697562D02*
X38038095Y28745181D01*
X38038095Y28745181D02*
X37895238Y28745181D01*
X37895238Y28745181D02*
X37752381Y28697562D01*
X37752381Y28697562D02*
X37657143Y28602324D01*
X37657143Y28602324D02*
X37609524Y28507086D01*
X37609524Y28507086D02*
X37561905Y28316610D01*
X37561905Y28316610D02*
X37561905Y28173753D01*
X37561905Y28173753D02*
X37609524Y27983277D01*
X37609524Y27983277D02*
X37657143Y27888039D01*
X37657143Y27888039D02*
X37752381Y27792800D01*
X37752381Y27792800D02*
X37895238Y27745181D01*
X37895238Y27745181D02*
X37990476Y27745181D01*
X37990476Y27745181D02*
X38133333Y27792800D01*
X38133333Y27792800D02*
X38180952Y27840420D01*
X38180952Y27840420D02*
X38180952Y28173753D01*
X38180952Y28173753D02*
X37990476Y28173753D01*
X38609524Y27745181D02*
X38609524Y28745181D01*
X38609524Y28268991D02*
X39180952Y28268991D01*
X39180952Y27745181D02*
X39180952Y28745181D01*
X40847619Y27792800D02*
X40752381Y27745181D01*
X40752381Y27745181D02*
X40561905Y27745181D01*
X40561905Y27745181D02*
X40466667Y27792800D01*
X40466667Y27792800D02*
X40419048Y27840420D01*
X40419048Y27840420D02*
X40371429Y27935658D01*
X40371429Y27935658D02*
X40371429Y28221372D01*
X40371429Y28221372D02*
X40419048Y28316610D01*
X40419048Y28316610D02*
X40466667Y28364229D01*
X40466667Y28364229D02*
X40561905Y28411848D01*
X40561905Y28411848D02*
X40752381Y28411848D01*
X40752381Y28411848D02*
X40847619Y28364229D01*
X41704762Y27745181D02*
X41704762Y28268991D01*
X41704762Y28268991D02*
X41657143Y28364229D01*
X41657143Y28364229D02*
X41561905Y28411848D01*
X41561905Y28411848D02*
X41371429Y28411848D01*
X41371429Y28411848D02*
X41276191Y28364229D01*
X41704762Y27792800D02*
X41609524Y27745181D01*
X41609524Y27745181D02*
X41371429Y27745181D01*
X41371429Y27745181D02*
X41276191Y27792800D01*
X41276191Y27792800D02*
X41228572Y27888039D01*
X41228572Y27888039D02*
X41228572Y27983277D01*
X41228572Y27983277D02*
X41276191Y28078515D01*
X41276191Y28078515D02*
X41371429Y28126134D01*
X41371429Y28126134D02*
X41609524Y28126134D01*
X41609524Y28126134D02*
X41704762Y28173753D01*
X42180953Y27745181D02*
X42180953Y28745181D01*
X42180953Y28364229D02*
X42276191Y28411848D01*
X42276191Y28411848D02*
X42466667Y28411848D01*
X42466667Y28411848D02*
X42561905Y28364229D01*
X42561905Y28364229D02*
X42609524Y28316610D01*
X42609524Y28316610D02*
X42657143Y28221372D01*
X42657143Y28221372D02*
X42657143Y27935658D01*
X42657143Y27935658D02*
X42609524Y27840420D01*
X42609524Y27840420D02*
X42561905Y27792800D01*
X42561905Y27792800D02*
X42466667Y27745181D01*
X42466667Y27745181D02*
X42276191Y27745181D01*
X42276191Y27745181D02*
X42180953Y27792800D01*
X43228572Y27745181D02*
X43133334Y27792800D01*
X43133334Y27792800D02*
X43085715Y27888039D01*
X43085715Y27888039D02*
X43085715Y28745181D01*
X43990477Y27792800D02*
X43895239Y27745181D01*
X43895239Y27745181D02*
X43704763Y27745181D01*
X43704763Y27745181D02*
X43609525Y27792800D01*
X43609525Y27792800D02*
X43561906Y27888039D01*
X43561906Y27888039D02*
X43561906Y28268991D01*
X43561906Y28268991D02*
X43609525Y28364229D01*
X43609525Y28364229D02*
X43704763Y28411848D01*
X43704763Y28411848D02*
X43895239Y28411848D01*
X43895239Y28411848D02*
X43990477Y28364229D01*
X43990477Y28364229D02*
X44038096Y28268991D01*
X44038096Y28268991D02*
X44038096Y28173753D01*
X44038096Y28173753D02*
X43561906Y28078515D01*
X45228573Y28126134D02*
X45990478Y28126134D01*
X46466668Y28411848D02*
X47228573Y28126134D01*
X47228573Y28126134D02*
X46466668Y27840420D01*
X19309524Y3745181D02*
X19976190Y3745181D01*
X19976190Y3745181D02*
X19309524Y2745181D01*
X19309524Y2745181D02*
X19976190Y2745181D01*
X20214286Y3745181D02*
X20785714Y3745181D01*
X20500000Y2745181D02*
X20500000Y3745181D01*
X21642857Y2745181D02*
X21071429Y2745181D01*
X21357143Y2745181D02*
X21357143Y3745181D01*
X21357143Y3745181D02*
X21261905Y3602324D01*
X21261905Y3602324D02*
X21166667Y3507086D01*
X21166667Y3507086D02*
X21071429Y3459467D01*
X50909524Y3745181D02*
X51576190Y3745181D01*
X51576190Y3745181D02*
X50909524Y2745181D01*
X50909524Y2745181D02*
X51576190Y2745181D01*
X51814286Y3745181D02*
X52385714Y3745181D01*
X52100000Y2745181D02*
X52100000Y3745181D01*
X52671429Y3649943D02*
X52719048Y3697562D01*
X52719048Y3697562D02*
X52814286Y3745181D01*
X52814286Y3745181D02*
X53052381Y3745181D01*
X53052381Y3745181D02*
X53147619Y3697562D01*
X53147619Y3697562D02*
X53195238Y3649943D01*
X53195238Y3649943D02*
X53242857Y3554705D01*
X53242857Y3554705D02*
X53242857Y3459467D01*
X53242857Y3459467D02*
X53195238Y3316610D01*
X53195238Y3316610D02*
X52623810Y2745181D01*
X52623810Y2745181D02*
X53242857Y2745181D01*
X19309524Y11745181D02*
X19976190Y11745181D01*
X19976190Y11745181D02*
X19309524Y10745181D01*
X19309524Y10745181D02*
X19976190Y10745181D01*
X20214286Y11745181D02*
X20785714Y11745181D01*
X20500000Y10745181D02*
X20500000Y11745181D01*
X21023810Y11745181D02*
X21642857Y11745181D01*
X21642857Y11745181D02*
X21309524Y11364229D01*
X21309524Y11364229D02*
X21452381Y11364229D01*
X21452381Y11364229D02*
X21547619Y11316610D01*
X21547619Y11316610D02*
X21595238Y11268991D01*
X21595238Y11268991D02*
X21642857Y11173753D01*
X21642857Y11173753D02*
X21642857Y10935658D01*
X21642857Y10935658D02*
X21595238Y10840420D01*
X21595238Y10840420D02*
X21547619Y10792800D01*
X21547619Y10792800D02*
X21452381Y10745181D01*
X21452381Y10745181D02*
X21166667Y10745181D01*
X21166667Y10745181D02*
X21071429Y10792800D01*
X21071429Y10792800D02*
X21023810Y10840420D01*
X50909524Y11745181D02*
X51576190Y11745181D01*
X51576190Y11745181D02*
X50909524Y10745181D01*
X50909524Y10745181D02*
X51576190Y10745181D01*
X51814286Y11745181D02*
X52385714Y11745181D01*
X52100000Y10745181D02*
X52100000Y11745181D01*
X53147619Y11411848D02*
X53147619Y10745181D01*
X52909524Y11792800D02*
X52671429Y11078515D01*
X52671429Y11078515D02*
X53290476Y11078515D01*
X37666666Y-22554819D02*
X37666666Y-23269104D01*
X37666666Y-23269104D02*
X37619047Y-23411961D01*
X37619047Y-23411961D02*
X37523809Y-23507200D01*
X37523809Y-23507200D02*
X37380952Y-23554819D01*
X37380952Y-23554819D02*
X37285714Y-23554819D01*
X38047619Y-22554819D02*
X38666666Y-22554819D01*
X38666666Y-22554819D02*
X38333333Y-22935771D01*
X38333333Y-22935771D02*
X38476190Y-22935771D01*
X38476190Y-22935771D02*
X38571428Y-22983390D01*
X38571428Y-22983390D02*
X38619047Y-23031009D01*
X38619047Y-23031009D02*
X38666666Y-23126247D01*
X38666666Y-23126247D02*
X38666666Y-23364342D01*
X38666666Y-23364342D02*
X38619047Y-23459580D01*
X38619047Y-23459580D02*
X38571428Y-23507200D01*
X38571428Y-23507200D02*
X38476190Y-23554819D01*
X38476190Y-23554819D02*
X38190476Y-23554819D01*
X38190476Y-23554819D02*
X38095238Y-23507200D01*
X38095238Y-23507200D02*
X38047619Y-23459580D01*
X-43385181Y-19383333D02*
X-42670896Y-19383333D01*
X-42670896Y-19383333D02*
X-42528039Y-19430952D01*
X-42528039Y-19430952D02*
X-42432800Y-19526190D01*
X-42432800Y-19526190D02*
X-42385181Y-19669047D01*
X-42385181Y-19669047D02*
X-42385181Y-19764285D01*
X-43051848Y-18478571D02*
X-42385181Y-18478571D01*
X-43432800Y-18716666D02*
X-42718515Y-18954761D01*
X-42718515Y-18954761D02*
X-42718515Y-18335714D01*
%TO.C,SENS1*%
D11*
X23700000Y33000000D02*
X48900000Y33000000D01*
X48900000Y-21800000D01*
X23700000Y-21800000D01*
X23700000Y33000000D01*
%TO.C,LDR1*%
X-43670000Y16310000D02*
X-50890000Y16310000D01*
X-43670000Y16310000D02*
X-43670000Y-17250000D01*
X-50890000Y16310000D02*
X-50890000Y-17250000D01*
%TO.C,ZT1*%
X22500000Y0D02*
G75*
G02*
X18500000Y0I-2000000J0D01*
G01*
X18500000Y0D02*
G75*
G02*
X22500000Y0I2000000J0D01*
G01*
%TO.C,ZT2*%
X54100000Y0D02*
G75*
G02*
X50100000Y0I-2000000J0D01*
G01*
X50100000Y0D02*
G75*
G02*
X54100000Y0I2000000J0D01*
G01*
%TO.C,ZT3*%
X22500000Y8000000D02*
G75*
G02*
X18500000Y8000000I-2000000J0D01*
G01*
X18500000Y8000000D02*
G75*
G02*
X22500000Y8000000I2000000J0D01*
G01*
%TO.C,ZT4*%
X54100000Y8000000D02*
G75*
G02*
X50100000Y8000000I-2000000J0D01*
G01*
X50100000Y8000000D02*
G75*
G02*
X54100000Y8000000I2000000J0D01*
G01*
%TO.C,J3*%
X32515000Y-25290000D02*
X34315000Y-25290000D01*
X32515000Y-26740000D02*
X32515000Y-25290000D01*
X33785000Y-29560000D02*
X42215000Y-29560000D01*
X34315000Y-25290000D02*
X34315000Y-24300000D01*
X43485000Y-25290000D02*
X41685000Y-25290000D01*
X43485000Y-26740000D02*
X43485000Y-25290000D01*
%TO.C,J4*%
X-43930000Y-17890000D02*
X-43930000Y-19050000D01*
X-44740000Y-17890000D02*
X-43930000Y-17890000D01*
X-45550000Y-17890000D02*
X-50565000Y-17890000D01*
X-45550000Y-17890000D02*
X-45550000Y-18383292D01*
X-50565000Y-17890000D02*
X-50565000Y-18732077D01*
X-50565000Y-19367923D02*
X-50565000Y-20210000D01*
X-45550000Y-19716708D02*
X-45550000Y-20210000D01*
X-45550000Y-20210000D02*
X-50565000Y-20210000D01*
%TO.C,J1*%
X6080000Y-17290000D02*
X4080000Y-17290000D01*
X5830000Y-18790000D02*
X6080000Y-17290000D01*
X5380000Y-30310000D02*
X4780000Y-30310000D01*
X5080000Y-29710000D02*
X5380000Y-30310000D01*
X4780000Y-30310000D02*
X5080000Y-29710000D01*
X4330000Y-18790000D02*
X5830000Y-18790000D01*
X4080000Y-17290000D02*
X4330000Y-18790000D01*
X1000000Y-17290000D02*
X-1000000Y-17290000D01*
X750000Y-18790000D02*
X1000000Y-17290000D01*
X-750000Y-18790000D02*
X750000Y-18790000D01*
X-1000000Y-17290000D02*
X-750000Y-18790000D01*
X-4080000Y-17290000D02*
X-6080000Y-17290000D01*
X-4330000Y-18790000D02*
X-4080000Y-17290000D01*
X-5830000Y-18790000D02*
X-4330000Y-18790000D01*
X-6080000Y-17290000D02*
X-5830000Y-18790000D01*
X-8730000Y-17290000D02*
X8730000Y-17290000D01*
X8730000Y-29510000D01*
X-8730000Y-29510000D01*
X-8730000Y-17290000D01*
X-8730000Y-18790000D02*
X8730000Y-18790000D01*
X8730000Y-20590000D01*
X-8730000Y-20590000D01*
X-8730000Y-18790000D01*
%TO.C,J9*%
X34760000Y-41475000D02*
X33710000Y-41475000D01*
X34760000Y-38975000D02*
X34760000Y-41475000D01*
X33710000Y-41475000D02*
X33710000Y-42465000D01*
X33590000Y-37005000D02*
X29710000Y-37005000D01*
X28540000Y-41475000D02*
X29590000Y-41475000D01*
X28540000Y-38975000D02*
X28540000Y-41475000D01*
%TO.C,J10*%
X-12340000Y18620000D02*
X-12340000Y20000000D01*
X-10960000Y18620000D02*
X-12340000Y18620000D01*
X-9690000Y18620000D02*
X3120000Y18620000D01*
X-9690000Y18620000D02*
X-9690000Y21380000D01*
X3120000Y18620000D02*
X3120000Y21380000D01*
X-9690000Y21380000D02*
X3120000Y21380000D01*
%TO.C,MOD1*%
X-27560000Y50600000D02*
X20300000Y50600000D01*
X20300000Y24200000D01*
X-27560000Y24200000D01*
X-27560000Y50600000D01*
%TO.C,MOD2*%
X-40660000Y16310000D02*
X-14260000Y16310000D01*
X-14260000Y-40440000D01*
X-40660000Y-40440000D01*
X-40660000Y16310000D01*
%TO.C,J5*%
X-21120000Y24640000D02*
X14500000Y24640000D01*
X-21120000Y24640000D02*
X-21120000Y27300000D01*
X14500000Y24640000D02*
X14500000Y27300000D01*
X-23720000Y25970000D02*
X-23720000Y27300000D01*
X-23720000Y27300000D02*
X-22390000Y27300000D01*
X-21120000Y27300000D02*
X14500000Y27300000D01*
%TO.C,J6*%
X-21120000Y47500000D02*
X14500000Y47500000D01*
X-21120000Y47500000D02*
X-21120000Y50160000D01*
X14500000Y47500000D02*
X14500000Y50160000D01*
X-23720000Y48830000D02*
X-23720000Y50160000D01*
X-23720000Y50160000D02*
X-22390000Y50160000D01*
X-21120000Y50160000D02*
X14500000Y50160000D01*
%TO.C,J7*%
X-14700000Y-36830000D02*
X-14700000Y-18990000D01*
X-14700000Y-36830000D02*
X-17360000Y-36830000D01*
X-14700000Y-18990000D02*
X-17360000Y-18990000D01*
X-16030000Y-39430000D02*
X-17360000Y-39430000D01*
X-17360000Y-39430000D02*
X-17360000Y-38100000D01*
X-17360000Y-36830000D02*
X-17360000Y-18990000D01*
%TO.C,J8*%
X-37560000Y-36830000D02*
X-37560000Y-18990000D01*
X-37560000Y-36830000D02*
X-40220000Y-36830000D01*
X-37560000Y-18990000D02*
X-40220000Y-18990000D01*
X-38890000Y-39430000D02*
X-40220000Y-39430000D01*
X-40220000Y-39430000D02*
X-40220000Y-38100000D01*
X-40220000Y-36830000D02*
X-40220000Y-18990000D01*
%TO.C,D11*%
D12*
X11395000Y1425000D02*
G75*
G02*
X11205000Y1425000I-95000J0D01*
G01*
X11205000Y1425000D02*
G75*
G02*
X11395000Y1425000I95000J0D01*
G01*
%TO.C,C20*%
D11*
X9960000Y107836D02*
X9960000Y-107836D01*
X9240000Y107836D02*
X9240000Y-107836D01*
%TO.C,D12*%
D12*
X10593587Y-4415914D02*
G75*
G02*
X10403587Y-4415914I-95000J0D01*
G01*
X10403587Y-4415914D02*
G75*
G02*
X10593587Y-4415914I95000J0D01*
G01*
%TO.C,C21*%
D11*
X8679531Y-4886611D02*
X8571695Y-5073389D01*
X8055993Y-4526611D02*
X7948157Y-4713389D01*
%TO.C,D13*%
D12*
X6979086Y-9073587D02*
G75*
G02*
X6789086Y-9073587I-95000J0D01*
G01*
X6789086Y-9073587D02*
G75*
G02*
X6979086Y-9073587I95000J0D01*
G01*
%TO.C,C22*%
D11*
X5073389Y-8571695D02*
X4886611Y-8679531D01*
X4713389Y-7948157D02*
X4526611Y-8055993D01*
%TO.C,D15*%
D12*
X-4320914Y-10498587D02*
G75*
G02*
X-4510914Y-10498587I-95000J0D01*
G01*
X-4510914Y-10498587D02*
G75*
G02*
X-4320914Y-10498587I95000J0D01*
G01*
%TO.C,C24*%
D11*
X-4886611Y-8679531D02*
X-5073389Y-8571695D01*
X-4526611Y-8055993D02*
X-4713389Y-7948157D01*
%TO.C,D16*%
D12*
X-8978587Y-6884086D02*
G75*
G02*
X-9168587Y-6884086I-95000J0D01*
G01*
X-9168587Y-6884086D02*
G75*
G02*
X-8978587Y-6884086I95000J0D01*
G01*
%TO.C,C25*%
D11*
X-8571695Y-5073389D02*
X-8679531Y-4886611D01*
X-7948157Y-4713389D02*
X-8055993Y-4526611D01*
%TO.C,D17*%
D12*
X-11205000Y-1425000D02*
G75*
G02*
X-11395000Y-1425000I-95000J0D01*
G01*
X-11395000Y-1425000D02*
G75*
G02*
X-11205000Y-1425000I95000J0D01*
G01*
%TO.C,C26*%
D11*
X-9960000Y-107836D02*
X-9960000Y107836D01*
X-9240000Y-107836D02*
X-9240000Y107836D01*
%TO.C,D18*%
D12*
X-10403587Y4415914D02*
G75*
G02*
X-10593587Y4415914I-95000J0D01*
G01*
X-10593587Y4415914D02*
G75*
G02*
X-10403587Y4415914I95000J0D01*
G01*
%TO.C,C27*%
D11*
X-8679531Y4886611D02*
X-8571695Y5073389D01*
X-8055993Y4526611D02*
X-7948157Y4713389D01*
%TO.C,D19*%
D12*
X-6789086Y9073587D02*
G75*
G02*
X-6979086Y9073587I-95000J0D01*
G01*
X-6979086Y9073587D02*
G75*
G02*
X-6789086Y9073587I95000J0D01*
G01*
%TO.C,C28*%
D11*
X-5073389Y8571695D02*
X-4886611Y8679531D01*
X-4713389Y7948157D02*
X-4526611Y8055993D01*
%TO.C,D20*%
D12*
X-1330000Y11300000D02*
G75*
G02*
X-1520000Y11300000I-95000J0D01*
G01*
X-1520000Y11300000D02*
G75*
G02*
X-1330000Y11300000I95000J0D01*
G01*
%TO.C,C29*%
D11*
X-107836Y9960000D02*
X107836Y9960000D01*
X-107836Y9240000D02*
X107836Y9240000D01*
%TO.C,D21*%
D12*
X4510914Y10498587D02*
G75*
G02*
X4320914Y10498587I-95000J0D01*
G01*
X4320914Y10498587D02*
G75*
G02*
X4510914Y10498587I95000J0D01*
G01*
%TO.C,C30*%
D11*
X4886611Y8679531D02*
X5073389Y8571695D01*
X4526611Y8055993D02*
X4713389Y7948157D01*
%TO.C,D22*%
D12*
X9168587Y6884086D02*
G75*
G02*
X8978587Y6884086I-95000J0D01*
G01*
X8978587Y6884086D02*
G75*
G02*
X9168587Y6884086I95000J0D01*
G01*
%TO.C,C31*%
D11*
X8571695Y5073389D02*
X8679531Y4886611D01*
X7948157Y4713389D02*
X8055993Y4526611D01*
%TO.C,D1*%
X22660000Y-11650000D02*
X22660000Y-7350000D01*
X22660000Y-11650000D02*
X16850000Y-11650000D01*
X22660000Y-7350000D02*
X16850000Y-7350000D01*
%TO.C,Q1*%
X13240000Y-31440000D02*
X14760000Y-31440000D01*
X13240000Y-31490000D02*
X13240000Y-31440000D01*
X13240000Y-33390000D02*
X13240000Y-32610000D01*
X13240000Y-34560000D02*
X13240000Y-34510000D01*
X14760000Y-31440000D02*
X14760000Y-32440000D01*
X14760000Y-33560000D02*
X14760000Y-34560000D01*
X14760000Y-34560000D02*
X13240000Y-34560000D01*
X12700000Y-32620000D02*
X12940000Y-32950000D01*
X12460000Y-32950000D01*
X12700000Y-32620000D01*
G36*
X12940000Y-32950000D02*
G01*
X12460000Y-32950000D01*
X12700000Y-32620000D01*
X12940000Y-32950000D01*
G37*
%TO.C,D3*%
X18390000Y-32150000D02*
X18390000Y-33850000D01*
X18390000Y-32150000D02*
X21050000Y-32150000D01*
X18390000Y-33850000D02*
X21050000Y-33850000D01*
%TO.C,F1*%
X12796248Y-22330000D02*
X17203752Y-22330000D01*
X12796248Y-27670000D02*
X17203752Y-27670000D01*
%TO.C,R1*%
X13762742Y-36477500D02*
X14237258Y-36477500D01*
X13762742Y-37522500D02*
X14237258Y-37522500D01*
%TO.C,R4*%
X19762742Y-36477500D02*
X20237258Y-36477500D01*
X19762742Y-37522500D02*
X20237258Y-37522500D01*
%TO.C,C1*%
X28590302Y44315000D02*
X29390302Y44315000D01*
X28990302Y44715000D02*
X28990302Y43915000D01*
X33000000Y46080000D02*
X33000000Y37920000D01*
X33040000Y46080000D02*
X33040000Y37920000D01*
X33080000Y46079000D02*
X33080000Y37921000D01*
X33120000Y46078000D02*
X33120000Y37922000D01*
X33160000Y46077000D02*
X33160000Y37923000D01*
X33200000Y46075000D02*
X33200000Y37925000D01*
X33240000Y46073000D02*
X33240000Y37927000D01*
X33280000Y46070000D02*
X33280000Y37930000D01*
X33320000Y46068000D02*
X33320000Y37932000D01*
X33360000Y46064000D02*
X33360000Y37936000D01*
X33400000Y46061000D02*
X33400000Y37939000D01*
X33440000Y46056000D02*
X33440000Y37944000D01*
X33480000Y46052000D02*
X33480000Y37948000D01*
X33520000Y46047000D02*
X33520000Y37953000D01*
X33560000Y46042000D02*
X33560000Y37958000D01*
X33600000Y46036000D02*
X33600000Y37964000D01*
X33640000Y46030000D02*
X33640000Y37970000D01*
X33680000Y46023000D02*
X33680000Y37977000D01*
X33720000Y46017000D02*
X33720000Y43040000D01*
X33720000Y40960000D02*
X33720000Y37983000D01*
X33760000Y46009000D02*
X33760000Y43040000D01*
X33760000Y40960000D02*
X33760000Y37991000D01*
X33800000Y46002000D02*
X33800000Y43040000D01*
X33800000Y40960000D02*
X33800000Y37998000D01*
X33840000Y45993000D02*
X33840000Y43040000D01*
X33840000Y40960000D02*
X33840000Y38007000D01*
X33880000Y45985000D02*
X33880000Y43040000D01*
X33880000Y40960000D02*
X33880000Y38015000D01*
X33920000Y45976000D02*
X33920000Y43040000D01*
X33920000Y40960000D02*
X33920000Y38024000D01*
X33960000Y45967000D02*
X33960000Y43040000D01*
X33960000Y40960000D02*
X33960000Y38033000D01*
X34000000Y45957000D02*
X34000000Y43040000D01*
X34000000Y40960000D02*
X34000000Y38043000D01*
X34040000Y45947000D02*
X34040000Y43040000D01*
X34040000Y40960000D02*
X34040000Y38053000D01*
X34080000Y45936000D02*
X34080000Y43040000D01*
X34080000Y40960000D02*
X34080000Y38064000D01*
X34120000Y45925000D02*
X34120000Y43040000D01*
X34120000Y40960000D02*
X34120000Y38075000D01*
X34160000Y45913000D02*
X34160000Y43040000D01*
X34160000Y40960000D02*
X34160000Y38087000D01*
X34200000Y45901000D02*
X34200000Y43040000D01*
X34200000Y40960000D02*
X34200000Y38099000D01*
X34240000Y45889000D02*
X34240000Y43040000D01*
X34240000Y40960000D02*
X34240000Y38111000D01*
X34280000Y45876000D02*
X34280000Y43040000D01*
X34280000Y40960000D02*
X34280000Y38124000D01*
X34320000Y45863000D02*
X34320000Y43040000D01*
X34320000Y40960000D02*
X34320000Y38137000D01*
X34360000Y45849000D02*
X34360000Y43040000D01*
X34360000Y40960000D02*
X34360000Y38151000D01*
X34400000Y45835000D02*
X34400000Y43040000D01*
X34400000Y40960000D02*
X34400000Y38165000D01*
X34440000Y45820000D02*
X34440000Y43040000D01*
X34440000Y40960000D02*
X34440000Y38180000D01*
X34480000Y45805000D02*
X34480000Y43040000D01*
X34480000Y40960000D02*
X34480000Y38195000D01*
X34520000Y45789000D02*
X34520000Y43040000D01*
X34520000Y40960000D02*
X34520000Y38211000D01*
X34560000Y45773000D02*
X34560000Y43040000D01*
X34560000Y40960000D02*
X34560000Y38227000D01*
X34600000Y45757000D02*
X34600000Y43040000D01*
X34600000Y40960000D02*
X34600000Y38243000D01*
X34640000Y45740000D02*
X34640000Y43040000D01*
X34640000Y40960000D02*
X34640000Y38260000D01*
X34680000Y45722000D02*
X34680000Y43040000D01*
X34680000Y40960000D02*
X34680000Y38278000D01*
X34720000Y45704000D02*
X34720000Y43040000D01*
X34720000Y40960000D02*
X34720000Y38296000D01*
X34760000Y45685000D02*
X34760000Y43040000D01*
X34760000Y40960000D02*
X34760000Y38315000D01*
X34800000Y45666000D02*
X34800000Y43040000D01*
X34800000Y40960000D02*
X34800000Y38334000D01*
X34840000Y45646000D02*
X34840000Y43040000D01*
X34840000Y40960000D02*
X34840000Y38354000D01*
X34880000Y45626000D02*
X34880000Y43040000D01*
X34880000Y40960000D02*
X34880000Y38374000D01*
X34920000Y45605000D02*
X34920000Y43040000D01*
X34920000Y40960000D02*
X34920000Y38395000D01*
X34960000Y45584000D02*
X34960000Y43040000D01*
X34960000Y40960000D02*
X34960000Y38416000D01*
X35000000Y45562000D02*
X35000000Y43040000D01*
X35000000Y40960000D02*
X35000000Y38438000D01*
X35040000Y45539000D02*
X35040000Y43040000D01*
X35040000Y40960000D02*
X35040000Y38461000D01*
X35080000Y45516000D02*
X35080000Y43040000D01*
X35080000Y40960000D02*
X35080000Y38484000D01*
X35120000Y45493000D02*
X35120000Y43040000D01*
X35120000Y40960000D02*
X35120000Y38507000D01*
X35160000Y45468000D02*
X35160000Y43040000D01*
X35160000Y40960000D02*
X35160000Y38532000D01*
X35200000Y45443000D02*
X35200000Y43040000D01*
X35200000Y40960000D02*
X35200000Y38557000D01*
X35240000Y45418000D02*
X35240000Y43040000D01*
X35240000Y40960000D02*
X35240000Y38582000D01*
X35280000Y45392000D02*
X35280000Y43040000D01*
X35280000Y40960000D02*
X35280000Y38608000D01*
X35320000Y45365000D02*
X35320000Y43040000D01*
X35320000Y40960000D02*
X35320000Y38635000D01*
X35360000Y45337000D02*
X35360000Y43040000D01*
X35360000Y40960000D02*
X35360000Y38663000D01*
X35400000Y45309000D02*
X35400000Y43040000D01*
X35400000Y40960000D02*
X35400000Y38691000D01*
X35440000Y45280000D02*
X35440000Y43040000D01*
X35440000Y40960000D02*
X35440000Y38720000D01*
X35480000Y45250000D02*
X35480000Y43040000D01*
X35480000Y40960000D02*
X35480000Y38750000D01*
X35520000Y45219000D02*
X35520000Y43040000D01*
X35520000Y40960000D02*
X35520000Y38781000D01*
X35560000Y45188000D02*
X35560000Y43040000D01*
X35560000Y40960000D02*
X35560000Y38812000D01*
X35600000Y45156000D02*
X35600000Y43040000D01*
X35600000Y40960000D02*
X35600000Y38844000D01*
X35640000Y45123000D02*
X35640000Y43040000D01*
X35640000Y40960000D02*
X35640000Y38877000D01*
X35680000Y45089000D02*
X35680000Y43040000D01*
X35680000Y40960000D02*
X35680000Y38911000D01*
X35720000Y45055000D02*
X35720000Y43040000D01*
X35720000Y40960000D02*
X35720000Y38945000D01*
X35760000Y45019000D02*
X35760000Y43040000D01*
X35760000Y40960000D02*
X35760000Y38981000D01*
X35800000Y44982000D02*
X35800000Y39018000D01*
X35840000Y44945000D02*
X35840000Y39055000D01*
X35880000Y44906000D02*
X35880000Y39094000D01*
X35920000Y44867000D02*
X35920000Y39133000D01*
X35960000Y44826000D02*
X35960000Y39174000D01*
X36000000Y44784000D02*
X36000000Y39216000D01*
X36040000Y44741000D02*
X36040000Y39259000D01*
X36080000Y44696000D02*
X36080000Y39304000D01*
X36120000Y44651000D02*
X36120000Y39349000D01*
X36160000Y44604000D02*
X36160000Y39396000D01*
X36200000Y44555000D02*
X36200000Y39445000D01*
X36240000Y44505000D02*
X36240000Y39495000D01*
X36280000Y44453000D02*
X36280000Y39547000D01*
X36320000Y44400000D02*
X36320000Y39600000D01*
X36360000Y44344000D02*
X36360000Y39656000D01*
X36400000Y44287000D02*
X36400000Y39713000D01*
X36440000Y44227000D02*
X36440000Y39773000D01*
X36480000Y44165000D02*
X36480000Y39835000D01*
X36520000Y44101000D02*
X36520000Y39899000D01*
X36560000Y44034000D02*
X36560000Y39966000D01*
X36600000Y43964000D02*
X36600000Y40036000D01*
X36640000Y43890000D02*
X36640000Y40110000D01*
X36680000Y43813000D02*
X36680000Y40187000D01*
X36720000Y43731000D02*
X36720000Y40269000D01*
X36760000Y43644000D02*
X36760000Y40356000D01*
X36800000Y43552000D02*
X36800000Y40448000D01*
X36840000Y43453000D02*
X36840000Y40547000D01*
X36880000Y43346000D02*
X36880000Y40654000D01*
X36920000Y43228000D02*
X36920000Y40772000D01*
X36960000Y43097000D02*
X36960000Y40903000D01*
X37000000Y42947000D02*
X37000000Y41053000D01*
X37040000Y42768000D02*
X37040000Y41232000D01*
X37080000Y42533000D02*
X37080000Y41467000D01*
X37120000Y42000000D02*
G75*
G02*
X28880000Y42000000I-4120000J0D01*
G01*
X28880000Y42000000D02*
G75*
G02*
X37120000Y42000000I4120000J0D01*
G01*
%TO.C,C3*%
X-38409698Y24315000D02*
X-37609698Y24315000D01*
X-38009698Y24715000D02*
X-38009698Y23915000D01*
X-34000000Y26080000D02*
X-34000000Y17920000D01*
X-33960000Y26080000D02*
X-33960000Y17920000D01*
X-33920000Y26079000D02*
X-33920000Y17921000D01*
X-33880000Y26078000D02*
X-33880000Y17922000D01*
X-33840000Y26077000D02*
X-33840000Y17923000D01*
X-33800000Y26075000D02*
X-33800000Y17925000D01*
X-33760000Y26073000D02*
X-33760000Y17927000D01*
X-33720000Y26070000D02*
X-33720000Y17930000D01*
X-33680000Y26068000D02*
X-33680000Y17932000D01*
X-33640000Y26064000D02*
X-33640000Y17936000D01*
X-33600000Y26061000D02*
X-33600000Y17939000D01*
X-33560000Y26056000D02*
X-33560000Y17944000D01*
X-33520000Y26052000D02*
X-33520000Y17948000D01*
X-33480000Y26047000D02*
X-33480000Y17953000D01*
X-33440000Y26042000D02*
X-33440000Y17958000D01*
X-33400000Y26036000D02*
X-33400000Y17964000D01*
X-33360000Y26030000D02*
X-33360000Y17970000D01*
X-33320000Y26023000D02*
X-33320000Y17977000D01*
X-33280000Y26017000D02*
X-33280000Y23040000D01*
X-33280000Y20960000D02*
X-33280000Y17983000D01*
X-33240000Y26009000D02*
X-33240000Y23040000D01*
X-33240000Y20960000D02*
X-33240000Y17991000D01*
X-33200000Y26002000D02*
X-33200000Y23040000D01*
X-33200000Y20960000D02*
X-33200000Y17998000D01*
X-33160000Y25993000D02*
X-33160000Y23040000D01*
X-33160000Y20960000D02*
X-33160000Y18007000D01*
X-33120000Y25985000D02*
X-33120000Y23040000D01*
X-33120000Y20960000D02*
X-33120000Y18015000D01*
X-33080000Y25976000D02*
X-33080000Y23040000D01*
X-33080000Y20960000D02*
X-33080000Y18024000D01*
X-33040000Y25967000D02*
X-33040000Y23040000D01*
X-33040000Y20960000D02*
X-33040000Y18033000D01*
X-33000000Y25957000D02*
X-33000000Y23040000D01*
X-33000000Y20960000D02*
X-33000000Y18043000D01*
X-32960000Y25947000D02*
X-32960000Y23040000D01*
X-32960000Y20960000D02*
X-32960000Y18053000D01*
X-32920000Y25936000D02*
X-32920000Y23040000D01*
X-32920000Y20960000D02*
X-32920000Y18064000D01*
X-32880000Y25925000D02*
X-32880000Y23040000D01*
X-32880000Y20960000D02*
X-32880000Y18075000D01*
X-32840000Y25913000D02*
X-32840000Y23040000D01*
X-32840000Y20960000D02*
X-32840000Y18087000D01*
X-32800000Y25901000D02*
X-32800000Y23040000D01*
X-32800000Y20960000D02*
X-32800000Y18099000D01*
X-32760000Y25889000D02*
X-32760000Y23040000D01*
X-32760000Y20960000D02*
X-32760000Y18111000D01*
X-32720000Y25876000D02*
X-32720000Y23040000D01*
X-32720000Y20960000D02*
X-32720000Y18124000D01*
X-32680000Y25863000D02*
X-32680000Y23040000D01*
X-32680000Y20960000D02*
X-32680000Y18137000D01*
X-32640000Y25849000D02*
X-32640000Y23040000D01*
X-32640000Y20960000D02*
X-32640000Y18151000D01*
X-32600000Y25835000D02*
X-32600000Y23040000D01*
X-32600000Y20960000D02*
X-32600000Y18165000D01*
X-32560000Y25820000D02*
X-32560000Y23040000D01*
X-32560000Y20960000D02*
X-32560000Y18180000D01*
X-32520000Y25805000D02*
X-32520000Y23040000D01*
X-32520000Y20960000D02*
X-32520000Y18195000D01*
X-32480000Y25789000D02*
X-32480000Y23040000D01*
X-32480000Y20960000D02*
X-32480000Y18211000D01*
X-32440000Y25773000D02*
X-32440000Y23040000D01*
X-32440000Y20960000D02*
X-32440000Y18227000D01*
X-32400000Y25757000D02*
X-32400000Y23040000D01*
X-32400000Y20960000D02*
X-32400000Y18243000D01*
X-32360000Y25740000D02*
X-32360000Y23040000D01*
X-32360000Y20960000D02*
X-32360000Y18260000D01*
X-32320000Y25722000D02*
X-32320000Y23040000D01*
X-32320000Y20960000D02*
X-32320000Y18278000D01*
X-32280000Y25704000D02*
X-32280000Y23040000D01*
X-32280000Y20960000D02*
X-32280000Y18296000D01*
X-32240000Y25685000D02*
X-32240000Y23040000D01*
X-32240000Y20960000D02*
X-32240000Y18315000D01*
X-32200000Y25666000D02*
X-32200000Y23040000D01*
X-32200000Y20960000D02*
X-32200000Y18334000D01*
X-32160000Y25646000D02*
X-32160000Y23040000D01*
X-32160000Y20960000D02*
X-32160000Y18354000D01*
X-32120000Y25626000D02*
X-32120000Y23040000D01*
X-32120000Y20960000D02*
X-32120000Y18374000D01*
X-32080000Y25605000D02*
X-32080000Y23040000D01*
X-32080000Y20960000D02*
X-32080000Y18395000D01*
X-32040000Y25584000D02*
X-32040000Y23040000D01*
X-32040000Y20960000D02*
X-32040000Y18416000D01*
X-32000000Y25562000D02*
X-32000000Y23040000D01*
X-32000000Y20960000D02*
X-32000000Y18438000D01*
X-31960000Y25539000D02*
X-31960000Y23040000D01*
X-31960000Y20960000D02*
X-31960000Y18461000D01*
X-31920000Y25516000D02*
X-31920000Y23040000D01*
X-31920000Y20960000D02*
X-31920000Y18484000D01*
X-31880000Y25493000D02*
X-31880000Y23040000D01*
X-31880000Y20960000D02*
X-31880000Y18507000D01*
X-31840000Y25468000D02*
X-31840000Y23040000D01*
X-31840000Y20960000D02*
X-31840000Y18532000D01*
X-31800000Y25443000D02*
X-31800000Y23040000D01*
X-31800000Y20960000D02*
X-31800000Y18557000D01*
X-31760000Y25418000D02*
X-31760000Y23040000D01*
X-31760000Y20960000D02*
X-31760000Y18582000D01*
X-31720000Y25392000D02*
X-31720000Y23040000D01*
X-31720000Y20960000D02*
X-31720000Y18608000D01*
X-31680000Y25365000D02*
X-31680000Y23040000D01*
X-31680000Y20960000D02*
X-31680000Y18635000D01*
X-31640000Y25337000D02*
X-31640000Y23040000D01*
X-31640000Y20960000D02*
X-31640000Y18663000D01*
X-31600000Y25309000D02*
X-31600000Y23040000D01*
X-31600000Y20960000D02*
X-31600000Y18691000D01*
X-31560000Y25280000D02*
X-31560000Y23040000D01*
X-31560000Y20960000D02*
X-31560000Y18720000D01*
X-31520000Y25250000D02*
X-31520000Y23040000D01*
X-31520000Y20960000D02*
X-31520000Y18750000D01*
X-31480000Y25219000D02*
X-31480000Y23040000D01*
X-31480000Y20960000D02*
X-31480000Y18781000D01*
X-31440000Y25188000D02*
X-31440000Y23040000D01*
X-31440000Y20960000D02*
X-31440000Y18812000D01*
X-31400000Y25156000D02*
X-31400000Y23040000D01*
X-31400000Y20960000D02*
X-31400000Y18844000D01*
X-31360000Y25123000D02*
X-31360000Y23040000D01*
X-31360000Y20960000D02*
X-31360000Y18877000D01*
X-31320000Y25089000D02*
X-31320000Y23040000D01*
X-31320000Y20960000D02*
X-31320000Y18911000D01*
X-31280000Y25055000D02*
X-31280000Y23040000D01*
X-31280000Y20960000D02*
X-31280000Y18945000D01*
X-31240000Y25019000D02*
X-31240000Y23040000D01*
X-31240000Y20960000D02*
X-31240000Y18981000D01*
X-31200000Y24982000D02*
X-31200000Y19018000D01*
X-31160000Y24945000D02*
X-31160000Y19055000D01*
X-31120000Y24906000D02*
X-31120000Y19094000D01*
X-31080000Y24867000D02*
X-31080000Y19133000D01*
X-31040000Y24826000D02*
X-31040000Y19174000D01*
X-31000000Y24784000D02*
X-31000000Y19216000D01*
X-30960000Y24741000D02*
X-30960000Y19259000D01*
X-30920000Y24696000D02*
X-30920000Y19304000D01*
X-30880000Y24651000D02*
X-30880000Y19349000D01*
X-30840000Y24604000D02*
X-30840000Y19396000D01*
X-30800000Y24555000D02*
X-30800000Y19445000D01*
X-30760000Y24505000D02*
X-30760000Y19495000D01*
X-30720000Y24453000D02*
X-30720000Y19547000D01*
X-30680000Y24400000D02*
X-30680000Y19600000D01*
X-30640000Y24344000D02*
X-30640000Y19656000D01*
X-30600000Y24287000D02*
X-30600000Y19713000D01*
X-30560000Y24227000D02*
X-30560000Y19773000D01*
X-30520000Y24165000D02*
X-30520000Y19835000D01*
X-30480000Y24101000D02*
X-30480000Y19899000D01*
X-30440000Y24034000D02*
X-30440000Y19966000D01*
X-30400000Y23964000D02*
X-30400000Y20036000D01*
X-30360000Y23890000D02*
X-30360000Y20110000D01*
X-30320000Y23813000D02*
X-30320000Y20187000D01*
X-30280000Y23731000D02*
X-30280000Y20269000D01*
X-30240000Y23644000D02*
X-30240000Y20356000D01*
X-30200000Y23552000D02*
X-30200000Y20448000D01*
X-30160000Y23453000D02*
X-30160000Y20547000D01*
X-30120000Y23346000D02*
X-30120000Y20654000D01*
X-30080000Y23228000D02*
X-30080000Y20772000D01*
X-30040000Y23097000D02*
X-30040000Y20903000D01*
X-30000000Y22947000D02*
X-30000000Y21053000D01*
X-29960000Y22768000D02*
X-29960000Y21232000D01*
X-29920000Y22533000D02*
X-29920000Y21467000D01*
X-29880000Y22000000D02*
G75*
G02*
X-38120000Y22000000I-4120000J0D01*
G01*
X-38120000Y22000000D02*
G75*
G02*
X-29880000Y22000000I4120000J0D01*
G01*
%TO.C,U1*%
X-39825000Y39200000D02*
X-39825000Y38250000D01*
X-39825000Y28800000D02*
X-39825000Y29750000D01*
X-38460000Y39200000D02*
X-39825000Y39200000D01*
X-38460000Y28800000D02*
X-39825000Y28800000D01*
X-42650000Y38210000D02*
X-42990000Y38680000D01*
X-42310000Y38680000D01*
X-42650000Y38210000D01*
G36*
X-42650000Y38210000D02*
G01*
X-42990000Y38680000D01*
X-42310000Y38680000D01*
X-42650000Y38210000D01*
G37*
%TO.C,D2*%
X-1510000Y38650000D02*
X-1510000Y35350000D01*
X-1510000Y38650000D02*
X4000000Y38650000D01*
X-1510000Y35350000D02*
X4000000Y35350000D01*
%TO.C,L1*%
X6390000Y39610000D02*
X11610000Y39610000D01*
X6390000Y39360000D02*
X6390000Y39610000D01*
X6390000Y34390000D02*
X6390000Y34640000D01*
X11610000Y39610000D02*
X11610000Y39360000D01*
X11610000Y34640000D02*
X11610000Y34390000D01*
X11610000Y34390000D02*
X6390000Y34390000D01*
%TO.C,C4*%
X21499759Y48839000D02*
X22129759Y48839000D01*
X21814759Y49154000D02*
X21814759Y48524000D01*
X25000000Y50230000D02*
X25000000Y43770000D01*
X25040000Y50230000D02*
X25040000Y43770000D01*
X25080000Y50229000D02*
X25080000Y43771000D01*
X25120000Y50228000D02*
X25120000Y43772000D01*
X25160000Y50226000D02*
X25160000Y43774000D01*
X25200000Y50224000D02*
X25200000Y43776000D01*
X25240000Y50221000D02*
X25240000Y48040000D01*
X25240000Y45960000D02*
X25240000Y43779000D01*
X25280000Y50218000D02*
X25280000Y48040000D01*
X25280000Y45960000D02*
X25280000Y43782000D01*
X25320000Y50214000D02*
X25320000Y48040000D01*
X25320000Y45960000D02*
X25320000Y43786000D01*
X25360000Y50210000D02*
X25360000Y48040000D01*
X25360000Y45960000D02*
X25360000Y43790000D01*
X25400000Y50205000D02*
X25400000Y48040000D01*
X25400000Y45960000D02*
X25400000Y43795000D01*
X25440000Y50200000D02*
X25440000Y48040000D01*
X25440000Y45960000D02*
X25440000Y43800000D01*
X25480000Y50195000D02*
X25480000Y48040000D01*
X25480000Y45960000D02*
X25480000Y43805000D01*
X25520000Y50188000D02*
X25520000Y48040000D01*
X25520000Y45960000D02*
X25520000Y43812000D01*
X25560000Y50182000D02*
X25560000Y48040000D01*
X25560000Y45960000D02*
X25560000Y43818000D01*
X25600000Y50174000D02*
X25600000Y48040000D01*
X25600000Y45960000D02*
X25600000Y43826000D01*
X25640000Y50167000D02*
X25640000Y48040000D01*
X25640000Y45960000D02*
X25640000Y43833000D01*
X25680000Y50159000D02*
X25680000Y48040000D01*
X25680000Y45960000D02*
X25680000Y43841000D01*
X25720000Y50150000D02*
X25720000Y48040000D01*
X25720000Y45960000D02*
X25720000Y43850000D01*
X25760000Y50140000D02*
X25760000Y48040000D01*
X25760000Y45960000D02*
X25760000Y43860000D01*
X25800000Y50131000D02*
X25800000Y48040000D01*
X25800000Y45960000D02*
X25800000Y43869000D01*
X25840000Y50120000D02*
X25840000Y48040000D01*
X25840000Y45960000D02*
X25840000Y43880000D01*
X25880000Y50109000D02*
X25880000Y48040000D01*
X25880000Y45960000D02*
X25880000Y43891000D01*
X25920000Y50098000D02*
X25920000Y48040000D01*
X25920000Y45960000D02*
X25920000Y43902000D01*
X25960000Y50086000D02*
X25960000Y48040000D01*
X25960000Y45960000D02*
X25960000Y43914000D01*
X26000000Y50073000D02*
X26000000Y48040000D01*
X26000000Y45960000D02*
X26000000Y43927000D01*
X26040000Y50060000D02*
X26040000Y48040000D01*
X26040000Y45960000D02*
X26040000Y43940000D01*
X26080000Y50047000D02*
X26080000Y48040000D01*
X26080000Y45960000D02*
X26080000Y43953000D01*
X26120000Y50032000D02*
X26120000Y48040000D01*
X26120000Y45960000D02*
X26120000Y43968000D01*
X26160000Y50017000D02*
X26160000Y48040000D01*
X26160000Y45960000D02*
X26160000Y43983000D01*
X26200000Y50002000D02*
X26200000Y48040000D01*
X26200000Y45960000D02*
X26200000Y43998000D01*
X26240000Y49986000D02*
X26240000Y48040000D01*
X26240000Y45960000D02*
X26240000Y44014000D01*
X26280000Y49969000D02*
X26280000Y48040000D01*
X26280000Y45960000D02*
X26280000Y44031000D01*
X26320000Y49952000D02*
X26320000Y48040000D01*
X26320000Y45960000D02*
X26320000Y44048000D01*
X26360000Y49934000D02*
X26360000Y48040000D01*
X26360000Y45960000D02*
X26360000Y44066000D01*
X26400000Y49915000D02*
X26400000Y48040000D01*
X26400000Y45960000D02*
X26400000Y44085000D01*
X26440000Y49896000D02*
X26440000Y48040000D01*
X26440000Y45960000D02*
X26440000Y44104000D01*
X26480000Y49876000D02*
X26480000Y48040000D01*
X26480000Y45960000D02*
X26480000Y44124000D01*
X26520000Y49855000D02*
X26520000Y48040000D01*
X26520000Y45960000D02*
X26520000Y44145000D01*
X26560000Y49834000D02*
X26560000Y48040000D01*
X26560000Y45960000D02*
X26560000Y44166000D01*
X26600000Y49812000D02*
X26600000Y48040000D01*
X26600000Y45960000D02*
X26600000Y44188000D01*
X26640000Y49789000D02*
X26640000Y48040000D01*
X26640000Y45960000D02*
X26640000Y44211000D01*
X26680000Y49765000D02*
X26680000Y48040000D01*
X26680000Y45960000D02*
X26680000Y44235000D01*
X26720000Y49741000D02*
X26720000Y48040000D01*
X26720000Y45960000D02*
X26720000Y44259000D01*
X26760000Y49716000D02*
X26760000Y48040000D01*
X26760000Y45960000D02*
X26760000Y44284000D01*
X26800000Y49690000D02*
X26800000Y48040000D01*
X26800000Y45960000D02*
X26800000Y44310000D01*
X26840000Y49663000D02*
X26840000Y48040000D01*
X26840000Y45960000D02*
X26840000Y44337000D01*
X26880000Y49636000D02*
X26880000Y48040000D01*
X26880000Y45960000D02*
X26880000Y44364000D01*
X26920000Y49607000D02*
X26920000Y48040000D01*
X26920000Y45960000D02*
X26920000Y44393000D01*
X26960000Y49577000D02*
X26960000Y48040000D01*
X26960000Y45960000D02*
X26960000Y44423000D01*
X27000000Y49547000D02*
X27000000Y48040000D01*
X27000000Y45960000D02*
X27000000Y44453000D01*
X27040000Y49516000D02*
X27040000Y48040000D01*
X27040000Y45960000D02*
X27040000Y44484000D01*
X27080000Y49483000D02*
X27080000Y48040000D01*
X27080000Y45960000D02*
X27080000Y44517000D01*
X27120000Y49450000D02*
X27120000Y48040000D01*
X27120000Y45960000D02*
X27120000Y44550000D01*
X27160000Y49415000D02*
X27160000Y48040000D01*
X27160000Y45960000D02*
X27160000Y44585000D01*
X27200000Y49379000D02*
X27200000Y48040000D01*
X27200000Y45960000D02*
X27200000Y44621000D01*
X27240000Y49342000D02*
X27240000Y48040000D01*
X27240000Y45960000D02*
X27240000Y44658000D01*
X27280000Y49304000D02*
X27280000Y48040000D01*
X27280000Y45960000D02*
X27280000Y44696000D01*
X27320000Y49264000D02*
X27320000Y44736000D01*
X27360000Y49223000D02*
X27360000Y44777000D01*
X27400000Y49181000D02*
X27400000Y44819000D01*
X27440000Y49137000D02*
X27440000Y44863000D01*
X27480000Y49091000D02*
X27480000Y44909000D01*
X27520000Y49044000D02*
X27520000Y44956000D01*
X27560000Y48995000D02*
X27560000Y45005000D01*
X27600000Y48943000D02*
X27600000Y45057000D01*
X27640000Y48890000D02*
X27640000Y45110000D01*
X27680000Y48834000D02*
X27680000Y45166000D01*
X27720000Y48775000D02*
X27720000Y45225000D01*
X27760000Y48714000D02*
X27760000Y45286000D01*
X27800000Y48649000D02*
X27800000Y45351000D01*
X27840000Y48581000D02*
X27840000Y45419000D01*
X27880000Y48509000D02*
X27880000Y45491000D01*
X27920000Y48432000D02*
X27920000Y45568000D01*
X27960000Y48350000D02*
X27960000Y45650000D01*
X28000000Y48261000D02*
X28000000Y45739000D01*
X28040000Y48165000D02*
X28040000Y45835000D01*
X28080000Y48058000D02*
X28080000Y45942000D01*
X28120000Y47939000D02*
X28120000Y46061000D01*
X28160000Y47801000D02*
X28160000Y46199000D01*
X28200000Y47633000D02*
X28200000Y46367000D01*
X28240000Y47402000D02*
X28240000Y46598000D01*
X28270000Y47000000D02*
G75*
G02*
X21730000Y47000000I-3270000J0D01*
G01*
X21730000Y47000000D02*
G75*
G02*
X28270000Y47000000I3270000J0D01*
G01*
%TO.C,U2*%
X-1350000Y44660000D02*
X-2400000Y44660000D01*
X-1350000Y42340000D02*
X-2650000Y42340000D01*
X-2760000Y44660000D02*
X-3040000Y44660000D01*
X-2760000Y44940000D01*
X-2760000Y44660000D01*
G36*
X-2760000Y44660000D02*
G01*
X-3040000Y44660000D01*
X-2760000Y44940000D01*
X-2760000Y44660000D01*
G37*
%TO.C,L2*%
X1390000Y46610000D02*
X6610000Y46610000D01*
X1390000Y46360000D02*
X1390000Y46610000D01*
X1390000Y41390000D02*
X1390000Y41640000D01*
X6610000Y46610000D02*
X6610000Y46360000D01*
X6610000Y41640000D02*
X6610000Y41390000D01*
X6610000Y41390000D02*
X1390000Y41390000D01*
%TO.C,R2*%
X9762742Y44522500D02*
X10237258Y44522500D01*
X9762742Y43477500D02*
X10237258Y43477500D01*
%TO.C,R3*%
X12762742Y44522500D02*
X13237258Y44522500D01*
X12762742Y43477500D02*
X13237258Y43477500D01*
%TO.C,C13*%
X-14140580Y30510000D02*
X-13859420Y30510000D01*
X-14140580Y29490000D02*
X-13859420Y29490000D01*
%TO.C,C14*%
X-6140580Y30510000D02*
X-5859420Y30510000D01*
X-6140580Y29490000D02*
X-5859420Y29490000D01*
%TO.C,C9*%
X-261252Y30735000D02*
X261252Y30735000D01*
X-261252Y29265000D02*
X261252Y29265000D01*
%TO.C,C17*%
X3859420Y30510000D02*
X4140580Y30510000D01*
X3859420Y29490000D02*
X4140580Y29490000D01*
%TO.C,R5*%
X7762742Y30522500D02*
X8237258Y30522500D01*
X7762742Y29477500D02*
X8237258Y29477500D01*
%TO.C,R6*%
X10762742Y30522500D02*
X11237258Y30522500D01*
X10762742Y29477500D02*
X11237258Y29477500D01*
%TO.C,R7*%
X13762742Y30522500D02*
X14237258Y30522500D01*
X13762742Y29477500D02*
X14237258Y29477500D01*
%TO.C,C5*%
X-25261252Y46735000D02*
X-24738748Y46735000D01*
X-25261252Y45265000D02*
X-24738748Y45265000D01*
%TO.C,C15*%
X-18640580Y46510000D02*
X-18359420Y46510000D01*
X-18640580Y45490000D02*
X-18359420Y45490000D01*
%TO.C,C6*%
X-14261252Y46735000D02*
X-13738748Y46735000D01*
X-14261252Y45265000D02*
X-13738748Y45265000D01*
%TO.C,C16*%
X-10140580Y46510000D02*
X-9859420Y46510000D01*
X-10140580Y45490000D02*
X-9859420Y45490000D01*
%TO.C,C7*%
X-6140580Y46510000D02*
X-5859420Y46510000D01*
X-6140580Y45490000D02*
X-5859420Y45490000D01*
%TO.C,C8*%
X-2140580Y46510000D02*
X-1859420Y46510000D01*
X-2140580Y45490000D02*
X-1859420Y45490000D01*
%TO.C,C2*%
X-46261252Y25735000D02*
X-45738748Y25735000D01*
X-46261252Y24265000D02*
X-45738748Y24265000D01*
%TO.C,C10*%
X29859420Y47510000D02*
X30140580Y47510000D01*
X29859420Y46490000D02*
X30140580Y46490000D01*
%TO.C,C11*%
X-43140580Y-21490000D02*
X-42859420Y-21490000D01*
X-43140580Y-22510000D02*
X-42859420Y-22510000D01*
%TO.C,C12*%
X-25140580Y-22490000D02*
X-24859420Y-22490000D01*
X-25140580Y-23510000D02*
X-24859420Y-23510000D01*
%TO.C,J2*%
X-55380000Y9380000D02*
X-54000000Y9380000D01*
X-55380000Y8000000D02*
X-55380000Y9380000D01*
X-55380000Y6730000D02*
X-55380000Y-6080000D01*
X-55380000Y6730000D02*
X-52620000Y6730000D01*
X-55380000Y-6080000D02*
X-52620000Y-6080000D01*
X-52620000Y6730000D02*
X-52620000Y-6080000D01*
%TD*%
%LPC*%
D13*
%TO.C,H1*%
X47631397Y-27500000D03*
%TD*%
%TO.C,H2*%
X-47631397Y-27500000D03*
%TD*%
%TO.C,H3*%
X0Y55000000D03*
%TD*%
D14*
%TO.C,ZT1*%
X20500000Y0D03*
%TD*%
%TO.C,ZT2*%
X52100000Y0D03*
%TD*%
%TO.C,ZT3*%
X20500000Y8000000D03*
%TD*%
%TO.C,ZT4*%
X52100000Y8000000D03*
%TD*%
D15*
%TO.C,J3*%
X34875000Y-25150000D03*
X36125000Y-25150000D03*
X37375000Y-25150000D03*
X38625000Y-25150000D03*
X39875000Y-25150000D03*
X41125000Y-25150000D03*
D16*
X33025000Y-28350000D03*
X42975000Y-28350000D03*
%TD*%
D17*
%TO.C,J4*%
X-44740000Y-19050000D03*
D18*
X-46010000Y-19050000D03*
X-47280000Y-19050000D03*
X-48550000Y-19050000D03*
X-49820000Y-19050000D03*
%TD*%
D19*
%TO.C,J1*%
X5080000Y-27400000D03*
D20*
X0Y-27400000D03*
X-5080000Y-27400000D03*
%TD*%
D21*
%TO.C,J9*%
X33150000Y-41690000D03*
X32150000Y-41690000D03*
X31150000Y-41690000D03*
X30150000Y-41690000D03*
D22*
X34450000Y-37815000D03*
X28850000Y-37815000D03*
%TD*%
D23*
%TO.C,J10*%
X-10960000Y20000000D03*
D24*
X-8420000Y20000000D03*
X-5880000Y20000000D03*
X-3340000Y20000000D03*
X-800000Y20000000D03*
X1740000Y20000000D03*
%TD*%
D23*
%TO.C,J5*%
X-22390000Y25970000D03*
D24*
X-19850000Y25970000D03*
X-17310000Y25970000D03*
X-14770000Y25970000D03*
X-12230000Y25970000D03*
X-9690000Y25970000D03*
X-7150000Y25970000D03*
X-4610000Y25970000D03*
X-2070000Y25970000D03*
X470000Y25970000D03*
X3010000Y25970000D03*
X5550000Y25970000D03*
X8090000Y25970000D03*
X10630000Y25970000D03*
X13170000Y25970000D03*
%TD*%
D23*
%TO.C,J6*%
X-22390000Y48830000D03*
D24*
X-19850000Y48830000D03*
X-17310000Y48830000D03*
X-14770000Y48830000D03*
X-12230000Y48830000D03*
X-9690000Y48830000D03*
X-7150000Y48830000D03*
X-4610000Y48830000D03*
X-2070000Y48830000D03*
X470000Y48830000D03*
X3010000Y48830000D03*
X5550000Y48830000D03*
X8090000Y48830000D03*
X10630000Y48830000D03*
X13170000Y48830000D03*
%TD*%
D23*
%TO.C,J7*%
X-16030000Y-38100000D03*
D24*
X-16030000Y-35560000D03*
X-16030000Y-33020000D03*
X-16030000Y-30480000D03*
X-16030000Y-27940000D03*
X-16030000Y-25400000D03*
X-16030000Y-22860000D03*
X-16030000Y-20320000D03*
%TD*%
D23*
%TO.C,J8*%
X-38890000Y-38100000D03*
D24*
X-38890000Y-35560000D03*
X-38890000Y-33020000D03*
X-38890000Y-30480000D03*
X-38890000Y-27940000D03*
X-38890000Y-25400000D03*
X-38890000Y-22860000D03*
X-38890000Y-20320000D03*
%TD*%
D25*
%TO.C,D11*%
X12150000Y1425000D03*
X12150000Y475000D03*
X12150000Y-475000D03*
X12150000Y-1425000D03*
%TD*%
D26*
%TO.C,C20*%
X9600000Y480000D03*
X9600000Y-480000D03*
%TD*%
D27*
%TO.C,D12*%
X11234708Y-4840914D03*
X10759708Y-5663638D03*
X10284708Y-6486362D03*
X9809708Y-7309086D03*
%TD*%
D28*
%TO.C,C21*%
X8553844Y-4384308D03*
X8073844Y-5215692D03*
%TD*%
D29*
%TO.C,D13*%
X7309086Y-9809708D03*
X6486362Y-10284708D03*
X5663638Y-10759708D03*
X4840914Y-11234708D03*
%TD*%
D30*
%TO.C,C22*%
X5215692Y-8073844D03*
X4384308Y-8553844D03*
%TD*%
D31*
%TO.C,D15*%
X-4840914Y-11234708D03*
X-5663638Y-10759708D03*
X-6486362Y-10284708D03*
X-7309086Y-9809708D03*
%TD*%
D32*
%TO.C,C24*%
X-4384308Y-8553844D03*
X-5215692Y-8073844D03*
%TD*%
D33*
%TO.C,D16*%
X-9809708Y-7309086D03*
X-10284708Y-6486362D03*
X-10759708Y-5663638D03*
X-11234708Y-4840914D03*
%TD*%
D34*
%TO.C,C25*%
X-8073844Y-5215692D03*
X-8553844Y-4384308D03*
%TD*%
D25*
%TO.C,D17*%
X-12150000Y-1425000D03*
X-12150000Y-475000D03*
X-12150000Y475000D03*
X-12150000Y1425000D03*
%TD*%
D35*
%TO.C,C26*%
X-9600000Y-480000D03*
X-9600000Y480000D03*
%TD*%
D36*
%TO.C,D18*%
X-11234708Y4840914D03*
X-10759708Y5663638D03*
X-10284708Y6486362D03*
X-9809708Y7309086D03*
%TD*%
D37*
%TO.C,C27*%
X-8553844Y4384308D03*
X-8073844Y5215692D03*
%TD*%
D38*
%TO.C,D19*%
X-7309086Y9809708D03*
X-6486362Y10284708D03*
X-5663638Y10759708D03*
X-4840914Y11234708D03*
%TD*%
D39*
%TO.C,C28*%
X-5215692Y8073844D03*
X-4384308Y8553844D03*
%TD*%
D40*
%TO.C,D20*%
X-1425000Y12150000D03*
X-475000Y12150000D03*
X475000Y12150000D03*
X1425000Y12150000D03*
%TD*%
D41*
%TO.C,C29*%
X-480000Y9600000D03*
X480000Y9600000D03*
%TD*%
D42*
%TO.C,D21*%
X4840914Y11234708D03*
X5663638Y10759708D03*
X6486362Y10284708D03*
X7309086Y9809708D03*
%TD*%
D43*
%TO.C,C30*%
X4384308Y8553844D03*
X5215692Y8073844D03*
%TD*%
D44*
%TO.C,D22*%
X9809708Y7309086D03*
X10284708Y6486362D03*
X10759708Y5663638D03*
X11234708Y4840914D03*
%TD*%
D45*
%TO.C,C31*%
X8073844Y5215692D03*
X8553844Y4384308D03*
%TD*%
D46*
%TO.C,D1*%
X21150000Y-9500000D03*
X16850000Y-9500000D03*
%TD*%
D47*
%TO.C,Q1*%
X13062500Y-32050000D03*
X13062500Y-33950000D03*
X14937500Y-33000000D03*
%TD*%
D48*
%TO.C,D3*%
X18950000Y-33000000D03*
X21050000Y-33000000D03*
%TD*%
D49*
%TO.C,F1*%
X11612500Y-25000000D03*
X18387500Y-25000000D03*
%TD*%
D50*
%TO.C,R1*%
X13175000Y-37000000D03*
X14825000Y-37000000D03*
%TD*%
%TO.C,R4*%
X19175000Y-37000000D03*
X20825000Y-37000000D03*
%TD*%
D51*
%TO.C,C1*%
X31250000Y42000000D03*
D52*
X34750000Y42000000D03*
%TD*%
D51*
%TO.C,C3*%
X-35750000Y22000000D03*
D52*
X-32250000Y22000000D03*
%TD*%
D53*
%TO.C,U1*%
X-42650000Y37400000D03*
X-42650000Y35700000D03*
X-42650000Y34000000D03*
D54*
X-33500000Y34000000D03*
D53*
X-42650000Y32300000D03*
X-42650000Y30600000D03*
%TD*%
D55*
%TO.C,D2*%
X0Y37000000D03*
X4000000Y37000000D03*
%TD*%
D56*
%TO.C,L1*%
X7350000Y37000000D03*
X10650000Y37000000D03*
%TD*%
D51*
%TO.C,C4*%
X23750000Y47000000D03*
D52*
X26250000Y47000000D03*
%TD*%
D57*
%TO.C,U2*%
X-2740000Y44250000D03*
X-2740000Y43750000D03*
X-2740000Y43250000D03*
X-2740000Y42750000D03*
X-1260000Y42750000D03*
X-1260000Y43250000D03*
X-1260000Y43750000D03*
X-1260000Y44250000D03*
%TD*%
D56*
%TO.C,L2*%
X2350000Y44000000D03*
X5650000Y44000000D03*
%TD*%
D50*
%TO.C,R2*%
X9175000Y44000000D03*
X10825000Y44000000D03*
%TD*%
%TO.C,R3*%
X12175000Y44000000D03*
X13825000Y44000000D03*
%TD*%
D58*
%TO.C,C13*%
X-14775000Y30000000D03*
X-13225000Y30000000D03*
%TD*%
%TO.C,C14*%
X-6775000Y30000000D03*
X-5225000Y30000000D03*
%TD*%
D59*
%TO.C,C9*%
X-950000Y30000000D03*
X950000Y30000000D03*
%TD*%
D58*
%TO.C,C17*%
X3225000Y30000000D03*
X4775000Y30000000D03*
%TD*%
D50*
%TO.C,R5*%
X7175000Y30000000D03*
X8825000Y30000000D03*
%TD*%
%TO.C,R6*%
X10175000Y30000000D03*
X11825000Y30000000D03*
%TD*%
%TO.C,R7*%
X13175000Y30000000D03*
X14825000Y30000000D03*
%TD*%
D59*
%TO.C,C5*%
X-25950000Y46000000D03*
X-24050000Y46000000D03*
%TD*%
D58*
%TO.C,C15*%
X-19275000Y46000000D03*
X-17725000Y46000000D03*
%TD*%
D59*
%TO.C,C6*%
X-14950000Y46000000D03*
X-13050000Y46000000D03*
%TD*%
D58*
%TO.C,C16*%
X-10775000Y46000000D03*
X-9225000Y46000000D03*
%TD*%
%TO.C,C7*%
X-6775000Y46000000D03*
X-5225000Y46000000D03*
%TD*%
%TO.C,C8*%
X-2775000Y46000000D03*
X-1225000Y46000000D03*
%TD*%
D59*
%TO.C,C2*%
X-46950000Y25000000D03*
X-45050000Y25000000D03*
%TD*%
D58*
%TO.C,C10*%
X29225000Y47000000D03*
X30775000Y47000000D03*
%TD*%
%TO.C,C11*%
X-43775000Y-22000000D03*
X-42225000Y-22000000D03*
%TD*%
%TO.C,C12*%
X-25775000Y-23000000D03*
X-24225000Y-23000000D03*
%TD*%
D23*
%TO.C,J2*%
X-54000000Y8000000D03*
D24*
X-54000000Y5460000D03*
X-54000000Y2920000D03*
X-54000000Y380000D03*
X-54000000Y-2160000D03*
X-54000000Y-4700000D03*
%TD*%
%LPD*%
M02*
