<?xml version="1.0" standalone="no"?>
 <!DOCTYPE svg PUBLIC "-//W3C//DTD SVG 1.1//EN" 
 "http://www.w3.org/Graphics/SVG/1.1/DTD/svg11.dtd"> 
<svg
  xmlns:svg="http://www.w3.org/2000/svg"
  xmlns="http://www.w3.org/2000/svg"
  xmlns:xlink="http://www.w3.org/1999/xlink"
  xmlns:inkscape="http://www.inkscape.org/namespaces/inkscape"
  version="1.1"
  width="119.9896mm" height="103.4796mm" viewBox="0.0000 0.0000 119.9896 103.4796">
<title>SVG Image created as 2d-bottom.svg date 2026-05-13T21:44:43 </title>
  <desc>Image generated by PCBNEW </desc>
<g style="fill:#000000; fill-opacity:1.0000;stroke:#000000; stroke-opacity:1.0000;
stroke-linecap:round; stroke-linejoin:round;"
 transform="translate(0 0) scale(1 1)">
</g>
<g style="fill:none; 
stroke:#D0D2CD; stroke-width:0.1000; stroke-opacity:1; 
stroke-linecap:round; stroke-linejoin:round;">
<path d="M101.3149 103.4953 A60.0000 60.0000 0.0 1 0 18.6604 103.4953" />
<path d="M101.3149 103.4953
L18.6604 103.4953
" />
<circle cx="59.9877" cy="59.9975" r="6.0000" /> 
<path style="fill:#4D7FC4; fill-opacity:1.0000; stroke:none;fill-rule:evenodd;"
d="M 105.2277,78.5475
104.2277,78.5475
104.2277,79.5475
105.2277,79.5475
Z" /> 
</g>
<g style="fill:#4D7FC4; fill-opacity:1.0000; stroke:none;">
<circle cx="105.9977" cy="79.0475" r="0.5000" /> 
<circle cx="107.2677" cy="79.0475" r="0.5000" /> 
<circle cx="108.5377" cy="79.0475" r="0.5000" /> 
<circle cx="109.8077" cy="79.0475" r="0.5000" /> 
<path style="fill:#4D7FC4; fill-opacity:1.0000; stroke:none;fill-rule:evenodd;"
d="M 53.8677,83.9475
53.8867,84.0432
53.9409,84.1243
54.0220,84.1785
54.1177,84.1975
55.6977,84.1975
55.7934,84.1785
55.8745,84.1243
55.9287,84.0432
55.9477,83.9475
55.9477,80.8475
55.9287,80.7518
55.8745,80.6707
55.7934,80.6165
55.6977,80.5975
54.1177,80.5975
54.0220,80.6165
53.9409,80.6707
53.8867,80.7518
53.8677,80.8475
Z" /> 
</g>
<g style="fill:none; 
stroke:#4D7FC4; stroke-width:2.0800; stroke-opacity:1; 
stroke-linecap:round; stroke-linejoin:round;">
<path d="M59.9877 83.1575
L59.9877 81.6375
" />
<path d="M65.0677 83.1575
L65.0677 81.6375
" />
<path style="fill:#4D7FC4; fill-opacity:1.0000; stroke:none;fill-rule:evenodd;"
d="M 49.7377,100.1475
49.7377,101.8475
51.4377,101.8475
51.4377,100.1475
Z" /> 
</g>
<g style="fill:#4D7FC4; fill-opacity:1.0000; stroke:none;">
<circle cx="50.5877" cy="98.4575" r="0.8500" /> 
<circle cx="50.5877" cy="95.9175" r="0.8500" /> 
<circle cx="50.5877" cy="93.3775" r="0.8500" /> 
<circle cx="50.5877" cy="90.8375" r="0.8500" /> 
<circle cx="50.5877" cy="88.2975" r="0.8500" /> 
<path style="fill:#4D7FC4; fill-opacity:1.0000; stroke:none;fill-rule:evenodd;"
d="M 81.5277,34.8775
83.2277,34.8775
83.2277,33.1775
81.5277,33.1775
Z" /> 
<circle cx="79.8377" cy="34.0275" r="0.8500" /> 
<circle cx="77.2977" cy="34.0275" r="0.8500" /> 
<circle cx="74.7577" cy="34.0275" r="0.8500" /> 
<circle cx="72.2177" cy="34.0275" r="0.8500" /> 
<circle cx="69.6777" cy="34.0275" r="0.8500" /> 
<circle cx="67.1377" cy="34.0275" r="0.8500" /> 
<circle cx="64.5977" cy="34.0275" r="0.8500" /> 
<circle cx="62.0577" cy="34.0275" r="0.8500" /> 
<circle cx="59.5177" cy="34.0275" r="0.8500" /> 
<circle cx="56.9777" cy="34.0275" r="0.8500" /> 
<circle cx="54.4377" cy="34.0275" r="0.8500" /> 
<circle cx="51.8977" cy="34.0275" r="0.8500" /> 
<circle cx="49.3577" cy="34.0275" r="0.8500" /> 
<circle cx="46.8177" cy="34.0275" r="0.8500" /> 
<path style="fill:#4D7FC4; fill-opacity:1.0000; stroke:none;fill-rule:evenodd;"
d="M 81.5277,12.0175
83.2277,12.0175
83.2277,10.3175
81.5277,10.3175
Z" /> 
<circle cx="79.8377" cy="11.1675" r="0.8500" /> 
<circle cx="77.2977" cy="11.1675" r="0.8500" /> 
<circle cx="74.7577" cy="11.1675" r="0.8500" /> 
<circle cx="72.2177" cy="11.1675" r="0.8500" /> 
<circle cx="69.6777" cy="11.1675" r="0.8500" /> 
<circle cx="67.1377" cy="11.1675" r="0.8500" /> 
<circle cx="64.5977" cy="11.1675" r="0.8500" /> 
<circle cx="62.0577" cy="11.1675" r="0.8500" /> 
<circle cx="59.5177" cy="11.1675" r="0.8500" /> 
<circle cx="56.9777" cy="11.1675" r="0.8500" /> 
<circle cx="54.4377" cy="11.1675" r="0.8500" /> 
<circle cx="51.8977" cy="11.1675" r="0.8500" /> 
<circle cx="49.3577" cy="11.1675" r="0.8500" /> 
<circle cx="46.8177" cy="11.1675" r="0.8500" /> 
<path style="fill:#4D7FC4; fill-opacity:1.0000; stroke:none;fill-rule:evenodd;"
d="M 73.1677,97.2475
73.1677,98.9475
74.8677,98.9475
74.8677,97.2475
Z" /> 
<circle cx="74.0177" cy="95.5575" r="0.8500" /> 
<circle cx="74.0177" cy="93.0175" r="0.8500" /> 
<circle cx="74.0177" cy="90.4775" r="0.8500" /> 
<circle cx="74.0177" cy="87.9375" r="0.8500" /> 
<circle cx="74.0177" cy="85.3975" r="0.8500" /> 
<circle cx="74.0177" cy="82.8575" r="0.8500" /> 
<circle cx="74.0177" cy="80.3175" r="0.8500" /> 
<path style="fill:#4D7FC4; fill-opacity:1.0000; stroke:none;fill-rule:evenodd;"
d="M 96.0277,97.2475
96.0277,98.9475
97.7277,98.9475
97.7277,97.2475
Z" /> 
<circle cx="96.8777" cy="95.5575" r="0.8500" /> 
<circle cx="96.8777" cy="93.0175" r="0.8500" /> 
<circle cx="96.8777" cy="90.4775" r="0.8500" /> 
<circle cx="96.8777" cy="87.9375" r="0.8500" /> 
<circle cx="96.8777" cy="85.3975" r="0.8500" /> 
<circle cx="96.8777" cy="82.8575" r="0.8500" /> 
<circle cx="96.8777" cy="80.3175" r="0.8500" /> 
<path style="fill:#4D7FC4; fill-opacity:1.0000; stroke:none;fill-rule:evenodd;"
d="M 82.5377,28.2975
82.5377,26.6975
80.9377,26.6975
80.9377,28.2975
Z" /> 
<circle cx="78.2377" cy="27.4975" r="0.8000" /> 
<path style="fill:#4D7FC4; fill-opacity:1.0000; stroke:none;fill-rule:evenodd;"
d="M 82.5377,19.7975
82.5377,18.1975
80.9377,18.1975
80.9377,19.7975
Z" /> 
<circle cx="78.2377" cy="18.9975" r="0.8000" /> 
<path style="fill:#4D7FC4; fill-opacity:1.0000; stroke:none;fill-rule:evenodd;"
d="M 46.0377,23.7975
46.0377,22.1975
44.4377,22.1975
44.4377,23.7975
Z" /> 
<circle cx="42.7377" cy="22.9975" r="0.8000" /> 
<path style="fill:#4D7FC4; fill-opacity:1.0000; stroke:none;fill-rule:evenodd;"
d="M 114.8377,52.8475
114.8377,51.1475
113.1377,51.1475
113.1377,52.8475
Z" /> 
<circle cx="113.9877" cy="54.5375" r="0.8500" /> 
<circle cx="113.9877" cy="57.0775" r="0.8500" /> 
<circle cx="113.9877" cy="59.6175" r="0.8500" /> 
<circle cx="113.9877" cy="62.1575" r="0.8500" /> 
<circle cx="113.9877" cy="64.6975" r="0.8500" /> 
</g>
<g style="fill:#02FFEE; fill-opacity:0.4000; stroke:none;">
<circle cx="12.3563" cy="87.4975" r="1.9000" /> 
<circle cx="107.6191" cy="87.4975" r="1.9000" /> 
<circle cx="59.9877" cy="4.9975" r="1.9000" /> 
<circle cx="39.4877" cy="59.9975" r="1.5000" /> 
<circle cx="7.8877" cy="59.9975" r="1.5000" /> 
<circle cx="39.4877" cy="51.9975" r="1.5000" /> 
<circle cx="7.8877" cy="51.9975" r="1.5000" /> 
<path style="fill:#02FFEE; fill-opacity:0.4000; stroke:none;fill-rule:evenodd;"
d="M 105.2277,78.5475
104.2277,78.5475
104.2277,79.5475
105.2277,79.5475
Z" /> 
<circle cx="105.9977" cy="79.0475" r="0.5000" /> 
<circle cx="107.2677" cy="79.0475" r="0.5000" /> 
<circle cx="108.5377" cy="79.0475" r="0.5000" /> 
<circle cx="109.8077" cy="79.0475" r="0.5000" /> 
<path style="fill:#02FFEE; fill-opacity:0.4000; stroke:none;fill-rule:evenodd;"
d="M 53.8677,83.9475
53.8867,84.0432
53.9409,84.1243
54.0220,84.1785
54.1177,84.1975
55.6977,84.1975
55.7934,84.1785
55.8745,84.1243
55.9287,84.0432
55.9477,83.9475
55.9477,80.8475
55.9287,80.7518
55.8745,80.6707
55.7934,80.6165
55.6977,80.5975
54.1177,80.5975
54.0220,80.6165
53.9409,80.6707
53.8867,80.7518
53.8677,80.8475
Z" /> 
</g>
<g style="fill:none; 
stroke:#02FFEE; stroke-width:2.0800; stroke-opacity:1; 
stroke-linecap:round; stroke-linejoin:round;">
<path d="M59.9877 83.1575
L59.9877 81.6375
" />
<path d="M65.0677 83.1575
L65.0677 81.6375
" />
<path style="fill:#02FFEE; fill-opacity:0.4000; stroke:none;fill-rule:evenodd;"
d="M 49.7377,100.1475
49.7377,101.8475
51.4377,101.8475
51.4377,100.1475
Z" /> 
</g>
<g style="fill:#02FFEE; fill-opacity:0.4000; stroke:none;">
<circle cx="50.5877" cy="98.4575" r="0.8500" /> 
<circle cx="50.5877" cy="95.9175" r="0.8500" /> 
<circle cx="50.5877" cy="93.3775" r="0.8500" /> 
<circle cx="50.5877" cy="90.8375" r="0.8500" /> 
<circle cx="50.5877" cy="88.2975" r="0.8500" /> 
<path style="fill:#02FFEE; fill-opacity:0.4000; stroke:none;fill-rule:evenodd;"
d="M 81.5277,34.8775
83.2277,34.8775
83.2277,33.1775
81.5277,33.1775
Z" /> 
<circle cx="79.8377" cy="34.0275" r="0.8500" /> 
<circle cx="77.2977" cy="34.0275" r="0.8500" /> 
<circle cx="74.7577" cy="34.0275" r="0.8500" /> 
<circle cx="72.2177" cy="34.0275" r="0.8500" /> 
<circle cx="69.6777" cy="34.0275" r="0.8500" /> 
<circle cx="67.1377" cy="34.0275" r="0.8500" /> 
<circle cx="64.5977" cy="34.0275" r="0.8500" /> 
<circle cx="62.0577" cy="34.0275" r="0.8500" /> 
<circle cx="59.5177" cy="34.0275" r="0.8500" /> 
<circle cx="56.9777" cy="34.0275" r="0.8500" /> 
<circle cx="54.4377" cy="34.0275" r="0.8500" /> 
<circle cx="51.8977" cy="34.0275" r="0.8500" /> 
<circle cx="49.3577" cy="34.0275" r="0.8500" /> 
<circle cx="46.8177" cy="34.0275" r="0.8500" /> 
<path style="fill:#02FFEE; fill-opacity:0.4000; stroke:none;fill-rule:evenodd;"
d="M 81.5277,12.0175
83.2277,12.0175
83.2277,10.3175
81.5277,10.3175
Z" /> 
<circle cx="79.8377" cy="11.1675" r="0.8500" /> 
<circle cx="77.2977" cy="11.1675" r="0.8500" /> 
<circle cx="74.7577" cy="11.1675" r="0.8500" /> 
<circle cx="72.2177" cy="11.1675" r="0.8500" /> 
<circle cx="69.6777" cy="11.1675" r="0.8500" /> 
<circle cx="67.1377" cy="11.1675" r="0.8500" /> 
<circle cx="64.5977" cy="11.1675" r="0.8500" /> 
<circle cx="62.0577" cy="11.1675" r="0.8500" /> 
<circle cx="59.5177" cy="11.1675" r="0.8500" /> 
<circle cx="56.9777" cy="11.1675" r="0.8500" /> 
<circle cx="54.4377" cy="11.1675" r="0.8500" /> 
<circle cx="51.8977" cy="11.1675" r="0.8500" /> 
<circle cx="49.3577" cy="11.1675" r="0.8500" /> 
<circle cx="46.8177" cy="11.1675" r="0.8500" /> 
<path style="fill:#02FFEE; fill-opacity:0.4000; stroke:none;fill-rule:evenodd;"
d="M 73.1677,97.2475
73.1677,98.9475
74.8677,98.9475
74.8677,97.2475
Z" /> 
<circle cx="74.0177" cy="95.5575" r="0.8500" /> 
<circle cx="74.0177" cy="93.0175" r="0.8500" /> 
<circle cx="74.0177" cy="90.4775" r="0.8500" /> 
<circle cx="74.0177" cy="87.9375" r="0.8500" /> 
<circle cx="74.0177" cy="85.3975" r="0.8500" /> 
<circle cx="74.0177" cy="82.8575" r="0.8500" /> 
<circle cx="74.0177" cy="80.3175" r="0.8500" /> 
<path style="fill:#02FFEE; fill-opacity:0.4000; stroke:none;fill-rule:evenodd;"
d="M 96.0277,97.2475
96.0277,98.9475
97.7277,98.9475
97.7277,97.2475
Z" /> 
<circle cx="96.8777" cy="95.5575" r="0.8500" /> 
<circle cx="96.8777" cy="93.0175" r="0.8500" /> 
<circle cx="96.8777" cy="90.4775" r="0.8500" /> 
<circle cx="96.8777" cy="87.9375" r="0.8500" /> 
<circle cx="96.8777" cy="85.3975" r="0.8500" /> 
<circle cx="96.8777" cy="82.8575" r="0.8500" /> 
<circle cx="96.8777" cy="80.3175" r="0.8500" /> 
<path style="fill:#02FFEE; fill-opacity:0.4000; stroke:none;fill-rule:evenodd;"
d="M 82.5377,28.2975
82.5377,26.6975
80.9377,26.6975
80.9377,28.2975
Z" /> 
<circle cx="78.2377" cy="27.4975" r="0.8000" /> 
<path style="fill:#02FFEE; fill-opacity:0.4000; stroke:none;fill-rule:evenodd;"
d="M 82.5377,19.7975
82.5377,18.1975
80.9377,18.1975
80.9377,19.7975
Z" /> 
<circle cx="78.2377" cy="18.9975" r="0.8000" /> 
<path style="fill:#02FFEE; fill-opacity:0.4000; stroke:none;fill-rule:evenodd;"
d="M 46.0377,23.7975
46.0377,22.1975
44.4377,22.1975
44.4377,23.7975
Z" /> 
<circle cx="42.7377" cy="22.9975" r="0.8000" /> 
<path style="fill:#02FFEE; fill-opacity:0.4000; stroke:none;fill-rule:evenodd;"
d="M 114.8377,52.8475
114.8377,51.1475
113.1377,51.1475
113.1377,52.8475
Z" /> 
<circle cx="113.9877" cy="54.5375" r="0.8500" /> 
<circle cx="113.9877" cy="57.0775" r="0.8500" /> 
<circle cx="113.9877" cy="59.6175" r="0.8500" /> 
<circle cx="113.9877" cy="62.1575" r="0.8500" /> 
<circle cx="113.9877" cy="64.6975" r="0.8500" /> 
</g>
<g style="fill:#000000; fill-opacity:1.0000; stroke:none;">
<circle cx="12.3563" cy="87.4975" r="1.9000" /> 
<circle cx="107.6191" cy="87.4975" r="1.9000" /> 
<circle cx="59.9877" cy="4.9975" r="1.9000" /> 
<circle cx="39.4877" cy="59.9975" r="1.5000" /> 
<circle cx="7.8877" cy="59.9975" r="1.5000" /> 
<circle cx="39.4877" cy="51.9975" r="1.5000" /> 
<circle cx="7.8877" cy="51.9975" r="1.5000" /> 
</g>
<g style="fill:#FFFFFF; fill-opacity:1.0000; stroke:none;">
<circle cx="104.7277" cy="79.0475" r="0.3250" /> 
</g>
<g style="fill:#FFFFFF; fill-opacity:1.0000; stroke:none;">
<circle cx="105.9977" cy="79.0475" r="0.3250" /> 
</g>
<g style="fill:#FFFFFF; fill-opacity:1.0000; stroke:none;">
<circle cx="107.2677" cy="79.0475" r="0.3250" /> 
</g>
<g style="fill:#FFFFFF; fill-opacity:1.0000; stroke:none;">
<circle cx="108.5377" cy="79.0475" r="0.3250" /> 
</g>
<g style="fill:#FFFFFF; fill-opacity:1.0000; stroke:none;">
<circle cx="109.8077" cy="79.0475" r="0.3250" /> 
</g>
<g style="fill:#FFFFFF; fill-opacity:1.0000; stroke:none;">
<circle cx="54.9077" cy="82.3975" r="0.7000" /> 
</g>
<g style="fill:#FFFFFF; fill-opacity:1.0000; stroke:none;">
<circle cx="59.9877" cy="82.3975" r="0.7000" /> 
</g>
<g style="fill:#FFFFFF; fill-opacity:1.0000; stroke:none;">
<circle cx="65.0677" cy="82.3975" r="0.7000" /> 
</g>
<g style="fill:#FFFFFF; fill-opacity:1.0000; stroke:none;">
<circle cx="50.5877" cy="100.9975" r="0.5000" /> 
</g>
<g style="fill:#FFFFFF; fill-opacity:1.0000; stroke:none;">
<circle cx="50.5877" cy="98.4575" r="0.5000" /> 
</g>
<g style="fill:#FFFFFF; fill-opacity:1.0000; stroke:none;">
<circle cx="50.5877" cy="95.9175" r="0.5000" /> 
</g>
<g style="fill:#FFFFFF; fill-opacity:1.0000; stroke:none;">
<circle cx="50.5877" cy="93.3775" r="0.5000" /> 
</g>
<g style="fill:#FFFFFF; fill-opacity:1.0000; stroke:none;">
<circle cx="50.5877" cy="90.8375" r="0.5000" /> 
</g>
<g style="fill:#FFFFFF; fill-opacity:1.0000; stroke:none;">
<circle cx="50.5877" cy="88.2975" r="0.5000" /> 
</g>
<g style="fill:#FFFFFF; fill-opacity:1.0000; stroke:none;">
<circle cx="82.3777" cy="34.0275" r="0.5000" /> 
</g>
<g style="fill:#FFFFFF; fill-opacity:1.0000; stroke:none;">
<circle cx="79.8377" cy="34.0275" r="0.5000" /> 
</g>
<g style="fill:#FFFFFF; fill-opacity:1.0000; stroke:none;">
<circle cx="77.2977" cy="34.0275" r="0.5000" /> 
</g>
<g style="fill:#FFFFFF; fill-opacity:1.0000; stroke:none;">
<circle cx="74.7577" cy="34.0275" r="0.5000" /> 
</g>
<g style="fill:#FFFFFF; fill-opacity:1.0000; stroke:none;">
<circle cx="72.2177" cy="34.0275" r="0.5000" /> 
</g>
<g style="fill:#FFFFFF; fill-opacity:1.0000; stroke:none;">
<circle cx="69.6777" cy="34.0275" r="0.5000" /> 
</g>
<g style="fill:#FFFFFF; fill-opacity:1.0000; stroke:none;">
<circle cx="67.1377" cy="34.0275" r="0.5000" /> 
</g>
<g style="fill:#FFFFFF; fill-opacity:1.0000; stroke:none;">
<circle cx="64.5977" cy="34.0275" r="0.5000" /> 
</g>
<g style="fill:#FFFFFF; fill-opacity:1.0000; stroke:none;">
<circle cx="62.0577" cy="34.0275" r="0.5000" /> 
</g>
<g style="fill:#FFFFFF; fill-opacity:1.0000; stroke:none;">
<circle cx="59.5177" cy="34.0275" r="0.5000" /> 
</g>
<g style="fill:#FFFFFF; fill-opacity:1.0000; stroke:none;">
<circle cx="56.9777" cy="34.0275" r="0.5000" /> 
</g>
<g style="fill:#FFFFFF; fill-opacity:1.0000; stroke:none;">
<circle cx="54.4377" cy="34.0275" r="0.5000" /> 
</g>
<g style="fill:#FFFFFF; fill-opacity:1.0000; stroke:none;">
<circle cx="51.8977" cy="34.0275" r="0.5000" /> 
</g>
<g style="fill:#FFFFFF; fill-opacity:1.0000; stroke:none;">
<circle cx="49.3577" cy="34.0275" r="0.5000" /> 
</g>
<g style="fill:#FFFFFF; fill-opacity:1.0000; stroke:none;">
<circle cx="46.8177" cy="34.0275" r="0.5000" /> 
</g>
<g style="fill:#FFFFFF; fill-opacity:1.0000; stroke:none;">
<circle cx="82.3777" cy="11.1675" r="0.5000" /> 
</g>
<g style="fill:#FFFFFF; fill-opacity:1.0000; stroke:none;">
<circle cx="79.8377" cy="11.1675" r="0.5000" /> 
</g>
<g style="fill:#FFFFFF; fill-opacity:1.0000; stroke:none;">
<circle cx="77.2977" cy="11.1675" r="0.5000" /> 
</g>
<g style="fill:#FFFFFF; fill-opacity:1.0000; stroke:none;">
<circle cx="74.7577" cy="11.1675" r="0.5000" /> 
</g>
<g style="fill:#FFFFFF; fill-opacity:1.0000; stroke:none;">
<circle cx="72.2177" cy="11.1675" r="0.5000" /> 
</g>
<g style="fill:#FFFFFF; fill-opacity:1.0000; stroke:none;">
<circle cx="69.6777" cy="11.1675" r="0.5000" /> 
</g>
<g style="fill:#FFFFFF; fill-opacity:1.0000; stroke:none;">
<circle cx="67.1377" cy="11.1675" r="0.5000" /> 
</g>
<g style="fill:#FFFFFF; fill-opacity:1.0000; stroke:none;">
<circle cx="64.5977" cy="11.1675" r="0.5000" /> 
</g>
<g style="fill:#FFFFFF; fill-opacity:1.0000; stroke:none;">
<circle cx="62.0577" cy="11.1675" r="0.5000" /> 
</g>
<g style="fill:#FFFFFF; fill-opacity:1.0000; stroke:none;">
<circle cx="59.5177" cy="11.1675" r="0.5000" /> 
</g>
<g style="fill:#FFFFFF; fill-opacity:1.0000; stroke:none;">
<circle cx="56.9777" cy="11.1675" r="0.5000" /> 
</g>
<g style="fill:#FFFFFF; fill-opacity:1.0000; stroke:none;">
<circle cx="54.4377" cy="11.1675" r="0.5000" /> 
</g>
<g style="fill:#FFFFFF; fill-opacity:1.0000; stroke:none;">
<circle cx="51.8977" cy="11.1675" r="0.5000" /> 
</g>
<g style="fill:#FFFFFF; fill-opacity:1.0000; stroke:none;">
<circle cx="49.3577" cy="11.1675" r="0.5000" /> 
</g>
<g style="fill:#FFFFFF; fill-opacity:1.0000; stroke:none;">
<circle cx="46.8177" cy="11.1675" r="0.5000" /> 
</g>
<g style="fill:#FFFFFF; fill-opacity:1.0000; stroke:none;">
<circle cx="74.0177" cy="98.0975" r="0.5000" /> 
</g>
<g style="fill:#FFFFFF; fill-opacity:1.0000; stroke:none;">
<circle cx="74.0177" cy="95.5575" r="0.5000" /> 
</g>
<g style="fill:#FFFFFF; fill-opacity:1.0000; stroke:none;">
<circle cx="74.0177" cy="93.0175" r="0.5000" /> 
</g>
<g style="fill:#FFFFFF; fill-opacity:1.0000; stroke:none;">
<circle cx="74.0177" cy="90.4775" r="0.5000" /> 
</g>
<g style="fill:#FFFFFF; fill-opacity:1.0000; stroke:none;">
<circle cx="74.0177" cy="87.9375" r="0.5000" /> 
</g>
<g style="fill:#FFFFFF; fill-opacity:1.0000; stroke:none;">
<circle cx="74.0177" cy="85.3975" r="0.5000" /> 
</g>
<g style="fill:#FFFFFF; fill-opacity:1.0000; stroke:none;">
<circle cx="74.0177" cy="82.8575" r="0.5000" /> 
</g>
<g style="fill:#FFFFFF; fill-opacity:1.0000; stroke:none;">
<circle cx="74.0177" cy="80.3175" r="0.5000" /> 
</g>
<g style="fill:#FFFFFF; fill-opacity:1.0000; stroke:none;">
<circle cx="96.8777" cy="98.0975" r="0.5000" /> 
</g>
<g style="fill:#FFFFFF; fill-opacity:1.0000; stroke:none;">
<circle cx="96.8777" cy="95.5575" r="0.5000" /> 
</g>
<g style="fill:#FFFFFF; fill-opacity:1.0000; stroke:none;">
<circle cx="96.8777" cy="93.0175" r="0.5000" /> 
</g>
<g style="fill:#FFFFFF; fill-opacity:1.0000; stroke:none;">
<circle cx="96.8777" cy="90.4775" r="0.5000" /> 
</g>
<g style="fill:#FFFFFF; fill-opacity:1.0000; stroke:none;">
<circle cx="96.8777" cy="87.9375" r="0.5000" /> 
</g>
<g style="fill:#FFFFFF; fill-opacity:1.0000; stroke:none;">
<circle cx="96.8777" cy="85.3975" r="0.5000" /> 
</g>
<g style="fill:#FFFFFF; fill-opacity:1.0000; stroke:none;">
<circle cx="96.8777" cy="82.8575" r="0.5000" /> 
</g>
<g style="fill:#FFFFFF; fill-opacity:1.0000; stroke:none;">
<circle cx="96.8777" cy="80.3175" r="0.5000" /> 
</g>
<g style="fill:#FFFFFF; fill-opacity:1.0000; stroke:none;">
<circle cx="81.7377" cy="27.4975" r="0.4000" /> 
</g>
<g style="fill:#FFFFFF; fill-opacity:1.0000; stroke:none;">
<circle cx="78.2377" cy="27.4975" r="0.4000" /> 
</g>
<g style="fill:#FFFFFF; fill-opacity:1.0000; stroke:none;">
<circle cx="81.7377" cy="18.9975" r="0.4000" /> 
</g>
<g style="fill:#FFFFFF; fill-opacity:1.0000; stroke:none;">
<circle cx="78.2377" cy="18.9975" r="0.4000" /> 
</g>
<g style="fill:#FFFFFF; fill-opacity:1.0000; stroke:none;">
<circle cx="45.2377" cy="22.9975" r="0.4000" /> 
</g>
<g style="fill:#FFFFFF; fill-opacity:1.0000; stroke:none;">
<circle cx="42.7377" cy="22.9975" r="0.4000" /> 
</g>
<g style="fill:#FFFFFF; fill-opacity:1.0000; stroke:none;">
<circle cx="113.9877" cy="51.9975" r="0.5000" /> 
</g>
<g style="fill:#FFFFFF; fill-opacity:1.0000; stroke:none;">
<circle cx="113.9877" cy="54.5375" r="0.5000" /> 
</g>
<g style="fill:#FFFFFF; fill-opacity:1.0000; stroke:none;">
<circle cx="113.9877" cy="57.0775" r="0.5000" /> 
</g>
<g style="fill:#FFFFFF; fill-opacity:1.0000; stroke:none;">
<circle cx="113.9877" cy="59.6175" r="0.5000" /> 
</g>
<g style="fill:#FFFFFF; fill-opacity:1.0000; stroke:none;">
<circle cx="113.9877" cy="62.1575" r="0.5000" /> 
</g>
<g style="fill:#FFFFFF; fill-opacity:1.0000; stroke:none;">
<circle cx="113.9877" cy="64.6975" r="0.5000" /> 
</g> 
</svg>
